<svg width="81" height="9" viewBox="0 0 81 9" fill="none" xmlns="http://www.w3.org/2000/svg">
<g clip-path="url(#clip0_740_2649)">
<path fill-rule="evenodd" clip-rule="evenodd" d="M2.72237 0.389175C2.97702 0.139715 3.3193 0 3.67577 0C4.03225 0 4.37453 0.139715 4.62917 0.389175L5.88317 1.61718C6.01272 1.74404 6.11564 1.89548 6.1859 2.06262C6.25616 2.22977 6.29235 2.40926 6.29235 2.59058C6.29235 2.77189 6.25616 2.95138 6.1859 3.11853C6.11564 3.28568 6.01272 3.43712 5.88317 3.56398L3.69757 5.70437L5.26517 7.23997C5.40855 7.38049 5.49024 7.5722 5.49226 7.77294C5.49429 7.97368 5.41648 8.167 5.27597 8.31037C5.13546 8.45375 4.94375 8.53543 4.74301 8.53746C4.54227 8.53949 4.34895 8.46168 4.20557 8.32117L0.408773 4.60158C0.27935 4.47473 0.176534 4.32334 0.106344 4.15626C0.0361537 3.98919 0 3.80979 0 3.62858C0 3.44736 0.0361537 3.26796 0.106344 3.10089C0.176534 2.93381 0.27935 2.78242 0.408773 2.65557L2.72237 0.389175ZM2.61637 4.64518L4.71317 2.59078L3.67557 1.57438L1.57837 3.62878L2.61637 4.64477V4.64518Z" fill="white"/>
<path fill-rule="evenodd" clip-rule="evenodd" d="M5.90124 1.42717C6.15589 1.17771 6.49816 1.038 6.85464 1.038C7.21112 1.038 7.55339 1.17771 7.80804 1.42717L9.06204 2.65517C9.19152 2.78203 9.29439 2.93344 9.36462 3.10055C9.43484 3.26766 9.47102 3.44711 9.47102 3.62838C9.47102 3.80964 9.43484 3.98908 9.36462 4.1562C9.29439 4.32331 9.19152 4.47472 9.06204 4.60157L5.26524 8.32117C5.12186 8.46168 4.92854 8.53948 4.7278 8.53746C4.52706 8.53543 4.33535 8.45375 4.19484 8.31037C4.05433 8.167 3.97653 7.97368 3.97855 7.77294C3.98058 7.5722 4.06226 7.38049 4.20564 7.23997L5.77284 5.70437L4.64724 4.60157C4.51782 4.47473 4.415 4.32334 4.34481 4.15626C4.27462 3.98919 4.23847 3.80979 4.23847 3.62857C4.23847 3.44736 4.27462 3.26796 4.34481 3.10089C4.415 2.93381 4.51782 2.78242 4.64724 2.65557L5.90124 1.42717ZM6.85444 4.64518L7.89204 3.62878L6.85444 2.61198L5.81684 3.62838L6.85444 4.64518Z" fill="white"/>
<path opacity="0.95" d="M5.81634 3.63117L4.71394 2.58437L3.65674 3.62237L4.73274 4.69317L5.81634 3.63117Z" fill="white"/>
<path d="M13.4712 6.26875H14.5432V4.19675H15.9112C17.0472 4.19675 17.8072 3.50875 17.8072 2.47675C17.8072 1.46075 17.0472 0.780746 15.9112 0.780746H13.4712V6.26875ZM14.5432 3.23675V1.74075H15.9112C16.4072 1.74075 16.7352 2.03675 16.7352 2.47675C16.7352 2.93275 16.4072 3.23675 15.9112 3.23675H14.5432V3.23675ZM19.8748 6.38075C20.8508 6.38075 21.6828 5.78875 21.9468 4.90875H20.9704C20.7864 5.30875 20.3464 5.58075 19.8744 5.58075C19.2504 5.58075 18.7704 5.16475 18.6824 4.53275H21.9624L22.0424 4.45275V4.26875C22.0424 3.00475 21.1784 2.15675 19.8744 2.15675C18.5704 2.15675 17.7064 3.00475 17.7064 4.26875C17.7064 5.53275 18.5704 6.38075 19.8744 6.38075H19.8748ZM18.7468 3.73275C18.9308 3.23675 19.3388 2.95675 19.8748 2.95675C20.4108 2.95675 20.8188 3.23675 21.0028 3.73275H18.7468V3.73275ZM22.5768 6.26875H23.5368V3.90075C23.5368 3.36475 23.9608 3.00475 24.6008 3.00475H24.9288V2.26875C24.8168 2.22075 24.6488 2.18875 24.5048 2.18875C24.1368 2.18875 23.7448 2.41275 23.5368 2.74075V2.26875H22.5768V6.26875V6.26875ZM27.77 2.15675C27.282 2.15675 26.746 2.38075 26.442 2.70875V2.26875H25.482V7.75675H26.442V5.82875C26.746 6.15675 27.282 6.38075 27.77 6.38075C29.034 6.38075 29.882 5.53275 29.882 4.26875C29.882 3.00475 29.034 2.15675 27.77 2.15675ZM27.674 3.00475C28.426 3.00475 28.922 3.50875 28.922 4.26875C28.922 5.02875 28.426 5.53275 27.674 5.53275C26.938 5.53275 26.442 5.02875 26.442 4.26875C26.442 3.50875 26.938 3.00475 27.674 3.00475ZM32.4264 6.38075C33.4024 6.38075 34.2344 5.78875 34.4984 4.90875H33.5224C33.3384 5.30875 32.8984 5.58075 32.4264 5.58075C31.8024 5.58075 31.3224 5.16475 31.2344 4.53275H34.5144L34.5944 4.45275V4.26875C34.5944 3.00475 33.7304 2.15675 32.4264 2.15675C31.1224 2.15675 30.2584 3.00475 30.2584 4.26875C30.2584 5.53275 31.1224 6.38075 32.4264 6.38075ZM31.2984 3.73275C31.4824 3.23675 31.8904 2.95675 32.4264 2.95675C32.9624 2.95675 33.3704 3.23675 33.5544 3.73275H31.2984V3.73275ZM36.632 6.38075C36.896 6.38075 37.168 6.33275 37.312 6.26875V5.58075H36.616C36.408 5.58075 36.264 5.44475 36.264 5.24475V3.06875H37.272V2.26875H36.264V0.780746H35.304V2.26875H34.664V3.06875H35.304V5.24475C35.304 5.92475 35.832 6.38075 36.632 6.38075ZM41.734 2.26875H40.774V4.64475C40.774 5.18075 40.382 5.53275 39.798 5.53275C39.214 5.53275 38.822 5.18075 38.822 4.64475V2.26875H37.862V4.75675C37.862 5.73275 38.59 6.38075 39.686 6.38075C40.078 6.38075 40.51 6.22075 40.774 5.97275V6.26875H41.734V2.26875ZM44.3512 6.38075C44.8232 6.38075 45.3432 6.16475 45.6472 5.83675V6.26875H46.6072V2.26875H45.6472V2.70075C45.3432 2.37275 44.8232 2.15675 44.3512 2.15675C43.1032 2.15675 42.2712 3.00475 42.2712 4.26875C42.2712 5.53275 43.1032 6.38075 44.3512 6.38075ZM44.4472 5.53275C43.7192 5.53275 43.2312 5.02875 43.2312 4.26875C43.2312 3.50875 43.7192 3.00475 44.4472 3.00475C45.1672 3.00475 45.6472 3.50875 45.6472 4.26875C45.6472 5.02875 45.1672 5.53275 44.4472 5.53275ZM47.3052 6.26875H48.2652V0.780746H47.3052V6.26875ZM51.0168 6.26875H52.0888V4.19675H53.4568C54.5928 4.19675 55.3528 3.50875 55.3528 2.47675C55.3528 1.46075 54.5928 0.780746 53.4568 0.780746H51.0168V6.26875ZM52.0888 3.23675V1.74075H53.4568C53.9528 1.74075 54.2808 2.03675 54.2808 2.47675C54.2808 2.93275 53.9528 3.23675 53.4568 3.23675H52.0888V3.23675ZM55.7324 6.26875H56.6924V3.90075C56.6924 3.36475 57.1164 3.00475 57.7564 3.00475H58.0844V2.26875C57.9724 2.22075 57.8044 2.18875 57.6604 2.18875C57.2924 2.18875 56.9004 2.41275 56.6924 2.74075V2.26875H55.7324V6.26875ZM60.2472 6.38075C61.5512 6.38075 62.4152 5.53275 62.4152 4.26875C62.4152 3.00475 61.5512 2.15675 60.2472 2.15675C58.9432 2.15675 58.0792 3.00475 58.0792 4.26875C58.0792 5.53275 58.9432 6.38075 60.2472 6.38075ZM60.2472 5.53275C59.5192 5.53275 59.0392 5.02875 59.0392 4.26875C59.0392 3.50875 59.5192 3.00475 60.2472 3.00475C60.9752 3.00475 61.4552 3.50875 61.4552 4.26875C61.4552 5.02875 60.9752 5.53275 60.2472 5.53275ZM64.5308 6.38075C64.7948 6.38075 65.0668 6.33275 65.2108 6.26875V5.58075H64.5148C64.3068 5.58075 64.1628 5.44475 64.1628 5.24475V3.06875H65.1708V2.26875H64.1628V0.780746H63.2028V2.26875H62.5628V3.06875H63.2028V5.24475C63.2028 5.92475 63.7308 6.38075 64.5308 6.38075V6.38075ZM67.6124 6.38075C68.9164 6.38075 69.7804 5.53275 69.7804 4.26875C69.7804 3.00475 68.9164 2.15675 67.6124 2.15675C66.3084 2.15675 65.4444 3.00475 65.4444 4.26875C65.4444 5.53275 66.3084 6.38075 67.6124 6.38075ZM67.6124 5.53275C66.8844 5.53275 66.4044 5.02875 66.4044 4.26875C66.4044 3.50875 66.8844 3.00475 67.6124 3.00475C68.3404 3.00475 68.8204 3.50875 68.8204 4.26875C68.8204 5.02875 68.3404 5.53275 67.6124 5.53275ZM72.3224 6.38075C73.4104 6.38075 74.2504 5.68475 74.4184 4.64475H73.4984C73.3784 5.18075 72.9064 5.53275 72.3224 5.53275C71.5944 5.53275 71.1144 5.02875 71.1144 4.26875C71.1144 3.50875 71.5944 3.00475 72.3224 3.00475C72.8984 3.00475 73.3624 3.34075 73.4904 3.85275H74.4104C74.2344 2.83675 73.4024 2.15675 72.3224 2.15675C71.0184 2.15675 70.1544 3.00475 70.1544 4.26875C70.1544 5.53275 71.0184 6.38075 72.3224 6.38075V6.38075ZM76.962 6.38075C78.266 6.38075 79.13 5.53275 79.13 4.26875C79.13 3.00475 78.266 2.15675 76.962 2.15675C75.658 2.15675 74.794 3.00475 74.794 4.26875C74.794 5.53275 75.658 6.38075 76.962 6.38075ZM76.962 5.53275C76.234 5.53275 75.754 5.02875 75.754 4.26875C75.754 3.50875 76.234 3.00475 76.962 3.00475C77.69 3.00475 78.17 3.50875 78.17 4.26875C78.17 5.02875 77.69 5.53275 76.962 5.53275ZM79.586 6.26875H80.546V0.780746H79.586V6.26875Z" fill="white"/>
</g>
<defs>
<clipPath id="clip0_740_2649">
<rect width="80.5457" height="8.5375" fill="white"/>
</clipPath>
</defs>
</svg>
