<svg width="244" height="40" viewBox="0 0 244 40" fill="none" xmlns="http://www.w3.org/2000/svg">
<g clip-path="url(#clip0_907_3093)">
<path fill-rule="evenodd" clip-rule="evenodd" d="M29.257 28.5775C26.3104 28.5775 25.0233 26.0141 25.0233 23.1697C25.0233 20.3248 26.3104 17.7964 29.257 17.7964C32.1023 17.7964 33.4231 20.1845 33.4231 23.1697C33.4231 26.1544 32.1023 28.5775 29.257 28.5775ZM25.0233 15.7948V14.1437H20.4507V39.219H25.1928V30.5446H26.0735C26.9879 31.8087 28.3766 32.6511 30.781 32.6511C35.354 32.6511 38.1648 28.6832 38.1648 23.1697C38.1648 17.726 35.3878 13.6873 30.781 13.6873C28.3425 13.6873 26.8522 14.5655 25.904 15.7948H25.0233ZM45.6565 32.1947H40.9144V6.66339H45.6565V32.1947ZM59.8447 24.9606V23.8368H56.119C54.0869 23.8368 52.8673 24.6092 52.8673 26.2597C52.8673 27.9104 54.0186 28.7531 55.9495 28.7531C58.2527 28.7531 59.8447 27.2084 59.8447 24.9606ZM60.0479 30.6494H59.1676C58.1174 31.914 56.5929 32.6511 54.2898 32.6511C50.3609 32.6511 48.1257 29.8421 48.1257 26.6462C48.1257 23.8368 50.0561 20.6409 55.2046 20.6409H59.8447V20.1845C59.8447 18.3227 58.8282 17.375 56.7623 17.375C54.8656 17.375 53.9512 18.0775 53.8159 19.3067H49.108C49.2091 15.8298 52.3251 13.6873 56.5255 13.6873C61.2334 13.6873 64.4173 15.6186 64.4173 20.4656V32.1951H60.0479V30.6494ZM74.5149 17.48C76.0389 17.48 77.0891 17.8663 77.326 19.0956H82.0343C81.6613 15.8647 79.0196 13.6873 74.6506 13.6873C69.5021 13.6873 67.2326 16.2507 67.2326 19.3417C67.2326 22.4318 69.1631 23.8018 71.9068 24.3285L75.2939 24.8902C77.0212 25.2062 77.8003 25.6626 77.8003 26.8923C77.8003 28.1915 76.6827 28.8585 74.7859 28.8585C72.7875 28.8585 71.5683 28.1561 71.3309 26.5054H66.623C66.9953 30.2635 69.5358 32.6511 74.8196 32.6511C79.934 32.6511 82.542 29.8071 82.542 26.7865C82.542 23.1697 80.2725 21.5186 76.9875 20.9919L73.8378 20.5006C72.6518 20.2549 71.9747 20.0088 71.9747 19.0256C71.9747 17.9367 73.0586 17.48 74.5149 17.48ZM111.004 20.8166V32.1951H106.262V21.7647C106.262 19.3767 105.517 18.0425 103.62 18.0425C101.453 18.0425 100.437 19.7626 100.437 22.1157V32.1951H95.6948V21.7647C95.6948 19.4116 94.9494 18.0425 93.0526 18.0425C90.7832 18.0425 89.835 20.0787 89.835 22.5026V32.1951H85.0929V14.1437H89.6655V15.7948H90.5462C91.3932 14.3898 92.8494 13.6873 94.8815 13.6873C96.9476 13.6873 98.4039 14.3898 99.319 15.7948H100.2C101.215 14.3898 102.807 13.6873 104.942 13.6873C109.107 13.6873 111.004 16.4619 111.004 20.8166ZM125.055 23.8368V24.9606C125.055 27.2084 123.464 28.7531 121.16 28.7531C119.229 28.7531 118.078 27.9104 118.078 26.2597C118.078 24.6092 119.297 23.8368 121.33 23.8368H125.055ZM124.378 30.6494H125.259V32.1951H129.628V20.4656C129.628 15.6186 126.444 13.6873 121.736 13.6873C117.536 13.6873 114.42 15.8298 114.319 19.3067H119.026C119.162 18.0775 120.076 17.375 121.973 17.375C124.039 17.375 125.055 18.3227 125.055 20.1845V20.6409H120.415C115.267 20.6409 113.336 23.8368 113.336 26.6462C113.336 29.8421 115.571 32.6511 119.5 32.6511C121.804 32.6511 123.328 31.914 124.378 30.6494Z" fill="white"/>
<path fill-rule="evenodd" clip-rule="evenodd" d="M13.6464 7.20359C13.6464 10.9055 10.7183 13.9065 7.10677 13.9065C3.49487 13.9065 0.567139 10.9055 0.567139 7.20359C0.567139 3.50127 3.49487 0.500244 7.10677 0.500244C10.7183 0.500244 13.6464 3.50127 13.6464 7.20359Z" fill="#FE453D"/>
<path d="M137.022 32.1874V16.5413H134.242V14.1585H137.022V12.6256C137.022 10.6149 137.58 9.04864 138.696 7.9267C139.823 6.80475 141.41 6.24377 143.459 6.24377C144.673 6.24377 146.206 6.58258 148.059 7.26019L147.555 9.85956C146.201 9.30414 144.911 9.02642 143.687 9.02642C142.397 9.02642 141.465 9.32635 140.891 9.92621C140.327 10.5149 140.045 11.4036 140.045 12.5922V14.1585H143.638V16.5413H140.045V32.1874H137.022ZM149.555 32.1874H146.532V14.1585H149.555V32.1874Z" fill="white"/>
<path d="M157.293 14.1585L157.391 16.4247C158.734 14.6917 160.49 13.8253 162.658 13.8253C166.375 13.8253 168.25 15.9747 168.282 20.2737V32.1874H165.275V20.257C165.264 18.9574 164.971 17.9964 164.397 17.3744C163.834 16.7523 162.95 16.4413 161.748 16.4413C160.772 16.4413 159.915 16.7079 159.179 17.2411C158.442 17.7743 157.868 18.4742 157.456 19.3406V32.1874H154.448V14.1585H157.293Z" fill="white"/>
<path d="M183.677 32.1874C183.504 31.8319 183.363 31.1988 183.255 30.2879C181.856 31.7765 180.187 32.5207 178.247 32.5207C176.513 32.5207 175.088 32.0208 173.972 31.021C172.866 30.0102 172.314 28.7328 172.314 27.1887C172.314 25.3113 173.007 23.8562 174.395 22.823C175.792 21.7789 177.755 21.2568 180.279 21.2568H183.205V19.8405C183.205 18.7629 182.891 17.9076 182.262 17.2744C181.634 16.6301 180.707 16.308 179.483 16.308C178.41 16.308 177.51 16.5857 176.784 17.1411C176.059 17.6965 175.695 18.3686 175.695 19.1573H172.671C172.671 18.2576 172.98 17.3911 173.598 16.5579C174.227 15.7137 175.072 15.0472 176.134 14.5585C177.207 14.0696 178.382 13.8253 179.662 13.8253C181.688 13.8253 183.275 14.3474 184.425 15.3915C185.574 16.4247 186.169 17.8521 186.213 19.6738V27.9718C186.213 29.6269 186.418 30.9433 186.83 31.9209V32.1874H183.677ZM178.686 29.838C179.629 29.838 180.524 29.5881 181.368 29.0882C182.214 28.5883 182.826 27.9385 183.205 27.1387V23.4396H180.848C177.164 23.4396 175.321 24.5448 175.321 26.7555C175.321 27.7219 175.635 28.4773 176.264 29.0216C176.893 29.5658 177.7 29.838 178.686 29.838Z" fill="white"/>
<path d="M193.772 14.1585L193.869 16.4247C195.213 14.6917 196.969 13.8253 199.136 13.8253C202.854 13.8253 204.728 15.9747 204.762 20.2737V32.1874H201.754V20.257C201.743 18.9574 201.45 17.9964 200.876 17.3744C200.313 16.7523 199.429 16.4413 198.226 16.4413C197.251 16.4413 196.395 16.7079 195.658 17.2411C194.92 17.7743 194.347 18.4742 193.935 19.3406V32.1874H190.927V14.1585H193.772Z" fill="white"/>
<path d="M216.352 30.0046C217.425 30.0046 218.362 29.6714 219.164 29.0049C219.966 28.3384 220.41 27.5052 220.497 26.5055H223.342C223.288 27.5386 222.941 28.5217 222.301 29.4547C221.662 30.3879 220.806 31.1321 219.733 31.6875C218.671 32.243 217.544 32.5207 216.352 32.5207C213.957 32.5207 212.049 31.7042 210.63 30.0713C209.221 28.4272 208.516 26.1833 208.516 23.3396V22.823C208.516 21.0679 208.831 19.5072 209.459 18.1408C210.088 16.7745 210.987 15.7137 212.157 14.9583C213.339 14.203 214.731 13.8253 216.335 13.8253C218.308 13.8253 219.944 14.4307 221.245 15.6415C222.556 16.8523 223.255 18.4241 223.342 20.357H220.497C220.41 19.1906 219.977 18.2353 219.196 17.4911C218.427 16.7357 217.474 16.358 216.335 16.358C214.807 16.358 213.62 16.9245 212.776 18.0575C211.941 19.1795 211.524 20.8069 211.524 22.9397V23.5229C211.524 25.6001 211.941 27.1998 212.776 28.3217C213.61 29.4437 214.802 30.0046 216.352 30.0046Z" fill="white"/>
<path d="M234.022 32.5207C231.638 32.5207 229.698 31.7209 228.203 30.1213C226.707 28.5106 225.96 26.3611 225.96 23.6729V23.1063C225.96 21.3179 226.29 19.7239 226.951 18.3241C227.623 16.9134 228.555 15.8137 229.747 15.0249C230.95 14.2251 232.25 13.8253 233.648 13.8253C235.935 13.8253 237.713 14.5973 238.981 16.1414C240.249 17.6854 240.882 19.896 240.882 22.7731V24.0561H228.966C229.01 25.8335 229.514 27.272 230.479 28.3717C231.454 29.4604 232.689 30.0046 234.185 30.0046C235.247 30.0046 236.146 29.7824 236.883 29.3381C237.621 28.8938 238.266 28.3051 238.818 27.5719L240.655 29.0382C239.181 31.3598 236.97 32.5207 234.022 32.5207ZM233.648 16.358C232.435 16.358 231.416 16.8134 230.592 17.7243C229.768 18.6241 229.259 19.8904 229.064 21.5234H237.876V21.2901C237.788 19.7239 237.376 18.513 236.64 17.6576C235.903 16.7912 234.906 16.358 233.648 16.358Z" fill="white"/>
</g>
<defs>
<clipPath id="clip0_907_3093">
<rect width="242.561" height="39" fill="white" transform="translate(0.567139 0.5)"/>
</clipPath>
</defs>
</svg>
