<svg width="841" height="208" viewBox="0 0 841 208" fill="none" xmlns="http://www.w3.org/2000/svg">
<path d="M0.236328 1.2149C0.236328 1.33067 11.3498 12.531 24.9233 26.0755L49.5812 50.7335L71.5766 50.8203L93.572 50.9071L95.5979 51.5728C101.241 53.4539 105.93 58.0845 107.637 63.4966C108.477 66.1302 108.65 69.7768 108.072 72.3237C106.538 78.8644 101.241 84.2764 94.7297 85.9261C93.2247 86.3023 87.1181 86.3602 46.6003 86.3602C5.93776 86.3602 0.207387 86.4181 0.323152 86.7943C0.438917 87.0258 25.7336 114.289 56.585 147.397L112.673 207.595H147.924C167.285 207.624 183.145 207.537 183.145 207.393C183.145 207.277 167.488 190.375 148.329 169.856L113.513 132.522L115.857 131.566C126.768 127.167 136.55 119.758 144.132 110.237C149.516 103.436 154.175 93.9718 156.375 85.2315C160.745 67.8957 158.111 49.6337 149.052 34.3527C138.257 16.1486 119.793 4.02222 98.9261 1.4175C95.8005 1.04126 88.8835 0.983383 47.7869 0.983383C21.6239 0.983383 0.236328 1.07021 0.236328 1.2149Z" fill="white"/>
<path d="M408.598 75.3625V149.742H418.814H429.031L429.696 146.5C430.073 144.706 430.478 143.056 430.594 142.854C430.738 142.564 431.172 142.767 432.214 143.693C436.324 147.253 441.996 149.857 448.392 151.102C451.576 151.71 460.229 151.796 463.731 151.218C474.671 149.51 483.411 144.851 491.226 136.66C500.082 127.341 504.249 115.446 503.728 100.86C503.323 89.0227 499.908 79.7326 492.904 71.3396C486.074 63.1492 476.871 57.6214 466.336 55.393C462.632 54.6115 454.21 54.2932 450.418 54.7852C443.53 55.7113 437.453 58.2003 432.619 62.1073L430.883 63.5255V32.2399V0.983322H419.741H408.598V75.3625ZM462.718 76.086C465.439 76.8095 469.549 78.8354 471.545 80.4561C475.713 83.9001 479.041 89.6305 480.373 95.7661C480.951 98.3418 481.183 103.088 480.922 106.272C480.257 113.912 477.536 119.903 472.645 124.592C469.028 128.065 464.802 129.946 459.13 130.64C447.061 132.174 436.816 126.386 431.751 115.215C430.246 111.915 429.696 109.195 429.523 104.506C429.291 98.2261 430.015 94.4058 432.359 89.7173C436.179 82.0479 442.575 77.1279 450.852 75.5361C452.531 75.2178 460.866 75.594 462.718 76.086Z" fill="white"/>
<path d="M525.318 20.4898C522.308 21.4738 519.704 23.7891 518.343 26.6833C517.649 28.1303 517.562 28.6802 517.562 31.3718C517.562 34.2369 517.62 34.5553 518.488 36.3207C519.617 38.636 521.701 40.6619 524.016 41.7327C525.463 42.4273 526.013 42.5142 528.704 42.5142C531.425 42.5142 531.917 42.4273 533.509 41.7038C535.65 40.7198 537.908 38.4913 539.036 36.2918C539.789 34.8447 539.847 34.4395 539.847 31.5165C539.847 28.6223 539.76 28.1593 539.008 26.5386C537.995 24.3101 535.737 22.0816 533.422 21.0108C531.396 20.0847 527.344 19.8242 525.318 20.4898Z" fill="white"/>
<path d="M279.085 54.9879C273.934 56.1456 269.68 58.5477 265.57 62.6573C264.152 64.0465 263.023 65.1463 263.023 65.1174C263.023 65.0595 262.647 63.0915 262.155 60.7472C261.692 58.403 261.287 56.406 261.287 56.3481C261.287 56.3192 256.656 56.2613 251.012 56.2613H240.738V103.002V149.742H252.17H263.602V121.727C263.602 90.4699 263.486 92.2932 265.686 87.8073C267.683 83.6977 272.111 79.7617 276.423 78.2567C279.028 77.3306 281.517 77.0991 289.012 77.0991H296.016V66.9985V56.898L294.656 56.3192C291.588 55.0168 290.17 54.7564 285.597 54.6406C282.24 54.5538 280.59 54.6406 279.085 54.9879Z" fill="white"/>
<path d="M594.083 54.9588C586.326 56.2322 579.612 58.9817 573.592 63.4386C563.579 70.7897 557.298 80.3693 554.751 92.2931C553.854 96.4317 553.623 106.272 554.288 110.902C555.909 121.987 560.279 130.496 568.296 138.194C572.203 141.985 575.908 144.619 580.365 146.847C586.124 149.713 590.61 150.928 597.382 151.536C606.47 152.317 615.47 150.61 623.082 146.674C630.433 142.854 637.263 136.284 641.633 128.933C642.791 126.965 642.993 126.444 642.675 126.154C642.125 125.662 625.513 115.07 625.108 114.954C624.934 114.896 624.413 115.736 623.95 116.806C621.288 123.029 615.007 128.325 608.003 130.235C605.167 131.017 598.598 130.959 595.125 130.119C586.124 127.891 579.612 121.09 576.978 111.047C576.4 108.79 576.313 107.835 576.342 103.001C576.342 97.9656 576.429 97.2421 577.123 94.6373C579.67 85.1735 585.95 78.517 594.546 76.1728C596.485 75.6518 597.671 75.5361 601.781 75.5361C606.151 75.5071 606.933 75.594 608.872 76.1728C615.007 78.1119 620.651 82.8293 623.256 88.2413C623.776 89.3411 624.211 90.4119 624.211 90.6434C624.211 90.846 624.384 91.0776 624.587 91.1644C625.021 91.3091 642.733 80.0799 642.733 79.6747C642.733 79.53 642.154 78.4592 641.46 77.2726C636.858 69.5163 629.912 62.8887 622.243 59.0395C619.58 57.6793 614.92 56.1165 611.534 55.364C607.83 54.5826 597.845 54.3221 594.083 54.9588Z" fill="white"/>
<path d="M690.197 54.7274C679.373 56.3481 671.616 59.7053 664.41 65.8408C653.586 75.0731 648.174 86.2445 647.479 100.686C646.698 116.951 652.834 130.93 665.134 140.915C673.006 147.282 681.514 150.668 691.875 151.536C705.883 152.723 719.109 148.237 729.268 138.918C737.053 131.769 741.741 123.492 743.767 113.362C744.925 107.458 744.838 98.1972 743.565 91.8591C739.715 72.9893 723.161 57.7662 703.423 54.9589C700.76 54.5827 692.136 54.409 690.197 54.7274ZM703.799 76.1729C709.761 77.8225 714.218 81.1508 717.488 86.3892C723.682 96.345 723.392 111.134 716.823 120.829C712.076 127.804 704.233 131.306 694.538 130.814C684.611 130.322 677.549 125.894 673.411 117.617C670.98 112.813 670.083 108.095 670.314 101.583C670.488 96.2871 671.298 92.7562 673.266 88.8202C676.363 82.5689 681.109 78.3724 687.216 76.5202C690.515 75.5362 691.789 75.3915 696.853 75.4783C700.558 75.5651 702.121 75.7388 703.799 76.1729Z" fill="white"/>
<path d="M796.122 55.0747C790.392 56.3481 785.559 58.6634 782.028 61.8759C781.217 62.5995 780.494 63.1204 780.407 63.0046C780.349 62.8599 779.915 61.2971 779.481 59.5027L778.699 56.2613H768.454H758.209V103.002V149.742H769.641H781.073V120.858C781.073 89.1965 781.015 90.2384 782.838 86.4471C784.517 82.9452 788.047 79.2407 791.491 77.4174C796.672 74.668 804.573 74.668 809.753 77.4174C811.866 78.5461 814.326 81.1219 815.368 83.3214C815.773 84.2186 816.41 85.9551 816.757 87.1706C817.394 89.3991 817.394 89.5728 817.481 119.585L817.568 149.742H828.826H840.113V118.688C840.113 85.0868 840.113 85.4052 838.521 79.8485C835.83 70.5294 829.144 62.3969 820.896 58.4319C815.252 55.7114 811.258 54.8143 803.936 54.6406C799.421 54.5538 798.206 54.6117 796.122 55.0747Z" fill="white"/>
<path d="M307.39 88.5887C307.477 120.337 307.477 121.003 308.085 123.405C311.413 136.863 319.632 146.037 331.759 149.828C336.737 151.391 344.204 152.115 348.776 151.507C354.825 150.697 361.308 147.918 364.868 144.648L366.893 142.767L367.212 144.011C367.385 144.706 367.646 145.719 367.791 146.269C367.935 146.819 368.196 147.832 368.369 148.497L368.688 149.742H378.933H389.207V103.001V56.2613H377.775H366.344L366.286 85.984L366.199 115.736L365.417 117.848C364.028 121.669 361.192 125.228 357.574 127.717C354.217 130.004 349.963 131.132 345.651 130.843C340.759 130.496 337.46 129.251 334.827 126.733C332.83 124.852 331.556 122.595 330.659 119.44C330.022 117.183 330.022 117.125 329.935 86.7075L329.849 56.2613H318.562H307.274L307.39 88.5887Z" fill="white"/>
<path d="M517.707 103.002V149.742H528.849H539.991V103.002V56.2613H528.849H517.707V103.002Z" fill="white"/>
<path d="M13.7808 171.882C9.96054 172.837 6.0824 175.413 3.79604 178.48C1.01768 182.243 0.120496 185.282 0.294144 190.404C0.409909 193.356 0.554615 194.166 1.24921 195.903C3.39086 201.199 7.06641 204.759 12.4495 206.698C14.2728 207.335 15.0253 207.451 18.0352 207.479C20.8425 207.479 21.8843 207.364 23.534 206.843C31.1166 204.441 36.1524 197.697 36.2103 189.825C36.2392 186.352 35.8341 184.5 34.387 181.432C32.419 177.323 28.6566 173.965 24.2575 172.403C21.566 171.448 16.4723 171.187 13.7808 171.882Z" fill="white"/>
</svg>
