<svg width="229" height="62" viewBox="0 0 229 62" fill="none" xmlns="http://www.w3.org/2000/svg">
<path d="M79.826 43.1659C84.4984 43.1659 87.7916 40.5003 87.7916 36.4196C87.8246 32.899 85.7085 30.858 82.1787 29.5748L79.7585 28.6863C77.3055 27.7978 76.1285 27.0411 76.1285 25.33C76.1285 23.6189 77.8761 22.6319 79.8934 22.6319C81.7758 22.6319 83.221 23.3887 84.431 24.8036L87.1536 22.2039C85.406 20.1305 82.8855 19.0117 79.9278 19.0117C75.4905 19.0117 72.1644 21.5133 72.1644 25.5939C72.1644 28.786 74.0124 30.8256 77.8102 32.1761L80.4325 33.097C82.7178 33.9196 83.8275 34.9724 83.8275 36.6512C83.8275 38.3946 82.2147 39.5472 79.9622 39.5472C77.6425 39.5472 75.6597 38.4284 74.4167 36.553L71.3242 38.9548C72.7334 41.4871 75.9937 43.1659 79.826 43.1659ZM98.4947 43.0999C102.025 43.0999 104.645 41.6513 106.158 39.2832L103.335 37.3081C102.427 38.7568 100.915 39.8096 98.5293 39.8096C95.7063 39.8096 93.5213 38.0662 93.3536 35.3344H106.562C106.595 34.808 106.595 34.5118 106.595 34.1498C106.595 28.852 102.932 25.9883 98.4947 25.9883C93.3865 25.9883 89.722 29.7068 89.722 34.5442C89.722 39.5779 93.3851 43.0999 98.4947 43.0999ZM93.5199 32.701C94.0575 30.2656 96.1751 29.0485 98.36 29.0485C100.51 29.0485 102.46 30.3314 102.863 32.701H93.5199ZM125.802 49.6484V26.3168H122.104V28.5221C121.164 27.2054 119.146 25.9883 116.726 25.9883C112.121 25.9883 108.626 29.8388 108.626 34.5442C108.626 39.2495 112.121 43.0999 116.726 43.0999C119.146 43.0999 121.164 41.8829 122.104 40.5662V49.6484H125.802ZM117.399 39.8081C114.441 39.8081 112.391 37.5046 112.391 34.5427C112.391 31.5808 114.441 29.2772 117.399 29.2772C120.356 29.2772 122.406 31.5808 122.406 34.5427C122.406 37.5046 120.356 39.8081 117.399 39.8081ZM135.368 43.0999C137.519 43.0999 139.3 42.2113 140.276 40.5325V42.7701H143.973V26.3168H140.276V34.4122C140.276 37.9665 138.595 39.8096 136.175 39.8096C134.025 39.8096 132.814 38.1967 132.814 35.5648V26.3168H129.117V36.157C129.117 40.3683 131.503 43.0999 135.368 43.0999ZM155.536 43.0999C159.066 43.0999 161.687 41.6513 163.199 39.2832L160.377 37.3081C159.468 38.7568 157.956 39.8096 155.57 39.8096C152.748 39.8096 150.563 38.0662 150.395 35.3344H163.604C163.636 34.808 163.636 34.5118 163.636 34.1498C163.636 28.852 159.973 25.9883 155.536 25.9883C150.428 25.9883 146.763 29.7068 146.763 34.5442C146.763 39.5779 150.426 43.0999 155.536 43.0999ZM150.561 32.701C151.098 30.2656 153.216 29.0485 155.401 29.0485C157.551 29.0485 159.501 30.3314 159.904 32.701H150.561ZM166.428 42.7701H170.126V34.6747C170.126 31.1204 172.008 29.2772 174.461 29.2772C176.612 29.2772 177.956 30.8242 177.956 33.4561V42.7686H181.654V32.8638C181.654 28.6848 179.134 25.9854 175.234 25.9854C173.049 25.9854 171.166 26.874 170.126 28.5529V26.3168H166.428V42.7701ZM193.038 43.0999C196.534 43.0999 199.424 41.3229 200.869 38.5589L197.642 36.8477C196.834 38.5266 195.189 39.7436 193.037 39.7436C190.046 39.7436 187.929 37.4723 187.929 34.5442C187.929 31.616 190.046 29.3446 193.037 29.3446C195.187 29.3446 196.834 30.5618 197.642 32.2406L200.869 30.5294C199.424 27.7655 196.534 25.9883 193.038 25.9883C187.998 25.9883 184.165 29.6746 184.165 34.5442C184.165 39.4137 187.998 43.0999 193.038 43.0999ZM210.838 43.0999C214.367 43.0999 216.988 41.6513 218.5 39.2832L215.678 37.3081C214.769 38.7568 213.257 39.8096 210.871 39.8096C208.048 39.8096 205.864 38.0662 205.695 35.3344H218.905C218.937 34.808 218.938 34.5118 218.938 34.1498C218.938 28.852 215.274 25.9883 210.838 25.9883C205.727 25.9883 202.064 29.7068 202.064 34.5442C202.064 39.5779 205.727 43.0999 210.838 43.0999ZM205.862 32.701C206.399 30.2656 208.517 29.0485 210.702 29.0485C212.853 29.0485 214.802 30.3314 215.205 32.701H205.862Z" fill="white"/>
<path d="M11.7461 19.9205V42.0395C11.7461 46.5541 15.3959 50.2139 19.8981 50.2139H51.5472C56.0495 50.2139 59.6992 46.5541 59.6992 42.0395V19.9205C59.6992 15.4059 56.0495 11.7461 51.5472 11.7461H19.8981C15.3959 11.7461 11.7461 15.4059 11.7461 19.9205Z" fill="#111111"/>
<path d="M11.7461 19.9205V42.0395C11.7461 46.5541 15.3959 50.2139 19.8981 50.2139H51.5472C56.0495 50.2139 59.6992 46.5541 59.6992 42.0395V19.9205C59.6992 15.4059 56.0495 11.7461 51.5472 11.7461H19.8981C15.3959 11.7461 11.7461 15.4059 11.7461 19.9205Z" fill="url(#paint0_linear_907_3103)"/>
<path d="M23.7344 21.3631C23.7344 20.0352 22.6609 18.9588 21.3367 18.9588C20.0126 18.9588 18.9391 20.0352 18.9391 21.3631C18.9391 22.6909 20.0126 23.7673 21.3367 23.7673C22.6609 23.7673 23.7344 22.6909 23.7344 21.3631Z" fill="url(#paint1_linear_907_3103)"/>
<path d="M23.7344 21.3631C23.7344 20.0352 22.6609 18.9588 21.3367 18.9588C20.0126 18.9588 18.9391 20.0352 18.9391 21.3631C18.9391 22.6909 20.0126 23.7673 21.3367 23.7673C22.6609 23.7673 23.7344 22.6909 23.7344 21.3631Z" fill="url(#paint2_linear_907_3103)"/>
<path d="M23.7344 21.3631C23.7344 20.0352 22.6609 18.9588 21.3367 18.9588C20.0126 18.9588 18.9391 20.0352 18.9391 21.3631C18.9391 22.6909 20.0126 23.7673 21.3367 23.7673C22.6609 23.7673 23.7344 22.6909 23.7344 21.3631Z" fill="url(#paint3_linear_907_3103)"/>
<path d="M23.7344 40.5817C23.7344 39.2539 22.6609 38.1775 21.3367 38.1775C20.0126 38.1775 18.9391 39.2539 18.9391 40.5817C18.9391 41.9096 20.0126 42.986 21.3367 42.986C22.6609 42.986 23.7344 41.9096 23.7344 40.5817Z" fill="url(#paint4_linear_907_3103)"/>
<path d="M52.5062 30.98C52.5062 29.6522 51.4327 28.5758 50.1086 28.5758C48.7844 28.5758 47.7109 29.6522 47.7109 30.98C47.7109 32.3078 48.7844 33.3843 50.1086 33.3843C51.4327 33.3843 52.5062 32.3078 52.5062 30.98Z" fill="url(#paint5_linear_907_3103)"/>
<path d="M52.5062 30.98C52.5062 29.6522 51.4327 28.5758 50.1086 28.5758C48.7844 28.5758 47.7109 29.6522 47.7109 30.98C47.7109 32.3078 48.7844 33.3843 50.1086 33.3843C51.4327 33.3843 52.5062 32.3078 52.5062 30.98Z" fill="url(#paint6_linear_907_3103)"/>
<path d="M50.1086 18.9588H30.9273C29.6032 18.9588 28.5297 20.0352 28.5297 21.3631C28.5297 22.6909 29.6032 23.7673 30.9273 23.7673H50.1086C51.4327 23.7673 52.5062 22.6909 52.5062 21.3631C52.5062 20.0352 51.4327 18.9588 50.1086 18.9588Z" fill="url(#paint7_linear_907_3103)"/>
<path d="M50.1086 38.1775H30.9273C29.6032 38.1775 28.5297 39.2539 28.5297 40.5817C28.5297 41.9096 29.6032 42.986 30.9273 42.986H50.1086C51.4327 42.986 52.5062 41.9096 52.5062 40.5817C52.5062 39.2539 51.4327 38.1775 50.1086 38.1775Z" fill="url(#paint8_linear_907_3103)"/>
<path d="M40.518 28.5758H21.3367C20.0126 28.5758 18.9391 29.6522 18.9391 30.98C18.9391 32.3078 20.0126 33.3843 21.3367 33.3843H40.518C41.8421 33.3843 42.9156 32.3078 42.9156 30.98C42.9156 29.6522 41.8421 28.5758 40.518 28.5758Z" fill="url(#paint9_linear_907_3103)"/>
<defs>
<linearGradient id="paint0_linear_907_3103" x1="35.7227" y1="11.7461" x2="35.7227" y2="50.2539" gradientUnits="userSpaceOnUse">
<stop stop-color="#1D273D"/>
<stop offset="1" stop-color="#0D0F13"/>
</linearGradient>
<linearGradient id="paint1_linear_907_3103" x1="19.6778" y1="23.7344" x2="22.9473" y2="19.375" gradientUnits="userSpaceOnUse">
<stop stop-color="#4462FE"/>
<stop offset="1" stop-color="#7D69FA"/>
</linearGradient>
<linearGradient id="paint2_linear_907_3103" x1="19.3605" y1="23.7696" x2="23.3878" y2="23.5638" gradientUnits="userSpaceOnUse">
<stop stop-color="#3757FD"/>
<stop offset="1" stop-color="#6980FA"/>
</linearGradient>
<linearGradient id="paint3_linear_907_3103" x1="19.3605" y1="23.7696" x2="23.3878" y2="23.5638" gradientUnits="userSpaceOnUse">
<stop stop-color="#2447FF"/>
<stop offset="1" stop-color="#6980FA"/>
</linearGradient>
<linearGradient id="paint4_linear_907_3103" x1="19.6172" y1="42.2012" x2="22.8262" y2="38.8106" gradientUnits="userSpaceOnUse">
<stop stop-color="#BC3EE6"/>
<stop offset="1" stop-color="#D972F1"/>
</linearGradient>
<linearGradient id="paint5_linear_907_3103" x1="48.6797" y1="32.5742" x2="51.6465" y2="29.4258" gradientUnits="userSpaceOnUse">
<stop stop-color="#29BDFF"/>
<stop offset="1" stop-color="#96E7FB"/>
</linearGradient>
<linearGradient id="paint6_linear_907_3103" x1="48.096" y1="33.3514" x2="52.2601" y2="33.152" gradientUnits="userSpaceOnUse">
<stop stop-color="#23BBFF"/>
<stop offset="1" stop-color="#85E7FF"/>
</linearGradient>
<linearGradient id="paint7_linear_907_3103" x1="30.4551" y1="23.7344" x2="50.1933" y2="19.0117" gradientUnits="userSpaceOnUse">
<stop stop-color="#23BBFF"/>
<stop offset="1" stop-color="#85E7FF"/>
</linearGradient>
<linearGradient id="paint8_linear_907_3103" x1="30.6367" y1="42.9883" x2="49.5879" y2="38.1445" gradientUnits="userSpaceOnUse">
<stop stop-color="#2447FF"/>
<stop offset="1" stop-color="#6980FA"/>
</linearGradient>
<linearGradient id="paint9_linear_907_3103" x1="22.1602" y1="33.4218" x2="40.2637" y2="28.5781" gradientUnits="userSpaceOnUse">
<stop stop-color="#6634FF"/>
<stop offset="1" stop-color="#9C6DFF"/>
</linearGradient>
</defs>
</svg>
