<svg width="254" height="83" viewBox="0 0 254 83" fill="none" xmlns="http://www.w3.org/2000/svg">
<g clip-path="url(#clip0_729_2661)">
<path d="M34.304 14.3403V75.0887C33.762 75.3237 32.948 75.5197 31.862 75.6767C30.855 75.9117 29.769 76.0287 28.606 76.0287C26.203 76.0287 24.497 75.5987 23.49 74.7367C22.482 73.7967 21.978 72.2687 21.978 70.1537V14.3403H1.39499C1.00699 13.7919 0.658992 13.0869 0.347992 12.2252C0.115992 11.3635 0 10.3843 0 9.2877C0 7.5643 0.386987 6.2717 1.16199 5.4101C2.01499 4.47 3.13899 4 4.53499 4H55.12C55.43 4.47 55.701 5.1359 55.934 5.9976C56.244 6.8593 56.399 7.7993 56.399 8.8176C56.399 12.4994 54.887 14.3403 51.864 14.3403H34.304Z" fill="white"/>
<path d="M75.1429 75.4417C73.1279 75.4417 71.4999 74.8147 70.2589 73.5617C69.0189 72.3087 68.3989 70.6637 68.3989 68.6267V10.6977C68.3989 8.661 69.0189 7.0551 70.2589 5.8801C71.4999 4.6267 73.1279 4 75.1429 4H113.634C114.022 4.47 114.332 5.1359 114.565 5.9976C114.875 6.8593 115.03 7.7993 115.03 8.8176C115.03 10.541 114.604 11.8727 113.751 12.8127C112.976 13.7527 111.89 14.2228 110.495 14.2228H80.7249V33.7282H110.146C110.533 34.1982 110.844 34.8641 111.076 35.7257C111.386 36.5874 111.541 37.5275 111.541 38.5458C111.541 40.3475 111.115 41.6792 110.262 42.5409C109.487 43.4026 108.402 43.8334 107.006 43.8334H80.7249V65.2187H114.216C114.526 65.6887 114.836 66.3547 115.146 67.2167C115.456 68.0777 115.611 69.0177 115.611 70.0367C115.611 71.8387 115.185 73.2087 114.332 74.1487C113.557 75.0107 112.472 75.4417 111.076 75.4417H75.1429Z" fill="white"/>
<path d="M161.916 14.3403V75.0887C161.373 75.3237 160.559 75.5197 159.474 75.6767C158.466 75.9117 157.381 76.0287 156.218 76.0287C153.815 76.0287 152.109 75.5987 151.101 74.7367C150.093 73.7967 149.589 72.2687 149.589 70.1537V14.3403H129.007C128.619 13.7919 128.27 13.0869 127.96 12.2252C127.727 11.3635 127.611 10.3843 127.611 9.2877C127.611 7.5643 127.999 6.2717 128.774 5.4101C129.627 4.47 130.751 4 132.146 4H182.731C183.041 4.47 183.313 5.1359 183.545 5.9976C183.855 6.8593 184.01 7.7993 184.01 8.8176C184.01 12.4994 182.499 14.3403 179.475 14.3403H161.916Z" fill="white"/>
<path d="M253.107 51.1186C253.107 55.1137 252.448 58.7562 251.13 62.0462C249.89 65.3362 248.029 68.1562 245.548 70.5062C243.145 72.8562 240.16 74.6582 236.594 75.9112C233.106 77.1652 229.074 77.7912 224.5 77.7912C220.004 77.7912 215.973 77.1652 212.406 75.9112C208.918 74.6582 205.933 72.8562 203.452 70.5062C201.049 68.1562 199.188 65.3362 197.87 62.0462C196.63 58.7562 196.01 55.1137 196.01 51.1186V4.8225C196.553 4.6659 197.367 4.5092 198.452 4.3525C199.537 4.1175 200.661 4 201.824 4C204.072 4 205.739 4.4309 206.825 5.2925C207.91 6.1542 208.453 7.6818 208.453 9.8751V50.4136C208.453 55.9754 209.964 60.2052 212.988 63.1042C216.089 66.0022 219.926 67.4512 224.5 67.4512C226.826 67.4512 228.958 67.0992 230.896 66.3942C232.834 65.6102 234.54 64.5142 236.013 63.1042C237.486 61.6942 238.61 59.9312 239.385 57.8162C240.238 55.7012 240.664 53.2336 240.664 50.4136V4.8225C241.207 4.6659 242.021 4.5092 243.106 4.3525C244.192 4.1175 245.316 4 246.479 4C248.727 4 250.394 4.4309 251.479 5.2925C252.564 6.1542 253.107 7.6818 253.107 9.8751V51.1186Z" fill="white"/>
</g>
<defs>
<clipPath id="clip0_729_2661">
<rect width="253.107" height="82.7912" fill="white"/>
</clipPath>
</defs>
</svg>
