<svg width="550" height="158" viewBox="0 0 550 158" fill="none" xmlns="http://www.w3.org/2000/svg">
<path d="M157.22 78.7224C157.22 35.3069 122.025 0.111359 78.61 0.111359C35.195 0.111359 0 35.3069 0 78.7224C0 122.138 35.195 157.333 78.61 157.333C122.025 157.333 157.22 122.138 157.22 78.7224Z" fill="white"/>
<path fill-rule="evenodd" clip-rule="evenodd" d="M48.5298 59.1856L103.955 58.9121L90.6848 78.9106L122 78.7591L108.73 98.4226L52.9449 98.7796L66.4249 78.9211L35.2148 78.9091L48.5298 59.1856Z" fill="#784FFE"/>
<path d="M212.045 109.817V95.3387L245.015 54.7402H212.83V40.5557H265.95V53.9577L232.2 95.3387H266.635V109.817H212.045Z" fill="white"/>
<path d="M304.205 88.589H302.15C300.39 88.589 298.595 88.6865 296.77 88.8825C295.01 89.0125 293.41 89.306 291.975 89.7625C290.605 90.219 289.465 90.904 288.55 91.817C287.64 92.665 287.185 93.806 287.185 95.241C287.185 96.154 287.38 96.9365 287.77 97.589C288.225 98.241 288.78 98.763 289.435 99.154C290.085 99.5455 290.835 99.839 291.685 100.035C292.53 100.165 293.345 100.23 294.13 100.23C297.39 100.23 299.87 99.3495 301.565 97.589C303.325 95.7625 304.205 93.317 304.205 90.252V88.589ZM274.76 67.7515C277.63 65.0125 280.955 62.958 284.735 61.5885C288.585 60.219 292.5 59.534 296.475 59.534C300.585 59.534 304.04 60.056 306.845 61.0995C309.715 62.0775 312.03 63.643 313.79 65.795C315.55 67.882 316.825 70.556 317.605 73.817C318.455 77.0125 318.88 80.828 318.88 85.2625V109.817H304.205V104.633H303.91C302.67 106.654 300.78 108.22 298.235 109.328C295.76 110.437 293.05 110.991 290.115 110.991C288.16 110.991 286.14 110.73 284.05 110.209C281.965 109.687 280.04 108.839 278.28 107.665C276.585 106.491 275.185 104.926 274.075 102.97C272.965 101.013 272.41 98.5995 272.41 95.73C272.41 92.2085 273.355 89.3715 275.25 87.219C277.205 85.067 279.685 83.404 282.685 82.23C285.75 81.056 289.14 80.2735 292.855 79.882C296.575 79.491 300.195 79.295 303.715 79.295V78.5125C303.715 76.0995 302.87 74.3385 301.17 73.23C299.475 72.056 297.39 71.469 294.91 71.469C292.63 71.469 290.41 71.958 288.26 72.9365C286.17 73.915 284.38 75.0885 282.88 76.4585L274.76 67.7515Z" fill="white"/>
<path d="M385.05 85.2624C385.05 88.6539 384.525 91.9149 383.485 95.0454C382.44 98.1759 380.91 100.947 378.885 103.36C376.93 105.708 374.515 107.6 371.645 109.034C368.775 110.469 365.515 111.187 361.865 111.187C358.865 111.187 356.025 110.6 353.355 109.426C350.68 108.186 348.59 106.523 347.09 104.436H346.895V133.295H330.855V61.0994H346.115V67.0669H346.41C347.91 65.1104 349.96 63.4144 352.57 61.9799C355.245 60.4799 358.375 59.7299 361.96 59.7299C365.485 59.7299 368.68 60.4144 371.55 61.7839C374.42 63.1539 376.83 65.0124 378.79 67.3604C380.81 69.7079 382.345 72.4474 383.385 75.5779C384.495 78.6429 385.05 81.8714 385.05 85.2624ZM369.495 85.2624C369.495 83.6974 369.235 82.1649 368.71 80.6649C368.255 79.1649 367.54 77.8604 366.56 76.7514C365.645 75.5779 364.475 74.6319 363.04 73.9149C361.605 73.1974 359.94 72.8384 358.05 72.8384C356.225 72.8384 354.59 73.1974 353.16 73.9149C351.725 74.6319 350.485 75.5779 349.44 76.7514C348.46 77.9254 347.68 79.2624 347.09 80.7624C346.57 82.2624 346.31 83.7954 346.31 85.3604C346.31 86.9254 346.57 88.4584 347.09 89.9584C347.68 91.4584 348.46 92.7954 349.44 93.9694C350.485 95.1429 351.725 96.0889 353.16 96.8059C354.59 97.5234 356.225 97.8824 358.05 97.8824C359.94 97.8824 361.605 97.5234 363.04 96.8059C364.475 96.0889 365.645 95.1429 366.56 93.9694C367.54 92.7954 368.255 91.4584 368.71 89.9584C369.235 88.3929 369.495 86.8279 369.495 85.2624Z" fill="white"/>
<path d="M449.345 85.2624C449.345 88.6539 448.82 91.9149 447.78 95.0454C446.735 98.1759 445.2 100.947 443.18 103.36C441.225 105.708 438.81 107.6 435.94 109.034C433.07 110.469 429.81 111.187 426.16 111.187C423.16 111.187 420.32 110.6 417.65 109.426C414.975 108.186 412.885 106.523 411.385 104.436H411.19V133.295H395.15V61.0994H410.41V67.0669H410.7C412.2 65.1104 414.255 63.4144 416.865 61.9799C419.54 60.4799 422.67 59.7299 426.255 59.7299C429.78 59.7299 432.975 60.4144 435.845 61.7839C438.715 63.1539 441.125 65.0124 443.085 67.3604C445.105 69.7079 446.635 72.4474 447.68 75.5779C448.79 78.6429 449.345 81.8714 449.345 85.2624ZM433.79 85.2624C433.79 83.6974 433.53 82.1649 433.005 80.6649C432.55 79.1649 431.835 77.8604 430.855 76.7514C429.94 75.5779 428.765 74.6319 427.335 73.9149C425.9 73.1974 424.235 72.8384 422.345 72.8384C420.515 72.8384 418.885 73.1974 417.45 73.9149C416.015 74.6319 414.78 75.5779 413.735 76.7514C412.755 77.9254 411.975 79.2624 411.385 80.7624C410.865 82.2624 410.605 83.7954 410.605 85.3604C410.605 86.9254 410.865 88.4584 411.385 89.9584C411.975 91.4584 412.755 92.7954 413.735 93.9694C414.78 95.1429 416.015 96.0889 417.45 96.8059C418.885 97.5234 420.515 97.8824 422.345 97.8824C424.235 97.8824 425.9 97.5234 427.335 96.8059C428.765 96.0889 429.94 95.1429 430.855 93.9694C431.835 92.7954 432.55 91.4584 433.005 89.9584C433.53 88.3929 433.79 86.8279 433.79 85.2624Z" fill="white"/>
<path d="M492.995 79.882C492.995 77.3385 492.18 75.154 490.55 73.328C488.985 71.5015 486.605 70.5885 483.41 70.5885C481.845 70.5885 480.41 70.8495 479.105 71.3715C477.8 71.828 476.66 72.48 475.68 73.328C474.705 74.1755 473.92 75.1865 473.335 76.3605C472.745 77.469 472.42 78.643 472.355 79.882H492.995ZM507.77 86.0455C507.77 86.6975 507.77 87.3495 507.77 88.002C507.77 88.654 507.735 89.2735 507.67 89.8605H472.355C472.485 91.23 472.875 92.469 473.53 93.578C474.245 94.6865 475.125 95.665 476.17 96.513C477.28 97.2955 478.485 97.915 479.79 98.3715C481.16 98.828 482.56 99.056 483.995 99.056C486.54 99.056 488.69 98.5995 490.455 97.6865C492.215 96.7085 493.65 95.4695 494.755 93.9695L505.91 101.013C503.625 104.339 500.595 106.915 496.81 108.741C493.095 110.502 488.755 111.383 483.8 111.383C480.15 111.383 476.69 110.828 473.43 109.72C470.17 108.546 467.3 106.883 464.82 104.73C462.41 102.513 460.485 99.8065 459.05 96.6105C457.68 93.415 456.995 89.7625 456.995 85.654C456.995 81.6755 457.68 78.0885 459.05 74.893C460.42 71.632 462.28 68.893 464.625 66.6755C466.975 64.393 469.745 62.632 472.94 61.393C476.14 60.154 479.595 59.534 483.31 59.534C486.9 59.534 490.19 60.154 493.19 61.393C496.19 62.567 498.77 64.295 500.92 66.578C503.075 68.8605 504.735 71.632 505.91 74.893C507.15 78.154 507.77 81.8715 507.77 86.0455Z" fill="white"/>
<path d="M549.315 74.2079C548.6 74.0124 547.88 73.8819 547.165 73.8169C546.51 73.7514 545.86 73.7189 545.205 73.7189C543.055 73.7189 541.23 74.1104 539.73 74.8929C538.295 75.6754 537.12 76.6214 536.205 77.7299C535.36 78.8384 534.74 80.0449 534.35 81.3494C533.955 82.6539 533.76 83.7954 533.76 84.7734V109.817H517.72V61.0994H533.175V68.1429H533.37C534.61 65.6644 536.37 63.6429 538.655 62.0774C540.935 60.5124 543.575 59.7299 546.575 59.7299C547.23 59.7299 547.85 59.7624 548.435 59.8274C549.085 59.8929 549.61 59.9909 550 60.1209L549.315 74.2079Z" fill="white"/>
</svg>
