<svg width="492" height="141" viewBox="0 0 492 141" fill="none" xmlns="http://www.w3.org/2000/svg">
<path d="M4 103.12V82.4L51.18 24.3H5.12V4H81.14V23.18L32.84 82.4H82.12V103.12H4ZM135.887 72.74H132.947C130.427 72.74 127.86 72.88 125.247 73.16C122.727 73.347 120.44 73.767 118.387 74.42C116.427 75.073 114.793 76.053 113.487 77.36C112.18 78.573 111.527 80.207 111.527 82.26C111.527 83.567 111.807 84.687 112.367 85.62C113.02 86.553 113.813 87.3 114.747 87.86C115.68 88.42 116.753 88.84 117.967 89.12C119.18 89.307 120.347 89.4 121.467 89.4C126.133 89.4 129.68 88.14 132.107 85.62C134.627 83.007 135.887 79.507 135.887 75.12V72.74ZM93.747 42.92C97.853 39 102.613 36.06 108.027 34.1C113.533 32.14 119.133 31.16 124.827 31.16C130.707 31.16 135.653 31.9067 139.667 33.4C143.773 34.8 147.087 37.04 149.607 40.12C152.127 43.1067 153.947 46.933 155.067 51.6C156.28 56.173 156.887 61.633 156.887 67.98V103.12H135.887V95.7H135.467C133.693 98.593 130.987 100.833 127.347 102.42C123.8 104.007 119.927 104.8 115.727 104.8C112.927 104.8 110.033 104.427 107.047 103.68C104.06 102.933 101.307 101.72 98.787 100.04C96.36 98.36 94.353 96.12 92.767 93.32C91.18 90.52 90.387 87.067 90.387 82.96C90.387 77.92 91.74 73.86 94.447 70.78C97.247 67.7 100.793 65.32 105.087 63.64C109.473 61.96 114.327 60.84 119.647 60.28C124.967 59.72 130.147 59.44 135.187 59.44V58.32C135.187 54.867 133.973 52.347 131.547 50.76C129.12 49.08 126.133 48.24 122.587 48.24C119.32 48.24 116.147 48.94 113.067 50.34C110.08 51.74 107.513 53.42 105.367 55.38L93.747 42.92ZM251.583 67.98C251.583 72.833 250.837 77.5 249.343 81.98C247.85 86.46 245.657 90.427 242.763 93.88C239.963 97.24 236.51 99.947 232.403 102C228.297 104.053 223.63 105.08 218.403 105.08C214.11 105.08 210.05 104.24 206.223 102.56C202.397 100.787 199.41 98.407 197.263 95.42H196.983V136.72H174.023V33.4H195.863V41.94H196.283C198.43 39.14 201.37 36.7133 205.103 34.66C208.93 32.5133 213.41 31.44 218.543 31.44C223.583 31.44 228.157 32.42 232.263 34.38C236.37 36.34 239.823 39 242.623 42.36C245.517 45.72 247.71 49.64 249.203 54.12C250.79 58.507 251.583 63.127 251.583 67.98ZM229.323 67.98C229.323 65.74 228.95 63.547 228.203 61.4C227.55 59.253 226.523 57.387 225.123 55.8C223.817 54.12 222.137 52.767 220.083 51.74C218.03 50.713 215.65 50.2 212.943 50.2C210.33 50.2 207.997 50.713 205.943 51.74C203.89 52.767 202.117 54.12 200.623 55.8C199.223 57.48 198.103 59.393 197.263 61.54C196.517 63.687 196.143 65.88 196.143 68.12C196.143 70.36 196.517 72.553 197.263 74.7C198.103 76.847 199.223 78.76 200.623 80.44C202.117 82.12 203.89 83.473 205.943 84.5C207.997 85.527 210.33 86.04 212.943 86.04C215.65 86.04 218.03 85.527 220.083 84.5C222.137 83.473 223.817 82.12 225.123 80.44C226.523 78.76 227.55 76.847 228.203 74.7C228.95 72.46 229.323 70.22 229.323 67.98ZM343.595 67.98C343.595 72.833 342.848 77.5 341.355 81.98C339.862 86.46 337.668 90.427 334.775 93.88C331.975 97.24 328.522 99.947 324.415 102C320.308 104.053 315.642 105.08 310.415 105.08C306.122 105.08 302.062 104.24 298.235 102.56C294.408 100.787 291.422 98.407 289.275 95.42H288.995V136.72H266.035V33.4H287.875V41.94H288.295C290.442 39.14 293.382 36.7133 297.115 34.66C300.942 32.5133 305.422 31.44 310.555 31.44C315.595 31.44 320.168 32.42 324.275 34.38C328.382 36.34 331.835 39 334.635 42.36C337.528 45.72 339.722 49.64 341.215 54.12C342.802 58.507 343.595 63.127 343.595 67.98ZM321.335 67.98C321.335 65.74 320.962 63.547 320.215 61.4C319.562 59.253 318.535 57.387 317.135 55.8C315.828 54.12 314.148 52.767 312.095 51.74C310.042 50.713 307.662 50.2 304.955 50.2C302.342 50.2 300.008 50.713 297.955 51.74C295.902 52.767 294.128 54.12 292.635 55.8C291.235 57.48 290.115 59.393 289.275 61.54C288.528 63.687 288.155 65.88 288.155 68.12C288.155 70.36 288.528 72.553 289.275 74.7C290.115 76.847 291.235 78.76 292.635 80.44C294.128 82.12 295.902 83.473 297.955 84.5C300.008 85.527 302.342 86.04 304.955 86.04C307.662 86.04 310.042 85.527 312.095 84.5C314.148 83.473 315.828 82.12 317.135 80.44C318.535 78.76 319.562 76.847 320.215 74.7C320.962 72.46 321.335 70.22 321.335 67.98ZM406.067 60.28C406.067 56.64 404.9 53.513 402.567 50.9C400.327 48.287 396.92 46.98 392.347 46.98C390.107 46.98 388.054 47.353 386.187 48.1C384.32 48.753 382.687 49.687 381.287 50.9C379.887 52.113 378.767 53.56 377.927 55.24C377.087 56.827 376.62 58.507 376.527 60.28H406.067ZM427.207 69.1C427.207 70.033 427.207 70.967 427.207 71.9C427.207 72.833 427.16 73.72 427.067 74.56H376.527C376.714 76.52 377.274 78.293 378.207 79.88C379.234 81.467 380.494 82.867 381.987 84.08C383.574 85.2 385.3 86.087 387.167 86.74C389.127 87.393 391.134 87.72 393.187 87.72C396.827 87.72 399.907 87.067 402.427 85.76C404.947 84.36 407 82.587 408.587 80.44L424.547 90.52C421.28 95.28 416.94 98.967 411.527 101.58C406.207 104.1 400 105.36 392.907 105.36C387.68 105.36 382.734 104.567 378.067 102.98C373.4 101.3 369.294 98.92 365.747 95.84C362.294 92.667 359.54 88.793 357.487 84.22C355.527 79.647 354.547 74.42 354.547 68.54C354.547 62.847 355.527 57.713 357.487 53.14C359.447 48.473 362.107 44.5533 365.467 41.38C368.827 38.1133 372.794 35.5933 377.367 33.82C381.94 32.0467 386.887 31.16 392.207 31.16C397.34 31.16 402.054 32.0467 406.347 33.82C410.64 35.5 414.327 37.9733 417.407 41.24C420.487 44.5067 422.867 48.473 424.547 53.14C426.32 57.807 427.207 63.127 427.207 69.1ZM486.665 52.16C485.639 51.88 484.612 51.693 483.585 51.6C482.652 51.507 481.719 51.46 480.785 51.46C477.705 51.46 475.092 52.02 472.945 53.14C470.892 54.26 469.212 55.613 467.905 57.2C466.692 58.787 465.805 60.513 465.245 62.38C464.685 64.247 464.405 65.88 464.405 67.28V103.12H441.445V33.4H463.565V43.48H463.845C465.619 39.9333 468.139 37.04 471.405 34.8C474.672 32.56 478.452 31.44 482.745 31.44C483.679 31.44 484.565 31.4867 485.405 31.58C486.339 31.6733 487.085 31.8133 487.645 32L486.665 52.16Z" fill="white"/>
</svg>
