<svg width="530" height="100" viewBox="0 0 530 100" fill="none" xmlns="http://www.w3.org/2000/svg">
<path d="M3.33325 92.7356L46.7842 20.5798H8.17528V4.60156H75.9639V7.01098L33.4049 79.1668H74.4349V95.2718H3.33325V92.7356Z" fill="white"/>
<path d="M98.4741 4.60156H157.853V20.5798H118.989V41.7573H150.08V56.7211H118.989V79.2936H159.892V95.2718H98.4741V4.60156Z" fill="white"/>
<path d="M183.775 4.60156H216.395C221.747 4.60156 226.588 5.15108 230.922 6.25011C235.253 7.34915 238.948 9.03996 242.007 11.3226C245.065 13.6052 247.402 16.4796 249.015 19.9458C250.713 23.4119 251.563 27.4699 251.563 32.1196V32.6269C251.563 36.0931 251.097 39.1366 250.162 41.7573C249.227 44.3781 247.91 46.6608 246.212 48.6051C244.513 50.5496 242.517 52.1981 240.223 53.5508C237.93 54.9034 235.467 55.9603 232.832 56.7211L256.915 95.2718H234.998L213.21 60.2718H204.29V95.2718H183.775V4.60156ZM215.885 46.3226C221.067 46.3226 224.932 45.2236 227.48 43.0254C230.113 40.8274 231.43 37.5726 231.43 33.2609V32.7538C231.43 28.1039 230.072 24.8914 227.353 23.1161C224.72 21.2561 220.897 20.3263 215.885 20.3263H204.29V46.3226H215.885Z" fill="white"/>
<path d="M278.625 4.60156H299.395V95.2718H278.625V4.60156Z" fill="white"/>
<path d="M368.378 80.3079C372.202 80.3079 375.642 79.5893 378.7 78.1521C381.843 76.7149 384.518 74.6859 386.727 72.0651C388.852 69.5289 390.508 66.4009 391.697 62.6811C392.887 58.9613 393.482 54.8188 393.482 50.2536V49.2391C393.482 44.8429 392.887 40.8273 391.697 37.1919C390.593 33.5568 388.978 30.4286 386.855 27.8079C384.647 25.1871 381.97 23.1581 378.827 21.7209C375.685 20.2838 372.117 19.5651 368.123 19.5651C364.132 19.5651 360.563 20.2838 357.42 21.7209C354.362 23.0736 351.728 25.0181 349.52 27.5543C347.312 30.1751 345.613 33.3453 344.423 37.0651C343.318 40.7004 342.767 44.8006 342.767 49.3659V50.3804C342.767 55.0301 343.403 59.2149 344.678 62.9348C345.952 66.5699 347.737 69.6558 350.03 72.1919C352.238 74.8128 354.915 76.8418 358.058 78.2789C361.2 79.6316 364.642 80.3079 368.378 80.3079ZM367.997 96.6666C360.86 96.6666 354.405 95.5252 348.628 93.2427C342.852 90.8756 337.967 87.6208 333.975 83.4783C329.897 79.4203 326.753 74.5591 324.545 68.8949C322.337 63.2306 321.232 57.1014 321.232 50.5071V49.4928C321.232 42.7294 322.38 36.5156 324.673 30.8514C327.052 25.1871 330.365 20.3261 334.612 16.268C338.775 12.2101 343.702 9.03977 349.393 6.75717C355.085 4.47455 361.328 3.33325 368.123 3.33325C375.005 3.33325 381.29 4.43229 386.982 6.63035C392.758 8.82842 397.728 11.9142 401.89 15.8876C405.968 19.9456 409.153 24.7644 411.447 30.3441C413.827 35.9238 415.015 42.1376 415.015 48.9854V49.9999C415.015 56.7633 413.868 63.0193 411.575 68.7681C409.367 74.4323 406.223 79.3356 402.145 83.4783C398.068 87.6208 393.142 90.8756 387.365 93.2427C381.588 95.5252 375.132 96.6666 367.997 96.6666Z" fill="white"/>
<path d="M437.37 4.60156H461.325L495.985 64.3298V4.60156H514.333V95.2718H493.692L455.718 30.7248V95.2718H437.37V4.60156Z" fill="white"/>
</svg>
