<svg width="39" height="40" viewBox="0 0 39 40" fill="none" xmlns="http://www.w3.org/2000/svg">
<rect width="38.9563" height="38.9563" rx="6.49271" transform="matrix(1 0 0 -1 -0.000976562 39.703)" fill="white"/>
<rect x="0.405794" y="-0.405794" width="38.1447" height="38.1447" rx="6.08692" transform="matrix(1 0 0 -1 -0.000976562 38.8914)" stroke="black" stroke-opacity="0.02" stroke-width="0.811589"/>
<path d="M25.3564 16.6371L29.196 24.8097C29.2144 24.852 29.2197 24.8989 29.2114 24.9443C29.203 24.9896 29.1813 25.0315 29.149 25.0645L19.0486 34.8239C19.0324 34.8392 19.0121 34.8493 18.9901 34.853C18.9682 34.8567 18.9457 34.8538 18.9254 34.8446C18.9051 34.8355 18.8881 34.8205 18.8763 34.8017C18.8646 34.7828 18.8587 34.7608 18.8594 34.7386V25.7728L25.2241 19.6288C25.2462 19.6084 25.2635 19.5835 25.2749 19.5557C25.2863 19.528 25.2916 19.4981 25.2903 19.4681L25.3089 16.6371C25.3089 16.618 25.3492 16.618 25.3564 16.6371Z" fill="#344054"/>
<path fill-rule="evenodd" clip-rule="evenodd" d="M18.8594 25.7705V34.7368C18.8588 34.759 18.8647 34.7809 18.8765 34.7997C18.8882 34.8185 18.9054 34.8335 18.9257 34.8426C18.9459 34.8516 18.9684 34.8543 18.9902 34.8506C19.0121 34.8469 19.0324 34.8369 19.0485 34.8216L29.1485 25.0629C29.181 25.0301 29.2029 24.9883 29.2113 24.943C29.2198 24.8977 29.2144 24.8508 29.1959 24.8085L25.2524 19.5961L18.8594 25.7705Z" fill="#344054"/>
<path fill-rule="evenodd" clip-rule="evenodd" d="M25.3293 16.6122C25.3264 16.6121 25.3236 16.6127 25.3208 16.6137C25.318 16.6148 25.3153 16.6164 25.3132 16.6185C25.3111 16.6206 25.3095 16.6231 25.3084 16.6258C25.3073 16.6286 25.3066 16.6314 25.3066 16.6344L25.2907 19.4654C25.2917 19.512 25.2788 19.558 25.2539 19.5974L29.2129 24.9405C29.2207 24.8922 29.214 24.8429 29.1937 24.7984L25.3543 16.6258C25.3519 16.6219 25.3485 16.6185 25.3445 16.6162C25.3405 16.614 25.3362 16.6127 25.3316 16.6127L25.3293 16.6122Z" fill="#344054"/>
<path fill-rule="evenodd" clip-rule="evenodd" d="M29.2119 24.9374C29.2198 24.8894 29.2133 24.8401 29.193 24.7959L28.9944 24.371L25.4199 19.8204L29.2119 24.9374Z" fill="#344054"/>
<path d="M16.2777 9.77544L14.4693 14.8908C14.4489 14.9495 14.4522 15.0138 14.4786 15.0701L16.1625 18.3826L11.5282 21.0064C11.5005 21.0208 11.4684 21.024 11.4384 21.0152C11.4085 21.0065 11.3831 20.9865 11.3675 20.9594L10.3651 18.8735C10.347 18.8392 10.3392 18.8005 10.3426 18.7619C10.346 18.7233 10.3604 18.6865 10.3842 18.656L16.2286 9.7465C16.2331 9.74134 16.2392 9.7379 16.2459 9.73678C16.2526 9.73567 16.2594 9.73695 16.2653 9.7404C16.2712 9.74385 16.2756 9.74925 16.2779 9.75566C16.2802 9.76207 16.2801 9.76907 16.2777 9.77544V9.77544Z" fill="#344054"/>
<path fill-rule="evenodd" clip-rule="evenodd" d="M16.25 9.7392C16.2466 9.73909 16.2432 9.73972 16.2401 9.74096C16.237 9.74221 16.2343 9.74413 16.2319 9.74651L10.637 18.2751L10.6309 18.2864L14.4731 14.8903L14.4849 14.856V14.853L16.2784 9.77528C16.2797 9.77095 16.2801 9.76636 16.2792 9.7619C16.2784 9.75745 16.2765 9.75336 16.2737 9.74979C16.2709 9.74623 16.2673 9.74332 16.2632 9.74147C16.2591 9.73962 16.2545 9.73891 16.25 9.7392V9.7392Z" fill="#344054"/>
<path fill-rule="evenodd" clip-rule="evenodd" d="M10.3867 18.6575C10.3631 18.6879 10.3488 18.7245 10.3455 18.7629C10.3422 18.8014 10.3501 18.8399 10.3682 18.874L11.37 20.9604C11.3858 20.9874 11.4113 21.0073 11.4413 21.0159C11.4713 21.0246 11.5036 21.0213 11.5312 21.0069L16.165 18.3835L14.4816 15.0709C14.4683 15.043 14.4606 15.0129 14.459 14.9821C14.4574 14.9512 14.4619 14.9203 14.4722 14.8912L10.3867 18.6575Z" fill="#344054"/>
<path fill-rule="evenodd" clip-rule="evenodd" d="M18.8601 5.64147V13.5986C18.859 13.6466 18.8424 13.6931 18.8131 13.731L9.78169 25.9721C9.74916 26.0156 9.73405 26.0695 9.73931 26.1235C9.74456 26.1775 9.7699 26.2277 9.8102 26.264L16.146 32.3802C16.1587 32.3934 16.1746 32.403 16.1921 32.4084C16.2097 32.4138 16.2283 32.4147 16.2462 32.4109C16.2642 32.4072 16.2809 32.399 16.2948 32.387C16.3087 32.375 16.3193 32.3595 16.3257 32.3423L23.2102 16.2318C23.2294 16.1767 23.2294 16.1168 23.2102 16.0617L18.9454 5.62431C18.9428 5.61622 18.9376 5.60939 18.9308 5.60438C18.9239 5.59937 18.9157 5.59658 18.9072 5.59656C18.895 5.59642 18.8833 5.60103 18.8745 5.60943C18.8657 5.61783 18.8605 5.62932 18.8601 5.64147Z" fill="#344054"/>
<path fill-rule="evenodd" clip-rule="evenodd" d="M18.9039 5.59521C18.8915 5.59521 18.8797 5.60013 18.8709 5.60884C18.8621 5.61755 18.8571 5.62926 18.857 5.64164L18.86 13.5988C18.8594 13.6211 18.8554 13.6432 18.8482 13.6644L23.1538 15.9317L18.9421 5.62398C18.9396 5.61578 18.9346 5.60873 18.9278 5.60354C18.9209 5.59835 18.9125 5.59546 18.9039 5.59521V5.59521ZM18.8477 13.6633L19.6698 14.1356L18.8477 13.6633Z" fill="#344054"/>
<path fill-rule="evenodd" clip-rule="evenodd" d="M23.2246 16.1494C23.2246 16.1213 23.2202 16.0933 23.2112 16.0666L23.1563 15.9324L18.8477 13.665L19.6743 14.1368L23.2246 16.1494Z" fill="#344054"/>
<path d="M10.6273 18.2894L10.3896 18.6511L14.4716 14.8901L10.6273 18.2894Z" fill="#344054"/>
</svg>
