<svg width="40" height="40" viewBox="0 0 40 40" fill="none" xmlns="http://www.w3.org/2000/svg">
<rect width="38.9563" height="38.9563" rx="6.49271" transform="matrix(1 0 0 -1 0.000976562 39.3591)" fill="white"/>
<rect x="0.405794" y="-0.405794" width="38.1447" height="38.1447" rx="6.08692" transform="matrix(1 0 0 -1 0.000976562 38.5475)" stroke="black" stroke-opacity="0.02" stroke-width="0.811589"/>
<g clip-path="url(#clip0_1746_49138)">
<path d="M20.2802 24.7949C22.9958 24.7949 25.1972 22.5939 25.1972 19.8787C25.1972 17.1635 22.9958 14.9624 20.2802 14.9624C17.5647 14.9624 15.3633 17.1635 15.3633 19.8787C15.3633 22.5939 17.5647 24.7949 20.2802 24.7949Z" fill="#344054"/>
<path d="M20.2802 24.7949C22.9958 24.7949 25.1972 22.5939 25.1972 19.8787C25.1972 17.1635 22.9958 14.9624 20.2802 14.9624C17.5647 14.9624 15.3633 17.1635 15.3633 19.8787C15.3633 22.5939 17.5647 24.7949 20.2802 24.7949Z" fill="#344054"/>
<path d="M15.9752 24.1652C15.9375 24.1237 15.9012 24.0808 15.8648 24.038C15.8103 23.9743 15.7557 23.9107 15.7038 23.8445C15.6674 23.799 15.6337 23.7536 15.5986 23.7069C15.5908 23.6964 15.5843 23.6874 15.5778 23.6769C15.5362 23.6212 15.4947 23.564 15.4544 23.5069C15.422 23.4588 15.3895 23.4108 15.357 23.3627C15.3116 23.2926 15.2674 23.2225 15.2258 23.151C15.1973 23.1017 15.1674 23.0536 15.1401 23.0043C15.0973 22.9277 15.057 22.8498 15.0181 22.7719C14.9921 22.7186 14.9635 22.668 14.9388 22.6134C14.9297 22.5953 14.922 22.5771 14.9142 22.5589C14.8661 22.4537 14.8207 22.3485 14.7778 22.2408C14.7739 22.2291 14.7687 22.2174 14.7648 22.2057C14.7232 22.0966 14.683 21.9876 14.6466 21.8759C14.644 21.8694 14.6414 21.8629 14.6401 21.8551C14.6297 21.8253 14.6232 21.7941 14.6142 21.7629C14.5895 21.6811 14.5648 21.598 14.5427 21.5149C14.3999 20.9669 14.331 20.402 14.3388 19.8359C14.5297 19.7579 14.6869 19.6009 14.7583 19.3892C14.8882 19.0035 14.6804 18.5854 14.2947 18.4556C13.909 18.3257 13.4908 18.5335 13.3609 18.9191C13.2375 19.2853 13.4193 19.6814 13.7687 19.8307C13.7609 20.4254 13.8297 21.0176 13.9739 21.5928C13.9739 21.5954 13.9739 21.5967 13.9752 21.5993C13.9778 21.6097 13.9817 21.6201 13.9843 21.6317C14.0167 21.7603 14.0531 21.8889 14.0934 22.0162C14.0947 22.0187 14.0947 22.0213 14.096 22.024C14.1232 22.1097 14.1544 22.1927 14.1856 22.2772C14.1999 22.3161 14.2129 22.3563 14.2284 22.3966C14.2336 22.4109 14.2401 22.4265 14.2453 22.4408C14.2921 22.5589 14.3414 22.6745 14.3947 22.7901C14.4038 22.8109 14.4129 22.8303 14.4232 22.8511C14.4336 22.8719 14.4427 22.8939 14.4518 22.9147C14.496 23.0069 14.5427 23.0965 14.5908 23.1861C14.6012 23.2056 14.6116 23.2238 14.6219 23.2433C14.6843 23.3549 14.7479 23.4653 14.8155 23.5744C14.8219 23.5861 14.8297 23.5965 14.8362 23.6081C14.9064 23.7185 14.9778 23.8263 15.0544 23.9315C15.0583 23.9367 15.0622 23.9432 15.0661 23.9484C15.1129 24.012 15.1622 24.0743 15.2103 24.1366C15.2427 24.1769 15.2726 24.2198 15.3051 24.26C15.3168 24.2743 15.3284 24.2886 15.3401 24.3041C15.4207 24.4015 15.5038 24.4977 15.5908 24.5898C15.5986 24.5976 15.6051 24.6068 15.6129 24.6158C15.6155 24.6184 15.6181 24.6197 15.6207 24.6223C15.8025 24.8171 15.996 24.9989 16.1999 25.1716C16.3492 25.0534 16.4999 24.9313 16.6544 24.8054C16.4103 24.608 16.1843 24.3951 15.9752 24.1652Z" fill="#344054"/>
<path d="M27.2054 19.9047C27.2158 19.0736 27.0743 18.2465 26.7898 17.4635C26.7106 17.2453 26.6223 17.0311 26.521 16.8207C26.3119 16.387 26.0587 15.9792 25.7664 15.6027C25.4755 15.2261 25.1456 14.882 24.7846 14.5742C24.634 14.6937 24.482 14.817 24.3262 14.943C24.4937 15.0807 24.6547 15.2261 24.8067 15.3806C24.8119 15.3858 24.8184 15.3897 24.8236 15.3949C25.0288 15.604 25.2197 15.8286 25.395 16.0636C25.6288 16.3779 25.834 16.7129 26.0067 17.0687C26.1495 17.3635 26.2651 17.6686 26.36 17.979C26.5483 18.601 26.6431 19.2477 26.634 19.8983C26.4431 19.9762 26.286 20.1332 26.2145 20.3449C26.0846 20.7306 26.2924 21.1488 26.6782 21.2786C27.0639 21.4084 27.482 21.2007 27.6119 20.815C27.7353 20.4501 27.5535 20.0553 27.2054 19.9047Z" fill="#344054"/>
<path opacity="0.9" fill-rule="evenodd" clip-rule="evenodd" d="M29.8079 10.554C29.3676 10.1138 28.791 10.1164 28.4403 10.1684C28.0611 10.2242 27.6586 10.3748 27.2664 10.5592C26.4728 10.9345 25.4961 11.5656 24.4235 12.3681C23.4377 13.1057 22.3416 14.0095 21.1884 15.0392C21.9247 15.1768 22.6027 15.4768 23.1832 15.9027C23.5741 15.5638 23.9559 15.2431 24.3261 14.9418C24.4806 14.8159 24.6338 14.6925 24.7845 14.573C25.065 14.351 25.3377 14.1393 25.6014 13.9419C26.5442 13.2368 27.3404 12.7226 27.9443 12.4161C27.7001 12.8966 27.3196 13.5082 26.8053 14.2289C26.4988 14.6587 26.1508 15.1184 25.7663 15.6028C26.0573 15.9793 26.3118 16.3871 26.5208 16.8208C26.6222 17.0312 26.7105 17.2454 26.7897 17.4636C27.4014 16.7208 27.9455 16.017 28.4066 15.3716C29.0728 14.438 29.5949 13.5848 29.8988 12.881C30.0495 12.5343 30.1715 12.1668 30.2066 11.8136C30.2417 11.4747 30.2105 10.9566 29.8079 10.554ZM26.0066 17.0697C25.8351 16.7139 25.6287 16.3788 25.3949 16.0646C24.2546 17.4605 22.8351 19.0292 21.2286 20.6342C19.6208 22.2417 18.0494 23.6637 16.6519 24.8051C16.5229 24.9112 16.3947 25.0136 16.2682 25.1146L16.1974 25.1713C15.713 25.5556 15.2532 25.9036 14.8233 26.2101C14.1026 26.7243 13.4909 27.1035 13.0103 27.3489C13.3207 26.7386 13.8415 25.9335 14.5571 24.979C14.7597 24.7077 14.9779 24.4272 15.2078 24.1376C15.1931 24.1186 15.1783 24.0998 15.1634 24.0809C15.1293 24.0378 15.0952 23.9945 15.0636 23.9494C15.0623 23.9476 15.061 23.9457 15.0597 23.9438C15.0591 23.9428 15.0584 23.9418 15.0578 23.9409H15.0578C15.0558 23.9379 15.0539 23.935 15.0519 23.9324C14.9766 23.8273 14.9039 23.7195 14.8337 23.6091C14.8305 23.6033 14.8269 23.5978 14.8233 23.5922H14.8233C14.8198 23.5867 14.8162 23.5812 14.813 23.5754C14.7454 23.4675 14.6818 23.3572 14.6194 23.2442C14.6143 23.2345 14.6091 23.225 14.6039 23.2157C14.5987 23.2063 14.5935 23.1968 14.5883 23.1871C14.5402 23.0975 14.4935 23.0079 14.4493 22.9157C14.4413 22.8998 14.4341 22.883 14.4271 22.8667L14.4271 22.8666L14.4207 22.852C14.4162 22.8417 14.4113 22.8316 14.4065 22.8216C14.4016 22.8115 14.3967 22.8014 14.3922 22.791C14.3389 22.6755 14.2896 22.5599 14.2428 22.4417C14.2402 22.4346 14.2373 22.4271 14.2344 22.4197L14.2344 22.4196C14.2315 22.4122 14.2285 22.4047 14.2259 22.3976C14.2177 22.3771 14.2106 22.3562 14.2034 22.3351C14.197 22.3162 14.1905 22.2971 14.1831 22.2781C13.7467 22.8066 13.3454 23.3156 12.9844 23.7974C12.174 24.8778 11.5376 25.8595 11.1584 26.6581C10.9714 27.0515 10.8194 27.4567 10.7623 27.8372C10.7103 28.1878 10.7051 28.7682 11.148 29.2097C11.5506 29.6123 12.0688 29.6421 12.4077 29.6084C12.761 29.5733 13.1285 29.4512 13.4753 29.3006C14.1792 28.9968 15.0324 28.4734 15.9662 27.8086C17.8467 26.4672 20.2091 24.4324 22.6195 22.0223C24.0118 20.6303 25.278 19.2551 26.3585 17.9774C26.265 17.6683 26.1482 17.3644 26.0066 17.0697ZM14.766 22.2082C14.7232 22.0991 14.6842 21.9887 14.6479 21.8783C14.6453 21.8705 14.6427 21.8641 14.6401 21.8589C14.6355 21.8433 14.6313 21.828 14.6271 21.8128C14.6229 21.7975 14.6186 21.7823 14.6141 21.7667C14.8816 21.4498 15.1609 21.1278 15.4518 20.7993C15.5907 21.5343 15.8946 22.2121 16.3232 22.7912C16.0635 23.0938 15.8154 23.3898 15.579 23.6794C15.5375 23.6236 15.4959 23.5678 15.4557 23.5094C15.4219 23.4613 15.3894 23.4132 15.3583 23.3652C15.3128 23.2964 15.27 23.225 15.2271 23.1536L15.2271 23.1535C15.2223 23.1455 15.2174 23.1373 15.2126 23.1292C15.1886 23.0889 15.1641 23.0479 15.1414 23.0068C15.0985 22.9302 15.0583 22.8522 15.0193 22.7743C15.0085 22.7521 14.9972 22.7302 14.9859 22.7082C14.9702 22.6776 14.9545 22.647 14.9401 22.6159C14.9362 22.6068 14.932 22.5978 14.9277 22.5887C14.9235 22.5796 14.9193 22.5705 14.9154 22.5614C14.8673 22.4562 14.8219 22.351 14.779 22.2433C14.7771 22.2374 14.7748 22.2316 14.7725 22.2257C14.7703 22.2199 14.768 22.2141 14.766 22.2082Z" fill="#344054"/>
<path d="M21.4333 12.743C21.0671 12.6196 20.6723 12.8001 20.5216 13.1494C19.6839 13.1391 18.8502 13.2819 18.0631 13.5715C17.8515 13.6494 17.6424 13.7351 17.4385 13.8338C16.9995 14.0454 16.5878 14.3026 16.2073 14.5986C15.8307 14.8908 15.4865 15.2219 15.1787 15.5855C15.2995 15.7374 15.4229 15.8907 15.5501 16.0465C15.7878 15.7543 16.0501 15.4842 16.3359 15.2388C16.3411 15.2336 16.3463 15.2284 16.3515 15.2232C16.4541 15.1362 16.5605 15.0518 16.6683 14.9713C16.9865 14.7337 17.3268 14.5246 17.6878 14.3506C17.9762 14.2117 18.2748 14.0974 18.5788 14.0039C19.2073 13.8117 19.8606 13.7156 20.5177 13.7247C20.5956 13.9156 20.7528 14.0727 20.9645 14.1441C21.3502 14.274 21.7684 14.0662 21.8982 13.6805C22.0269 13.2923 21.8191 12.8742 21.4333 12.743Z" fill="#344054"/>
<path opacity="0.9" fill-rule="evenodd" clip-rule="evenodd" d="M16.2048 14.6001C16.5853 14.3041 16.9983 14.0483 17.436 13.8353C17.6399 13.7366 17.849 13.6509 18.0607 13.573C17.3165 12.9601 16.6113 12.4147 15.9645 11.9537C15.0321 11.2876 14.1788 10.7656 13.4749 10.4617C13.1281 10.3111 12.7606 10.189 12.4073 10.1539C12.0684 10.1202 11.5489 10.1513 11.1476 10.5526C10.7073 10.9928 10.7099 11.5707 10.7619 11.92C10.8177 12.2991 10.9684 12.703 11.1528 13.0938C11.5281 13.8872 12.1593 14.8638 12.9619 15.9363C13.6528 16.8596 14.4892 17.8802 15.4398 18.9542C15.5801 18.2192 15.884 17.5413 16.3126 16.9622C16.0451 16.6505 15.7905 16.3454 15.5463 16.048C15.4388 15.9164 15.3341 15.7856 15.2313 15.6574L15.1749 15.587C14.9489 15.3027 14.7359 15.0261 14.5359 14.7599C13.8307 13.8171 13.3164 13.0211 13.01 12.4173C13.4905 12.6614 14.1022 13.0419 14.823 13.5561C15.2554 13.8626 15.7191 14.2132 16.2048 14.6001ZM30.2076 27.9486C30.1726 27.5954 30.0505 27.2279 29.8998 26.8812C29.5959 26.1774 29.0725 25.3242 28.4076 24.3906C27.066 22.5103 25.0309 20.1483 22.6205 17.7382C21.2283 16.3461 19.8542 15.0814 18.5776 14.001C18.2737 14.0945 17.975 14.2087 17.6867 14.3477C17.3257 14.5217 16.9854 14.7307 16.6672 14.9684C18.0607 16.1085 19.627 17.5252 21.2296 19.1276C22.8426 20.7404 24.2673 22.3156 25.4102 23.7153C25.5362 23.8699 25.6582 24.0205 25.7764 24.1711C26.1569 24.6503 26.5023 25.1061 26.8063 25.532C27.3206 26.2527 27.6998 26.8643 27.9453 27.3448C27.3348 27.0344 26.5297 26.5137 25.5751 25.7982C25.3076 25.5969 25.0297 25.3827 24.7439 25.1555C24.3699 25.4437 23.9647 25.6956 23.5348 25.9021C23.3205 26.006 23.1024 26.0956 22.8802 26.1748C23.4075 26.6098 23.914 27.0098 24.3959 27.3708C25.4764 28.181 26.4582 28.8174 27.2569 29.1965C27.6504 29.3835 28.0557 29.5354 28.4362 29.5926C28.7868 29.6445 29.3674 29.6497 29.8089 29.2069C30.2102 28.8069 30.2414 28.2875 30.2076 27.9486ZM23.1726 23.8478C23.5518 24.1777 23.922 24.4893 24.2817 24.7827C23.97 25.0139 23.6375 25.2178 23.2856 25.3866C22.9869 25.5307 22.6778 25.6489 22.3635 25.7437C21.9765 25.4165 21.5804 25.0723 21.1778 24.7114C21.9128 24.5737 22.5908 24.2737 23.1726 23.8478Z" fill="#344054"/>
<path d="M25.4109 23.7169C25.0798 24.1182 24.7005 24.4752 24.2824 24.7843C23.9707 25.0142 23.6382 25.2193 23.2863 25.3894C22.9876 25.5335 22.6785 25.6517 22.3642 25.7465C21.746 25.9335 21.1031 26.0257 20.4564 26.0166C20.3784 25.8257 20.2213 25.6686 20.0096 25.5972C19.6239 25.4673 19.2057 25.6751 19.0758 26.0608C18.9459 26.4464 19.1537 26.8646 19.5394 26.9944C19.9057 27.1178 20.3005 26.9373 20.4512 26.588C21.2784 26.5984 22.1005 26.4594 22.8797 26.1776C23.1019 26.0971 23.3213 26.0075 23.5343 25.9049C23.9642 25.6971 24.3694 25.4466 24.7434 25.1583C25.1213 24.8674 25.4668 24.5376 25.7772 24.174C25.6577 24.022 25.5369 23.8714 25.4109 23.7169Z" fill="#344054"/>
</g>
<defs>
<clipPath id="clip0_1746_49138">
<rect width="19.4781" height="19.4781" fill="white" transform="translate(10.7402 10.142)"/>
</clipPath>
</defs>
</svg>
