<svg width="39" height="40" viewBox="0 0 39 40" fill="none" xmlns="http://www.w3.org/2000/svg">
<rect width="38.9563" height="38.9563" rx="6.49271" transform="matrix(1 0 0 -1 0 39.5718)" fill="white"/>
<rect x="0.405794" y="-0.405794" width="38.1447" height="38.1447" rx="6.08692" transform="matrix(1 0 0 -1 0 38.7602)" stroke="black" stroke-opacity="0.02" stroke-width="0.811589"/>
<g clip-path="url(#clip0_1746_49339)">
<path d="M15.4365 26.0942L19.3078 19.6745L23.1791 26.0942L19.3078 28.3849L15.4365 26.0942Z" fill="#344054"/>
<path d="M19.3081 17.1057C21.524 17.1057 23.3203 15.3094 23.3203 13.0935C23.3203 10.8776 21.524 9.0813 19.3081 9.0813C17.0922 9.0813 15.2959 10.8776 15.2959 13.0935C15.2959 15.3094 17.0922 17.1057 19.3081 17.1057Z" fill="#344054"/>
<path d="M19.3079 12.3027C17.4296 12.3028 15.5929 12.8556 14.0266 13.8923C12.4604 14.929 11.2339 16.4038 10.5 18.1327C9.76605 19.8617 9.55721 21.7684 9.89946 23.6152C10.2417 25.462 11.1199 27.1673 12.4246 28.5184L19.3079 17.1057L26.1902 28.5184C27.4952 27.1675 28.3738 25.4623 28.7164 23.6154C29.0589 21.7685 28.8502 19.8617 28.1164 18.1325C27.3825 16.4035 26.1559 14.9286 24.5895 13.8919C23.0231 12.8552 21.1862 12.3025 19.3079 12.3027ZM12.4395 23.0563C12.2625 23.0563 12.0895 23.0038 11.9424 22.9055C11.7952 22.8072 11.6806 22.6674 11.6129 22.5039C11.5452 22.3404 11.5275 22.1604 11.5621 21.9869C11.5967 21.8133 11.682 21.6539 11.8072 21.5289C11.9324 21.4038 12.0919 21.3187 12.2655 21.2842C12.4391 21.2498 12.619 21.2677 12.7824 21.3355C12.9459 21.4034 13.0855 21.5182 13.1837 21.6654C13.2819 21.8126 13.3342 21.9857 13.334 22.1627C13.3344 22.2804 13.3115 22.397 13.2667 22.5059C13.222 22.6147 13.1561 22.7137 13.073 22.7971C12.9899 22.8804 12.8912 22.9465 12.7824 22.9917C12.6737 23.0368 12.5572 23.0601 12.4395 23.0601V23.0563ZM14.6347 19.4761C14.4579 19.4761 14.2851 19.4237 14.1382 19.3255C13.9912 19.2273 13.8767 19.0877 13.809 18.9244C13.7414 18.7611 13.7237 18.5815 13.7582 18.4081C13.7927 18.2348 13.8778 18.0755 14.0028 17.9505C14.1277 17.8256 14.287 17.7404 14.4603 17.706C14.6337 17.6715 14.8134 17.6892 14.9767 17.7568C15.14 17.8245 15.2795 17.939 15.3777 18.086C15.4759 18.2329 15.5283 18.4057 15.5283 18.5825C15.5288 18.7001 15.5061 18.8167 15.4614 18.9256C15.4167 19.0344 15.351 19.1334 15.2679 19.2168C15.1849 19.3001 15.0862 19.3663 14.9775 19.4114C14.8688 19.4566 14.7523 19.4798 14.6347 19.4798V19.4761ZM23.9838 19.4761C23.8071 19.4761 23.6343 19.4237 23.4873 19.3255C23.3404 19.2273 23.2258 19.0877 23.1582 18.9244C23.0906 18.7611 23.0729 18.5815 23.1073 18.4081C23.1418 18.2348 23.2269 18.0755 23.3519 17.9505C23.4769 17.8256 23.6361 17.7404 23.8095 17.706C23.9828 17.6715 24.1625 17.6892 24.3258 17.7568C24.4891 17.8245 24.6287 17.939 24.7269 18.086C24.8251 18.2329 24.8775 18.4057 24.8775 18.5825C24.8778 18.7001 24.855 18.8166 24.8103 18.9254C24.7655 19.0342 24.6998 19.1331 24.6168 19.2165C24.5338 19.2999 24.4351 19.366 24.3265 19.4112C24.2179 19.4564 24.1015 19.4797 23.9838 19.4798V19.4761ZM26.1781 23.0563C26.0011 23.0565 25.828 23.0042 25.6807 22.906C25.5335 22.8078 25.4187 22.668 25.3509 22.5045C25.283 22.341 25.2653 22.1611 25.2997 21.9875C25.3342 21.8138 25.4195 21.6543 25.5446 21.5292C25.6698 21.404 25.8293 21.3188 26.0029 21.2843C26.1765 21.2498 26.3565 21.2676 26.52 21.3354C26.6835 21.4032 26.8232 21.5181 26.9214 21.6653C27.0196 21.8126 27.072 21.9857 27.0718 22.1627C27.0723 22.2803 27.0495 22.3969 27.0048 22.5058C26.9601 22.6146 26.8944 22.7136 26.8113 22.797C26.7283 22.8804 26.6296 22.9465 26.521 22.9917C26.4123 23.0368 26.2958 23.0601 26.1781 23.0601V23.0563Z" fill="#344054"/>
<path d="M15.5245 9.65048C15.3478 9.65048 15.175 9.59807 15.028 9.49987C14.881 9.40167 14.7665 9.2621 14.6989 9.09881C14.6312 8.93551 14.6136 8.75583 14.648 8.58248C14.6825 8.40912 14.7676 8.24989 14.8926 8.12491C15.0176 7.99993 15.1768 7.91481 15.3502 7.88033C15.5235 7.84585 15.7032 7.86355 15.8665 7.93119C16.0298 7.99883 16.1694 8.11337 16.2676 8.26033C16.3658 8.4073 16.4182 8.58008 16.4182 8.75683C16.4183 8.87422 16.3953 8.99048 16.3504 9.09896C16.3055 9.20744 16.2397 9.30599 16.1567 9.389C16.0737 9.47201 15.9751 9.53784 15.8666 9.58271C15.7581 9.62757 15.6419 9.6506 15.5245 9.65048Z" fill="#344054"/>
<path d="M23.09 9.65048C22.9133 9.6503 22.7406 9.59774 22.5938 9.49943C22.4469 9.40112 22.3325 9.26149 22.265 9.09817C22.1975 8.93486 22.18 8.7552 22.2146 8.58191C22.2491 8.40862 22.3343 8.24947 22.4594 8.12458C22.5844 7.99969 22.7436 7.91467 22.917 7.88026C23.0903 7.84586 23.2699 7.86361 23.4331 7.93128C23.5964 7.99894 23.7359 8.11348 23.8341 8.26042C23.9322 8.40736 23.9846 8.58012 23.9846 8.75683C23.9846 8.87426 23.9614 8.99054 23.9165 9.09902C23.8715 9.20751 23.8056 9.30606 23.7225 9.38906C23.6395 9.47206 23.5408 9.53787 23.4323 9.58273C23.3237 9.62758 23.2074 9.6506 23.09 9.65048Z" fill="#344054"/>
<path d="M15.4414 27.4904L19.3081 29.8144V32.3063L15.4414 27.4904Z" fill="#344054"/>
<path d="M23.1743 27.4904L19.3076 29.8144V32.3063L23.1743 27.4904Z" fill="#344054"/>
</g>
<defs>
<clipPath id="clip0_1746_49339">
<rect width="19.4781" height="24.4609" fill="white" transform="translate(9.73926 7.86316)"/>
</clipPath>
</defs>
</svg>
