<svg width="39" height="40" viewBox="0 0 39 40" fill="none" xmlns="http://www.w3.org/2000/svg">
<rect width="38.9563" height="38.9563" rx="6.49271" transform="matrix(1 0 0 -1 -0.000976562 39.9218)" fill="white"/>
<rect x="0.405794" y="-0.405794" width="38.1447" height="38.1447" rx="6.08692" transform="matrix(1 0 0 -1 -0.000976562 39.1102)" stroke="black" stroke-opacity="0.02" stroke-width="0.811589"/>
<path d="M29.7322 14.2602C30.3745 22.9615 24.782 27.0741 19.7685 27.5127C15.1073 27.9205 10.7198 25.056 10.3349 20.655C10.0174 17.0191 12.2644 15.4711 14.0297 15.3168C15.8455 15.1576 17.3713 16.4099 17.5037 17.9262C17.6312 19.384 16.7217 20.0475 16.0891 20.1028C15.5889 20.1466 14.9595 19.8429 14.9027 19.1907C14.854 18.6303 15.0667 18.554 15.0147 17.9587C14.9222 16.8989 13.9981 16.7754 13.4922 16.8193C12.8799 16.8729 11.769 17.5876 11.9249 19.3678C12.0816 21.1634 13.8032 22.5822 16.0598 22.3849C18.4951 22.1721 20.1907 20.2757 20.3182 17.616C20.317 17.4751 20.3467 17.3357 20.4051 17.2075L20.4059 17.2042C20.4322 17.1485 20.4628 17.095 20.4977 17.0442C20.5496 16.9663 20.6162 16.8802 20.7023 16.786C20.7031 16.7835 20.7031 16.7835 20.7048 16.7835C20.7672 16.7129 20.8428 16.6365 20.928 16.5545C21.9918 15.5507 25.823 13.1833 29.4464 13.9329C29.523 13.9493 29.5922 13.9901 29.6437 14.0491C29.6952 14.1081 29.7262 14.1821 29.7322 14.2602Z" fill="#344054"/>
</svg>
