<svg width="39" height="40" viewBox="0 0 39 40" fill="none" xmlns="http://www.w3.org/2000/svg">
<rect width="38.9563" height="38.9563" rx="6.49271" transform="matrix(1 0 0 -1 -0.000976562 39.3154)" fill="white"/>
<rect x="0.405794" y="-0.405794" width="38.1447" height="38.1447" rx="6.08692" transform="matrix(1 0 0 -1 -0.000976562 38.5038)" stroke="black" stroke-opacity="0.02" stroke-width="0.811589"/>
<path fill-rule="evenodd" clip-rule="evenodd" d="M14.8853 10.9861C16.0937 9.80233 18.0269 9.80233 19.2354 10.9861L22.0962 13.7885C23.3404 15.0073 23.3404 17.0105 22.0962 18.2292L17.1104 23.1133L20.6861 26.616C21.3674 27.2834 21.3787 28.3766 20.7113 29.0579C20.0439 29.7391 18.9507 29.7504 18.2694 29.0831L9.60696 20.5974C8.36278 19.3786 8.36278 17.3755 9.60696 16.1567L14.8853 10.9861ZM14.6428 20.6961L19.4276 16.0089L17.0603 13.6899L12.2755 18.377L14.6428 20.6961Z" fill="#344054"/>
<path fill-rule="evenodd" clip-rule="evenodd" d="M22.1367 13.3542C23.3451 12.1705 25.2783 12.1705 26.4868 13.3542L29.3476 16.1567C30.5918 17.3755 30.5918 19.3786 29.3476 20.5974L20.6851 29.0831C20.0039 29.7504 18.9106 29.7392 18.2433 29.0579C17.5759 28.3767 17.5871 27.2834 18.2684 26.6161L21.8441 23.1133L19.2758 20.5974C18.0316 19.3786 18.0316 17.3755 19.2758 16.1567L22.1367 13.3542ZM24.3117 20.6961L26.679 18.377L24.3117 16.058L21.9443 18.377L24.3117 20.6961Z" fill="#344054"/>
<path opacity="0.95" d="M21.9454 18.3829L19.4306 15.9943L17.0186 18.3632L19.4736 20.8056L21.9454 18.3829Z" fill="#344054"/>
</svg>
