<svg width="39" height="40" viewBox="0 0 39 40" fill="none" xmlns="http://www.w3.org/2000/svg">
<rect width="38.9563" height="38.9563" rx="6.49271" transform="matrix(1 0 0 -1 0 39.4844)" fill="white"/>
<rect x="0.405794" y="-0.405794" width="38.1447" height="38.1447" rx="6.08692" transform="matrix(1 0 0 -1 0 38.6728)" stroke="black" stroke-opacity="0.02" stroke-width="0.811589"/>
<circle cx="19.4785" cy="20.0062" r="12" fill="#344054"/>
<path fill-rule="evenodd" clip-rule="evenodd" d="M27.1873 22.9726C27.3865 22.4552 27.5352 21.9127 27.6271 21.3511L19.004 21.6668L11.335 21.3828C11.4271 21.9321 11.5736 22.4631 11.7685 22.9699L19.5871 23.4009L27.1873 22.9726ZM19.4784 11.7485C23.5531 11.7485 26.9385 14.6997 27.6136 18.5813L19.004 20.2521L11.337 18.6176C11.9973 14.7182 15.3911 11.7485 19.4784 11.7485ZM15.6513 27.3254C16.7953 27.9248 18.0973 28.2639 19.4784 28.2639C20.8596 28.2639 22.1615 27.9248 23.3056 27.3254H15.6513ZM14.104 26.2758C13.5511 25.8014 13.0617 25.2551 12.6502 24.6515H26.3066C25.8952 25.2551 25.4057 25.8014 24.8528 26.2758H14.104Z" fill="white"/>
</svg>
