<svg width="39" height="40" viewBox="0 0 39 40" fill="none" xmlns="http://www.w3.org/2000/svg">
<rect width="38.9563" height="38.9563" rx="6.49271" transform="matrix(1 0 0 -1 -0.000976562 39.228)" fill="white"/>
<rect x="0.405794" y="-0.405794" width="38.1447" height="38.1447" rx="6.08692" transform="matrix(1 0 0 -1 -0.000976562 38.4164)" stroke="black" stroke-opacity="0.02" stroke-width="0.811589"/>
<path d="M15.4365 14.2385H24.312C24.4263 14.2381 24.5384 14.2693 24.6359 14.3287C24.7334 14.388 24.8125 14.4731 24.8643 14.5746C24.916 14.676 24.9386 14.7898 24.9293 14.9033C24.92 15.0167 24.8792 15.1253 24.8116 15.2171L20.588 21.0005C20.5203 21.0922 20.4796 21.2009 20.4703 21.3143C20.461 21.4277 20.4835 21.5415 20.5353 21.643C20.5871 21.7444 20.6662 21.8295 20.7637 21.8889C20.8612 21.9482 20.9733 21.9794 21.0876 21.979H24.8116C24.9083 21.9797 25.0038 21.9573 25.09 21.9136C25.1762 21.87 25.2506 21.8064 25.307 21.7281L29.5055 16.0032C29.5811 15.8977 29.6217 15.7712 29.6217 15.6415C29.6217 15.5118 29.5811 15.3854 29.5055 15.2798L25.8234 10.2658C25.7661 10.1872 25.691 10.1232 25.6042 10.0789C25.5174 10.0346 25.4213 10.0112 25.3238 10.0107H14.4078C14.3123 10.0122 14.2184 10.036 14.1337 10.0804C14.0491 10.1247 13.9762 10.1882 13.9208 10.2658L10.2598 15.2798C10.1842 15.3854 10.1436 15.5118 10.1436 15.6415C10.1436 15.7712 10.1842 15.8977 10.2598 16.0032L19.3788 28.4859C19.436 28.5645 19.5112 28.6285 19.598 28.6726C19.6848 28.7167 19.7809 28.7397 19.8784 28.7397C19.9759 28.7397 20.072 28.7167 20.1588 28.6726C20.2457 28.6285 20.3208 28.5645 20.378 28.4859L22.238 25.935C22.3154 25.8302 22.3571 25.7034 22.3571 25.5733C22.3571 25.4431 22.3154 25.3164 22.238 25.2115L14.9368 15.2171C14.8692 15.1253 14.8285 15.0167 14.8192 14.9033C14.8099 14.7898 14.8324 14.676 14.8842 14.5746C14.936 14.4731 15.015 14.388 15.1126 14.3287C15.2101 14.2693 15.3222 14.2381 15.4365 14.2385V14.2385Z" fill="#344054"/>
</svg>
