<svg width="39" height="39" viewBox="0 0 39 39" fill="none" xmlns="http://www.w3.org/2000/svg">
<rect width="38.9563" height="38.9563" rx="6.49271" transform="matrix(1 0 0 -1 -0.000976562 38.9656)" fill="white"/>
<rect x="0.405794" y="-0.405794" width="38.1447" height="38.1447" rx="6.08692" transform="matrix(1 0 0 -1 -0.000976562 38.154)" stroke="black" stroke-opacity="0.02" stroke-width="0.811589"/>
<rect x="7.47852" y="9.80994" width="24" height="19.3548" rx="3" fill="#1D2939"/>
<path d="M13.3916 14.5534C13.3916 13.8985 12.8621 13.3676 12.209 13.3676C11.5558 13.3676 11.0264 13.8985 11.0264 14.5534C11.0264 15.2083 11.5558 15.7393 12.209 15.7393C12.8621 15.7393 13.3916 15.2083 13.3916 14.5534Z" fill="url(#paint0_linear_1746_49165)"/>
<path d="M13.3916 14.5534C13.3916 13.8985 12.8621 13.3676 12.209 13.3676C11.5558 13.3676 11.0264 13.8985 11.0264 14.5534C11.0264 15.2083 11.5558 15.7393 12.209 15.7393C12.8621 15.7393 13.3916 15.2083 13.3916 14.5534Z" fill="url(#paint1_linear_1746_49165)"/>
<path d="M13.3916 14.5534C13.3916 13.8985 12.8621 13.3676 12.209 13.3676C11.5558 13.3676 11.0264 13.8985 11.0264 14.5534C11.0264 15.2083 11.5558 15.7393 12.209 15.7393C12.8621 15.7393 13.3916 15.2083 13.3916 14.5534Z" fill="white"/>
<path d="M13.3916 24.0327C13.3916 23.3777 12.8621 22.8468 12.209 22.8468C11.5558 22.8468 11.0264 23.3777 11.0264 24.0327C11.0264 24.6876 11.5558 25.2185 12.209 25.2185C12.8621 25.2185 13.3916 24.6876 13.3916 24.0327Z" fill="white"/>
<path d="M27.583 19.2967C27.583 18.6418 27.0535 18.1108 26.4004 18.1108C25.7472 18.1108 25.2178 18.6418 25.2178 19.2967C25.2178 19.9516 25.7472 20.4826 26.4004 20.4826C27.0535 20.4826 27.583 19.9516 27.583 19.2967Z" fill="url(#paint2_linear_1746_49165)"/>
<path d="M27.583 19.2967C27.583 18.6418 27.0535 18.1108 26.4004 18.1108C25.7472 18.1108 25.2178 18.6418 25.2178 19.2967C25.2178 19.9516 25.7472 20.4826 26.4004 20.4826C27.0535 20.4826 27.583 19.9516 27.583 19.2967Z" fill="white"/>
<path d="M26.4003 13.3676H16.9395C16.2863 13.3676 15.7568 13.8985 15.7568 14.5534C15.7568 15.2083 16.2863 15.7393 16.9395 15.7393H26.4003C27.0534 15.7393 27.5829 15.2083 27.5829 14.5534C27.5829 13.8985 27.0534 13.3676 26.4003 13.3676Z" fill="white"/>
<path d="M26.4003 22.8467H16.9395C16.2863 22.8467 15.7568 23.3776 15.7568 24.0326C15.7568 24.6875 16.2863 25.2184 16.9395 25.2184H26.4003C27.0534 25.2184 27.5829 24.6875 27.5829 24.0326C27.5829 23.3776 27.0534 22.8467 26.4003 22.8467Z" fill="white"/>
<path d="M21.6697 18.1108H12.209C11.5558 18.1108 11.0264 18.6418 11.0264 19.2967C11.0264 19.9516 11.5558 20.4826 12.209 20.4826H21.6697C22.3229 20.4826 22.8524 19.9516 22.8524 19.2967C22.8524 18.6418 22.3229 18.1108 21.6697 18.1108Z" fill="white"/>
<defs>
<linearGradient id="paint0_linear_1746_49165" x1="11.3907" y1="15.723" x2="13.0033" y2="13.5728" gradientUnits="userSpaceOnUse">
<stop stop-color="#4462FE"/>
<stop offset="1" stop-color="#7D69FA"/>
</linearGradient>
<linearGradient id="paint1_linear_1746_49165" x1="11.2342" y1="15.7404" x2="13.2206" y2="15.6389" gradientUnits="userSpaceOnUse">
<stop stop-color="#3757FD"/>
<stop offset="1" stop-color="#6980FA"/>
</linearGradient>
<linearGradient id="paint2_linear_1746_49165" x1="25.6956" y1="20.083" x2="27.1589" y2="18.5301" gradientUnits="userSpaceOnUse">
<stop stop-color="#29BDFF"/>
<stop offset="1" stop-color="#96E7FB"/>
</linearGradient>
</defs>
</svg>
