<svg width="39" height="40" viewBox="0 0 39 40" fill="none" xmlns="http://www.w3.org/2000/svg">
<rect width="38.9563" height="38.9563" rx="6.49271" transform="matrix(1 0 0 -1 0 39.5281)" fill="white"/>
<rect x="0.405794" y="-0.405794" width="38.1447" height="38.1447" rx="6.08692" transform="matrix(1 0 0 -1 0 38.7165)" stroke="black" stroke-opacity="0.02" stroke-width="0.811589"/>
<rect x="7.21777" y="10.7874" width="24" height="18.525" rx="5" fill="#344054"/>
<path d="M19.5492 27.7124C17.6711 27.7832 16.7592 26.3985 15.2748 22.6043C14.7955 21.112 15.9996 19.5832 17.7727 17.0975C17.8642 16.9691 17.946 16.8316 18.0169 16.6907C19.6319 13.4792 20.6527 12.5635 22.5047 12.3847L25.6139 12.4834C25.9024 12.4926 26.1892 12.5413 26.4608 12.6391C28.2727 13.2908 29.106 14.0268 29.3829 16.4885C29.7285 22.4743 30.1402 26.1821 26.6919 27.5574C26.4077 27.6707 26.101 27.7124 25.7951 27.7124H19.5492Z" fill="white"/>
<path d="M11.7128 22.4971H10.6823C10.1371 22.4971 9.54956 22.6075 9.23245 23.0509C8.05765 24.6938 10.3798 27.5884 13.8562 27.5884C14.1456 27.5626 14.3724 27.5139 14.5551 27.429C15.3272 27.0704 15.013 25.9472 14.5546 25.2299L13.3981 23.4201C13.0306 22.8451 12.3953 22.4971 11.7128 22.4971Z" fill="white"/>
<path d="M11.8274 12.7352C9.3302 13.6614 8.90801 15.2476 8.91518 18.2258C8.91656 18.798 9.08382 19.3694 9.45195 19.8075C11.6778 22.4561 13.3352 19.9995 15.9268 16.9612C16.1642 16.6829 16.3614 16.3669 16.4595 16.0145C16.7913 14.8232 16.5994 14.0061 15.9112 12.8724C15.7256 12.5665 15.379 12.3994 15.022 12.4234L12.5477 12.5891C12.3024 12.6055 12.0579 12.6498 11.8274 12.7352Z" fill="white"/>
</svg>
