<svg width="39" height="40" viewBox="0 0 39 40" fill="none" xmlns="http://www.w3.org/2000/svg">
<rect width="38.9563" height="38.9563" rx="6.49271" transform="matrix(1 0 0 -1 0 39.1842)" fill="white"/>
<rect x="0.405794" y="-0.405794" width="38.1447" height="38.1447" rx="6.08692" transform="matrix(1 0 0 -1 0 38.3726)" stroke="black" stroke-opacity="0.02" stroke-width="0.811589"/>
<path d="M14.0272 15.7311C13.8949 15.567 13.6942 15.4757 13.4798 15.4757H9.06C9.02352 15.4757 8.99159 15.4621 8.96423 15.4393C8.94141 15.4165 8.92773 15.3891 8.92773 15.3572V12.3789C8.92773 12.3469 8.94141 12.3196 8.96423 12.2968C8.99159 12.2694 9.02352 12.2557 9.06 12.2603H13.7307C14.9075 12.2603 15.9246 12.7437 16.7821 13.7061L17.9178 15.0926L15.7057 17.7881L14.0272 15.7311ZM22.1917 13.6924C23.0446 12.7392 24.0664 12.2603 25.2569 12.2603H29.9138C29.9459 12.2557 29.9777 12.2694 30.0006 12.2876C30.0233 12.3105 30.0325 12.3424 30.0279 12.3789V15.3572C30.0279 15.3891 30.0187 15.4165 30.0006 15.4393C29.9777 15.4666 29.9459 15.4803 29.9138 15.4757H25.494C25.2842 15.4712 25.0835 15.567 24.9467 15.7311L21.6901 19.6946L24.9604 23.6855C25.0926 23.836 25.2888 23.9272 25.4895 23.9226H29.9092C29.9413 23.918 29.9777 23.9363 29.996 23.959C30.0142 23.9865 30.0279 24.0229 30.0233 24.0548V27.0332C30.0233 27.0651 30.0142 27.0924 29.996 27.1153C29.9731 27.1426 29.9413 27.1563 29.9092 27.1517H25.2569C24.0664 27.1517 23.0538 26.6683 22.2054 25.7059L19.4961 22.3993L16.7867 25.7059C15.9337 26.6683 14.9121 27.1517 13.7216 27.1517H9.06C9.02808 27.1563 8.99159 27.138 8.97335 27.1153C8.95053 27.0878 8.94141 27.0514 8.94597 27.0195V24.0412C8.94597 24.0092 8.95511 23.9819 8.97335 23.959C8.99615 23.9317 9.02808 23.918 9.06 23.9226H13.4798C13.6896 23.9226 13.8903 23.8268 14.0272 23.6672L17.2245 19.7631L22.1917 13.6924Z" fill="#344054"/>
</svg>
