<svg width="39" height="40" viewBox="0 0 39 40" fill="none" xmlns="http://www.w3.org/2000/svg">
<rect width="38.9563" height="38.9563" rx="6.49271" transform="matrix(1 0 0 -1 -0.000976562 39.0092)" fill="white"/>
<rect x="0.405794" y="-0.405794" width="38.1447" height="38.1447" rx="6.08692" transform="matrix(1 0 0 -1 -0.000976562 38.1976)" stroke="black" stroke-opacity="0.02" stroke-width="0.811589"/>
<g clip-path="url(#clip0_1746_49150)">
<path d="M19.4151 16.6776C21.1966 16.6776 22.6408 15.2334 22.6408 13.4519C22.6408 11.6704 21.1966 10.2262 19.4151 10.2262C17.6336 10.2262 16.1895 11.6704 16.1895 13.4519C16.1895 15.2334 17.6336 16.6776 19.4151 16.6776Z" fill="#344054"/>
<path d="M19.4153 18.5385C16.1276 18.5385 13.4602 15.8711 13.4602 12.5834C13.5967 10.9706 12.2196 10.9706 11.8474 11.4048C11.8226 11.4296 11.7978 11.4544 11.7605 11.4917C10.4951 13.1417 9.73828 15.1888 9.73828 17.4344C9.73828 19.3946 11.5992 20.66 13.5719 20.66H25.2712C27.2314 20.66 29.1048 19.407 29.1048 17.4344C29.1048 15.2012 28.348 13.1417 27.0825 11.5041C27.0577 11.4668 27.0329 11.442 26.9957 11.4172C26.6111 10.9706 25.2339 10.9706 25.3704 12.5834C25.3704 15.8711 22.703 18.5385 19.4153 18.5385Z" fill="#344054"/>
<path d="M20.4321 28.2404L23.1491 24.3323C23.7198 23.5135 23.1367 22.3845 22.1317 22.3845H19.4147H16.6977C15.6928 22.3845 15.1097 23.5135 15.6804 24.3323L18.3974 28.2404C18.8937 28.9475 19.9358 28.9475 20.4321 28.2404Z" fill="#344054"/>
</g>
<defs>
<clipPath id="clip0_1746_49150">
<rect width="19.4781" height="18.6097" fill="white" transform="translate(9.73828 10.2262)"/>
</clipPath>
</defs>
</svg>
