<svg width="39" height="40" viewBox="0 0 39 40" fill="none" xmlns="http://www.w3.org/2000/svg">
<rect width="38.9563" height="38.9563" rx="6.49271" transform="matrix(1 0 0 -1 0.000976562 39.8341)" fill="white"/>
<rect x="0.405794" y="-0.405794" width="38.1447" height="38.1447" rx="6.08692" transform="matrix(1 0 0 -1 0.000976562 39.0225)" stroke="black" stroke-opacity="0.02" stroke-width="0.811589"/>
<g clip-path="url(#clip0_1746_49246)">
<path d="M8.52246 15.1285C8.52246 13.1232 8.52246 12.1205 8.91272 11.3546C9.25601 10.6808 9.80376 10.1331 10.4775 9.7898C11.2434 9.39954 12.2461 9.39954 14.2514 9.39954H24.2717C26.277 9.39954 27.2797 9.39954 28.0456 9.7898C28.7194 10.1331 29.2671 10.6808 29.6104 11.3546C30.0007 12.1205 30.0007 13.1232 30.0007 15.1285V25.0698C30.0007 27.0752 30.0007 28.0778 29.6104 28.8437C29.2671 29.5175 28.7194 30.0652 28.0456 30.4085C27.2797 30.7988 26.277 30.7988 24.2717 30.7988H14.2514C12.2461 30.7988 11.2434 30.7988 10.4775 30.4085C9.80376 30.0652 9.25601 29.5175 8.91272 28.8437C8.52246 28.0778 8.52246 27.0752 8.52246 25.0698V15.1285Z" fill="#344054"/>
<path d="M13.1808 14.7505C12.8127 14.7505 12.6709 15.2039 12.9797 15.3934L20.7063 20.0351C20.8989 20.1532 21.1558 20.1066 21.2884 19.9293L24.6856 15.4858C24.9165 15.1771 24.6832 14.7505 24.2834 14.7505H13.1808Z" fill="white"/>
<path d="M25.3252 25.4501C25.6932 25.4501 25.8387 24.9941 25.5299 24.8047L17.8011 20.1636C17.6085 20.0455 17.3579 20.098 17.2253 20.2752L13.8215 24.7179C13.5906 25.0265 13.8312 25.4501 14.231 25.4501H25.3252Z" fill="white"/>
</g>
<defs>
<clipPath id="clip0_1746_49246">
<rect width="21.9129" height="21.9129" fill="white" transform="translate(8.52246 9.39954)"/>
</clipPath>
</defs>
</svg>
