<svg width="227" height="74" viewBox="0 0 227 74" fill="none" xmlns="http://www.w3.org/2000/svg">
<g clip-path="url(#clip0_1442_49113)">
<path d="M118.758 40.1122L125.633 51.4247H119.571L113.196 41.1122H106.258V51.3622H100.883V35.9872H114.321C115.508 35.9872 116.571 35.6747 117.446 34.7997C118.258 33.9872 118.696 33.0497 118.696 31.7997C118.696 30.5914 118.279 29.5705 117.446 28.7372C116.571 27.9872 115.633 27.5497 114.321 27.5497H100.883V22.6122H114.258C117.071 22.6122 119.446 23.4247 121.383 25.1747C123.321 26.9872 124.258 29.2372 124.258 31.8622C124.258 33.7372 123.758 35.4872 122.633 36.9872C121.696 38.4247 120.446 39.4247 118.758 40.1122ZM89.0083 35.9872H94.3833V51.4247H89.0083V46.1747H70.6333V41.4872L84.1333 22.6122H90.3833L77.0708 41.2372H89.0083V35.9872ZM156.133 29.0497L151.633 32.3622L151.383 31.9247C150.508 30.4247 149.446 29.2997 147.946 28.4872C146.508 27.6122 144.883 27.1747 143.196 27.1747C140.446 27.1747 138.133 28.1122 136.321 29.9872C134.508 31.8622 133.571 34.1747 133.571 36.9872C133.571 39.7372 134.508 42.1122 136.321 43.9872C138.133 45.8622 140.446 46.7372 143.196 46.7372H143.633V51.9247H143.196C138.904 51.9247 135.3 50.4872 132.383 47.6122C129.446 44.7997 128.008 41.1747 128.008 36.9872C128.008 32.7789 129.467 29.2372 132.383 26.3622C135.196 23.4872 138.883 22.0497 143.196 22.0497C146.071 22.0497 148.758 22.7372 151.133 24.1747C153.133 25.3622 154.758 26.8622 155.946 28.7372L156.133 29.0497Z" fill="#344054"/>
</g>
<rect x="0.95166" y="0.783112" width="224.863" height="72.2831" stroke="white" stroke-opacity="0.06"/>
<defs>
<clipPath id="clip0_1442_49113">
<rect width="86" height="30" fill="white" transform="translate(70.3833 21.9247)"/>
</clipPath>
</defs>
</svg>
