<svg width="226" height="74" viewBox="0 0 226 74" fill="none" xmlns="http://www.w3.org/2000/svg">
<g clip-path="url(#clip0_1442_49085)">
<path d="M59.2469 41.1675H51.2915L49.2879 45.5282H43.9844L55.1808 22.546H59.6594L65.3755 45.5282H60.3665L59.2469 41.1675ZM58.363 37.1014L56.654 29.0281L53.0594 37.1014H58.363ZM67.8505 30.1478H72.4469L72.0344 32.446C72.388 31.621 73.0362 30.9139 73.8022 30.3835C74.5683 29.971 75.3933 29.7942 76.2183 29.7942C76.8469 29.7942 77.4755 29.8728 78.104 30.0299L77.1612 34.6264C76.5719 34.2728 75.8647 34.096 75.1576 34.096C74.3326 34.096 73.4487 34.4496 72.8594 35.0389C72.0344 35.8639 71.6808 37.3371 71.4451 38.9871L70.679 45.5282H66.1415L67.8505 30.1478ZM88.9469 35.0978C88.1219 34.2728 87.0022 33.8014 85.7647 33.8014C84.763 33.8014 83.7612 34.2139 83.054 34.98C82.3469 35.8639 81.9933 36.9246 81.9933 38.0442C81.9344 39.046 82.288 39.9889 82.9951 40.755C83.6433 41.4032 84.5272 41.8157 85.4701 41.7567C86.5897 41.7567 87.5915 41.2853 88.3576 40.5192L87.8862 45.0567C86.7076 45.705 85.4112 45.9996 84.1147 45.9407C82.229 45.9407 80.638 45.5282 79.1647 43.8192C78.0451 42.4639 77.279 40.6371 77.279 38.28C77.279 35.805 78.0451 33.6246 79.5183 32.0335C80.6969 30.6782 82.5826 29.5585 85.3522 29.5585C86.8255 29.5585 88.2397 29.9121 89.5362 30.5603L88.9469 35.0978ZM97.1969 20.3656L95.8415 31.7978C96.3522 31.2478 96.9415 30.7764 97.6094 30.3835C98.6112 29.7942 99.4362 29.7353 100.497 29.7353C101.616 29.7353 103.031 29.9121 104.091 31.0317C105.152 32.1514 105.329 33.7425 105.329 34.6853C105.29 35.6675 105.211 36.6496 105.093 37.6317L104.209 45.4692H99.6719L100.438 38.8692C100.516 38.0442 100.575 37.1996 100.615 36.3353C100.615 35.6871 100.438 35.0389 100.025 34.5085C99.613 34.096 99.0237 33.8014 98.4344 33.8603C97.6094 33.8014 96.8433 34.096 96.254 34.6853C95.429 35.5692 95.2522 37.1014 95.1933 37.9264L94.3094 45.4692H89.7719L92.6005 20.3656H97.1969ZM111.163 38.7514C111.163 39.5764 111.34 40.4014 111.752 41.1085C112.224 41.8157 113.049 42.2282 113.933 42.1692C114.581 42.1692 115.229 42.0514 115.759 41.6978C116.172 41.3442 116.525 40.8728 116.702 40.3425L121.358 40.755C120.827 42.2282 119.943 43.5246 118.765 44.5853C117.115 45.8817 115.229 45.9996 113.874 45.9996C112.165 45.9996 110.043 45.7639 108.393 43.9371C106.979 42.4639 106.566 40.6371 106.566 38.5746C106.566 35.1567 107.863 32.9764 109.041 31.7389C110.75 29.971 112.872 29.6174 114.64 29.6174C117.056 29.6174 118.883 30.4425 119.943 31.5621C121.888 33.6246 121.947 36.9246 121.77 38.7514H111.163ZM117.35 35.746C117.291 34.98 116.938 34.2728 116.408 33.7425C115.877 33.33 115.229 33.0942 114.522 33.0942C113.697 33.0942 112.931 33.4478 112.4 34.0371C111.988 34.5085 111.693 35.0978 111.575 35.746H117.35ZM128.665 34.155L127.368 45.4692H122.772L124.127 34.155H122.477L122.89 30.1478H124.54L125.129 25.1978H129.666L129.136 30.1478H131.906L131.493 34.155H128.665ZM137.209 43.5246L131.729 30.1478H136.915L140.097 38.5746L144.87 30.1478H150.233L136.502 53.4246H131.375L137.209 43.5246ZM152.885 53.3657H148.347L150.94 30.0888H155.536L155.301 31.9157C155.772 31.2675 156.361 30.7371 157.069 30.3246C157.952 29.7942 158.954 29.5585 160.015 29.6174C162.195 29.6174 163.492 30.5014 164.258 31.2675C165.436 32.505 166.144 34.6853 166.144 37.0425C166.144 39.9889 165.201 42.405 163.786 43.9371C162.549 45.2925 160.781 46.0585 158.954 45.9996C157.894 46.0585 156.833 45.8228 155.89 45.3514C155.183 44.9389 154.535 44.2907 154.063 43.5835L152.885 53.3657ZM155.536 35.0389C154.77 35.8639 154.358 36.9835 154.358 38.1621C154.358 39.046 154.652 39.93 155.242 40.6371C155.831 41.3442 156.715 41.7567 157.658 41.7567C158.601 41.6978 159.485 41.3442 160.192 40.6371C160.958 39.7532 161.429 38.5746 161.429 37.3371C161.429 36.3942 161.076 35.5103 160.486 34.7442C159.838 34.2139 159.013 33.8603 158.188 33.8603C157.186 33.8603 156.185 34.2728 155.536 35.0389ZM171.683 38.7514C171.624 39.5764 171.801 40.4014 172.213 41.0496C172.685 41.8157 173.569 42.2282 174.394 42.1692C175.042 42.1692 175.69 42.0514 176.22 41.6978C176.692 41.3442 176.986 40.8728 177.222 40.3425L181.819 40.755C181.288 42.2282 180.404 43.5246 179.226 44.5264C177.635 45.8817 175.69 45.9996 174.394 45.9996C172.626 45.9996 170.563 45.7639 168.854 43.9371C167.499 42.4639 167.086 40.6371 167.086 38.5746C167.086 35.1567 168.324 32.9175 169.502 31.7389C171.211 29.971 173.392 29.6174 175.16 29.6174C177.576 29.6174 179.402 30.4425 180.463 31.5621C182.349 33.6246 182.408 36.9246 182.231 38.7514H171.683ZM177.87 35.746C177.811 34.98 177.517 34.2728 176.986 33.7425C176.456 33.33 175.749 33.0942 175.101 33.0942C174.276 33.0942 173.451 33.4478 172.92 34.0371C172.508 34.5085 172.213 35.0978 172.095 35.746H177.87Z" fill="#344054"/>
</g>
<rect x="0.5" y="0.783112" width="224.863" height="72.2831" stroke="white" stroke-opacity="0.06"/>
<defs>
<clipPath id="clip0_1442_49085">
<rect width="140" height="33" fill="white" transform="translate(42.9316 20.4247)"/>
</clipPath>
</defs>
</svg>
