<svg width="356" height="93" viewBox="0 0 356 93" fill="none" xmlns="http://www.w3.org/2000/svg">
<g clip-path="url(#clip0_417_44)">
<path d="M193.814 56.0642L186.029 37.8204H188.676L194.816 52.3383L200.983 37.8204H203.579L195.82 56.0642H193.814ZM207.54 56.0642V37.8204H218.179V40.0816H209.931V45.6062H216.637V47.8674H209.931V53.803H218.179V56.0642H207.54ZM238.674 56.0642H236.619L225.518 41.8546V56.0642H223.129V37.8204H225.209L236.31 52.03V37.8204H238.674V56.0642ZM248.514 56.0642V40.0816H242.835V37.8204H256.531V40.0816H250.852V56.0642H248.514ZM272.755 54.3682C271.436 55.7045 269.714 56.3726 267.59 56.3726C265.466 56.3726 263.745 55.7045 262.425 54.3682C261.106 53.0149 260.446 51.2163 260.446 48.9722V37.8204H262.837V49.0236C262.837 50.651 263.265 51.9101 264.121 52.8008C264.978 53.6745 266.134 54.1114 267.59 54.1114C269.045 54.1114 270.203 53.6745 271.058 52.8008C271.915 51.9101 272.344 50.651 272.344 49.0236V37.8204H274.733V48.9722C274.733 51.2163 274.073 53.0149 272.755 54.3682ZM280.607 56.0642V37.8204H286.825C288.504 37.8204 289.831 38.283 290.808 39.208C291.784 40.1159 292.272 41.3321 292.272 42.8567C292.272 44.1929 291.871 45.2892 291.064 46.1457C290.277 47.0022 289.172 47.5333 287.751 47.7388L294.791 56.0642H291.784L284.769 47.7645H282.997V56.0642H280.607ZM282.997 45.6319H286.543C287.605 45.6319 288.427 45.4006 289.01 44.9381C289.592 44.4584 289.883 43.7646 289.883 42.8567C289.883 41.9488 289.592 41.255 289.01 40.7754C288.427 40.2786 287.605 40.0302 286.543 40.0302H282.997V45.6319ZM298.202 56.0642V37.8204H308.84V40.0816H300.593V45.6062H307.299V47.8674H300.593V53.803H308.84V56.0642H298.202ZM318.826 56.3726C316.976 56.3726 315.46 55.8671 314.278 54.8565C313.113 53.8457 312.514 52.621 312.48 51.182H314.869C314.972 52.1242 315.408 52.8523 316.18 53.3661C316.967 53.8801 317.842 54.1371 318.801 54.1371C319.794 54.1371 320.617 53.8886 321.268 53.3918C321.919 52.895 322.244 52.2356 322.244 51.4133C322.244 50.0258 321.378 49.0065 319.649 48.3555L317.13 47.4305C315.692 46.9338 314.629 46.2743 313.945 45.4519C313.276 44.6297 312.934 43.5762 312.916 42.2914C312.916 40.8354 313.43 39.6791 314.459 38.8226C315.504 37.9489 316.839 37.5121 318.466 37.5121C320.179 37.5121 321.533 38.0089 322.526 39.0024C323.537 39.9788 324.103 41.1266 324.223 42.4456H321.859C321.636 41.5377 321.208 40.8611 320.573 40.4157C319.957 39.9703 319.237 39.7476 318.416 39.7476C317.524 39.7476 316.779 39.9703 316.18 40.4157C315.598 40.8611 315.307 41.4606 315.307 42.2143C315.307 42.9681 315.511 43.5676 315.923 44.013C316.334 44.4584 317.001 44.8438 317.927 45.1693L320.266 46.0173C321.704 46.5312 322.792 47.2163 323.528 48.0728C324.266 48.9123 324.633 50.0001 324.633 51.3362C324.633 52.8608 324.094 54.0857 323.015 55.0106C321.935 55.9186 320.539 56.3726 318.826 56.3726Z" fill="#344054"/>
<g clip-path="url(#clip1_417_44)">
<path d="M59.4067 37.3899C54.0237 37.3899 49.8176 41.4763 49.8176 46.9468C49.8176 52.4172 53.9174 56.4687 59.4067 56.4687C64.896 56.4687 69.0671 52.3473 69.0671 46.9118C69.0671 41.5113 64.9673 37.3899 59.4067 37.3899ZM59.443 52.5262C56.3776 52.5262 54.1313 50.1454 54.1313 46.9481C54.1313 43.7145 56.3412 41.3351 59.4067 41.3351C62.5085 41.3351 64.7534 43.7508 64.7534 46.9481C64.7534 50.1454 62.5085 52.5262 59.443 52.5262ZM70.2427 41.5476H72.9168V56.1149H77.1942V37.745H70.2427V41.5476ZM39.0528 41.3337C41.2991 41.3337 43.0814 42.7192 43.7579 44.7798H48.2855C47.465 40.3747 43.8292 37.3899 39.0891 37.3899C33.7061 37.3899 29.5 41.4763 29.5 46.9481C29.5 52.4199 33.5998 56.47 39.0891 56.47C43.723 56.47 47.43 53.4852 48.2505 49.0438H43.7579C43.1163 51.1044 41.3341 52.5262 39.0878 52.5262C35.986 52.5262 33.8124 50.1454 33.8124 46.9481C33.8137 43.7145 35.9524 41.3337 39.0528 41.3337ZM151.516 45.1713L148.379 44.7099C146.882 44.4974 145.813 43.9997 145.813 42.8268C145.813 41.5476 147.203 40.9087 149.092 40.9087C151.159 40.9087 152.479 41.7964 152.764 43.2532H156.899C156.435 39.5582 153.583 37.3913 149.199 37.3913C144.672 37.3913 141.678 39.7008 141.678 42.9693C141.678 46.0953 143.639 47.9085 147.595 48.4761L150.732 48.9375C152.265 49.15 153.12 49.7553 153.12 50.8919C153.12 52.3486 151.623 52.9526 149.556 52.9526C147.024 52.9526 145.599 51.9223 145.385 50.3593H141.179C141.571 53.948 144.387 56.47 149.52 56.47C154.19 56.47 157.29 54.338 157.29 50.678C157.29 47.4095 155.045 45.7039 151.516 45.1713ZM75.0555 30.1776C73.4871 30.1776 72.3101 31.3142 72.3101 32.8771C72.3101 34.4401 73.4857 35.5767 75.0555 35.5767C76.6238 35.5767 77.8008 34.4401 77.8008 32.8771C77.8008 31.3142 76.6238 30.1776 75.0555 30.1776ZM137.828 44.0347C137.828 40.0559 135.404 37.3913 130.271 37.3913C125.424 37.3913 122.715 39.8434 122.179 43.6096H126.422C126.636 42.1529 127.776 40.945 130.2 40.945C132.375 40.945 133.444 41.904 133.444 43.077C133.444 44.605 131.483 44.995 129.059 45.2439C125.78 45.599 121.717 46.7356 121.717 50.9995C121.717 54.3044 124.177 56.435 128.098 56.435C131.163 56.435 133.088 55.1558 134.051 53.1301C134.194 54.942 135.548 56.1149 137.438 56.1149H139.933V52.3137H137.829V44.0347H137.828ZM133.622 48.6537C133.622 51.1058 131.483 52.9176 128.881 52.9176C127.276 52.9176 125.921 52.2424 125.921 50.822C125.921 49.0101 128.096 48.5125 130.092 48.2999C132.017 48.1224 133.087 47.696 133.622 46.8782V48.6537ZM110.916 37.3899C108.527 37.3899 106.531 38.3853 105.105 40.0545V30H100.827V56.1149H105.033V53.6991C106.459 55.4397 108.492 56.47 110.916 56.47C116.048 56.47 119.934 52.4199 119.934 46.9481C119.934 41.4763 115.977 37.3899 110.916 37.3899ZM110.274 52.5262C107.208 52.5262 104.962 50.1454 104.962 46.9481C104.962 43.7508 107.243 41.3351 110.309 41.3351C113.411 41.3351 115.584 43.7159 115.584 46.9481C115.584 50.1454 113.339 52.5262 110.274 52.5262ZM90.5966 37.3899C87.8163 37.3899 85.9978 38.5265 84.9284 40.1258V37.745H80.686V56.1136H84.9634V46.1303C84.9634 43.3231 86.7456 41.3337 89.3834 41.3337C91.8435 41.3337 93.3756 43.0743 93.3756 45.5976V56.1149H97.653V45.2789C97.6543 40.6585 95.2668 37.3899 90.5966 37.3899ZM177.68 46.3442C177.68 41.0862 173.831 37.3913 168.662 37.3913C163.172 37.3913 159.144 41.5126 159.144 46.9481C159.144 52.6688 163.457 56.47 168.733 56.47C173.189 56.47 176.682 53.8404 177.573 50.1104H173.116C172.475 51.7447 170.906 52.6688 168.803 52.6688C166.057 52.6688 163.99 50.9632 163.527 47.9785H177.679V46.3442H177.68ZM163.778 44.9224C164.455 42.3641 166.38 41.1212 168.59 41.1212C171.014 41.1212 172.868 42.5066 173.295 44.9224H163.778Z" fill="#344054"/>
</g>
</g>
<rect x="0.5" y="0.5" width="354.955" height="92" stroke="white" stroke-opacity="0.06"/>
<defs>
<clipPath id="clip0_417_44">
<rect width="295.955" height="33" fill="white" transform="translate(30 30)"/>
</clipPath>
<clipPath id="clip1_417_44">
<rect width="148.18" height="26.47" fill="white" transform="translate(29.5 30)"/>
</clipPath>
</defs>
</svg>
