<svg width="227" height="74" viewBox="0 0 227 74" fill="none" xmlns="http://www.w3.org/2000/svg">
<g clip-path="url(#clip0_1442_49103)">
<path d="M72.1885 20.107H84.9991V23.507H76.8028V34.4356H83.4813V37.7142H76.8028V49.857H85.1206V53.1356H72.1885V20.107ZM90.2206 50.7678C88.8849 48.8654 88.217 46.0523 88.217 42.3285V31.2785C88.217 28.7284 88.4801 26.6237 89.0063 24.9642C89.5325 23.3046 90.4432 22.0499 91.7384 21.1999C93.0337 20.3094 94.8146 19.8642 97.0813 19.8642C100.117 19.8642 102.323 20.6332 103.699 22.1713C105.035 23.7094 105.703 26.138 105.703 29.457V30.732H101.392V29.6999C101.392 28.1213 101.291 26.907 101.088 26.057C100.886 25.1665 100.481 24.5189 99.8741 24.1142C99.267 23.6689 98.3563 23.4463 97.142 23.4463C95.8872 23.4463 94.936 23.7296 94.2884 24.2963C93.6813 24.9034 93.2765 25.6927 93.0741 26.6642C92.9122 27.6356 92.8313 28.9308 92.8313 30.5499V42.8142C92.8313 45.3642 93.1349 47.1856 93.742 48.2785C94.3491 49.3713 95.5229 49.9178 97.2634 49.9178C99.0039 49.9178 100.198 49.3309 100.846 48.157C101.453 46.9428 101.777 45.0201 101.817 42.3892V40.082H97.567V36.8035H105.946V53.1963H103.031L102.606 49.3713C101.554 52.2047 99.5908 53.6213 96.717 53.6213C93.7218 53.6213 91.5563 52.6701 90.2206 50.7678ZM110.924 20.107H115.478V53.1963H110.924V20.107ZM120.821 20.107H127.499C130.859 20.107 133.308 20.7951 134.846 22.1713C136.424 23.5475 137.213 25.7939 137.213 28.9106C137.213 33.1201 135.858 35.6904 133.146 36.6213L137.821 53.1963H133.388L129.078 37.6535H125.435V53.1963H120.821V20.107ZM127.196 34.3142C129.179 34.3142 130.616 33.9297 131.506 33.1606C132.356 32.3511 132.781 30.9142 132.781 28.8499C132.781 27.5142 132.619 26.4415 132.296 25.632C132.012 24.863 131.486 24.2963 130.717 23.932C129.948 23.5677 128.875 23.3856 127.499 23.3856H125.435V34.3142H127.196ZM142.071 20.107H146.685V49.857H155.124V53.1356H142.071V20.107Z" fill="#344054"/>
</g>
<rect x="1.22559" y="0.783112" width="224.863" height="72.2831" stroke="white" stroke-opacity="0.06"/>
<defs>
<clipPath id="clip0_1442_49103">
<rect width="85" height="35" fill="white" transform="translate(71.1553 18.9999)"/>
</clipPath>
</defs>
</svg>
