<svg width="227" height="74" viewBox="0 0 227 74" fill="none" xmlns="http://www.w3.org/2000/svg">
<path d="M51.2083 30.2441C50.8094 29.3716 50.0355 27.7036 49.3025 26.1239C50.1667 27.9725 51.0887 29.9477 51.4014 30.6299L51.5253 30.9003H51.5082L51.2083 30.2441ZM84.0709 18.8515V18.906H83.6619H72.9761H71.9676V18.8515H72.322H84.0709ZM59.7007 18.8515H59.7465L59.7552 18.8601V19.9146V22.477V22.7198L59.7007 22.6958V22.0954V18.8515ZM48.9833 23.2539C48.7513 22.7581 48.5697 22.37 48.4697 22.1561V21.0253L57.5106 29.9734H52.1195C51.5111 28.6566 49.8749 25.1596 48.9833 23.2539ZM48.4697 42.0222V33.074L57.5106 42.0222H48.4697ZM48.4697 54.1255V45.1773L57.5106 54.1255H48.4697ZM58.8284 43.8759V52.824L49.7875 43.8759H58.8284ZM58.8284 31.8271V40.7752L49.7875 31.8271H51.2775H58.8284ZM58.8284 23.3237V28.672L49.7875 19.7238H50.9025C51.9466 20.2071 57.1213 22.5633 58.8284 23.3237ZM60.682 22.477V21.0253L69.723 29.9734H60.682V22.477ZM71.0407 54.071H60.682V43.8214H71.0407V54.071ZM71.0407 42.0222H60.682V31.7726H71.0407V42.0222ZM71.0407 28.7264L61.9453 19.7238H71.0407V28.7264ZM72.8399 30.0279V21.0798L81.8808 30.0279H72.8399ZM72.8399 54.18V49.6491L77.4113 54.18H72.8399ZM83.1985 54.18H79.9821L72.8399 47.0904V43.9304H76.0574L83.1985 50.9666V54.18ZM83.1985 48.4683L78.6343 43.9849H83.1985V48.4683ZM83.1985 42.1312H72.8399V31.8816H83.1985V42.1312ZM83.1985 28.7849L74.1073 19.8328H83.1985V28.7849Z" stroke="#344054"/>
<mask id="mask0_1442_49107" style="mask-type:alpha" maskUnits="userSpaceOnUse" x="95" y="25" width="85" height="24">
<path d="M95.9814 48.5101V48.074C96.2796 47.965 96.7269 47.8559 97.3233 47.7469C97.957 47.6378 98.3856 47.547 98.6093 47.4743C98.8329 47.3652 99.0193 47.2381 99.1683 47.0926C99.2802 46.5475 99.3361 45.6207 99.3361 44.3122V30.7368L99.392 28.5016C99.392 28.0291 99.2988 27.7019 99.1125 27.5201C98.9261 27.3385 98.4415 27.1749 97.6587 27.0295C96.8388 26.8841 96.3728 26.7751 96.261 26.7024C96.1119 26.5933 96.0373 26.4843 96.0373 26.3753C96.0373 26.3389 96.056 26.2662 96.0932 26.1572C96.2423 26.0845 96.3915 26.0482 96.5405 26.0482C96.7269 26.0482 97.0997 26.0482 97.6587 26.0482H98.162C98.3483 26.0482 98.8329 26.0482 99.6156 26.0482H102.076L107.276 25.9391L112.755 25.721H113.258H114.041C114.227 25.721 114.413 25.7756 114.6 25.8846C114.674 26.0663 114.712 26.2117 114.712 26.3207V26.975L114.879 30.0825C114.879 30.228 114.861 30.3915 114.824 30.5733C114.637 30.6823 114.469 30.7368 114.32 30.7368C114.208 30.7368 114.115 30.7005 114.041 30.6278C113.966 30.4824 113.91 30.228 113.873 29.8646C113.836 29.392 113.649 28.756 113.314 27.9563C113.165 27.5929 112.904 27.3385 112.531 27.1931C111.823 26.9023 110.612 26.7569 108.897 26.7569C108.114 26.7569 107.369 26.7933 106.66 26.8659C105.952 26.9023 105.524 26.9205 105.374 26.9205L103.977 26.8659C103.418 26.8659 102.952 26.9568 102.579 27.1385C102.318 27.2476 102.188 27.502 102.188 27.9018V28.1199C102.225 28.7378 102.243 29.392 102.243 30.0825L102.188 34.8258C102.188 35.2983 102.225 35.7526 102.299 36.1888H102.803L103.809 36.1343H107.276C108.655 36.1343 109.605 36.0434 110.127 35.8616C110.5 35.7526 110.779 35.5709 110.966 35.3164C111.003 35.2074 111.152 34.7349 111.413 33.8989L111.637 32.4815C111.786 32.4088 111.898 32.3724 111.972 32.3724C112.009 32.3724 112.103 32.4088 112.252 32.4815C112.289 32.7359 112.308 33.1357 112.308 33.6809L112.531 40.0597C112.345 40.1687 112.196 40.2232 112.084 40.2232L111.86 40.1687C111.674 39.0056 111.376 38.0969 110.966 37.4427C110.817 37.2246 110.649 37.0974 110.462 37.0611C110.164 36.9883 108.748 36.952 106.213 36.952C105.393 36.952 104.834 36.952 104.536 36.952C103.828 36.9883 103.399 37.0065 103.25 37.0065H103.082C102.709 37.0065 102.448 37.0429 102.299 37.1156C102.262 37.2609 102.243 37.37 102.243 37.4427V38.6421C102.243 38.7875 102.243 39.3691 102.243 40.3868L102.188 46.1658C102.188 46.3112 102.243 46.5111 102.355 46.7656C102.616 46.9472 103.082 47.0745 103.753 47.1471C104.424 47.2198 105.039 47.3652 105.598 47.5833C105.934 47.7651 106.101 47.9468 106.101 48.1285C106.101 48.2012 106.083 48.2739 106.045 48.3465C106.008 48.4193 105.934 48.4738 105.822 48.5101C104.815 48.2921 103.455 48.1831 101.74 48.1831C100.808 48.1831 99.8207 48.2739 98.7769 48.4556C98.0688 48.5646 97.2674 48.6192 96.3728 48.6192L95.9814 48.5101ZM115.55 41.2045C115.55 40.4413 115.718 39.6053 116.054 38.6967C116.426 37.788 116.948 36.9883 117.619 36.2978C118.327 35.5709 119.073 35.0257 119.856 34.6622C120.937 34.1897 122.278 33.9534 123.881 33.9534C126.118 33.9534 127.981 34.6985 129.472 36.1888C131.001 37.6789 131.765 39.4599 131.765 41.5317C131.765 43.3853 130.963 45.0391 129.36 46.4929C127.795 47.9468 125.801 48.6737 123.378 48.6737C121.887 48.6737 120.489 48.3102 119.185 47.5833C118.178 47.0018 117.321 46.1476 116.613 45.0209C115.904 43.9305 115.55 42.6584 115.55 41.2045ZM123.546 48.0195C124.44 48.0195 125.316 47.7832 126.174 47.3107C127.031 46.8382 127.72 46.075 128.242 45.0209C128.727 43.9668 128.969 42.7492 128.969 41.3681C128.969 40.4594 128.783 39.4054 128.41 38.206C128 37.0065 127.385 36.1161 126.565 35.5345C125.782 34.9166 124.832 34.6077 123.713 34.6077C122.931 34.6077 122.129 34.7894 121.309 35.1529C120.489 35.5164 119.781 36.2069 119.185 37.2246C118.626 38.2423 118.346 39.6962 118.346 41.5862C118.346 43.6942 118.849 45.2935 119.856 46.3839C120.825 47.4743 122.055 48.0195 123.546 48.0195ZM134.001 26.6479V26.2662C134.337 26.1572 134.709 26.0482 135.119 25.9391C135.753 25.7574 136.648 25.4666 137.803 25.0668H138.698C138.698 25.6483 138.698 25.9755 138.698 26.0482C138.698 35.5709 138.66 41.2591 138.586 43.1127C138.549 44.2031 138.53 44.7665 138.53 44.8028C138.53 46.1113 138.586 46.8382 138.698 46.9836C138.847 47.2016 139.294 47.3471 140.039 47.4197C140.785 47.5288 141.213 47.6196 141.326 47.6924C141.438 47.7287 141.493 47.8014 141.493 47.9104C141.493 48.0558 141.456 48.1466 141.381 48.1831C141.344 48.2557 141.251 48.2921 141.102 48.2921C141.027 48.2921 140.393 48.2739 139.201 48.2376L136.853 48.1285L133.833 48.2921C133.61 48.2921 133.461 48.2557 133.386 48.1831C133.312 48.1103 133.274 48.0195 133.274 47.9104C133.274 47.8014 133.312 47.7106 133.386 47.6378C133.461 47.6015 133.889 47.5106 134.672 47.3652C135.455 47.2562 135.902 47.1653 136.014 47.0926C136.126 46.9836 136.2 46.7837 136.238 46.4929C136.312 46.0567 136.349 44.8755 136.349 42.9492L136.294 38.9693L136.349 34.8258V30.6823L136.405 28.6106C136.405 28.2107 136.331 27.92 136.182 27.7382C136.07 27.5566 135.79 27.3748 135.343 27.1931C134.709 26.9386 134.262 26.7569 134.001 26.6479ZM142.611 35.8616V35.3709C143.394 35.1529 143.823 35.0257 143.898 34.9894C144.307 34.7713 144.755 34.4804 145.24 34.117C145.723 33.7172 146.115 33.281 146.413 32.8085C146.562 32.8085 146.674 32.8085 146.749 32.8085H146.973C147.047 33.3538 147.084 33.7535 147.084 34.0079C147.084 34.0807 147.065 34.3533 147.028 34.8258V35.6981V40.7138L146.973 46.0567C146.973 46.4929 147.047 46.7837 147.196 46.9291C147.345 47.1108 147.812 47.3107 148.594 47.5288C149.079 47.6378 149.433 47.7469 149.656 47.8559C149.694 47.9286 149.713 48.0013 149.713 48.074C149.713 48.1466 149.694 48.2194 149.656 48.2921C149.172 48.2921 148.575 48.2739 147.867 48.2376C146.861 48.1649 146.19 48.1285 145.854 48.1285C145.705 48.1285 144.736 48.1466 142.947 48.1831C142.611 48.1831 142.276 48.2194 141.94 48.2921C141.866 48.2921 141.772 48.2739 141.661 48.2376C141.586 48.1649 141.549 48.0921 141.549 48.0195C141.549 47.8741 141.661 47.7469 141.885 47.6378C141.922 47.6015 142.537 47.4743 143.73 47.2562C144.102 47.1835 144.364 47.0563 144.512 46.8746C144.699 46.6565 144.792 46.2748 144.792 45.7296C144.829 44.821 144.848 42.3676 144.848 38.3695C144.848 37.5699 144.811 37.0793 144.736 36.8975C144.661 36.7521 144.494 36.5886 144.233 36.4069C143.972 36.2251 143.431 36.0434 142.611 35.8616ZM144.121 26.8114C144.121 26.448 144.27 26.1208 144.569 25.8301C144.866 25.5393 145.24 25.3939 145.686 25.3939C146.134 25.3939 146.525 25.5575 146.861 25.8846C147.196 26.2117 147.364 26.557 147.364 26.9205C147.364 27.2476 147.196 27.5747 146.861 27.9018C146.525 28.2289 146.134 28.3925 145.686 28.3925C145.24 28.3925 144.866 28.2471 144.569 27.9563C144.27 27.6656 144.121 27.2839 144.121 26.8114ZM150.607 34.5532H151.949L152.563 34.6077L153.011 34.5532C154.241 34.5532 155.005 34.5714 155.303 34.6077V34.9348C155.303 36.5703 155.285 38.1514 155.248 39.678C155.21 40.5867 155.192 41.0955 155.192 41.2045C155.192 43.2762 155.266 44.5666 155.415 45.0754C155.565 45.5842 155.881 45.9841 156.365 46.2748C156.887 46.602 157.503 46.7656 158.211 46.7656C159.105 46.7656 159.944 46.5838 160.727 46.2203C161.547 45.8569 162.237 45.4207 162.796 44.9118C162.87 44.4757 162.907 43.9851 162.907 43.4398C162.907 41.7316 162.926 40.5685 162.963 39.9506C162.963 39.5872 162.963 39.2782 162.963 39.0238C162.963 37.1338 162.87 36.0615 162.683 35.8071C162.497 35.589 161.771 35.4073 160.503 35.2619C160.056 35.2256 159.739 35.1893 159.553 35.1529C159.479 35.0075 159.441 34.8984 159.441 34.8258L159.497 34.6077C159.795 34.5714 160.093 34.5532 160.391 34.5532L163.242 34.6077C164.287 34.5714 164.827 34.5532 164.864 34.5532C165.014 34.5532 165.144 34.5532 165.255 34.5532L165.311 35.8616C165.2 37.6063 165.144 39.787 165.144 42.404L165.088 43.8215L165.2 46.1658C165.311 46.3476 165.405 46.4566 165.479 46.4929C165.628 46.5656 165.926 46.602 166.374 46.602H166.542C166.69 46.602 167.138 46.6383 167.883 46.711C167.883 46.8564 167.883 46.9654 167.883 47.0381V47.2016C166.281 47.5651 164.976 47.9104 163.97 48.2376C163.559 48.3465 163.224 48.4375 162.963 48.5101C162.888 48.1103 162.851 47.8559 162.851 47.7469V46.3294C162.851 46.293 162.851 46.1476 162.851 45.8932C162.702 46.0022 162.516 46.1295 162.292 46.2748C161.36 46.9654 160.354 47.5651 159.273 48.074C158.565 48.4011 157.894 48.5646 157.261 48.5646C155.993 48.5646 154.949 48.1103 154.129 47.2016C153.347 46.293 152.955 44.7483 152.955 42.5675C152.955 42.4585 152.955 42.2586 152.955 41.9678C152.993 41.3862 153.011 40.9865 153.011 40.7684C153.011 40.6957 153.011 40.4412 153.011 40.0051C153.011 39.8234 153.011 39.6598 153.011 39.5144C153.011 39.4054 153.011 39.1692 153.011 38.8057C153.011 38.4423 153.011 38.1878 153.011 38.0424C153.011 37.8607 153.011 37.6789 153.011 37.4972L152.955 36.5703L153.011 36.1343C153.011 35.9162 152.917 35.7344 152.731 35.589C151.949 35.4073 151.446 35.2983 151.221 35.2619C150.998 35.2256 150.793 35.171 150.607 35.0984V34.5532ZM170.679 43.8215C171.126 44.9118 171.461 45.6206 171.686 45.9477C172.133 46.602 172.691 47.1108 173.362 47.4743C173.996 47.8741 174.686 48.074 175.431 48.074C176.102 48.074 176.773 47.7832 177.444 47.2016C177.929 46.7656 178.171 46.2566 178.171 45.6751C178.171 44.9482 177.892 44.2577 177.332 43.6034C176.773 42.9855 175.692 42.3858 174.09 41.8042C172.524 41.2228 171.461 40.6048 170.903 39.9506C170.381 39.2963 170.119 38.5513 170.119 37.7153C170.119 36.952 170.344 36.2614 170.79 35.6435C171.238 35.062 171.854 34.6077 172.636 34.2806C173.419 33.9898 174.127 33.8445 174.76 33.8445C175.617 33.8445 176.382 33.8989 177.053 34.0079C177.761 34.1534 178.357 34.3533 178.842 34.6077C178.954 35.1893 179.028 36.0615 179.066 37.2246L179.122 37.7699C178.973 37.7699 178.842 37.7699 178.731 37.7699H178.451C178.078 36.8249 177.538 36.0615 176.83 35.48C176.084 34.9348 175.338 34.6622 174.592 34.6622C173.884 34.6622 173.307 34.8803 172.859 35.3164C172.412 35.7163 172.189 36.2614 172.189 36.952C172.189 37.4608 172.375 37.9333 172.748 38.3695C173.121 38.7693 173.959 39.2237 175.263 39.7325C176.605 40.2413 177.575 40.732 178.171 41.2045C178.768 41.6407 179.214 42.1859 179.513 42.8402C179.811 43.458 179.961 44.0577 179.961 44.6392C179.961 45.4389 179.681 46.184 179.122 46.8746C178.6 47.6015 177.91 48.0921 177.053 48.3465C176.233 48.6374 175.506 48.7827 174.872 48.7827C173.344 48.7827 171.928 48.5101 170.623 47.965C170.511 47.8922 170.455 47.7287 170.455 47.4743C170.455 47.3652 170.436 47.1835 170.399 46.9291C170.213 45.3661 170.119 44.4393 170.119 44.1486C170.119 44.0032 170.157 43.9123 170.232 43.876C170.269 43.8397 170.418 43.8215 170.679 43.8215Z" fill="white"/>
</mask>
<g mask="url(#mask0_1442_49107)">
<path d="M95.9814 48.5101V48.074C96.2796 47.965 96.7269 47.8559 97.3233 47.7469C97.957 47.6378 98.3856 47.547 98.6093 47.4743C98.8329 47.3652 99.0193 47.2381 99.1683 47.0926C99.2802 46.5475 99.3361 45.6207 99.3361 44.3122V30.7368L99.392 28.5016C99.392 28.0291 99.2988 27.7019 99.1125 27.5201C98.9261 27.3385 98.4415 27.1749 97.6587 27.0295C96.8388 26.8841 96.3728 26.7751 96.261 26.7024C96.1119 26.5933 96.0373 26.4843 96.0373 26.3753C96.0373 26.3389 96.056 26.2662 96.0932 26.1572C96.2423 26.0845 96.3915 26.0482 96.5405 26.0482C96.7269 26.0482 97.0997 26.0482 97.6587 26.0482H98.162C98.3483 26.0482 98.8329 26.0482 99.6156 26.0482H102.076L107.276 25.9391L112.755 25.721H113.258H114.041C114.227 25.721 114.413 25.7756 114.6 25.8846C114.674 26.0663 114.712 26.2117 114.712 26.3207V26.975L114.879 30.0825C114.879 30.228 114.861 30.3915 114.824 30.5733C114.637 30.6823 114.469 30.7368 114.32 30.7368C114.208 30.7368 114.115 30.7005 114.041 30.6278C113.966 30.4824 113.91 30.228 113.873 29.8646C113.836 29.392 113.649 28.756 113.314 27.9563C113.165 27.5929 112.904 27.3385 112.531 27.1931C111.823 26.9023 110.612 26.7569 108.897 26.7569C108.114 26.7569 107.369 26.7933 106.66 26.8659C105.952 26.9023 105.524 26.9205 105.374 26.9205L103.977 26.8659C103.418 26.8659 102.952 26.9568 102.579 27.1385C102.318 27.2476 102.188 27.502 102.188 27.9018V28.1199C102.225 28.7378 102.243 29.392 102.243 30.0825L102.188 34.8258C102.188 35.2983 102.225 35.7526 102.299 36.1888H102.803L103.809 36.1343H107.276C108.655 36.1343 109.605 36.0434 110.127 35.8616C110.5 35.7526 110.779 35.5709 110.966 35.3164C111.003 35.2074 111.152 34.7349 111.413 33.8989L111.637 32.4815C111.786 32.4088 111.898 32.3724 111.972 32.3724C112.009 32.3724 112.103 32.4088 112.252 32.4815C112.289 32.7359 112.308 33.1357 112.308 33.6809L112.531 40.0597C112.345 40.1687 112.196 40.2232 112.084 40.2232L111.86 40.1687C111.674 39.0056 111.376 38.0969 110.966 37.4427C110.817 37.2246 110.649 37.0974 110.462 37.0611C110.164 36.9883 108.748 36.952 106.213 36.952C105.393 36.952 104.834 36.952 104.536 36.952C103.828 36.9883 103.399 37.0065 103.25 37.0065H103.082C102.709 37.0065 102.448 37.0429 102.299 37.1156C102.262 37.2609 102.243 37.37 102.243 37.4427V38.6421C102.243 38.7875 102.243 39.3691 102.243 40.3868L102.188 46.1658C102.188 46.3112 102.243 46.5111 102.355 46.7656C102.616 46.9472 103.082 47.0745 103.753 47.1471C104.424 47.2198 105.039 47.3652 105.598 47.5833C105.934 47.7651 106.101 47.9468 106.101 48.1285C106.101 48.2012 106.083 48.2739 106.045 48.3465C106.008 48.4193 105.934 48.4738 105.822 48.5101C104.815 48.2921 103.455 48.1831 101.74 48.1831C100.808 48.1831 99.8207 48.2739 98.7769 48.4556C98.0688 48.5646 97.2674 48.6192 96.3728 48.6192L95.9814 48.5101ZM115.55 41.2045C115.55 40.4413 115.718 39.6053 116.054 38.6967C116.426 37.788 116.948 36.9883 117.619 36.2978C118.327 35.5709 119.073 35.0257 119.856 34.6622C120.937 34.1897 122.278 33.9534 123.881 33.9534C126.118 33.9534 127.981 34.6985 129.472 36.1888C131.001 37.6789 131.765 39.4599 131.765 41.5317C131.765 43.3853 130.963 45.0391 129.36 46.4929C127.795 47.9468 125.801 48.6737 123.378 48.6737C121.887 48.6737 120.489 48.3102 119.185 47.5833C118.178 47.0018 117.321 46.1476 116.613 45.0209C115.904 43.9305 115.55 42.6584 115.55 41.2045ZM123.546 48.0195C124.44 48.0195 125.316 47.7832 126.174 47.3107C127.031 46.8382 127.72 46.075 128.242 45.0209C128.727 43.9668 128.969 42.7492 128.969 41.3681C128.969 40.4594 128.783 39.4054 128.41 38.206C128 37.0065 127.385 36.1161 126.565 35.5345C125.782 34.9166 124.832 34.6077 123.713 34.6077C122.931 34.6077 122.129 34.7894 121.309 35.1529C120.489 35.5164 119.781 36.2069 119.185 37.2246C118.626 38.2423 118.346 39.6962 118.346 41.5862C118.346 43.6942 118.849 45.2935 119.856 46.3839C120.825 47.4743 122.055 48.0195 123.546 48.0195ZM134.001 26.6479V26.2662C134.337 26.1572 134.709 26.0482 135.119 25.9391C135.753 25.7574 136.648 25.4666 137.803 25.0668H138.698C138.698 25.6483 138.698 25.9755 138.698 26.0482C138.698 35.5709 138.66 41.2591 138.586 43.1127C138.549 44.2031 138.53 44.7665 138.53 44.8028C138.53 46.1113 138.586 46.8382 138.698 46.9836C138.847 47.2016 139.294 47.3471 140.039 47.4197C140.785 47.5288 141.213 47.6196 141.326 47.6924C141.438 47.7287 141.493 47.8014 141.493 47.9104C141.493 48.0558 141.456 48.1466 141.381 48.1831C141.344 48.2557 141.251 48.2921 141.102 48.2921C141.027 48.2921 140.393 48.2739 139.201 48.2376L136.853 48.1285L133.833 48.2921C133.61 48.2921 133.461 48.2557 133.386 48.1831C133.312 48.1103 133.274 48.0195 133.274 47.9104C133.274 47.8014 133.312 47.7106 133.386 47.6378C133.461 47.6015 133.889 47.5106 134.672 47.3652C135.455 47.2562 135.902 47.1653 136.014 47.0926C136.126 46.9836 136.2 46.7837 136.238 46.4929C136.312 46.0567 136.349 44.8755 136.349 42.9492L136.294 38.9693L136.349 34.8258V30.6823L136.405 28.6106C136.405 28.2107 136.331 27.92 136.182 27.7382C136.07 27.5566 135.79 27.3748 135.343 27.1931C134.709 26.9386 134.262 26.7569 134.001 26.6479ZM142.611 35.8616V35.3709C143.394 35.1529 143.823 35.0257 143.898 34.9894C144.307 34.7713 144.755 34.4804 145.24 34.117C145.723 33.7172 146.115 33.281 146.413 32.8085C146.562 32.8085 146.674 32.8085 146.749 32.8085H146.973C147.047 33.3538 147.084 33.7535 147.084 34.0079C147.084 34.0807 147.065 34.3533 147.028 34.8258V35.6981V40.7138L146.973 46.0567C146.973 46.4929 147.047 46.7837 147.196 46.9291C147.345 47.1108 147.812 47.3107 148.594 47.5288C149.079 47.6378 149.433 47.7469 149.656 47.8559C149.694 47.9286 149.713 48.0013 149.713 48.074C149.713 48.1466 149.694 48.2194 149.656 48.2921C149.172 48.2921 148.575 48.2739 147.867 48.2376C146.861 48.1649 146.19 48.1285 145.854 48.1285C145.705 48.1285 144.736 48.1466 142.947 48.1831C142.611 48.1831 142.276 48.2194 141.94 48.2921C141.866 48.2921 141.772 48.2739 141.661 48.2376C141.586 48.1649 141.549 48.0921 141.549 48.0195C141.549 47.8741 141.661 47.7469 141.885 47.6378C141.922 47.6015 142.537 47.4743 143.73 47.2562C144.102 47.1835 144.364 47.0563 144.512 46.8746C144.699 46.6565 144.792 46.2748 144.792 45.7296C144.829 44.821 144.848 42.3676 144.848 38.3695C144.848 37.5699 144.811 37.0793 144.736 36.8975C144.661 36.7521 144.494 36.5886 144.233 36.4069C143.972 36.2251 143.431 36.0434 142.611 35.8616ZM144.121 26.8114C144.121 26.448 144.27 26.1208 144.569 25.8301C144.866 25.5393 145.24 25.3939 145.686 25.3939C146.134 25.3939 146.525 25.5575 146.861 25.8846C147.196 26.2117 147.364 26.557 147.364 26.9205C147.364 27.2476 147.196 27.5747 146.861 27.9018C146.525 28.2289 146.134 28.3925 145.686 28.3925C145.24 28.3925 144.866 28.2471 144.569 27.9563C144.27 27.6656 144.121 27.2839 144.121 26.8114ZM150.607 34.5532H151.949L152.563 34.6077L153.011 34.5532C154.241 34.5532 155.005 34.5714 155.303 34.6077V34.9348C155.303 36.5703 155.285 38.1514 155.248 39.678C155.21 40.5867 155.192 41.0955 155.192 41.2045C155.192 43.2762 155.266 44.5666 155.415 45.0754C155.565 45.5842 155.881 45.9841 156.365 46.2748C156.887 46.602 157.503 46.7656 158.211 46.7656C159.105 46.7656 159.944 46.5838 160.727 46.2203C161.547 45.8569 162.237 45.4207 162.796 44.9118C162.87 44.4757 162.907 43.9851 162.907 43.4398C162.907 41.7316 162.926 40.5685 162.963 39.9506C162.963 39.5872 162.963 39.2782 162.963 39.0238C162.963 37.1338 162.87 36.0615 162.683 35.8071C162.497 35.589 161.771 35.4073 160.503 35.2619C160.056 35.2256 159.739 35.1893 159.553 35.1529C159.479 35.0075 159.441 34.8984 159.441 34.8258L159.497 34.6077C159.795 34.5714 160.093 34.5532 160.391 34.5532L163.242 34.6077C164.287 34.5714 164.827 34.5532 164.864 34.5532C165.014 34.5532 165.144 34.5532 165.255 34.5532L165.311 35.8616C165.2 37.6063 165.144 39.787 165.144 42.404L165.088 43.8215L165.2 46.1658C165.311 46.3476 165.405 46.4566 165.479 46.4929C165.628 46.5656 165.926 46.602 166.374 46.602H166.542C166.69 46.602 167.138 46.6383 167.883 46.711C167.883 46.8564 167.883 46.9654 167.883 47.0381V47.2016C166.281 47.5651 164.976 47.9104 163.97 48.2376C163.559 48.3465 163.224 48.4375 162.963 48.5101C162.888 48.1103 162.851 47.8559 162.851 47.7469V46.3294C162.851 46.293 162.851 46.1476 162.851 45.8932C162.702 46.0022 162.516 46.1295 162.292 46.2748C161.36 46.9654 160.354 47.5651 159.273 48.074C158.565 48.4011 157.894 48.5646 157.261 48.5646C155.993 48.5646 154.949 48.1103 154.129 47.2016C153.347 46.293 152.955 44.7483 152.955 42.5675C152.955 42.4585 152.955 42.2586 152.955 41.9678C152.993 41.3862 153.011 40.9865 153.011 40.7684C153.011 40.6957 153.011 40.4412 153.011 40.0051C153.011 39.8234 153.011 39.6598 153.011 39.5144C153.011 39.4054 153.011 39.1692 153.011 38.8057C153.011 38.4423 153.011 38.1878 153.011 38.0424C153.011 37.8607 153.011 37.6789 153.011 37.4972L152.955 36.5703L153.011 36.1343C153.011 35.9162 152.917 35.7344 152.731 35.589C151.949 35.4073 151.446 35.2983 151.221 35.2619C150.998 35.2256 150.793 35.171 150.607 35.0984V34.5532ZM170.679 43.8215C171.126 44.9118 171.461 45.6206 171.686 45.9477C172.133 46.602 172.691 47.1108 173.362 47.4743C173.996 47.8741 174.686 48.074 175.431 48.074C176.102 48.074 176.773 47.7832 177.444 47.2016C177.929 46.7656 178.171 46.2566 178.171 45.6751C178.171 44.9482 177.892 44.2577 177.332 43.6034C176.773 42.9855 175.692 42.3858 174.09 41.8042C172.524 41.2228 171.461 40.6048 170.903 39.9506C170.381 39.2963 170.119 38.5513 170.119 37.7153C170.119 36.952 170.344 36.2614 170.79 35.6435C171.238 35.062 171.854 34.6077 172.636 34.2806C173.419 33.9898 174.127 33.8445 174.76 33.8445C175.617 33.8445 176.382 33.8989 177.053 34.0079C177.761 34.1534 178.357 34.3533 178.842 34.6077C178.954 35.1893 179.028 36.0615 179.066 37.2246L179.122 37.7699C178.973 37.7699 178.842 37.7699 178.731 37.7699H178.451C178.078 36.8249 177.538 36.0615 176.83 35.48C176.084 34.9348 175.338 34.6622 174.592 34.6622C173.884 34.6622 173.307 34.8803 172.859 35.3164C172.412 35.7163 172.189 36.2614 172.189 36.952C172.189 37.4608 172.375 37.9333 172.748 38.3695C173.121 38.7693 173.959 39.2237 175.263 39.7325C176.605 40.2413 177.575 40.732 178.171 41.2045C178.768 41.6407 179.214 42.1859 179.513 42.8402C179.811 43.458 179.961 44.0577 179.961 44.6392C179.961 45.4389 179.681 46.184 179.122 46.8746C178.6 47.6015 177.91 48.0921 177.053 48.3465C176.233 48.6374 175.506 48.7827 174.872 48.7827C173.344 48.7827 171.928 48.5101 170.623 47.965C170.511 47.8922 170.455 47.7287 170.455 47.4743C170.455 47.3652 170.436 47.1835 170.399 46.9291C170.213 45.3661 170.119 44.4393 170.119 44.1486C170.119 44.0032 170.157 43.9123 170.232 43.876C170.269 43.8397 170.418 43.8215 170.679 43.8215Z" fill="#344054" stroke="#344054" stroke-width="2"/>
</g>
<rect x="1.08887" y="0.783112" width="224.863" height="72.2831" stroke="white" stroke-opacity="0.06"/>
</svg>
