<svg width="226" height="74" viewBox="0 0 226 74" fill="none" xmlns="http://www.w3.org/2000/svg">
<rect width="225.863" height="73.2831" fill="white"/>
<g clip-path="url(#clip0_1442_49066)">
<path fill-rule="evenodd" clip-rule="evenodd" d="M36.6074 29.6541V35.0983H40.9232V29.6541H36.6074ZM40.9515 29.652H50.6179V25.5552H40.9515V29.652ZM189.131 32.3415H183.689L178.372 38.0645V25.086H174.213V47.7281H178.372V43.6625L180.092 41.8486L184.158 47.7281H189.256L182.97 38.8151L189.131 32.3415ZM40.9544 47.7281V39.0966H49.5546V35.1249H40.9516V39.1169H36.6074V47.7281H40.9544ZM61.5432 32.279C61.2304 32.2477 60.9177 32.2164 60.5737 32.2164C59.2602 32.2164 57.1336 32.5917 56.1954 34.6244V32.3415H52.1611V47.7281H56.3204V40.6916C56.3204 37.3765 58.1656 36.3445 60.2922 36.3445C60.6674 36.3445 61.074 36.3758 61.5432 36.4696V32.279ZM68.282 48.1659C64.9984 48.1659 62.9969 45.9455 62.9969 43.5374C62.9969 40.7853 65.0297 39.2529 67.594 38.8777L71.3782 38.3148C72.2538 38.1897 72.5353 37.7518 72.5353 37.2202C72.5353 36.1256 71.6909 35.2187 69.9396 35.2187C68.1258 35.2187 67.125 36.3758 66.9999 37.7205L63.3096 36.9387C63.5598 34.5307 65.7802 31.8724 69.9083 31.8724C74.787 31.8724 76.6009 34.6244 76.6009 37.7205V45.2887C76.6009 46.1019 76.6946 47.1964 76.7884 47.7281H72.973C72.8793 47.3215 72.8168 46.4772 72.8168 45.8829C72.0349 47.1026 70.565 48.1659 68.282 48.1659ZM67.1562 43.2873C67.1562 44.1941 67.813 45.0699 69.1578 45.0699C70.909 45.0699 72.5353 44.2254 72.5353 41.5046V40.8166L69.064 41.3483C68.0006 41.5046 67.1562 42.0988 67.1562 43.2873ZM83.2606 47.7281V38.7213C83.2606 37.0325 84.3241 35.6878 86.1379 35.6878C88.0142 35.6878 88.8585 36.9387 88.8585 38.5963V47.7281H92.9866V38.7213C92.9866 37.0638 94.0501 35.6878 95.8325 35.6878C97.7402 35.6878 98.5531 36.9387 98.5531 38.5963V47.7281H102.588V37.7518C102.588 33.6237 99.8667 31.9037 97.0208 31.9037C94.9882 31.9037 93.362 32.5917 92.1423 34.4681C91.3604 32.8106 89.6719 31.9037 87.5763 31.9037C85.8878 31.9037 83.917 32.7168 83.073 34.2179V32.3415H79.1012V47.7281H83.2606ZM127.438 42.2239L130.784 32.3415H135.163L138.477 42.2552L141.323 32.3415H145.452L140.635 47.7281H136.476L132.88 37.2202L129.346 47.7281H125.124L120.214 32.3415H124.592L127.438 42.2239ZM153.404 44.4131C151.372 44.4131 149.495 42.9119 149.495 40.0348C149.495 37.1263 151.372 35.6564 153.404 35.6564C155.437 35.6564 157.314 37.1263 157.314 40.0348C157.314 42.9432 155.437 44.4131 153.404 44.4131ZM153.404 31.8724C148.807 31.8724 145.336 35.2812 145.336 40.0348C145.336 44.7571 148.807 48.1972 153.404 48.1972C158.002 48.1972 161.473 44.7571 161.473 40.0348C161.473 35.2812 158.002 31.8724 153.404 31.8724ZM171.476 32.2164C171.82 32.2164 172.133 32.2477 172.446 32.279V36.4696C171.977 36.3758 171.571 36.3445 171.195 36.3445C169.068 36.3445 167.223 37.3765 167.223 40.6916V47.7281H163.064V32.3415H167.099V34.6244C168.036 32.5917 170.163 32.2164 171.476 32.2164Z" fill="#344054"/>
<path d="M108.675 38.2831C108.769 36.8758 109.957 35.2496 112.115 35.2496C114.492 35.2496 115.493 36.7508 115.555 38.2831H108.675ZM115.962 42.2861C115.462 43.6621 114.398 44.6317 112.459 44.6317C110.395 44.6317 108.675 43.1618 108.581 41.129H119.59C119.59 41.0664 119.652 40.441 119.652 39.8468C119.652 34.9056 116.806 31.8721 112.053 31.8721C108.112 31.8721 104.484 35.062 104.484 39.9719C104.484 45.1633 108.206 48.1968 112.428 48.1968C116.212 48.1968 118.651 45.9764 119.433 43.3181L115.962 42.2861Z" fill="#344054"/>
</g>
<rect x="0.5" y="0.5" width="224.863" height="72.2831" stroke="white" stroke-opacity="0.06"/>
<defs>
<clipPath id="clip0_1442_49066">
<rect width="153.778" height="24" fill="white" transform="translate(36.043 24.6416)"/>
</clipPath>
</defs>
</svg>
