<svg width="227" height="74" viewBox="0 0 227 74" fill="none" xmlns="http://www.w3.org/2000/svg">
<path d="M86.648 34.1222C86.1389 34.1222 85.6507 33.92 85.2907 33.56C84.9307 33.2 84.7285 32.7118 84.7285 32.2027C84.7285 31.6937 84.9307 31.2054 85.2907 30.8455C85.6507 30.4855 86.1389 30.2832 86.648 30.2832C86.9047 30.2727 87.1608 30.3144 87.4009 30.4056C87.6411 30.4969 87.8602 30.6358 88.045 30.8142C88.23 30.9924 88.3768 31.2063 88.4767 31.443C88.5766 31.6796 88.6276 31.9341 88.6264 32.1909C88.6258 32.4484 88.5739 32.7032 88.4737 32.9403C88.3735 33.1774 88.227 33.3922 88.0428 33.572C87.8586 33.7519 87.6403 33.8932 87.4008 33.9876C87.1613 34.0821 86.9054 34.1279 86.648 34.1222Z" fill="#344054"/>
<path d="M176.183 45.9854C173.841 45.9854 172.045 43.7974 172.045 40.9994C172.025 40.2365 172.159 39.4773 172.438 38.7671C172.717 38.0569 173.137 37.4101 173.671 36.8652C174.205 36.3203 174.843 35.8884 175.548 35.5952C176.253 35.3021 177.009 35.1535 177.772 35.1585C178.475 35.1679 179.168 35.3226 179.807 35.613L179.885 35.6484V33.3638C179.885 32.3017 179.758 32.231 179.214 32.1014L179.049 32.0614L178.343 31.8541L183.171 30.2856V43.1874C183.171 44.3438 183.324 44.6335 184.028 44.836L184.457 44.9444L184.328 45.2482L179.89 45.9807V43.8068L179.791 43.9317C178.769 45.2223 177.424 45.9854 176.183 45.9854ZM177.926 35.7756C176.339 35.7756 175.571 37.1698 175.571 40.0409C175.571 42.5562 176.501 44.1177 177.997 44.1177C178.484 44.1128 178.95 43.9213 179.301 43.5827C179.652 43.2441 179.859 42.784 179.88 42.2971V37.7375C179.883 36.256 178.564 35.7756 177.926 35.7756Z" fill="#344054"/>
<path d="M83.8164 45.6387L83.8682 45.3444L84.6195 45.2266C84.7613 45.2164 84.8939 45.1525 84.9902 45.0479C85.0865 44.9433 85.1392 44.8059 85.1377 44.6637V38.3447C85.1377 37.1506 84.5913 36.8491 84.1155 36.7196L83.8329 36.649L88.4161 35.1581V44.6496C88.412 44.7861 88.4574 44.9196 88.544 45.0252C88.6306 45.1308 88.7525 45.2016 88.8872 45.2242L89.6738 45.3468L89.7256 45.6412L83.8164 45.6387Z" fill="#344054"/>
<path d="M134.941 51.2467L134.993 50.9523L135.744 50.8346C135.886 50.8244 136.019 50.7605 136.115 50.6559C136.211 50.5513 136.264 50.4139 136.262 50.2717V38.4392C136.262 37.636 135.902 36.9436 135.405 36.7905L134.934 36.6704L139.543 35.1513V37.3345L139.642 37.2097C140.657 35.9214 141.91 35.1513 143.151 35.1513C145.489 35.1583 147.096 37.5653 147.096 40.361C147.096 44.0893 144.246 45.9805 141.443 45.9805C140.81 45.9989 140.18 45.8784 139.597 45.6272L139.52 45.5919V50.2646C139.518 50.4072 139.571 50.5449 139.667 50.6496C139.764 50.7543 139.897 50.8179 140.04 50.8275L140.789 50.9453L140.84 51.2397L134.941 51.2467ZM141.406 36.9671C140.918 36.9868 140.454 37.1876 140.106 37.5302C139.758 37.8728 139.549 38.3329 139.522 38.8206V43.55C139.525 44.0223 139.71 44.4753 140.04 44.8135C140.37 45.1516 140.818 45.3488 141.29 45.3634C142.367 45.3634 143.744 44.499 143.744 40.8343C143.738 38.319 142.902 36.9671 141.406 36.9671Z" fill="#344054"/>
<path d="M110.746 44.6663V38.9478C110.744 38.7087 110.694 38.4722 110.599 38.2524C110.505 38.0326 110.368 37.8338 110.196 37.6676C110.024 37.5015 109.82 37.3712 109.597 37.2845C109.374 37.1978 109.136 37.1564 108.897 37.1626C108.445 37.174 108.015 37.3584 107.695 37.6779C107.375 37.9974 107.19 38.4276 107.178 38.8796V44.6546C107.176 44.7886 107.223 44.9185 107.31 45.0209C107.396 45.1233 107.516 45.1914 107.649 45.2127L108.435 45.3352L108.487 45.6296H102.783L102.835 45.3352L103.416 45.2127C103.547 45.1915 103.667 45.1245 103.753 45.0236C103.839 44.9226 103.887 44.7944 103.887 44.6616V33.2247C103.888 32.9613 103.809 32.7038 103.661 32.4858C103.513 32.2678 103.303 32.0993 103.058 32.0024L102.545 31.7998L107.211 30.2807V37.2709L107.312 37.1179C107.326 37.099 108.643 35.1584 110.974 35.1584C111.779 35.1776 112.548 35.5007 113.125 36.0628C113.664 36.6256 113.989 37.6172 113.989 38.71L114.012 44.6687C114.011 44.8027 114.058 44.9326 114.145 45.035C114.231 45.1374 114.351 45.2055 114.484 45.2269L115.27 45.3493L115.322 45.6437H109.629L109.681 45.3493L110.263 45.2269C110.394 45.2056 110.513 45.1386 110.6 45.0377C110.686 44.9368 110.733 44.8085 110.734 44.6757" fill="#344054"/>
<path d="M71.3349 31.2581C71.3365 31.1159 71.2837 30.9785 71.1875 30.8739C71.0912 30.7693 70.9586 30.7054 70.8168 30.6952L70.0655 30.5774L70.0137 30.283H76.4952L76.4387 30.5774L75.6873 30.6952C75.5455 30.7054 75.413 30.7693 75.3167 30.8739C75.2204 30.9785 75.1676 31.1159 75.1692 31.2581V44.5132C75.1692 45.1374 75.9865 45.0431 75.9865 45.0431C78.3229 45.0431 79.7713 44.1669 81.3375 40.7543L81.5942 40.1937H82.3267L81.6719 45.639H70.0137L70.0655 45.3446L70.8168 45.2268C70.9586 45.2166 71.0912 45.1527 71.1875 45.0481C71.2837 44.9435 71.3365 44.8061 71.3349 44.6639V31.2581Z" fill="#344054"/>
<path d="M120.716 45.9852C119.927 45.9759 119.173 45.6552 118.619 45.0929C118.064 44.5305 117.754 43.772 117.756 42.9824V36.9365H115.443L116.88 35.5234H117.368C117.419 35.5234 117.469 35.5132 117.517 35.4936C117.564 35.4738 117.606 35.445 117.642 35.4085C117.678 35.3722 117.707 35.3291 117.726 35.2817C117.745 35.2343 117.754 35.1836 117.754 35.1324V33.8771L120.815 32.862V35.5281H123.755L122.41 36.9412H120.825V42.6149C120.825 44.0681 121.864 44.5957 122.563 44.5957C122.862 44.5928 123.156 44.521 123.423 44.386L123.463 44.3695L123.752 44.7063C122.916 45.4529 122.073 45.9852 120.716 45.9852Z" fill="#344054"/>
<path d="M152.431 39.4893L158.731 39.5859C158.754 39.3904 158.759 38.7663 158.749 38.5473C158.679 36.9551 157.572 35.1581 154.677 35.1581C151.406 35.1581 148.938 37.5534 148.938 40.8106C148.938 43.7758 151.084 45.9921 153.931 45.9921C156.216 45.9921 157.82 44.9746 158.71 42.9091L158.474 42.7065C158.189 43.1526 157.794 43.5177 157.327 43.7668C156.861 44.0161 156.337 44.1408 155.808 44.1291C153.768 44.1291 152.435 42.4805 152.412 39.9156C152.409 39.7733 152.416 39.6309 152.431 39.4893ZM152.431 38.7027C152.591 36.7172 153.276 35.8152 154.354 35.8152C154.502 35.8121 154.648 35.8394 154.785 35.8953C154.921 35.9513 155.044 36.0346 155.146 36.1402C155.594 36.5948 155.811 37.3178 155.789 38.6838V38.7381L152.428 38.7615L152.431 38.7027Z" fill="#344054"/>
<path d="M163.864 39.4895L170.164 39.5861C170.188 39.3906 170.192 38.7665 170.183 38.5475C170.113 36.9554 169.005 35.1583 166.111 35.1583C162.839 35.1583 160.371 37.5536 160.371 40.8108C160.371 43.776 162.517 45.9923 165.364 45.9923C167.649 45.9923 169.252 44.9748 170.143 42.9093L169.907 42.7067C169.623 43.1574 169.227 43.5268 168.757 43.7786C168.287 44.0304 167.76 44.1561 167.227 44.1435C165.188 44.1435 163.855 42.4948 163.831 39.93C163.833 39.7826 163.844 39.6355 163.864 39.4895ZM163.864 38.7029C164.024 36.7174 164.71 35.8154 165.788 35.8154C165.935 35.8123 166.081 35.8396 166.217 35.8955C166.353 35.9515 166.477 36.0348 166.579 36.1404C167.027 36.595 167.243 37.3181 167.223 38.6841V38.7383L163.861 38.7618L163.864 38.7029Z" fill="#344054"/>
<path d="M130.396 39.169C129.004 38.6344 127.956 38.2269 127.956 37.1977C127.956 36.2556 128.614 35.7069 129.56 35.7069C130.027 35.7072 130.484 35.836 130.882 36.079L132.644 38.6368L133.246 38.6132L133.129 35.1581L131.994 35.5279C131.212 35.2873 130.399 35.1628 129.582 35.1581C127.078 35.1581 125.408 36.4794 125.408 38.5425C125.408 40.4432 126.845 41.1639 128.609 41.8398C129.907 42.351 131.115 42.716 131.115 44.0254C131.115 44.772 130.408 45.5022 129.259 45.5022C128.053 45.5022 127.427 44.8992 126.64 43.7405L125.995 42.398L125.375 42.5488L125.156 45.269C126.453 45.732 127.819 45.974 129.195 45.985C132.302 45.985 133.717 44.3363 133.717 42.5299C133.713 40.4903 131.995 39.819 130.396 39.169Z" fill="#344054"/>
<path d="M98.2334 43.6722H94.5475C94.3274 43.6559 94.1212 43.5585 93.9689 43.3987C93.8165 43.239 93.729 43.0285 93.7231 42.8078C93.7187 42.6905 93.7379 42.5734 93.7795 42.4637C93.8211 42.3539 93.8842 42.2536 93.9652 42.1686C94.0462 42.0836 94.1434 42.0157 94.2512 41.969C94.3589 41.9222 94.4749 41.8975 94.5922 41.8963C94.6424 41.8926 94.6928 41.8926 94.743 41.8963C95.0934 41.96 95.449 41.9908 95.8052 41.9882C98.6031 41.9882 100.499 40.5303 100.499 38.4742C100.499 37.8619 100.398 37.4167 100.052 37.0281L101.335 35.8505L101.024 34.9438L98.8293 35.8482C97.9453 35.3906 96.9631 35.1553 95.9677 35.1628C93.2404 35.1628 91.3891 36.9151 91.3891 38.764C91.3891 40.3584 92.2912 41.2392 93.6101 41.7008V41.7244C92.2465 42.1177 90.9982 43.0433 90.9982 44.2916C90.9982 45.4009 92.1075 46.3948 93.4735 46.5573C92.0863 47.0896 90.7227 47.7137 90.7227 48.9384C90.7227 50.4881 92.2017 51.2512 95.1975 51.2512C99.0129 51.2512 101.719 49.1315 101.719 46.6492C101.724 44.7933 100.292 43.6722 98.2334 43.6722ZM94.8725 36.4652C94.9744 36.2691 95.1282 36.1047 95.3173 35.99C95.5062 35.8754 95.723 35.815 95.9441 35.8152C96.8132 35.8152 97.3573 36.5571 97.3573 38.6673C97.3573 40.7777 96.9498 41.4936 95.9441 41.4936C95.0939 41.4936 94.604 40.6528 94.604 38.6414C94.6016 37.657 94.6558 36.9222 94.8725 36.4652ZM95.5037 50.4552C94.0481 50.4552 93.1932 49.5979 93.1932 48.3496C93.1932 47.4075 94.2201 46.5856 95.1528 46.5856H97.1218C98.7703 46.701 99.55 47.0566 99.55 48.2342C99.55 49.546 97.3784 50.4552 95.5155 50.4552H95.5037Z" fill="#344054"/>
<path d="M58.495 37.9608H50.817V30.2828L43.1367 22.6024V30.2828V37.9608V45.6411H50.817H58.495H66.1754L58.495 37.9608Z" fill="#344054"/>
<rect x="1.36328" y="0.783112" width="224.863" height="72.2831" stroke="white" stroke-opacity="0.06"/>
</svg>
