<svg width="227" height="74" viewBox="0 0 227 74" fill="none" xmlns="http://www.w3.org/2000/svg">
<g clip-path="url(#clip0_1987_49236)">
<path d="M55.4975 49.7076V30.7038H55.4098L51.9745 49.7076H49.4601L45.9663 30.7038H45.8932V49.7076H42.4287V23.2924H47.7352L50.6588 39.7379L53.7433 23.2924H58.8597V49.7076H55.4975Z" fill="#344054"/>
<path d="M71.3002 49.7076L70.3792 43.0856H65.9937L65.1312 49.7076H61.0381L65.4236 23.2924H70.7885L75.364 49.7076H71.3002ZM66.4907 39.4748H69.9114L68.2449 27.3709H68.0548L66.4907 39.4748Z" fill="#344054"/>
<path d="M86.0213 49.7076L83.1854 38.4808H81.4165V49.7076H77.4111V23.2924H82.6737C87.3515 23.2924 89.7782 25.1635 89.7782 30.3238C89.7782 33.6275 88.5941 35.6448 86.723 36.6389L90.319 49.7076H86.0213ZM82.659 35.0893C84.6471 35.0893 85.5827 34.0222 85.5827 30.7915C85.5827 27.1516 84.1209 26.7715 82.2644 26.7715H81.3872V35.0893H82.659Z" fill="#344054"/>
<path d="M101.678 49.7076L98.2568 37.1943L96.4588 41.0828V49.7661H92.5557V23.2924H96.4588V34.3584L101.093 23.2924H105.142L100.873 32.7797L105.624 49.7076H101.678Z" fill="#344054"/>
<path d="M124.818 40.3957C124.671 46.0969 123.195 50 118.561 50C113.123 50 111.968 45.0297 111.968 36.4196C111.968 29.1105 112.816 23 118.488 23C123.224 23 124.525 26.6692 124.671 31.9025H120.915C120.768 28.5842 120.111 26.7423 118.634 26.7423C116.763 26.7423 116.164 29.2566 116.164 36.4196C116.164 44.2258 116.763 46.36 118.634 46.36C120.286 46.36 120.915 44.1527 121.061 40.3957H124.818Z" fill="#344054"/>
<path d="M135.664 23.2924H139.684V43.1586C139.684 47.8219 137.696 49.9269 133.53 49.9269C129.364 49.9269 127.434 47.8219 127.434 43.1586V23.2924H131.439V43.524C131.439 45.7315 132.214 46.4478 133.574 46.4478C134.933 46.4478 135.708 45.673 135.708 43.524L135.664 23.2924Z" fill="#344054"/>
<path d="M142.944 49.7076V23.2924H148.133C153.016 23.2924 155.443 25.0904 155.443 30.2068C155.539 31.3422 155.296 32.4807 154.745 33.4777C154.193 34.4746 153.357 35.2849 152.343 35.8056V35.8787C154.814 36.8289 155.779 39.0363 155.779 42.0915C155.779 48.0557 152.856 49.7076 148.046 49.7076H142.944ZM148.133 34.2854C150.444 34.2854 151.408 33.0427 151.408 30.4699C151.408 27.8971 150.224 26.9762 148.484 26.9762H146.877V34.2854H148.133ZM148.528 45.98C150.662 45.98 151.657 44.9859 151.657 41.8576C151.657 38.7293 150.736 37.6622 148.28 37.6622H146.818V45.98H148.528Z" fill="#344054"/>
<path d="M167.064 49.7076L166.143 43.0856H161.757L160.881 49.7076H156.788L161.172 23.2924H166.553L171.113 49.7076H167.064ZM162.254 39.4748H165.675L164.008 27.3709H163.862L162.254 39.4748Z" fill="#344054"/>
<path d="M182.252 49.7076L176.697 32.0487V49.7076H173.175V23.2924H177.56L182.077 38.1591V23.2924H185.571V49.7076H182.252Z" fill="#344054"/>
</g>
<rect x="1.08887" y="0.783081" width="224.863" height="72.2831" stroke="white" stroke-opacity="0.06"/>
<defs>
<clipPath id="clip0_1987_49236">
<rect width="144" height="27" fill="white" transform="translate(42 23)"/>
</clipPath>
</defs>
</svg>
