<svg width="227" height="74" viewBox="0 0 227 74" fill="none" xmlns="http://www.w3.org/2000/svg">
<g clip-path="url(#clip0_1442_49081)">
<path d="M184.324 29.3623V26.9917H189.789V46.2861H187.081V29.3623H184.324ZM166.854 29.3623V26.9917H172.32V46.2861H169.611V29.3623H166.854ZM138.773 46.2861V28.822H139.913L151.228 41.876V28.822H153.397V46.2861H152.291L140.942 33.2321V46.2861H138.773ZM114.677 46.2861V28.822H128.393V30.8341H116.84V35.9554H123.83V37.9675H116.84V44.2851H129.103V46.2917H114.677V46.2861ZM97.4007 46.2861H96.0411L87.6368 28.822H89.9924L96.7236 42.8187L103.455 28.822H105.855L97.4007 46.2861ZM64.0195 46.2861L72.5671 28.822H74.3669L83.008 46.2861H80.6523L78.2856 41.5894H68.6483L66.3423 46.2861H64.0195ZM69.6445 39.5442H77.3225L73.4698 31.8099L69.6445 39.5442ZM36.979 46.2861V28.822H38.9824L46.0329 39.5165L53.1164 28.822H55.0923V46.2861H52.9568V32.6478L46.0329 42.9785L39.1145 32.6478V46.2861H36.979Z" fill="#344054"/>
</g>
<rect x="0.95166" y="0.5" width="224.863" height="72.2831" stroke="white" stroke-opacity="0.06"/>
<defs>
<clipPath id="clip0_1442_49081">
<rect width="154" height="20" fill="white" transform="translate(36.3833 26.6416)"/>
</clipPath>
</defs>
</svg>
