<svg width="227" height="74" viewBox="0 0 227 74" fill="none" xmlns="http://www.w3.org/2000/svg">
<g clip-path="url(#clip0_1442_49070)">
<path fill-rule="evenodd" clip-rule="evenodd" d="M55.7466 56.1538C66.5229 56.1538 75.2588 47.4179 75.2588 36.6416C75.2588 25.8653 66.5229 17.1294 55.7466 17.1294C44.9703 17.1294 36.2344 25.8653 36.2344 36.6416C36.2344 47.4179 44.9703 56.1538 55.7466 56.1538ZM58.2601 29.7077L64.829 25.8812L64.8289 33.8363C64.8289 35.8787 63.7434 37.7673 61.9786 38.7953L55.9836 42.2873V48.2018L49.4148 44.3754C47.6499 43.3474 46.5644 41.4589 46.5644 39.4164L46.5643 31.4613L53.1333 35.2878C54.1365 35.8721 54.9202 36.7346 55.4098 37.7452V34.6666C55.4098 32.6241 56.4953 30.7357 58.2601 29.7077Z" fill="#344054"/>
<path d="M101.4 45.91H98.5082L89.8077 32.7451V45.91H86.916V28.2554H89.8077L98.5082 41.3949V28.2554H101.4V45.91ZM104.233 38.8583C104.233 37.4547 104.521 36.2118 105.096 35.1295C105.688 34.0473 106.482 33.2102 107.48 32.6183C108.495 32.0095 109.611 31.7051 110.829 31.7051C111.928 31.7051 112.883 31.9249 113.695 32.3646C114.523 32.7874 115.183 33.3201 115.673 33.9627V31.9334H118.59V45.91H115.673V43.83C115.183 44.4895 114.515 45.0391 113.669 45.4788C112.824 45.9185 111.86 46.1383 110.778 46.1383C109.577 46.1383 108.478 45.8339 107.48 45.2251C106.482 44.5995 105.688 43.737 105.096 42.6378C104.521 41.5217 104.233 40.2619 104.233 38.8583ZM115.673 38.909C115.673 37.9451 115.47 37.1081 115.065 36.3978C114.676 35.6876 114.16 35.1464 113.517 34.7744C112.875 34.4024 112.181 34.2163 111.437 34.2163C110.693 34.2163 110 34.4024 109.357 34.7744C108.715 35.1295 108.19 35.6622 107.785 36.3724C107.396 37.0658 107.201 37.8944 107.201 38.8583C107.201 39.8222 107.396 40.6678 107.785 41.3949C108.19 42.122 108.715 42.6801 109.357 43.069C110.017 43.441 110.71 43.6271 111.437 43.6271C112.181 43.6271 112.875 43.441 113.517 43.069C114.16 42.697 114.676 42.1559 115.065 41.4456C115.47 40.7185 115.673 39.8729 115.673 38.909ZM127.462 46.1383C126.363 46.1383 125.373 45.9439 124.494 45.5549C123.632 45.149 122.947 44.6079 122.439 43.9315C121.932 43.2381 121.661 42.4687 121.628 41.6232H124.621C124.672 42.2151 124.951 42.7139 125.458 43.1198C125.982 43.5087 126.633 43.7032 127.411 43.7032C128.223 43.7032 128.848 43.551 129.288 43.2466C129.745 42.9253 129.973 42.5195 129.973 42.029C129.973 41.5048 129.719 41.1159 129.212 40.8622C128.722 40.6085 127.935 40.3295 126.853 40.0251C125.805 39.7376 124.951 39.4586 124.291 39.1881C123.632 38.9175 123.057 38.5032 122.566 37.9451C122.093 37.3871 121.856 36.6515 121.856 35.7383C121.856 34.9942 122.076 34.3178 122.515 33.709C122.955 33.0834 123.581 32.5929 124.393 32.2378C125.221 31.8827 126.168 31.7051 127.233 31.7051C128.823 31.7051 130.1 32.111 131.064 32.9227C132.045 33.7175 132.569 34.8082 132.636 36.1949H129.745C129.694 35.5692 129.44 35.0703 128.984 34.6983C128.527 34.3263 127.91 34.1402 127.132 34.1402C126.371 34.1402 125.788 34.284 125.382 34.5715C124.976 34.859 124.773 35.2395 124.773 35.7129C124.773 36.0849 124.908 36.3978 125.179 36.6515C125.449 36.9051 125.779 37.1081 126.168 37.2603C126.557 37.3956 127.132 37.5731 127.893 37.7929C128.908 38.0635 129.736 38.3425 130.379 38.63C131.038 38.9005 131.605 39.3064 132.078 39.8476C132.552 40.3887 132.797 41.1074 132.814 42.0037C132.814 42.7985 132.594 43.5087 132.154 44.1344C131.715 44.7601 131.089 45.2505 130.277 45.6056C129.483 45.9607 128.544 46.1383 127.462 46.1383ZM134.975 38.909C134.975 37.4717 135.262 36.2118 135.837 35.1295C136.429 34.0303 137.241 33.1848 138.272 32.5929C139.303 32.001 140.488 31.7051 141.823 31.7051C143.514 31.7051 144.909 32.111 146.009 32.9227C147.125 33.7175 147.877 34.859 148.266 36.3471H145.146C144.893 35.6537 144.487 35.1126 143.929 34.7237C143.371 34.3347 142.669 34.1402 141.823 34.1402C140.64 34.1402 139.693 34.563 138.982 35.4085C138.289 36.2371 137.942 37.404 137.942 38.909C137.942 40.4141 138.289 41.5893 138.982 42.4349C139.693 43.2804 140.64 43.7032 141.823 43.7032C143.497 43.7032 144.605 42.9676 145.146 41.4963H148.266C147.86 42.9168 147.099 44.0498 145.983 44.8954C144.867 45.724 143.481 46.1383 141.823 46.1383C140.488 46.1383 139.303 45.8424 138.272 45.2505C137.241 44.6417 136.429 43.7962 135.837 42.7139C135.262 41.6147 134.975 40.3464 134.975 38.909ZM163.958 38.5793C163.958 39.1035 163.924 39.577 163.857 39.9998H153.177C153.262 41.1159 153.676 42.0122 154.42 42.6885C155.165 43.3649 156.078 43.7032 157.16 43.7032C158.716 43.7032 159.815 43.0522 160.457 41.75H163.577C163.155 43.0352 162.385 44.0922 161.269 44.9207C160.17 45.7324 158.8 46.1383 157.16 46.1383C155.824 46.1383 154.623 45.8424 153.558 45.2505C152.509 44.6417 151.681 43.7962 151.072 42.7139C150.48 41.6147 150.184 40.3464 150.184 38.909C150.184 37.4717 150.472 36.2118 151.047 35.1295C151.639 34.0303 152.458 33.1848 153.507 32.5929C154.573 32.001 155.79 31.7051 157.16 31.7051C158.479 31.7051 159.655 31.9926 160.686 32.5676C161.717 33.1425 162.521 33.9542 163.096 35.0027C163.67 36.0342 163.958 37.2264 163.958 38.5793ZM160.939 37.6661C160.923 36.6007 160.542 35.7468 159.798 35.1042C159.054 34.4615 158.133 34.1402 157.033 34.1402C156.035 34.1402 155.181 34.4615 154.471 35.1042C153.761 35.7298 153.338 36.5839 153.203 37.6661H160.939ZM173.856 31.7051C174.954 31.7051 175.936 31.9334 176.798 32.39C177.677 32.8466 178.362 33.523 178.853 34.4193C179.342 35.3156 179.588 36.3978 179.588 37.6661V45.91H176.722V38.0973C176.722 36.8459 176.409 35.8905 175.783 35.231C175.157 34.5546 174.303 34.2163 173.221 34.2163C172.138 34.2163 171.276 34.5546 170.634 35.231C170.008 35.8905 169.696 36.8459 169.696 38.0973V45.91H166.804V31.9334H169.696V33.5315C170.169 32.9565 170.769 32.5083 171.497 32.1871C172.24 31.8658 173.026 31.7051 173.856 31.7051ZM186.651 34.2924V42.029C186.651 42.5532 186.769 42.9337 187.006 43.1705C187.259 43.3903 187.682 43.5002 188.274 43.5002H190.05V45.91H187.767C186.464 45.91 185.466 45.6056 184.774 44.9968C184.08 44.3881 183.734 43.3988 183.734 42.029V34.2924H182.085V31.9334H183.734V28.4583H186.651V31.9334H190.05V34.2924H186.651Z" fill="#344054"/>
</g>
<rect x="1.36328" y="0.5" width="224.863" height="72.2831" stroke="white" stroke-opacity="0.06"/>
<defs>
<clipPath id="clip0_1442_49070">
<rect width="156.098" height="40" fill="white" transform="translate(35.7461 16.6416)"/>
</clipPath>
</defs>
</svg>
