<svg width="33" height="34" viewBox="0 0 33 34" fill="none" xmlns="http://www.w3.org/2000/svg">
<path d="M27.4072 8.96774C27.4072 8.96774 24.3382 6.56609 20.7137 6.29031L20.387 6.94361C23.6642 7.74549 25.1676 8.89478 26.7379 10.3065C24.0303 8.92423 21.3569 7.62903 16.6975 7.62903C12.0381 7.62903 9.36472 8.92423 6.65717 10.3065C8.22748 8.89478 10.016 7.61899 13.008 6.94361L12.6814 6.29031C8.87877 6.64976 5.98782 8.96774 5.98782 8.96774C5.98782 8.96774 2.56004 13.9377 1.97168 23.6936C5.4269 27.6783 10.6733 27.7097 10.6733 27.7097L11.7704 26.2472C9.90824 25.5999 7.80512 24.4439 5.98782 22.3549C8.15519 23.9948 11.4263 25.7016 16.6975 25.7016C21.9687 25.7016 25.2398 23.9948 27.4072 22.3549C25.5899 24.4439 23.4868 25.5999 21.6246 26.2472L22.7217 27.7097C22.7217 27.7097 27.9681 27.6783 31.4234 23.6936C30.835 13.9377 27.4072 8.96774 27.4072 8.96774ZM12.3467 21.0162C11.0528 21.0162 10.004 19.8173 10.004 18.3387C10.004 16.8601 11.0528 15.6613 12.3467 15.6613C13.6406 15.6613 14.6894 16.8601 14.6894 18.3387C14.6894 19.8173 13.6406 21.0162 12.3467 21.0162ZM21.0483 21.0162C19.7545 21.0162 18.7056 19.8173 18.7056 18.3387C18.7056 16.8601 19.7545 15.6613 21.0483 15.6613C22.3422 15.6613 23.3911 16.8601 23.3911 18.3387C23.3911 19.8173 22.3422 21.0162 21.0483 21.0162Z" fill="black"/>
</svg>
