<svg width="63" height="63" viewBox="0 0 63 63" fill="none" xmlns="http://www.w3.org/2000/svg">
<path d="M27.7672 5.20691C26.5201 5.20691 25.4541 6.08841 25.2146 7.31202L24.3451 11.7765C22.1895 12.5887 20.2235 13.7188 18.5027 15.1325L14.2212 13.6579C13.0419 13.2517 11.7443 13.7419 11.1195 14.8223L7.18896 21.6258C6.56674 22.7062 6.7932 24.0778 7.73303 24.8953L11.1653 27.8801C10.9648 29.1063 10.8704 30.205 10.8704 31.2411C10.8704 32.2695 10.9674 33.3706 11.1653 34.6073L7.73303 37.592C6.7932 38.4095 6.56674 39.7812 7.18896 40.8616L11.1195 47.665C11.7417 48.7429 13.0419 49.2305 14.2212 48.8244L18.5027 47.3498C20.2287 48.7661 22.1921 49.8986 24.3451 50.7108C24.3451 50.7108 24.4697 52.0736 25.118 54.677C25.7636 57.2804 27.8333 57.2804 27.8333 57.2804H28.9519L33.33 42.7582C33.9938 40.5557 36.0168 39.0514 38.3131 39.0514H57.2489L57.2794 38.9955L52.2302 34.6022C52.4306 33.376 52.5251 32.2773 52.5251 31.2411C52.5251 30.205 52.4306 29.1038 52.2302 27.875L55.6624 24.8902C56.6023 24.0727 56.8287 22.7011 56.2065 21.6207L52.2759 14.8172C51.6537 13.7394 50.3536 13.2517 49.1742 13.6579L44.8928 15.1325C43.1667 13.7162 41.2034 12.5837 39.0504 11.7714L38.1809 7.31202C37.9439 6.08841 36.8753 5.20691 35.6283 5.20691H27.7672ZM31.6977 23.4309C36.0116 23.4309 39.508 26.9273 39.508 31.2411C39.508 35.555 36.0116 39.0514 31.6977 39.0514C27.3839 39.0514 23.8875 35.555 23.8875 31.2411C23.8875 26.9273 27.3839 23.4309 31.6977 23.4309ZM37.8046 44.2582L34.3012 57.2753H37.0419L37.7131 54.6719H41.2724L41.9487 57.2753H44.7148L41.1911 44.2582H37.8046ZM47.3183 44.2582V57.2753H49.9217V52.0685H51.2234C53.379 52.0685 55.1285 50.319 55.1285 48.1634C55.1285 46.0077 53.379 44.2582 51.2234 44.2582H47.3183ZM57.7319 44.2582V57.2753H60.3354V44.2582H57.7319ZM49.9217 46.8616H51.2234C51.9419 46.8616 52.5251 47.4448 52.5251 48.1634C52.5251 48.8819 51.9419 49.4651 51.2234 49.4651H49.9217V46.8616ZM39.4877 47.782L40.6012 52.0685H38.3843L39.4877 47.782Z" fill="#7F1FFF"/>
<path d="M37.8042 44.2582L34.3008 57.2753H37.0415L37.7127 54.6719H41.2721L41.9483 57.2753H44.7145L41.1907 44.2582H37.8042ZM47.3179 44.2582V57.2753H49.9213V52.0684H51.223C53.3786 52.0684 55.1281 50.3189 55.1281 48.1633C55.1281 46.0077 53.3786 44.2582 51.223 44.2582H47.3179ZM57.7316 44.2582V57.2753H60.335V44.2582H57.7316ZM49.9213 46.8616H51.223C51.9416 46.8616 52.5247 47.4448 52.5247 48.1633C52.5247 48.8819 51.9416 49.465 51.223 49.465H49.9213V46.8616ZM39.4873 47.7819L40.6009 52.0684H38.3839L39.4873 47.7819Z" fill="#CFADFD"/>
</svg>
