<svg width="63" height="63" viewBox="0 0 63 63" fill="none" xmlns="http://www.w3.org/2000/svg">
<path d="M43.6149 11.7411H13.2816C10.8885 11.7411 8.94824 13.6813 8.94824 16.0744V34.4911C8.94824 36.8842 10.8885 38.8244 13.2816 38.8244H43.6149C46.008 38.8244 47.9482 36.8842 47.9482 34.4911V16.0744C47.9482 13.6813 46.008 11.7411 43.6149 11.7411Z" fill="#7F1FFF"/>
<path d="M10.127 13.1201C9.6276 13.6531 9.26577 14.3096 9.08594 15.042L28.4484 29.0744L47.8108 15.042C47.6309 14.3096 47.2691 13.6531 46.7697 13.1212L28.4484 26.3985L10.127 13.1201Z" fill="#F6F6F6"/>
<path d="M50.1149 23.6577H19.7816C17.3885 23.6577 15.4482 25.598 15.4482 27.991V46.4077C15.4482 48.8008 17.3885 50.741 19.7816 50.741H50.1149C52.508 50.741 54.4482 48.8008 54.4482 46.4077V27.991C54.4482 25.598 52.508 23.6577 50.1149 23.6577Z" fill="#CFADFD"/>
<path d="M16.627 25.0369C16.1276 25.5688 15.7658 26.2264 15.5859 26.9576L34.9484 40.9911L54.3108 26.9587C54.1309 26.2264 53.7691 25.5699 53.2697 25.0379L34.9484 38.3153L16.627 25.0369Z" fill="#F6F6F6"/>
</svg>
