<svg width="65" height="64" viewBox="0 0 65 64" fill="none" xmlns="http://www.w3.org/2000/svg">
<path d="M32.1673 56H55.5007C56.79 56 57.834 54.956 57.834 53.6667V30.3333C57.834 29.044 56.79 28 55.5007 28H32.1673C30.878 28 29.834 29.044 29.834 30.3333V53.6667C29.834 54.956 30.878 56 32.1673 56Z" fill="#7F1FFF"/>
<path d="M12.1673 36H35.5007C36.79 36 37.834 34.956 37.834 33.6667V10.3333C37.834 9.044 36.79 8 35.5007 8H12.1673C10.878 8 9.83398 9.044 9.83398 10.3333V33.6667C9.83398 34.956 10.878 36 12.1673 36Z" fill="#CFADFD"/>
<path d="M19.166 52H13.166C9.85802 52 7.16602 49.308 7.16602 46V40H11.166V46C11.166 47.1027 12.0633 48 13.166 48H19.166V52Z" fill="#CFADFD"/>
<path d="M25.834 50L17.834 44V56L25.834 50Z" fill="#7F1FFF"/>
</svg>
