<svg width="33" height="34" viewBox="0 0 33 34" fill="none" xmlns="http://www.w3.org/2000/svg">
<path d="M28.2941 9.25479C27.4086 9.64703 26.4561 9.90875 25.4514 10.0326C26.4728 9.42614 27.2586 8.45892 27.6275 7.31633C26.6716 7.87658 25.6127 8.28824 24.4862 8.50511C23.5866 7.55128 22.3034 6.95956 20.8817 6.95956C18.1507 6.95956 15.9372 9.15371 15.9372 11.8593C15.9372 12.2421 15.982 12.615 16.0663 12.9771C11.9578 12.7709 8.31386 10.8177 5.87607 7.85382C5.44768 8.57807 5.20671 9.42614 5.20671 10.3211C5.20671 12.0219 6.07754 13.5193 7.40554 14.4015C6.59495 14.3767 5.83189 14.1511 5.16387 13.7897C5.16387 13.8044 5.16387 13.8265 5.16387 13.8472C5.16387 16.2241 6.86872 18.2034 9.12847 18.6539C8.71547 18.767 8.27905 18.8299 7.82925 18.8299C7.50996 18.8299 7.19871 18.7938 6.8975 18.7396C7.5267 20.682 9.35203 22.1017 11.5147 22.1439C9.82259 23.4558 7.69136 24.2417 5.37405 24.2417C4.97377 24.2417 4.5822 24.2189 4.19531 24.1721C6.38478 25.5583 8.98456 26.3709 11.7751 26.3709C20.8683 26.3709 25.843 18.9036 25.843 12.4255C25.843 12.2133 25.8363 12.0018 25.8262 11.793C26.7968 11.1076 27.6335 10.2428 28.2941 9.25479Z" fill="black"/>
</svg>
