<svg width="2199" height="1080" viewBox="0 0 2199 1080" fill="none" xmlns="http://www.w3.org/2000/svg">
<path d="M2072.92 472.489C2051.6 472.958 2030.28 473.1 2008.96 472.851C2004.13 472.795 2002.81 474.189 2002.82 479.003C2002.98 535.968 2002.92 592.933 2002.92 649.898C2002.92 656.942 2002.91 656.951 1995.9 656.955C1982.91 656.962 1969.91 656.74 1956.92 657.067C1952.03 657.19 1950.81 655.632 1950.82 650.873C1950.98 594.074 1950.92 537.276 1950.92 480.477C1950.92 472.967 1950.91 472.961 1943.36 472.959C1924.37 472.954 1905.38 472.817 1886.39 473.056C1881.89 473.113 1880.75 471.63 1880.84 467.342C1881.09 455.188 1881.16 443.019 1880.81 430.87C1880.66 425.855 1882.46 424.855 1887.1 424.865C1948.73 425.005 2010.36 424.958 2072.45 424.958C2072.92 440.645 2072.92 456.333 2072.92 472.489Z" fill="white"/>
<path d="M963.922 917.958C779.445 917.958 595.467 917.964 411.489 917.94C401.817 917.938 402.941 919.062 402.94 909.435C402.918 663.798 402.918 418.162 402.94 172.525C402.941 162.852 401.817 163.976 411.444 163.975C657.415 163.953 903.385 163.953 1149.35 163.975C1159.03 163.976 1157.9 162.852 1157.9 172.479C1157.93 418.116 1157.93 663.753 1157.9 909.39C1157.9 919.063 1159.03 917.933 1149.4 917.939C1087.74 917.976 1026.08 917.958 963.922 917.958ZM595.797 422.018C592.053 422.629 588.306 423.224 584.565 423.854C550.709 429.56 524.212 447.055 505.268 475.303C488.228 500.712 481.879 528.877 486.766 559.46C491.449 588.762 505.201 613.134 527.685 631.836C556.135 655.5 589.26 664.716 626.02 657.835C654.944 652.421 679.087 638.102 697.136 614.922C719.074 586.748 727.784 554.649 720.893 519.212C713.63 481.862 692.928 453.998 659.484 435.855C639.962 425.264 618.892 421.002 595.797 422.018ZM1011.04 610.807C1006.2 611.845 1001.39 613.483 996.501 613.821C970.603 615.61 948.558 607.645 931.689 587.247C917.269 569.811 912.488 549.563 916.348 527.733C920.02 506.962 930.891 490.22 949.291 479.114C971.898 465.469 995.456 463.726 1019.47 474.939C1026.73 478.33 1033.28 483.221 1040.74 487.779C1048.64 479.836 1056.83 471.579 1065.04 463.341C1072.13 456.232 1072.13 456.253 1064.46 449.952C1035.92 426.511 1003.46 417.619 967.047 424.03C943.397 428.194 923.031 439.077 905.76 455.67C893.913 467.051 884.896 480.371 878.547 495.609C869.508 517.301 867.119 539.782 871.459 562.623C876.793 590.697 890.559 614.132 912.849 632.499C932.825 648.958 955.712 658.067 981.291 659.806C1004.83 661.405 1027.11 655.943 1047.49 643.965C1054.72 639.715 1061.29 634.315 1068.02 629.247C1069.88 627.847 1072.42 626.021 1069.6 623.178C1059.88 613.391 1050.14 603.625 1041.21 594.661C1030.89 600.226 1021.34 605.373 1011.04 610.807Z" fill="white"/>
<path d="M1733.92 533.961C1733.92 542.127 1733.67 549.804 1734.02 557.455C1734.22 561.944 1732.65 563.066 1728.33 563.045C1696.33 562.882 1664.34 562.956 1632.34 562.96C1624.94 562.961 1624.93 562.969 1624.92 570.132C1624.92 581.798 1625.11 593.469 1624.83 605.127C1624.72 609.663 1626.05 611.076 1630.68 611.054C1668.18 610.881 1705.68 610.955 1743.18 610.962C1749.9 610.963 1749.91 610.979 1749.92 617.802C1749.93 629.135 1749.8 640.469 1749.98 651.799C1750.04 655.543 1749.1 657.045 1744.99 657.036C1689.66 656.913 1634.33 656.922 1579 657.023C1575.14 657.03 1573.85 655.929 1573.85 651.949C1573.95 577.954 1573.95 503.96 1573.85 429.965C1573.85 425.98 1575.15 424.888 1579.01 424.895C1634 424.995 1689 425.004 1743.99 424.881C1748.11 424.872 1749.04 426.383 1748.98 430.122C1748.81 441.785 1748.73 453.457 1749.01 465.116C1749.12 469.633 1747.82 471.077 1743.17 471.055C1706.01 470.879 1668.84 470.955 1631.68 470.962C1624.94 470.963 1624.93 470.978 1624.92 477.791C1624.92 488.623 1624.92 499.456 1624.93 510.288C1624.93 516.941 1624.94 516.955 1631.84 516.956C1663.84 516.961 1695.84 517.054 1727.83 516.857C1732.6 516.828 1734.52 518.061 1733.99 522.969C1733.62 526.43 1733.92 529.962 1733.92 533.961Z" fill="white"/>
<path d="M1229.92 512.958C1229.92 485.296 1230.04 458.134 1229.82 430.974C1229.77 426.108 1231.21 424.742 1236 424.853C1249.32 425.16 1262.66 425.181 1275.99 424.845C1280.97 424.72 1282.05 426.444 1282.02 431.115C1281.82 459.275 1281.92 487.437 1281.92 515.598C1281.92 517.584 1281.92 519.57 1281.92 523.38C1285.21 520.546 1287.61 518.831 1289.58 516.709C1295.09 510.751 1300.31 504.519 1305.85 498.587C1317.41 486.203 1329.19 474.021 1340.72 461.605C1350.31 451.279 1359.69 440.764 1369.1 430.275C1372.2 426.819 1375.36 424.677 1380.58 424.797C1398.71 425.215 1416.86 424.958 1436.06 424.958C1434.61 427.384 1433.87 429.377 1432.51 430.779C1418.87 444.898 1405.04 458.837 1391.43 472.991C1375.43 489.644 1359.59 506.46 1343.3 523.606C1375.75 567.511 1408.31 611.566 1441.43 656.389C1439.09 656.647 1437.7 656.932 1436.31 656.934C1418.65 656.965 1400.99 657.069 1383.33 656.808C1381.13 656.776 1378.19 655.32 1376.89 653.563C1354.43 623.09 1332.18 592.465 1309.86 561.881C1309.4 561.243 1308.8 560.702 1308.01 559.833C1300.91 566.885 1294.12 573.915 1287 580.592C1282.12 585.17 1281.74 590.659 1281.83 596.822C1282.09 615.148 1281.84 633.481 1281.98 651.81C1282.01 655.566 1281.08 657.108 1276.98 657.04C1263.15 656.812 1249.31 656.731 1235.49 657.074C1230.51 657.198 1229.84 655.156 1229.85 650.934C1229.97 605.109 1229.92 559.284 1229.92 512.958Z" fill="white"/>
<path d="M298.225 486.823L323.429 450.29C298.004 428.385 260.881 416.441 223.54 421.143C170.637 434.191 157.418 452.129 157.339 498.979C158.763 527.115 177.897 548.697 225.23 559.462C243.317 563.575 265.236 564.965 278.203 581.26C281.836 585.485 282.849 601.872 271.525 607.583C241.965 625.045 208.286 605.354 178.786 586.018L148.826 621.031C170.69 640.697 186.886 648.921 219.383 656.31C304.198 668.686 333.367 614.93 330.602 586.018C327.873 524.765 279.769 527.55 226.328 509.252C198.064 497.305 201.666 477.539 219.268 467.62C221.004 466.642 222.903 465.961 224.852 465.544C251.683 459.804 270.187 475.166 298.225 486.823Z" fill="white"/>
<path d="M543.911 582.919C533.985 566.946 529.023 550.297 531.734 531.576C535.338 506.686 547.887 487.997 569.86 476.114C593.884 463.121 625.031 465.335 647.032 481.573C663.412 493.663 673.95 509.763 676.528 529.886C679.408 552.368 674.202 572.952 658.281 590.192C641.782 608.057 621.272 615.654 597.493 613.793C577.344 612.216 560.405 603.477 547.631 587.404C546.495 585.974 545.242 584.636 543.911 582.919Z" fill="white"/>
</svg>
