<svg width="405" height="213" viewBox="0 0 405 213" fill="none" xmlns="http://www.w3.org/2000/svg">
<path d="M33.3413 99.3876C51.7622 99.3876 66.6827 84.4495 66.6827 66.0463C66.6827 47.6432 51.7445 32.7049 33.3413 32.7049C25.5982 32.7049 18.5092 35.3567 12.8521 39.7763V0H0V98.9103H12.8521V92.3163C18.5092 96.7359 25.6159 99.3876 33.3413 99.3876ZM33.3413 45.5394C44.6555 45.5394 53.8482 54.7145 53.8482 66.0286C53.8482 77.3428 44.6731 86.5355 33.3413 86.5355C22.0449 86.5355 12.8875 77.4134 12.8521 66.117V65.9402C12.9052 54.6791 22.0625 45.5394 33.3413 45.5394Z" fill="white"/>
<path d="M241.875 39.7763C236.218 35.3567 229.111 32.6873 221.368 32.6873C202.947 32.6873 188.027 47.6255 188.027 66.0286C188.027 84.4318 202.965 99.37 221.368 99.37C229.111 99.37 236.2 96.7182 241.875 92.281V98.875C241.875 154.685 196.636 199.924 140.826 199.924C89.3817 199.924 46.936 161.456 40.6248 111.727H27.6843C34.0661 168.581 82.2926 212.777 140.843 212.777C203.743 212.777 254.745 161.775 254.745 98.875V33.1469H241.893V39.7763H241.875ZM221.368 86.5355C210.054 86.5355 200.879 77.3605 200.879 66.0286C200.879 54.6968 210.054 45.5394 221.368 45.5394C232.682 45.5394 241.875 54.7145 241.875 66.0286C241.875 77.3428 232.7 86.5355 221.368 86.5355Z" fill="white"/>
<path d="M104.444 99.3877C110.56 99.3877 116.235 97.5137 120.938 94.2963V98.9104H133.79V62.0333C133.79 52.9467 141.162 45.5571 150.266 45.5571C159.353 45.5571 166.742 52.9467 166.742 62.0333V98.9104H179.594V62.0333C179.594 45.84 166.459 32.705 150.266 32.705C144.149 32.705 138.492 34.5789 133.79 37.7786V33.1823H120.938V70.0416C120.938 79.146 113.548 86.5355 104.444 86.5355C95.3393 86.5355 87.9674 79.146 87.9674 70.0416V33.1823H75.1152V70.0416C75.1152 86.2526 88.2502 99.3877 104.444 99.3877Z" fill="white"/>
<path d="M296.501 32.705C278.08 32.705 263.16 47.6432 263.16 66.0463C263.16 84.4495 278.098 99.3877 296.501 99.3877C310.149 99.3877 321.87 91.1849 327.032 79.4288H312.005C308.24 83.7777 302.706 86.5355 296.501 86.5355C285.947 86.5355 277.249 78.5449 276.136 68.2915H316.867H320.491H329.719C329.772 67.549 329.825 66.7888 329.825 66.0286C329.843 47.6255 314.904 32.705 296.501 32.705ZM296.501 45.5394C304.633 45.5394 311.634 50.2949 314.957 57.1541H278.045C281.351 50.2949 288.369 45.5394 296.501 45.5394Z" fill="white"/>
<path d="M395.606 68.3092H404.834C404.887 67.5667 404.94 66.8065 404.94 66.0463C404.94 47.6255 390.002 32.705 371.599 32.705C353.178 32.705 338.257 47.6432 338.257 66.0463C338.257 84.4495 353.196 99.3877 371.599 99.3877C385.246 99.3877 396.967 91.1849 402.129 79.4288H387.103C383.337 83.7777 377.804 86.5355 371.599 86.5355C361.045 86.5355 352.347 78.5449 351.233 68.2915H391.964H395.606V68.3092ZM371.616 45.5394C379.748 45.5394 386.749 50.2949 390.073 57.1541H353.16C356.466 50.2949 363.484 45.5394 371.616 45.5394Z" fill="white"/>
</svg>
