<svg width="153" height="80" viewBox="0 0 153 80" fill="none" xmlns="http://www.w3.org/2000/svg">
<path d="M12.5357 32.5357C16.7896 32.5357 20.2459 29.0861 20.2459 24.8255C20.2459 20.5649 16.7963 17.1219 12.5357 17.1219C8.28845 17.1219 4.84545 20.5517 4.83215 24.7989V24.8654C4.85209 29.106 8.29509 32.5357 12.5357 32.5357Z" fill="#FF0080"/>
<path d="M84.9975 32.3131C89.138 31.3354 91.7013 27.1834 90.7228 23.0393C89.7442 18.8951 85.5944 16.3283 81.4539 17.306C77.3134 18.2837 74.7501 22.4357 75.7286 26.5798C76.7071 30.7239 80.857 33.2908 84.9975 32.3131Z" fill="#00D35F"/>
<path d="M12.5357 37.3679C19.4616 37.3679 25.0714 31.7514 25.0714 24.8322C25.0714 17.9129 19.455 12.2964 12.5357 12.2964C9.62445 12.2964 6.95911 13.2935 4.83216 14.9551V0H0V37.1884H4.83216V34.7092C6.95911 36.3709 9.6311 37.3679 12.5357 37.3679ZM12.5357 17.122C16.7896 17.122 20.2459 20.5716 20.2459 24.8255C20.2459 29.0794 16.7963 32.5357 12.5357 32.5357C8.28846 32.5357 4.84546 29.106 4.83216 24.8587V24.7923C4.8521 20.5583 8.2951 17.122 12.5357 17.122Z" fill="black"/>
<path d="M90.9405 14.9552C88.8136 13.2935 86.1416 12.2899 83.2303 12.2899C76.3044 12.2899 70.6946 17.9063 70.6946 24.8256C70.6946 31.7448 76.3111 37.3613 83.2303 37.3613C86.1416 37.3613 88.8069 36.3643 90.9405 34.696V37.1752C90.9405 58.1589 73.9316 75.1679 52.9479 75.1679C33.6059 75.1679 17.6471 60.7046 15.2742 42.0074H10.4088C12.8083 63.3832 30.9405 80.0001 52.9545 80.0001C76.6035 80.0001 95.7794 60.8242 95.7794 37.1752V12.4627H90.9472V14.9552H90.9405ZM83.2303 32.5358C78.9764 32.5358 75.5268 29.0861 75.5268 24.8256C75.5268 20.565 78.9764 17.122 83.2303 17.122C87.4842 17.122 90.9405 20.5717 90.9405 24.8256C90.9405 29.0795 87.4909 32.5358 83.2303 32.5358Z" fill="black"/>
<path d="M39.2687 37.3679C41.5685 37.3679 43.7021 36.6633 45.4701 35.4536V37.1884H50.3023V23.3234C50.3023 19.9069 53.074 17.1286 56.4971 17.1286C59.9135 17.1286 62.6918 19.9069 62.6918 23.3234V37.1884H67.524V23.3234C67.524 17.235 62.5855 12.2964 56.4971 12.2964C54.1973 12.2964 52.0703 13.001 50.3023 14.2041V12.4759H45.4701V26.3343C45.4701 29.7574 42.6918 32.5357 39.2687 32.5357C35.8457 32.5357 33.074 29.7574 33.074 26.3343V12.4759H28.2418V26.3343C28.2418 32.4294 33.1803 37.3679 39.2687 37.3679Z" fill="black"/>
<path d="M111.479 12.2964C104.553 12.2964 98.9431 17.9129 98.9431 24.8322C98.9431 31.7514 104.56 37.3679 111.479 37.3679C116.61 37.3679 121.017 34.2838 122.958 29.8637H117.308C115.892 31.4988 113.812 32.5357 111.479 32.5357C107.511 32.5357 104.241 29.5314 103.822 25.6763H119.136H120.498H123.968C123.988 25.3971 124.008 25.1113 124.008 24.8255C124.015 17.9063 118.398 12.2964 111.479 12.2964ZM111.479 17.122C114.536 17.122 117.168 18.9099 118.418 21.4889H104.54C105.783 18.9099 108.421 17.122 111.479 17.122Z" fill="black"/>
<path d="M148.74 25.683H152.21C152.23 25.4038 152.25 25.118 152.25 24.8322C152.25 17.9063 146.633 12.2964 139.714 12.2964C132.788 12.2964 127.178 17.9129 127.178 24.8322C127.178 31.7514 132.795 37.3679 139.714 37.3679C144.845 37.3679 149.252 34.2838 151.193 29.8637H145.543C144.128 31.4988 142.047 32.5357 139.714 32.5357C135.746 32.5357 132.476 29.5314 132.057 25.6763H147.371H148.74V25.683ZM139.721 17.122C142.778 17.122 145.41 18.9099 146.66 21.4889H132.782C134.025 18.9099 136.663 17.122 139.721 17.122Z" fill="black"/>
</svg>
