<svg width="1114" height="207" viewBox="0 0 1114 207" fill="none" xmlns="http://www.w3.org/2000/svg">
<rect x="261.789" width="573" height="205" rx="8" fill="white"/>
<rect x="279" y="15" width="539" height="175" rx="5" fill="white" stroke="#F9F5FF" stroke-width="2"/>
<line x1="350" y1="103.5" x2="748" y2="103.5" stroke="#FEA700" stroke-dasharray="5 5"/>
<rect x="468.705" y="90.5" width="163" height="25" rx="1.5" fill="#F2F4F7"/>
<path d="M510.333 107V98.6H511.989L515.589 104.432V98.6H517.113V107H515.457L511.869 101.18V107H510.333ZM520.98 100.856C522.564 100.856 523.644 101.708 523.644 103.316V107H522.18V106.124C521.844 106.712 521.112 107.096 520.368 107.096C519.18 107.096 518.352 106.328 518.352 105.296C518.352 104.108 519.252 103.472 521.052 103.28L522.18 103.172V103.112C522.18 102.428 521.712 102.008 520.98 102.008C520.32 102.008 519.852 102.416 519.78 103.064L518.436 102.824C518.628 101.624 519.696 100.856 520.98 100.856ZM520.704 105.98C521.64 105.98 522.18 105.272 522.18 104.384V104.252L521.028 104.384C520.224 104.48 519.816 104.816 519.816 105.248C519.816 105.668 520.152 105.98 520.704 105.98ZM528.603 106.94C528.303 107.048 527.979 107.096 527.631 107.096C526.407 107.096 525.495 106.436 525.495 105.02V102.224H524.475V100.952H525.495V99.176H527.007V100.952H528.531V102.224H527.007V104.876C527.007 105.452 527.319 105.764 527.787 105.764C528.015 105.764 528.279 105.728 528.495 105.62L528.603 106.94ZM530.4 100.028C529.86 100.028 529.464 99.62 529.464 99.092C529.464 98.576 529.86 98.168 530.4 98.168C530.952 98.168 531.36 98.576 531.36 99.092C531.36 99.62 530.952 100.028 530.4 100.028ZM529.644 107V100.952H531.156V107H529.644ZM534.193 107L531.985 100.952H533.509L534.889 105.248L536.269 100.952H537.805L535.597 107H534.193ZM544.075 103.772C544.075 103.988 544.063 104.252 544.051 104.372H539.563C539.695 105.284 540.283 105.824 541.147 105.824C541.855 105.824 542.359 105.488 542.515 104.9L543.931 105.284C543.595 106.424 542.539 107.096 541.123 107.096C539.119 107.096 538.051 105.548 538.051 103.976C538.051 102.404 539.035 100.856 541.039 100.856C543.079 100.856 544.075 102.368 544.075 103.772ZM539.599 103.268H542.455C542.383 102.548 541.915 102.008 541.039 102.008C540.295 102.008 539.767 102.452 539.599 103.268ZM555.025 107H553.129L551.125 103.556H549.805V107H548.173L548.161 98.6H551.401C553.045 98.6 554.113 99.572 554.113 101.084C554.113 102.032 553.621 102.836 552.793 103.244L555.025 107ZM549.805 100.004V102.152H551.149C551.989 102.152 552.469 101.756 552.469 101.084C552.469 100.412 551.989 100.004 551.149 100.004H549.805ZM558.351 107.096C556.515 107.096 555.195 105.776 555.195 103.976C555.195 102.176 556.515 100.856 558.351 100.856C560.187 100.856 561.507 102.176 561.507 103.976C561.507 105.776 560.187 107.096 558.351 107.096ZM558.351 105.788C559.323 105.788 559.983 105.056 559.983 103.976C559.983 102.896 559.323 102.164 558.351 102.164C557.367 102.164 556.719 102.896 556.719 103.976C556.719 105.056 557.367 105.788 558.351 105.788ZM568.284 100.952V107H566.772V106.088C566.388 106.676 565.704 107.096 564.852 107.096C563.544 107.096 562.644 106.232 562.644 104.912V100.952H564.156V104.552C564.156 105.26 564.6 105.752 565.308 105.752C566.244 105.752 566.772 104.96 566.772 103.604V100.952H568.284ZM573.345 106.94C573.045 107.048 572.721 107.096 572.373 107.096C571.149 107.096 570.237 106.436 570.237 105.02V102.224H569.217V100.952H570.237V99.176H571.749V100.952H573.273V102.224H571.749V104.876C571.749 105.452 572.061 105.764 572.529 105.764C572.757 105.764 573.021 105.728 573.237 105.62L573.345 106.94ZM575.142 100.028C574.602 100.028 574.206 99.62 574.206 99.092C574.206 98.576 574.602 98.168 575.142 98.168C575.694 98.168 576.102 98.576 576.102 99.092C576.102 99.62 575.694 100.028 575.142 100.028ZM574.386 107V100.952H575.898V107H574.386ZM577.363 107V100.952H578.875V101.864C579.259 101.276 579.943 100.856 580.795 100.856C582.115 100.856 583.003 101.72 583.003 103.04V107H581.491V103.4C581.491 102.692 581.047 102.2 580.339 102.2C579.415 102.2 578.875 102.992 578.875 104.348V107H577.363ZM588.628 100.952H590.128V106.616C590.128 108.212 588.928 109.28 587.128 109.28C585.712 109.28 584.572 108.524 584.368 107.396L585.772 107.168C585.844 107.732 586.42 108.068 587.128 108.068C588.04 108.068 588.64 107.552 588.64 106.772V106.112C588.34 106.544 587.68 106.82 586.96 106.82C585.184 106.82 584.14 105.62 584.14 103.844C584.14 102.056 585.184 100.856 586.924 100.856C587.668 100.856 588.292 101.144 588.628 101.564V100.952ZM587.176 105.512C588.112 105.512 588.724 104.852 588.724 103.844C588.724 102.824 588.112 102.164 587.176 102.164C586.252 102.164 585.64 102.824 585.64 103.844C585.64 104.852 586.252 105.512 587.176 105.512Z" fill="#344054"/>
<rect x="468.705" y="90.5" width="163" height="25" rx="1.5" stroke="#EAECF0"/>
<line x1="350" y1="47.6797" x2="748" y2="47.6797" stroke="#32D583" stroke-dasharray="5 5"/>
<rect x="468.705" y="36.5" width="163" height="25" rx="1.5" fill="#F2F4F7"/>
<path d="M501.263 53V44.6H502.895V51.584H506.795V53H501.263ZM508.427 46.028C507.887 46.028 507.491 45.62 507.491 45.092C507.491 44.576 507.887 44.168 508.427 44.168C508.979 44.168 509.387 44.576 509.387 45.092C509.387 45.62 508.979 46.028 508.427 46.028ZM507.671 53V46.952H509.183V53H507.671ZM516.444 55.184H514.932V52.4C514.584 52.832 513.936 53.096 513.24 53.096C511.464 53.096 510.324 51.824 510.324 49.976C510.324 48.128 511.392 46.856 513.132 46.856C513.948 46.856 514.596 47.18 514.932 47.648V46.952H516.444V55.184ZM513.42 51.788C514.392 51.788 515.028 51.068 515.028 49.976C515.028 48.884 514.392 48.164 513.42 48.164C512.46 48.164 511.824 48.884 511.824 49.976C511.824 51.068 512.46 51.788 513.42 51.788ZM523.554 46.952V53H522.042V52.088C521.658 52.676 520.974 53.096 520.122 53.096C518.814 53.096 517.914 52.232 517.914 50.912V46.952H519.426V50.552C519.426 51.26 519.87 51.752 520.578 51.752C521.514 51.752 522.042 50.96 522.042 49.604V46.952H523.554ZM525.783 46.028C525.243 46.028 524.847 45.62 524.847 45.092C524.847 44.576 525.243 44.168 525.783 44.168C526.335 44.168 526.743 44.576 526.743 45.092C526.743 45.62 526.335 46.028 525.783 46.028ZM525.027 53V46.952H526.539V53H525.027ZM530.559 53.096C528.747 53.096 527.679 51.824 527.679 49.976C527.679 48.128 528.747 46.856 530.535 46.856C531.291 46.856 531.939 47.168 532.287 47.624V44.504H533.799V53H532.287V52.304C531.987 52.784 531.315 53.096 530.559 53.096ZM530.775 51.788C531.747 51.788 532.383 51.068 532.383 49.976C532.383 48.884 531.747 48.164 530.775 48.164C529.815 48.164 529.179 48.884 529.179 49.976C529.179 51.068 529.815 51.788 530.775 51.788ZM536.025 46.028C535.485 46.028 535.089 45.62 535.089 45.092C535.089 44.576 535.485 44.168 536.025 44.168C536.577 44.168 536.985 44.576 536.985 45.092C536.985 45.62 536.577 46.028 536.025 46.028ZM535.269 53V46.952H536.781V53H535.269ZM541.834 52.94C541.534 53.048 541.21 53.096 540.862 53.096C539.638 53.096 538.726 52.436 538.726 51.02V48.224H537.706V46.952H538.726V45.176H540.238V46.952H541.762V48.224H540.238V50.876C540.238 51.452 540.55 51.764 541.018 51.764C541.246 51.764 541.51 51.728 541.726 51.62L541.834 52.94ZM546.835 46.952H548.383L545.191 55.184H543.655L544.591 52.76L542.239 46.952H543.883L545.335 50.84L546.835 46.952ZM554.089 53V46.004H551.557V44.6H558.253V46.004H555.721V53H554.089ZM562.443 48.416C562.227 48.32 561.939 48.272 561.675 48.272C560.823 48.272 560.055 48.98 560.055 50.78V53H558.543V46.952H560.055V48.056C560.355 47.372 561.147 46.856 561.879 46.856C562.095 46.856 562.359 46.892 562.539 46.952L562.443 48.416ZM565.581 46.856C567.165 46.856 568.245 47.708 568.245 49.316V53H566.781V52.124C566.445 52.712 565.713 53.096 564.969 53.096C563.781 53.096 562.953 52.328 562.953 51.296C562.953 50.108 563.853 49.472 565.653 49.28L566.781 49.172V49.112C566.781 48.428 566.313 48.008 565.581 48.008C564.921 48.008 564.453 48.416 564.381 49.064L563.037 48.824C563.229 47.624 564.297 46.856 565.581 46.856ZM565.305 51.98C566.241 51.98 566.781 51.272 566.781 50.384V50.252L565.629 50.384C564.825 50.48 564.417 50.816 564.417 51.248C564.417 51.668 564.753 51.98 565.305 51.98ZM569.722 53V46.952H571.234V47.864C571.618 47.276 572.302 46.856 573.154 46.856C574.474 46.856 575.362 47.72 575.362 49.04V53H573.85V49.4C573.85 48.692 573.406 48.2 572.698 48.2C571.774 48.2 571.234 48.992 571.234 50.348V53H569.722ZM578.936 53.096C577.472 53.096 576.596 52.196 576.296 51.308L577.532 50.804C577.712 51.416 578.18 51.92 578.936 51.92C579.5 51.92 579.872 51.62 579.872 51.236C579.872 50.096 576.572 50.84 576.572 48.548C576.572 47.6 577.4 46.856 578.72 46.856C579.896 46.856 580.892 47.456 581.156 48.332L579.932 48.848C579.764 48.272 579.236 47.972 578.744 47.972C578.264 47.972 577.94 48.176 577.94 48.524C577.94 49.592 581.264 48.74 581.264 51.212C581.264 52.256 580.328 53.096 578.936 53.096ZM582.766 53V48.224H581.794V46.952H582.766V46.484C582.766 45.068 583.678 44.3 584.902 44.3C585.214 44.3 585.526 44.348 585.814 44.432L585.706 45.68C585.502 45.596 585.298 45.56 585.106 45.56C584.602 45.56 584.278 45.92 584.278 46.484V46.952H585.718V48.224H584.278V53H582.766ZM592.157 49.772C592.157 49.988 592.145 50.252 592.133 50.372H587.645C587.777 51.284 588.365 51.824 589.229 51.824C589.937 51.824 590.441 51.488 590.597 50.9L592.013 51.284C591.677 52.424 590.621 53.096 589.205 53.096C587.201 53.096 586.133 51.548 586.133 49.976C586.133 48.404 587.117 46.856 589.121 46.856C591.161 46.856 592.157 48.368 592.157 49.772ZM587.681 49.268H590.537C590.465 48.548 589.997 48.008 589.121 48.008C588.377 48.008 587.849 48.452 587.681 49.268ZM597.2 48.416C596.984 48.32 596.696 48.272 596.432 48.272C595.58 48.272 594.812 48.98 594.812 50.78V53H593.3V46.952H594.812V48.056C595.112 47.372 595.904 46.856 596.636 46.856C596.852 46.856 597.116 46.892 597.296 46.952L597.2 48.416ZM600.135 53.096C598.671 53.096 597.795 52.196 597.495 51.308L598.731 50.804C598.911 51.416 599.379 51.92 600.135 51.92C600.699 51.92 601.071 51.62 601.071 51.236C601.071 50.096 597.771 50.84 597.771 48.548C597.771 47.6 598.599 46.856 599.919 46.856C601.095 46.856 602.091 47.456 602.355 48.332L601.131 48.848C600.963 48.272 600.435 47.972 599.943 47.972C599.463 47.972 599.139 48.176 599.139 48.524C599.139 49.592 602.463 48.74 602.463 51.212C602.463 52.256 601.527 53.096 600.135 53.096Z" fill="#344054"/>
<rect x="468.705" y="36.5" width="163" height="25" rx="1.5" stroke="#EAECF0"/>
<line x1="350" y1="154.5" x2="748" y2="154.5" stroke="#FF814A" stroke-dasharray="5 5"/>
<rect x="468.705" y="142.32" width="163" height="25" rx="1.5" fill="#F2F4F7"/>
<path d="M492.024 158.916C489.804 158.916 487.848 157.464 487.848 154.62C487.848 151.776 489.84 150.324 492.024 150.324C494.04 150.324 495.468 151.428 495.756 153.12L494.136 153.456C493.92 152.388 493.104 151.728 492.024 151.728C490.608 151.728 489.504 152.736 489.504 154.62C489.504 156.504 490.596 157.5 492.024 157.5C493.116 157.5 493.872 156.9 494.088 155.916L495.732 156.276C495.324 157.92 493.956 158.916 492.024 158.916ZM500.825 154.236C500.609 154.14 500.321 154.092 500.057 154.092C499.205 154.092 498.437 154.8 498.437 156.6V158.82H496.925V152.772H498.437V153.876C498.737 153.192 499.529 152.676 500.261 152.676C500.477 152.676 500.741 152.712 500.921 152.772L500.825 154.236ZM504.421 158.916C502.585 158.916 501.265 157.596 501.265 155.796C501.265 153.996 502.585 152.676 504.421 152.676C506.257 152.676 507.577 153.996 507.577 155.796C507.577 157.596 506.257 158.916 504.421 158.916ZM504.421 157.608C505.393 157.608 506.053 156.876 506.053 155.796C506.053 154.716 505.393 153.984 504.421 153.984C503.437 153.984 502.789 154.716 502.789 155.796C502.789 156.876 503.437 157.608 504.421 157.608ZM510.768 158.916C509.304 158.916 508.428 158.016 508.128 157.128L509.364 156.624C509.544 157.236 510.012 157.74 510.768 157.74C511.332 157.74 511.704 157.44 511.704 157.056C511.704 155.916 508.404 156.66 508.404 154.368C508.404 153.42 509.232 152.676 510.552 152.676C511.728 152.676 512.724 153.276 512.988 154.152L511.764 154.668C511.596 154.092 511.068 153.792 510.576 153.792C510.096 153.792 509.772 153.996 509.772 154.344C509.772 155.412 513.096 154.56 513.096 157.032C513.096 158.076 512.16 158.916 510.768 158.916ZM516.299 158.916C514.835 158.916 513.959 158.016 513.659 157.128L514.895 156.624C515.075 157.236 515.543 157.74 516.299 157.74C516.863 157.74 517.235 157.44 517.235 157.056C517.235 155.916 513.935 156.66 513.935 154.368C513.935 153.42 514.763 152.676 516.083 152.676C517.259 152.676 518.255 153.276 518.519 154.152L517.295 154.668C517.127 154.092 516.599 153.792 516.107 153.792C515.627 153.792 515.303 153.996 515.303 154.344C515.303 155.412 518.627 154.56 518.627 157.032C518.627 158.076 517.691 158.916 516.299 158.916ZM519.31 156V154.704H523.174V156H519.31ZM526.978 158.916C525.166 158.916 523.906 157.644 523.906 155.796C523.906 153.948 525.166 152.676 526.978 152.676C528.526 152.676 529.618 153.48 529.822 154.764L528.346 155.052C528.238 154.416 527.734 153.984 527.026 153.984C526.09 153.984 525.478 154.692 525.478 155.796C525.478 156.9 526.09 157.608 527.026 157.608C527.734 157.608 528.202 157.224 528.346 156.576L529.822 156.876C529.594 158.148 528.502 158.916 526.978 158.916ZM530.957 158.82V150.324H532.469V153.708C532.865 153.048 533.549 152.676 534.389 152.676C535.745 152.676 536.645 153.54 536.645 154.86V158.82H535.133V155.232C535.133 154.488 534.677 154.02 533.933 154.02C532.997 154.02 532.469 154.824 532.469 156.192V158.82H530.957ZM540.433 152.676C542.017 152.676 543.097 153.528 543.097 155.136V158.82H541.633V157.944C541.297 158.532 540.565 158.916 539.821 158.916C538.633 158.916 537.805 158.148 537.805 157.116C537.805 155.928 538.705 155.292 540.505 155.1L541.633 154.992V154.932C541.633 154.248 541.165 153.828 540.433 153.828C539.773 153.828 539.305 154.236 539.233 154.884L537.889 154.644C538.081 153.444 539.149 152.676 540.433 152.676ZM540.157 157.8C541.093 157.8 541.633 157.092 541.633 156.204V156.072L540.481 156.204C539.677 156.3 539.269 156.636 539.269 157.068C539.269 157.488 539.605 157.8 540.157 157.8ZM545.33 151.848C544.79 151.848 544.394 151.44 544.394 150.912C544.394 150.396 544.79 149.988 545.33 149.988C545.882 149.988 546.29 150.396 546.29 150.912C546.29 151.44 545.882 151.848 545.33 151.848ZM544.574 158.82V152.772H546.086V158.82H544.574ZM547.55 158.82V152.772H549.062V153.684C549.446 153.096 550.13 152.676 550.982 152.676C552.302 152.676 553.19 153.54 553.19 154.86V158.82H551.678V155.22C551.678 154.512 551.234 154.02 550.526 154.02C549.602 154.02 549.062 154.812 549.062 156.168V158.82H547.55ZM557.595 158.82V150.42H559.431L561.999 156.504L564.567 150.42H566.403V158.82H564.867V153.456L562.611 158.82H561.387L559.131 153.456V158.82H557.595ZM573.629 155.592C573.629 155.808 573.617 156.072 573.605 156.192H569.117C569.249 157.104 569.837 157.644 570.701 157.644C571.409 157.644 571.913 157.308 572.069 156.72L573.485 157.104C573.149 158.244 572.093 158.916 570.677 158.916C568.673 158.916 567.605 157.368 567.605 155.796C567.605 154.224 568.589 152.676 570.593 152.676C572.633 152.676 573.629 154.188 573.629 155.592ZM569.153 155.088H572.009C571.937 154.368 571.469 153.828 570.593 153.828C569.849 153.828 569.321 154.272 569.153 155.088ZM576.826 158.916C575.362 158.916 574.486 158.016 574.186 157.128L575.422 156.624C575.602 157.236 576.07 157.74 576.826 157.74C577.39 157.74 577.762 157.44 577.762 157.056C577.762 155.916 574.462 156.66 574.462 154.368C574.462 153.42 575.29 152.676 576.61 152.676C577.786 152.676 578.782 153.276 579.046 154.152L577.822 154.668C577.654 154.092 577.126 153.792 576.634 153.792C576.154 153.792 575.83 153.996 575.83 154.344C575.83 155.412 579.154 154.56 579.154 157.032C579.154 158.076 578.218 158.916 576.826 158.916ZM582.358 158.916C580.894 158.916 580.018 158.016 579.718 157.128L580.954 156.624C581.134 157.236 581.602 157.74 582.358 157.74C582.922 157.74 583.294 157.44 583.294 157.056C583.294 155.916 579.994 156.66 579.994 154.368C579.994 153.42 580.822 152.676 582.142 152.676C583.318 152.676 584.314 153.276 584.578 154.152L583.354 154.668C583.186 154.092 582.658 153.792 582.166 153.792C581.686 153.792 581.362 153.996 581.362 154.344C581.362 155.412 584.686 154.56 584.686 157.032C584.686 158.076 583.75 158.916 582.358 158.916ZM588.105 152.676C589.689 152.676 590.769 153.528 590.769 155.136V158.82H589.305V157.944C588.969 158.532 588.237 158.916 587.493 158.916C586.305 158.916 585.477 158.148 585.477 157.116C585.477 155.928 586.377 155.292 588.177 155.1L589.305 154.992V154.932C589.305 154.248 588.837 153.828 588.105 153.828C587.445 153.828 586.977 154.236 586.905 154.884L585.561 154.644C585.753 153.444 586.821 152.676 588.105 152.676ZM587.829 157.8C588.765 157.8 589.305 157.092 589.305 156.204V156.072L588.153 156.204C587.349 156.3 586.941 156.636 586.941 157.068C586.941 157.488 587.277 157.8 587.829 157.8ZM596.41 152.772H597.91V158.436C597.91 160.032 596.71 161.1 594.91 161.1C593.494 161.1 592.354 160.344 592.15 159.216L593.554 158.988C593.626 159.552 594.202 159.888 594.91 159.888C595.822 159.888 596.422 159.372 596.422 158.592V157.932C596.122 158.364 595.462 158.64 594.742 158.64C592.966 158.64 591.922 157.44 591.922 155.664C591.922 153.876 592.966 152.676 594.706 152.676C595.45 152.676 596.074 152.964 596.41 153.384V152.772ZM594.958 157.332C595.894 157.332 596.506 156.672 596.506 155.664C596.506 154.644 595.894 153.984 594.958 153.984C594.034 153.984 593.422 154.644 593.422 155.664C593.422 156.672 594.034 157.332 594.958 157.332ZM600.138 151.848C599.598 151.848 599.202 151.44 599.202 150.912C599.202 150.396 599.598 149.988 600.138 149.988C600.69 149.988 601.098 150.396 601.098 150.912C601.098 151.44 600.69 151.848 600.138 151.848ZM599.382 158.82V152.772H600.894V158.82H599.382ZM602.359 158.82V152.772H603.871V153.684C604.255 153.096 604.939 152.676 605.791 152.676C607.111 152.676 607.999 153.54 607.999 154.86V158.82H606.487V155.22C606.487 154.512 606.043 154.02 605.335 154.02C604.411 154.02 603.871 154.812 603.871 156.168V158.82H602.359ZM613.625 152.772H615.125V158.436C615.125 160.032 613.925 161.1 612.125 161.1C610.709 161.1 609.569 160.344 609.365 159.216L610.769 158.988C610.841 159.552 611.417 159.888 612.125 159.888C613.037 159.888 613.637 159.372 613.637 158.592V157.932C613.337 158.364 612.677 158.64 611.957 158.64C610.181 158.64 609.137 157.44 609.137 155.664C609.137 153.876 610.181 152.676 611.921 152.676C612.665 152.676 613.289 152.964 613.625 153.384V152.772ZM612.173 157.332C613.109 157.332 613.721 156.672 613.721 155.664C613.721 154.644 613.109 153.984 612.173 153.984C611.249 153.984 610.637 154.644 610.637 155.664C610.637 156.672 611.249 157.332 612.173 157.332Z" fill="#344054"/>
<rect x="468.705" y="142.32" width="163" height="25" rx="1.5" stroke="#EAECF0"/>
<circle cx="338.901" cy="50.1798" r="16.1602" fill="#32D583"/>
<circle cx="338.901" cy="50.1797" r="8" fill="#FCFCFD"/>
<circle cx="338.901" cy="102.5" r="16.1602" fill="#FEA700"/>
<circle cx="338.901" cy="102.5" r="8" fill="#FCFCFD"/>
<circle cx="338.901" cy="154.82" r="16.1602" fill="#FF814A"/>
<circle cx="338.901" cy="154.82" r="8" fill="#FCFCFD"/>
<circle cx="760.139" cy="50.1798" r="16.1602" fill="#32D583"/>
<circle cx="760.139" cy="50.1797" r="8" fill="#FCFCFD"/>
<circle cx="760.139" cy="102.5" r="16.1602" fill="#FEA700"/>
<circle cx="760.139" cy="102.5" r="8" fill="#FCFCFD"/>
<circle cx="760.139" cy="154.82" r="16.1602" fill="#FF814A"/>
<circle cx="760.139" cy="154.82" r="8" fill="#FCFCFD"/>
<rect x="-0.5" y="0.5" width="75" height="204" transform="matrix(-1 0 0 1 1097 1)" fill="white"/>
<rect width="55.6803" height="55.6803" rx="2" transform="matrix(-1 0 0 1 1088 11)" fill="#6CA3FB"/>
<rect width="56" height="55" rx="2" transform="matrix(-1 0 0 1 1088 76.1172)" fill="#AA6CFB"/>
<rect width="55.6803" height="55.6803" rx="2" transform="matrix(-1 0 0 1 1088 140.555)" fill="#FB6CB3"/>
<rect x="-0.5" y="0.5" width="75" height="204" transform="matrix(-1 0 0 1 1097 1)" stroke="#D0D5DD"/>
<rect width="23" height="148" transform="translate(999 29.5342)" fill="white"/>
<rect width="6.8836" height="30.9439" transform="matrix(-1 0 0 1 133.51 87.5488)" fill="white"/>
<path d="M126.626 77.156C126.626 72.081 122.512 67.9668 117.437 67.9668H84.1781V138.074H117.437C122.512 138.074 126.626 133.96 126.626 128.885V77.156Z" fill="white"/>
<rect width="9.17801" height="96.6997" transform="matrix(-1 0 0 1 84.1782 54.6709)" fill="white"/>
<path d="M268.584 91.7565H241.503C227.144 91.7565 215.503 80.1159 215.503 65.7565V54.0043C215.503 39.6449 203.863 28.0043 189.503 28.0043H186.448C172.088 28.0043 160.448 39.6449 160.448 54.0043V76.499C160.448 90.8584 148.807 102.499 134.448 102.499H133.51" stroke="white" stroke-width="16" stroke-linejoin="round"/>
<path d="M261.5 91.7565H241.503C227.144 91.7565 215.503 80.1159 215.503 65.7565V54.0043C215.503 39.6449 203.863 28.0043 189.503 28.0043H186.448C172.088 28.0043 160.448 39.6449 160.448 54.0043V76.499C160.448 90.8584 148.807 102.499 134.448 102.499H133.51" stroke="#D0D5DD" stroke-width="1.5" stroke-linejoin="round" stroke-dasharray="4 4"/>
<rect x="-0.5" y="0.5" width="74" height="204" transform="matrix(-1 0 0 1 74 1.03516)" fill="white"/>
<rect width="55.6803" height="55.6803" rx="2" transform="matrix(-1 0 0 1 65 11.0352)" fill="#FB6CB3"/>
<rect width="55.6803" height="55.6803" rx="2" transform="matrix(-1 0 0 1 65 76.1523)" fill="#6CA3FB"/>
<rect width="55.6803" height="55.6803" rx="2" transform="matrix(-1 0 0 1 65 141.271)" fill="#AA6CFB"/>
<rect x="-0.5" y="0.5" width="74" height="204" transform="matrix(-1 0 0 1 74 1.03516)" stroke="#D0D5DD"/>
<path d="M834 92.5V92.5C856.833 92.5 875.343 111.01 875.343 133.843V145.283C875.343 163.095 889.782 177.535 907.595 177.535V177.535C925.407 177.535 939.847 163.095 939.847 145.283V133.309C939.847 110.113 958.651 91.3086 981.847 91.3086H999.5" stroke="white" stroke-width="20" stroke-linejoin="round"/>
<path d="M834 93.4377V93.4377C856.833 93.4377 875.343 111.947 875.343 134.78V145.283C875.343 163.095 889.782 177.535 907.595 177.535V177.535C925.407 177.535 939.847 163.095 939.847 145.283V135.309C939.847 111.008 959.546 91.3086 983.847 91.3086H1000" stroke="#D0D5DD" stroke-width="1.5" stroke-linejoin="round" stroke-dasharray="4 4"/>
</svg>
