<svg width="1114" height="207" viewBox="0 0 1114 207" fill="none" xmlns="http://www.w3.org/2000/svg">
<rect x="261.789" width="573" height="205" rx="8" fill="white"/>
<rect x="279" y="15" width="539" height="175" rx="5" fill="white" stroke="#F9F5FF" stroke-width="2"/>
<line x1="350" y1="103.5" x2="748" y2="103.5" stroke="#FEA700" stroke-dasharray="5 5"/>
<rect x="468.705" y="90.5" width="163" height="25" rx="1.5" fill="#F2F4F7"/>
<path d="M492.024 107.096C489.804 107.096 487.848 105.644 487.848 102.8C487.848 99.956 489.84 98.504 492.024 98.504C494.04 98.504 495.468 99.608 495.756 101.3L494.136 101.636C493.92 100.568 493.104 99.908 492.024 99.908C490.608 99.908 489.504 100.916 489.504 102.8C489.504 104.684 490.596 105.68 492.024 105.68C493.116 105.68 493.872 105.08 494.088 104.096L495.732 104.456C495.324 106.1 493.956 107.096 492.024 107.096ZM500.825 102.416C500.609 102.32 500.321 102.272 500.057 102.272C499.205 102.272 498.437 102.98 498.437 104.78V107H496.925V100.952H498.437V102.056C498.737 101.372 499.529 100.856 500.261 100.856C500.477 100.856 500.741 100.892 500.921 100.952L500.825 102.416ZM504.421 107.096C502.585 107.096 501.265 105.776 501.265 103.976C501.265 102.176 502.585 100.856 504.421 100.856C506.257 100.856 507.577 102.176 507.577 103.976C507.577 105.776 506.257 107.096 504.421 107.096ZM504.421 105.788C505.393 105.788 506.053 105.056 506.053 103.976C506.053 102.896 505.393 102.164 504.421 102.164C503.437 102.164 502.789 102.896 502.789 103.976C502.789 105.056 503.437 105.788 504.421 105.788ZM510.768 107.096C509.304 107.096 508.428 106.196 508.128 105.308L509.364 104.804C509.544 105.416 510.012 105.92 510.768 105.92C511.332 105.92 511.704 105.62 511.704 105.236C511.704 104.096 508.404 104.84 508.404 102.548C508.404 101.6 509.232 100.856 510.552 100.856C511.728 100.856 512.724 101.456 512.988 102.332L511.764 102.848C511.596 102.272 511.068 101.972 510.576 101.972C510.096 101.972 509.772 102.176 509.772 102.524C509.772 103.592 513.096 102.74 513.096 105.212C513.096 106.256 512.16 107.096 510.768 107.096ZM516.299 107.096C514.835 107.096 513.959 106.196 513.659 105.308L514.895 104.804C515.075 105.416 515.543 105.92 516.299 105.92C516.863 105.92 517.235 105.62 517.235 105.236C517.235 104.096 513.935 104.84 513.935 102.548C513.935 101.6 514.763 100.856 516.083 100.856C517.259 100.856 518.255 101.456 518.519 102.332L517.295 102.848C517.127 102.272 516.599 101.972 516.107 101.972C515.627 101.972 515.303 102.176 515.303 102.524C515.303 103.592 518.627 102.74 518.627 105.212C518.627 106.256 517.691 107.096 516.299 107.096ZM519.31 104.18V102.884H523.174V104.18H519.31ZM526.978 107.096C525.166 107.096 523.906 105.824 523.906 103.976C523.906 102.128 525.166 100.856 526.978 100.856C528.526 100.856 529.618 101.66 529.822 102.944L528.346 103.232C528.238 102.596 527.734 102.164 527.026 102.164C526.09 102.164 525.478 102.872 525.478 103.976C525.478 105.08 526.09 105.788 527.026 105.788C527.734 105.788 528.202 105.404 528.346 104.756L529.822 105.056C529.594 106.328 528.502 107.096 526.978 107.096ZM530.957 107V98.504H532.469V101.888C532.865 101.228 533.549 100.856 534.389 100.856C535.745 100.856 536.645 101.72 536.645 103.04V107H535.133V103.412C535.133 102.668 534.677 102.2 533.933 102.2C532.997 102.2 532.469 103.004 532.469 104.372V107H530.957ZM540.433 100.856C542.017 100.856 543.097 101.708 543.097 103.316V107H541.633V106.124C541.297 106.712 540.565 107.096 539.821 107.096C538.633 107.096 537.805 106.328 537.805 105.296C537.805 104.108 538.705 103.472 540.505 103.28L541.633 103.172V103.112C541.633 102.428 541.165 102.008 540.433 102.008C539.773 102.008 539.305 102.416 539.233 103.064L537.889 102.824C538.081 101.624 539.149 100.856 540.433 100.856ZM540.157 105.98C541.093 105.98 541.633 105.272 541.633 104.384V104.252L540.481 104.384C539.677 104.48 539.269 104.816 539.269 105.248C539.269 105.668 539.605 105.98 540.157 105.98ZM545.33 100.028C544.79 100.028 544.394 99.62 544.394 99.092C544.394 98.576 544.79 98.168 545.33 98.168C545.882 98.168 546.29 98.576 546.29 99.092C546.29 99.62 545.882 100.028 545.33 100.028ZM544.574 107V100.952H546.086V107H544.574ZM547.55 107V100.952H549.062V101.864C549.446 101.276 550.13 100.856 550.982 100.856C552.302 100.856 553.19 101.72 553.19 103.04V107H551.678V103.4C551.678 102.692 551.234 102.2 550.526 102.2C549.602 102.2 549.062 102.992 549.062 104.348V107H547.55ZM557.595 107V98.6H559.431L561.999 104.684L564.567 98.6H566.403V107H564.867V101.636L562.611 107H561.387L559.131 101.636V107H557.595ZM573.629 103.772C573.629 103.988 573.617 104.252 573.605 104.372H569.117C569.249 105.284 569.837 105.824 570.701 105.824C571.409 105.824 571.913 105.488 572.069 104.9L573.485 105.284C573.149 106.424 572.093 107.096 570.677 107.096C568.673 107.096 567.605 105.548 567.605 103.976C567.605 102.404 568.589 100.856 570.593 100.856C572.633 100.856 573.629 102.368 573.629 103.772ZM569.153 103.268H572.009C571.937 102.548 571.469 102.008 570.593 102.008C569.849 102.008 569.321 102.452 569.153 103.268ZM576.826 107.096C575.362 107.096 574.486 106.196 574.186 105.308L575.422 104.804C575.602 105.416 576.07 105.92 576.826 105.92C577.39 105.92 577.762 105.62 577.762 105.236C577.762 104.096 574.462 104.84 574.462 102.548C574.462 101.6 575.29 100.856 576.61 100.856C577.786 100.856 578.782 101.456 579.046 102.332L577.822 102.848C577.654 102.272 577.126 101.972 576.634 101.972C576.154 101.972 575.83 102.176 575.83 102.524C575.83 103.592 579.154 102.74 579.154 105.212C579.154 106.256 578.218 107.096 576.826 107.096ZM582.358 107.096C580.894 107.096 580.018 106.196 579.718 105.308L580.954 104.804C581.134 105.416 581.602 105.92 582.358 105.92C582.922 105.92 583.294 105.62 583.294 105.236C583.294 104.096 579.994 104.84 579.994 102.548C579.994 101.6 580.822 100.856 582.142 100.856C583.318 100.856 584.314 101.456 584.578 102.332L583.354 102.848C583.186 102.272 582.658 101.972 582.166 101.972C581.686 101.972 581.362 102.176 581.362 102.524C581.362 103.592 584.686 102.74 584.686 105.212C584.686 106.256 583.75 107.096 582.358 107.096ZM588.105 100.856C589.689 100.856 590.769 101.708 590.769 103.316V107H589.305V106.124C588.969 106.712 588.237 107.096 587.493 107.096C586.305 107.096 585.477 106.328 585.477 105.296C585.477 104.108 586.377 103.472 588.177 103.28L589.305 103.172V103.112C589.305 102.428 588.837 102.008 588.105 102.008C587.445 102.008 586.977 102.416 586.905 103.064L585.561 102.824C585.753 101.624 586.821 100.856 588.105 100.856ZM587.829 105.98C588.765 105.98 589.305 105.272 589.305 104.384V104.252L588.153 104.384C587.349 104.48 586.941 104.816 586.941 105.248C586.941 105.668 587.277 105.98 587.829 105.98ZM596.41 100.952H597.91V106.616C597.91 108.212 596.71 109.28 594.91 109.28C593.494 109.28 592.354 108.524 592.15 107.396L593.554 107.168C593.626 107.732 594.202 108.068 594.91 108.068C595.822 108.068 596.422 107.552 596.422 106.772V106.112C596.122 106.544 595.462 106.82 594.742 106.82C592.966 106.82 591.922 105.62 591.922 103.844C591.922 102.056 592.966 100.856 594.706 100.856C595.45 100.856 596.074 101.144 596.41 101.564V100.952ZM594.958 105.512C595.894 105.512 596.506 104.852 596.506 103.844C596.506 102.824 595.894 102.164 594.958 102.164C594.034 102.164 593.422 102.824 593.422 103.844C593.422 104.852 594.034 105.512 594.958 105.512ZM600.138 100.028C599.598 100.028 599.202 99.62 599.202 99.092C599.202 98.576 599.598 98.168 600.138 98.168C600.69 98.168 601.098 98.576 601.098 99.092C601.098 99.62 600.69 100.028 600.138 100.028ZM599.382 107V100.952H600.894V107H599.382ZM602.359 107V100.952H603.871V101.864C604.255 101.276 604.939 100.856 605.791 100.856C607.111 100.856 607.999 101.72 607.999 103.04V107H606.487V103.4C606.487 102.692 606.043 102.2 605.335 102.2C604.411 102.2 603.871 102.992 603.871 104.348V107H602.359ZM613.625 100.952H615.125V106.616C615.125 108.212 613.925 109.28 612.125 109.28C610.709 109.28 609.569 108.524 609.365 107.396L610.769 107.168C610.841 107.732 611.417 108.068 612.125 108.068C613.037 108.068 613.637 107.552 613.637 106.772V106.112C613.337 106.544 612.677 106.82 611.957 106.82C610.181 106.82 609.137 105.62 609.137 103.844C609.137 102.056 610.181 100.856 611.921 100.856C612.665 100.856 613.289 101.144 613.625 101.564V100.952ZM612.173 105.512C613.109 105.512 613.721 104.852 613.721 103.844C613.721 102.824 613.109 102.164 612.173 102.164C611.249 102.164 610.637 102.824 610.637 103.844C610.637 104.852 611.249 105.512 612.173 105.512Z" fill="#344054"/>
<rect x="468.705" y="90.5" width="163" height="25" rx="1.5" stroke="#EAECF0"/>
<line x1="350" y1="47.6797" x2="748" y2="47.6797" stroke="#32D583" stroke-dasharray="5 5"/>
<rect x="468.705" y="36.5" width="163" height="25" rx="1.5" fill="#F2F4F7"/>
<path d="M492.024 53.096C489.804 53.096 487.848 51.644 487.848 48.8C487.848 45.956 489.84 44.504 492.024 44.504C494.04 44.504 495.468 45.608 495.756 47.3L494.136 47.636C493.92 46.568 493.104 45.908 492.024 45.908C490.608 45.908 489.504 46.916 489.504 48.8C489.504 50.684 490.596 51.68 492.024 51.68C493.116 51.68 493.872 51.08 494.088 50.096L495.732 50.456C495.324 52.1 493.956 53.096 492.024 53.096ZM500.825 48.416C500.609 48.32 500.321 48.272 500.057 48.272C499.205 48.272 498.437 48.98 498.437 50.78V53H496.925V46.952H498.437V48.056C498.737 47.372 499.529 46.856 500.261 46.856C500.477 46.856 500.741 46.892 500.921 46.952L500.825 48.416ZM504.421 53.096C502.585 53.096 501.265 51.776 501.265 49.976C501.265 48.176 502.585 46.856 504.421 46.856C506.257 46.856 507.577 48.176 507.577 49.976C507.577 51.776 506.257 53.096 504.421 53.096ZM504.421 51.788C505.393 51.788 506.053 51.056 506.053 49.976C506.053 48.896 505.393 48.164 504.421 48.164C503.437 48.164 502.789 48.896 502.789 49.976C502.789 51.056 503.437 51.788 504.421 51.788ZM510.768 53.096C509.304 53.096 508.428 52.196 508.128 51.308L509.364 50.804C509.544 51.416 510.012 51.92 510.768 51.92C511.332 51.92 511.704 51.62 511.704 51.236C511.704 50.096 508.404 50.84 508.404 48.548C508.404 47.6 509.232 46.856 510.552 46.856C511.728 46.856 512.724 47.456 512.988 48.332L511.764 48.848C511.596 48.272 511.068 47.972 510.576 47.972C510.096 47.972 509.772 48.176 509.772 48.524C509.772 49.592 513.096 48.74 513.096 51.212C513.096 52.256 512.16 53.096 510.768 53.096ZM516.299 53.096C514.835 53.096 513.959 52.196 513.659 51.308L514.895 50.804C515.075 51.416 515.543 51.92 516.299 51.92C516.863 51.92 517.235 51.62 517.235 51.236C517.235 50.096 513.935 50.84 513.935 48.548C513.935 47.6 514.763 46.856 516.083 46.856C517.259 46.856 518.255 47.456 518.519 48.332L517.295 48.848C517.127 48.272 516.599 47.972 516.107 47.972C515.627 47.972 515.303 48.176 515.303 48.524C515.303 49.592 518.627 48.74 518.627 51.212C518.627 52.256 517.691 53.096 516.299 53.096ZM519.31 50.18V48.884H523.174V50.18H519.31ZM526.978 53.096C525.166 53.096 523.906 51.824 523.906 49.976C523.906 48.128 525.166 46.856 526.978 46.856C528.526 46.856 529.618 47.66 529.822 48.944L528.346 49.232C528.238 48.596 527.734 48.164 527.026 48.164C526.09 48.164 525.478 48.872 525.478 49.976C525.478 51.08 526.09 51.788 527.026 51.788C527.734 51.788 528.202 51.404 528.346 50.756L529.822 51.056C529.594 52.328 528.502 53.096 526.978 53.096ZM530.957 53V44.504H532.469V47.888C532.865 47.228 533.549 46.856 534.389 46.856C535.745 46.856 536.645 47.72 536.645 49.04V53H535.133V49.412C535.133 48.668 534.677 48.2 533.933 48.2C532.997 48.2 532.469 49.004 532.469 50.372V53H530.957ZM540.433 46.856C542.017 46.856 543.097 47.708 543.097 49.316V53H541.633V52.124C541.297 52.712 540.565 53.096 539.821 53.096C538.633 53.096 537.805 52.328 537.805 51.296C537.805 50.108 538.705 49.472 540.505 49.28L541.633 49.172V49.112C541.633 48.428 541.165 48.008 540.433 48.008C539.773 48.008 539.305 48.416 539.233 49.064L537.889 48.824C538.081 47.624 539.149 46.856 540.433 46.856ZM540.157 51.98C541.093 51.98 541.633 51.272 541.633 50.384V50.252L540.481 50.384C539.677 50.48 539.269 50.816 539.269 51.248C539.269 51.668 539.605 51.98 540.157 51.98ZM545.33 46.028C544.79 46.028 544.394 45.62 544.394 45.092C544.394 44.576 544.79 44.168 545.33 44.168C545.882 44.168 546.29 44.576 546.29 45.092C546.29 45.62 545.882 46.028 545.33 46.028ZM544.574 53V46.952H546.086V53H544.574ZM547.55 53V46.952H549.062V47.864C549.446 47.276 550.13 46.856 550.982 46.856C552.302 46.856 553.19 47.72 553.19 49.04V53H551.678V49.4C551.678 48.692 551.234 48.2 550.526 48.2C549.602 48.2 549.062 48.992 549.062 50.348V53H547.55ZM557.595 53V44.6H559.431L561.999 50.684L564.567 44.6H566.403V53H564.867V47.636L562.611 53H561.387L559.131 47.636V53H557.595ZM573.629 49.772C573.629 49.988 573.617 50.252 573.605 50.372H569.117C569.249 51.284 569.837 51.824 570.701 51.824C571.409 51.824 571.913 51.488 572.069 50.9L573.485 51.284C573.149 52.424 572.093 53.096 570.677 53.096C568.673 53.096 567.605 51.548 567.605 49.976C567.605 48.404 568.589 46.856 570.593 46.856C572.633 46.856 573.629 48.368 573.629 49.772ZM569.153 49.268H572.009C571.937 48.548 571.469 48.008 570.593 48.008C569.849 48.008 569.321 48.452 569.153 49.268ZM576.826 53.096C575.362 53.096 574.486 52.196 574.186 51.308L575.422 50.804C575.602 51.416 576.07 51.92 576.826 51.92C577.39 51.92 577.762 51.62 577.762 51.236C577.762 50.096 574.462 50.84 574.462 48.548C574.462 47.6 575.29 46.856 576.61 46.856C577.786 46.856 578.782 47.456 579.046 48.332L577.822 48.848C577.654 48.272 577.126 47.972 576.634 47.972C576.154 47.972 575.83 48.176 575.83 48.524C575.83 49.592 579.154 48.74 579.154 51.212C579.154 52.256 578.218 53.096 576.826 53.096ZM582.358 53.096C580.894 53.096 580.018 52.196 579.718 51.308L580.954 50.804C581.134 51.416 581.602 51.92 582.358 51.92C582.922 51.92 583.294 51.62 583.294 51.236C583.294 50.096 579.994 50.84 579.994 48.548C579.994 47.6 580.822 46.856 582.142 46.856C583.318 46.856 584.314 47.456 584.578 48.332L583.354 48.848C583.186 48.272 582.658 47.972 582.166 47.972C581.686 47.972 581.362 48.176 581.362 48.524C581.362 49.592 584.686 48.74 584.686 51.212C584.686 52.256 583.75 53.096 582.358 53.096ZM588.105 46.856C589.689 46.856 590.769 47.708 590.769 49.316V53H589.305V52.124C588.969 52.712 588.237 53.096 587.493 53.096C586.305 53.096 585.477 52.328 585.477 51.296C585.477 50.108 586.377 49.472 588.177 49.28L589.305 49.172V49.112C589.305 48.428 588.837 48.008 588.105 48.008C587.445 48.008 586.977 48.416 586.905 49.064L585.561 48.824C585.753 47.624 586.821 46.856 588.105 46.856ZM587.829 51.98C588.765 51.98 589.305 51.272 589.305 50.384V50.252L588.153 50.384C587.349 50.48 586.941 50.816 586.941 51.248C586.941 51.668 587.277 51.98 587.829 51.98ZM596.41 46.952H597.91V52.616C597.91 54.212 596.71 55.28 594.91 55.28C593.494 55.28 592.354 54.524 592.15 53.396L593.554 53.168C593.626 53.732 594.202 54.068 594.91 54.068C595.822 54.068 596.422 53.552 596.422 52.772V52.112C596.122 52.544 595.462 52.82 594.742 52.82C592.966 52.82 591.922 51.62 591.922 49.844C591.922 48.056 592.966 46.856 594.706 46.856C595.45 46.856 596.074 47.144 596.41 47.564V46.952ZM594.958 51.512C595.894 51.512 596.506 50.852 596.506 49.844C596.506 48.824 595.894 48.164 594.958 48.164C594.034 48.164 593.422 48.824 593.422 49.844C593.422 50.852 594.034 51.512 594.958 51.512ZM600.138 46.028C599.598 46.028 599.202 45.62 599.202 45.092C599.202 44.576 599.598 44.168 600.138 44.168C600.69 44.168 601.098 44.576 601.098 45.092C601.098 45.62 600.69 46.028 600.138 46.028ZM599.382 53V46.952H600.894V53H599.382ZM602.359 53V46.952H603.871V47.864C604.255 47.276 604.939 46.856 605.791 46.856C607.111 46.856 607.999 47.72 607.999 49.04V53H606.487V49.4C606.487 48.692 606.043 48.2 605.335 48.2C604.411 48.2 603.871 48.992 603.871 50.348V53H602.359ZM613.625 46.952H615.125V52.616C615.125 54.212 613.925 55.28 612.125 55.28C610.709 55.28 609.569 54.524 609.365 53.396L610.769 53.168C610.841 53.732 611.417 54.068 612.125 54.068C613.037 54.068 613.637 53.552 613.637 52.772V52.112C613.337 52.544 612.677 52.82 611.957 52.82C610.181 52.82 609.137 51.62 609.137 49.844C609.137 48.056 610.181 46.856 611.921 46.856C612.665 46.856 613.289 47.144 613.625 47.564V46.952ZM612.173 51.512C613.109 51.512 613.721 50.852 613.721 49.844C613.721 48.824 613.109 48.164 612.173 48.164C611.249 48.164 610.637 48.824 610.637 49.844C610.637 50.852 611.249 51.512 612.173 51.512Z" fill="#344054"/>
<rect x="468.705" y="36.5" width="163" height="25" rx="1.5" stroke="#EAECF0"/>
<line x1="350" y1="154.5" x2="748" y2="154.5" stroke="#FF814A" stroke-dasharray="5 5"/>
<rect x="468.705" y="142.32" width="163" height="25" rx="1.5" fill="#F2F4F7"/>
<path d="M492.024 158.916C489.804 158.916 487.848 157.464 487.848 154.62C487.848 151.776 489.84 150.324 492.024 150.324C494.04 150.324 495.468 151.428 495.756 153.12L494.136 153.456C493.92 152.388 493.104 151.728 492.024 151.728C490.608 151.728 489.504 152.736 489.504 154.62C489.504 156.504 490.596 157.5 492.024 157.5C493.116 157.5 493.872 156.9 494.088 155.916L495.732 156.276C495.324 157.92 493.956 158.916 492.024 158.916ZM500.825 154.236C500.609 154.14 500.321 154.092 500.057 154.092C499.205 154.092 498.437 154.8 498.437 156.6V158.82H496.925V152.772H498.437V153.876C498.737 153.192 499.529 152.676 500.261 152.676C500.477 152.676 500.741 152.712 500.921 152.772L500.825 154.236ZM504.421 158.916C502.585 158.916 501.265 157.596 501.265 155.796C501.265 153.996 502.585 152.676 504.421 152.676C506.257 152.676 507.577 153.996 507.577 155.796C507.577 157.596 506.257 158.916 504.421 158.916ZM504.421 157.608C505.393 157.608 506.053 156.876 506.053 155.796C506.053 154.716 505.393 153.984 504.421 153.984C503.437 153.984 502.789 154.716 502.789 155.796C502.789 156.876 503.437 157.608 504.421 157.608ZM510.768 158.916C509.304 158.916 508.428 158.016 508.128 157.128L509.364 156.624C509.544 157.236 510.012 157.74 510.768 157.74C511.332 157.74 511.704 157.44 511.704 157.056C511.704 155.916 508.404 156.66 508.404 154.368C508.404 153.42 509.232 152.676 510.552 152.676C511.728 152.676 512.724 153.276 512.988 154.152L511.764 154.668C511.596 154.092 511.068 153.792 510.576 153.792C510.096 153.792 509.772 153.996 509.772 154.344C509.772 155.412 513.096 154.56 513.096 157.032C513.096 158.076 512.16 158.916 510.768 158.916ZM516.299 158.916C514.835 158.916 513.959 158.016 513.659 157.128L514.895 156.624C515.075 157.236 515.543 157.74 516.299 157.74C516.863 157.74 517.235 157.44 517.235 157.056C517.235 155.916 513.935 156.66 513.935 154.368C513.935 153.42 514.763 152.676 516.083 152.676C517.259 152.676 518.255 153.276 518.519 154.152L517.295 154.668C517.127 154.092 516.599 153.792 516.107 153.792C515.627 153.792 515.303 153.996 515.303 154.344C515.303 155.412 518.627 154.56 518.627 157.032C518.627 158.076 517.691 158.916 516.299 158.916ZM519.31 156V154.704H523.174V156H519.31ZM526.978 158.916C525.166 158.916 523.906 157.644 523.906 155.796C523.906 153.948 525.166 152.676 526.978 152.676C528.526 152.676 529.618 153.48 529.822 154.764L528.346 155.052C528.238 154.416 527.734 153.984 527.026 153.984C526.09 153.984 525.478 154.692 525.478 155.796C525.478 156.9 526.09 157.608 527.026 157.608C527.734 157.608 528.202 157.224 528.346 156.576L529.822 156.876C529.594 158.148 528.502 158.916 526.978 158.916ZM530.957 158.82V150.324H532.469V153.708C532.865 153.048 533.549 152.676 534.389 152.676C535.745 152.676 536.645 153.54 536.645 154.86V158.82H535.133V155.232C535.133 154.488 534.677 154.02 533.933 154.02C532.997 154.02 532.469 154.824 532.469 156.192V158.82H530.957ZM540.433 152.676C542.017 152.676 543.097 153.528 543.097 155.136V158.82H541.633V157.944C541.297 158.532 540.565 158.916 539.821 158.916C538.633 158.916 537.805 158.148 537.805 157.116C537.805 155.928 538.705 155.292 540.505 155.1L541.633 154.992V154.932C541.633 154.248 541.165 153.828 540.433 153.828C539.773 153.828 539.305 154.236 539.233 154.884L537.889 154.644C538.081 153.444 539.149 152.676 540.433 152.676ZM540.157 157.8C541.093 157.8 541.633 157.092 541.633 156.204V156.072L540.481 156.204C539.677 156.3 539.269 156.636 539.269 157.068C539.269 157.488 539.605 157.8 540.157 157.8ZM545.33 151.848C544.79 151.848 544.394 151.44 544.394 150.912C544.394 150.396 544.79 149.988 545.33 149.988C545.882 149.988 546.29 150.396 546.29 150.912C546.29 151.44 545.882 151.848 545.33 151.848ZM544.574 158.82V152.772H546.086V158.82H544.574ZM547.55 158.82V152.772H549.062V153.684C549.446 153.096 550.13 152.676 550.982 152.676C552.302 152.676 553.19 153.54 553.19 154.86V158.82H551.678V155.22C551.678 154.512 551.234 154.02 550.526 154.02C549.602 154.02 549.062 154.812 549.062 156.168V158.82H547.55ZM557.595 158.82V150.42H559.431L561.999 156.504L564.567 150.42H566.403V158.82H564.867V153.456L562.611 158.82H561.387L559.131 153.456V158.82H557.595ZM573.629 155.592C573.629 155.808 573.617 156.072 573.605 156.192H569.117C569.249 157.104 569.837 157.644 570.701 157.644C571.409 157.644 571.913 157.308 572.069 156.72L573.485 157.104C573.149 158.244 572.093 158.916 570.677 158.916C568.673 158.916 567.605 157.368 567.605 155.796C567.605 154.224 568.589 152.676 570.593 152.676C572.633 152.676 573.629 154.188 573.629 155.592ZM569.153 155.088H572.009C571.937 154.368 571.469 153.828 570.593 153.828C569.849 153.828 569.321 154.272 569.153 155.088ZM576.826 158.916C575.362 158.916 574.486 158.016 574.186 157.128L575.422 156.624C575.602 157.236 576.07 157.74 576.826 157.74C577.39 157.74 577.762 157.44 577.762 157.056C577.762 155.916 574.462 156.66 574.462 154.368C574.462 153.42 575.29 152.676 576.61 152.676C577.786 152.676 578.782 153.276 579.046 154.152L577.822 154.668C577.654 154.092 577.126 153.792 576.634 153.792C576.154 153.792 575.83 153.996 575.83 154.344C575.83 155.412 579.154 154.56 579.154 157.032C579.154 158.076 578.218 158.916 576.826 158.916ZM582.358 158.916C580.894 158.916 580.018 158.016 579.718 157.128L580.954 156.624C581.134 157.236 581.602 157.74 582.358 157.74C582.922 157.74 583.294 157.44 583.294 157.056C583.294 155.916 579.994 156.66 579.994 154.368C579.994 153.42 580.822 152.676 582.142 152.676C583.318 152.676 584.314 153.276 584.578 154.152L583.354 154.668C583.186 154.092 582.658 153.792 582.166 153.792C581.686 153.792 581.362 153.996 581.362 154.344C581.362 155.412 584.686 154.56 584.686 157.032C584.686 158.076 583.75 158.916 582.358 158.916ZM588.105 152.676C589.689 152.676 590.769 153.528 590.769 155.136V158.82H589.305V157.944C588.969 158.532 588.237 158.916 587.493 158.916C586.305 158.916 585.477 158.148 585.477 157.116C585.477 155.928 586.377 155.292 588.177 155.1L589.305 154.992V154.932C589.305 154.248 588.837 153.828 588.105 153.828C587.445 153.828 586.977 154.236 586.905 154.884L585.561 154.644C585.753 153.444 586.821 152.676 588.105 152.676ZM587.829 157.8C588.765 157.8 589.305 157.092 589.305 156.204V156.072L588.153 156.204C587.349 156.3 586.941 156.636 586.941 157.068C586.941 157.488 587.277 157.8 587.829 157.8ZM596.41 152.772H597.91V158.436C597.91 160.032 596.71 161.1 594.91 161.1C593.494 161.1 592.354 160.344 592.15 159.216L593.554 158.988C593.626 159.552 594.202 159.888 594.91 159.888C595.822 159.888 596.422 159.372 596.422 158.592V157.932C596.122 158.364 595.462 158.64 594.742 158.64C592.966 158.64 591.922 157.44 591.922 155.664C591.922 153.876 592.966 152.676 594.706 152.676C595.45 152.676 596.074 152.964 596.41 153.384V152.772ZM594.958 157.332C595.894 157.332 596.506 156.672 596.506 155.664C596.506 154.644 595.894 153.984 594.958 153.984C594.034 153.984 593.422 154.644 593.422 155.664C593.422 156.672 594.034 157.332 594.958 157.332ZM600.138 151.848C599.598 151.848 599.202 151.44 599.202 150.912C599.202 150.396 599.598 149.988 600.138 149.988C600.69 149.988 601.098 150.396 601.098 150.912C601.098 151.44 600.69 151.848 600.138 151.848ZM599.382 158.82V152.772H600.894V158.82H599.382ZM602.359 158.82V152.772H603.871V153.684C604.255 153.096 604.939 152.676 605.791 152.676C607.111 152.676 607.999 153.54 607.999 154.86V158.82H606.487V155.22C606.487 154.512 606.043 154.02 605.335 154.02C604.411 154.02 603.871 154.812 603.871 156.168V158.82H602.359ZM613.625 152.772H615.125V158.436C615.125 160.032 613.925 161.1 612.125 161.1C610.709 161.1 609.569 160.344 609.365 159.216L610.769 158.988C610.841 159.552 611.417 159.888 612.125 159.888C613.037 159.888 613.637 159.372 613.637 158.592V157.932C613.337 158.364 612.677 158.64 611.957 158.64C610.181 158.64 609.137 157.44 609.137 155.664C609.137 153.876 610.181 152.676 611.921 152.676C612.665 152.676 613.289 152.964 613.625 153.384V152.772ZM612.173 157.332C613.109 157.332 613.721 156.672 613.721 155.664C613.721 154.644 613.109 153.984 612.173 153.984C611.249 153.984 610.637 154.644 610.637 155.664C610.637 156.672 611.249 157.332 612.173 157.332Z" fill="#344054"/>
<rect x="468.705" y="142.32" width="163" height="25" rx="1.5" stroke="#EAECF0"/>
<circle cx="338.901" cy="50.1798" r="16.1602" fill="#32D583"/>
<circle cx="338.901" cy="50.1797" r="8" fill="#FCFCFD"/>
<circle cx="338.901" cy="102.5" r="16.1602" fill="#FEA700"/>
<circle cx="338.901" cy="102.5" r="8" fill="#FCFCFD"/>
<circle cx="338.901" cy="154.82" r="16.1602" fill="#FF814A"/>
<circle cx="338.901" cy="154.82" r="8" fill="#FCFCFD"/>
<circle cx="760.139" cy="50.1798" r="16.1602" fill="#32D583"/>
<circle cx="760.139" cy="50.1797" r="8" fill="#FCFCFD"/>
<circle cx="760.139" cy="102.5" r="16.1602" fill="#FEA700"/>
<circle cx="760.139" cy="102.5" r="8" fill="#FCFCFD"/>
<circle cx="760.139" cy="154.82" r="16.1602" fill="#FF814A"/>
<circle cx="760.139" cy="154.82" r="8" fill="#FCFCFD"/>
<rect x="-0.5" y="0.5" width="75" height="204" transform="matrix(-1 0 0 1 1097 1)" fill="white"/>
<rect width="55.6803" height="55.6803" rx="2" transform="matrix(-1 0 0 1 1088 11)" fill="#6CA3FB"/>
<rect width="56" height="55" rx="2" transform="matrix(-1 0 0 1 1088 76.1172)" fill="#AA6CFB"/>
<rect width="55.6803" height="55.6803" rx="2" transform="matrix(-1 0 0 1 1088 140.555)" fill="#FB6CB3"/>
<rect x="-0.5" y="0.5" width="75" height="204" transform="matrix(-1 0 0 1 1097 1)" stroke="#D0D5DD"/>
<rect width="23" height="148" transform="translate(999 29.5342)" fill="white"/>
<rect width="6.8836" height="30.9439" transform="matrix(-1 0 0 1 133.51 87.5488)" fill="white"/>
<path d="M126.626 77.156C126.626 72.081 122.512 67.9668 117.437 67.9668H84.1781V138.074H117.437C122.512 138.074 126.626 133.96 126.626 128.885V77.156Z" fill="white"/>
<rect width="9.17801" height="96.6997" transform="matrix(-1 0 0 1 84.1782 54.6709)" fill="white"/>
<path d="M268.584 91.7565H241.503C227.144 91.7565 215.503 80.1159 215.503 65.7565V54.0043C215.503 39.6449 203.863 28.0043 189.503 28.0043H186.448C172.088 28.0043 160.448 39.6449 160.448 54.0043V76.499C160.448 90.8584 148.807 102.499 134.448 102.499H133.51" stroke="white" stroke-width="16" stroke-linejoin="round"/>
<path d="M261.5 91.7565H241.503C227.144 91.7565 215.503 80.1159 215.503 65.7565V54.0043C215.503 39.6449 203.863 28.0043 189.503 28.0043H186.448C172.088 28.0043 160.448 39.6449 160.448 54.0043V76.499C160.448 90.8584 148.807 102.499 134.448 102.499H133.51" stroke="#D0D5DD" stroke-width="1.5" stroke-linejoin="round" stroke-dasharray="4 4"/>
<rect x="-0.5" y="0.5" width="74" height="204" transform="matrix(-1 0 0 1 74 1.03516)" fill="white"/>
<rect width="55.6803" height="55.6803" rx="2" transform="matrix(-1 0 0 1 65 11.0352)" fill="#FB6CB3"/>
<rect width="55.6803" height="55.6803" rx="2" transform="matrix(-1 0 0 1 65 76.1523)" fill="#6CA3FB"/>
<rect width="55.6803" height="55.6803" rx="2" transform="matrix(-1 0 0 1 65 141.271)" fill="#AA6CFB"/>
<rect x="-0.5" y="0.5" width="74" height="204" transform="matrix(-1 0 0 1 74 1.03516)" stroke="#D0D5DD"/>
<path d="M834 92.5V92.5C856.833 92.5 875.343 111.01 875.343 133.843V145.283C875.343 163.095 889.782 177.535 907.595 177.535V177.535C925.407 177.535 939.847 163.095 939.847 145.283V133.309C939.847 110.113 958.651 91.3086 981.847 91.3086H999.5" stroke="white" stroke-width="20" stroke-linejoin="round"/>
<path d="M834 93.4377V93.4377C856.833 93.4377 875.343 111.947 875.343 134.78V145.283C875.343 163.095 889.782 177.535 907.595 177.535V177.535C925.407 177.535 939.847 163.095 939.847 145.283V135.309C939.847 111.008 959.546 91.3086 983.847 91.3086H1000" stroke="#D0D5DD" stroke-width="1.5" stroke-linejoin="round" stroke-dasharray="4 4"/>
</svg>
