<svg width="1154" height="208" viewBox="0 0 1154 208" fill="none" xmlns="http://www.w3.org/2000/svg">
<rect width="573" height="205" transform="translate(279.289 0.965332)" fill="white"/>
<rect x="303.688" y="16.4321" width="524.201" height="174.066" fill="white" stroke="#F9F5FF" stroke-width="2"/>
<line x1="367.121" y1="49.946" x2="768.289" y2="49.946" stroke="url(#paint0_linear_1910_50353)" stroke-dasharray="2 2"/>
<rect x="485.705" y="36.9653" width="164" height="26" rx="2" fill="#F9F5FF"/>
<path d="M509.524 54.0613C508.348 54.0613 507.356 53.6853 506.548 52.9333C505.748 52.1813 505.348 51.1253 505.348 49.7653C505.348 48.4133 505.752 47.3613 506.56 46.6093C507.368 45.8493 508.356 45.4693 509.524 45.4693C510.524 45.4693 511.36 45.7253 512.032 46.2373C512.704 46.7413 513.112 47.4173 513.256 48.2653L511.636 48.6013C511.532 48.0653 511.288 47.6453 510.904 47.3413C510.528 47.0293 510.068 46.8733 509.524 46.8733C508.788 46.8733 508.184 47.1293 507.712 47.6413C507.24 48.1453 507.004 48.8533 507.004 49.7653C507.004 50.6773 507.236 51.3853 507.7 51.8893C508.172 52.3933 508.78 52.6453 509.524 52.6453C510.068 52.6453 510.52 52.5053 510.88 52.2253C511.24 51.9453 511.476 51.5573 511.588 51.0613L513.232 51.4213C513.024 52.2453 512.592 52.8933 511.936 53.3653C511.288 53.8293 510.484 54.0613 509.524 54.0613ZM518.325 49.3813C518.109 49.2853 517.853 49.2373 517.557 49.2373C517.093 49.2373 516.705 49.4453 516.393 49.8613C516.089 50.2693 515.937 50.8973 515.937 51.7453V53.9653H514.425V47.9173H515.937V49.0213C516.089 48.6773 516.337 48.3933 516.681 48.1693C517.033 47.9373 517.393 47.8213 517.761 47.8213C518.009 47.8213 518.229 47.8533 518.421 47.9173L518.325 49.3813ZM524.189 53.1853C523.597 53.7693 522.841 54.0613 521.921 54.0613C521.001 54.0613 520.245 53.7693 519.653 53.1853C519.061 52.5933 518.765 51.8453 518.765 50.9413C518.765 50.0373 519.061 49.2933 519.653 48.7093C520.245 48.1173 521.001 47.8213 521.921 47.8213C522.841 47.8213 523.597 48.1173 524.189 48.7093C524.781 49.2933 525.077 50.0373 525.077 50.9413C525.077 51.8453 524.781 52.5933 524.189 53.1853ZM520.733 52.2613C521.037 52.5893 521.433 52.7533 521.921 52.7533C522.409 52.7533 522.801 52.5853 523.097 52.2493C523.401 51.9133 523.553 51.4773 523.553 50.9413C523.553 50.4053 523.401 49.9693 523.097 49.6333C522.801 49.2973 522.409 49.1293 521.921 49.1293C521.433 49.1293 521.037 49.2973 520.733 49.6333C520.437 49.9613 520.289 50.3973 520.289 50.9413C520.289 51.4853 520.437 51.9253 520.733 52.2613ZM528.268 54.0613C527.588 54.0613 527.02 53.8893 526.564 53.5453C526.108 53.1933 525.796 52.7693 525.628 52.2733L526.864 51.7693C526.96 52.0973 527.128 52.3653 527.368 52.5733C527.608 52.7813 527.908 52.8853 528.268 52.8853C528.548 52.8853 528.772 52.8213 528.94 52.6933C529.116 52.5573 529.204 52.3933 529.204 52.2013C529.204 51.9933 529.088 51.8293 528.856 51.7093C528.632 51.5893 528.36 51.4933 528.04 51.4213C527.72 51.3413 527.396 51.2453 527.068 51.1333C526.748 51.0213 526.472 50.8293 526.24 50.5573C526.016 50.2853 525.904 49.9373 525.904 49.5133C525.904 49.0253 526.1 48.6213 526.492 48.3013C526.884 47.9813 527.404 47.8213 528.052 47.8213C528.644 47.8213 529.164 47.9573 529.612 48.2293C530.068 48.5013 530.36 48.8573 530.488 49.2973L529.264 49.8133C529.184 49.5413 529.032 49.3293 528.808 49.1773C528.584 49.0173 528.34 48.9373 528.076 48.9373C527.836 48.9373 527.64 48.9893 527.488 49.0933C527.344 49.1893 527.272 49.3213 527.272 49.4893C527.272 49.6813 527.384 49.8293 527.608 49.9333C527.84 50.0373 528.116 50.1253 528.436 50.1973C528.764 50.2613 529.092 50.3493 529.42 50.4613C529.748 50.5733 530.024 50.7733 530.248 51.0613C530.48 51.3493 530.596 51.7213 530.596 52.1773C530.596 52.7053 530.38 53.1533 529.948 53.5213C529.516 53.8813 528.956 54.0613 528.268 54.0613ZM533.799 54.0613C533.119 54.0613 532.551 53.8893 532.095 53.5453C531.639 53.1933 531.327 52.7693 531.159 52.2733L532.395 51.7693C532.491 52.0973 532.659 52.3653 532.899 52.5733C533.139 52.7813 533.439 52.8853 533.799 52.8853C534.079 52.8853 534.303 52.8213 534.471 52.6933C534.647 52.5573 534.735 52.3933 534.735 52.2013C534.735 51.9933 534.619 51.8293 534.387 51.7093C534.163 51.5893 533.891 51.4933 533.571 51.4213C533.251 51.3413 532.927 51.2453 532.599 51.1333C532.279 51.0213 532.003 50.8293 531.771 50.5573C531.547 50.2853 531.435 49.9373 531.435 49.5133C531.435 49.0253 531.631 48.6213 532.023 48.3013C532.415 47.9813 532.935 47.8213 533.583 47.8213C534.175 47.8213 534.695 47.9573 535.143 48.2293C535.599 48.5013 535.891 48.8573 536.019 49.2973L534.795 49.8133C534.715 49.5413 534.563 49.3293 534.339 49.1773C534.115 49.0173 533.871 48.9373 533.607 48.9373C533.367 48.9373 533.171 48.9893 533.019 49.0933C532.875 49.1893 532.803 49.3213 532.803 49.4893C532.803 49.6813 532.915 49.8293 533.139 49.9333C533.371 50.0373 533.647 50.1253 533.967 50.1973C534.295 50.2613 534.623 50.3493 534.951 50.4613C535.279 50.5733 535.555 50.7733 535.779 51.0613C536.011 51.3493 536.127 51.7213 536.127 52.1773C536.127 52.7053 535.911 53.1533 535.479 53.5213C535.047 53.8813 534.487 54.0613 533.799 54.0613ZM536.81 51.1453V49.8493H540.674V51.1453H536.81ZM544.478 54.0613C543.574 54.0613 542.834 53.7733 542.258 53.1973C541.69 52.6133 541.406 51.8613 541.406 50.9413C541.406 50.0213 541.69 49.2733 542.258 48.6973C542.834 48.1133 543.574 47.8213 544.478 47.8213C545.254 47.8213 545.894 48.0093 546.398 48.3853C546.91 48.7613 547.218 49.2693 547.322 49.9093L545.846 50.1973C545.79 49.8773 545.642 49.6213 545.402 49.4293C545.17 49.2293 544.878 49.1293 544.526 49.1293C544.054 49.1293 543.678 49.2933 543.398 49.6213C543.118 49.9493 542.978 50.3893 542.978 50.9413C542.978 51.4933 543.118 51.9333 543.398 52.2613C543.678 52.5893 544.054 52.7533 544.526 52.7533C544.878 52.7533 545.166 52.6653 545.39 52.4893C545.622 52.3053 545.774 52.0493 545.846 51.7213L547.322 52.0213C547.21 52.6533 546.898 53.1533 546.386 53.5213C545.882 53.8813 545.246 54.0613 544.478 54.0613ZM548.457 53.9653V45.4693H549.969V48.8533C550.385 48.1653 551.025 47.8213 551.889 47.8213C552.569 47.8213 553.113 48.0213 553.521 48.4213C553.937 48.8213 554.145 49.3493 554.145 50.0053V53.9653H552.633V50.3773C552.633 50.0013 552.525 49.7053 552.309 49.4893C552.093 49.2733 551.801 49.1653 551.433 49.1653C550.969 49.1653 550.609 49.3573 550.353 49.7413C550.097 50.1173 549.969 50.6493 549.969 51.3373V53.9653H548.457ZM557.933 47.8213C558.741 47.8213 559.385 48.0373 559.865 48.4693C560.353 48.8933 560.597 49.4973 560.597 50.2813V53.9653H559.133V53.0893C558.965 53.3853 558.713 53.6213 558.377 53.7973C558.049 53.9733 557.697 54.0613 557.321 54.0613C556.729 54.0613 556.245 53.8933 555.869 53.5573C555.493 53.2133 555.305 52.7813 555.305 52.2613C555.305 51.1093 556.205 50.4373 558.005 50.2453L559.133 50.1373V50.0773C559.133 49.7333 559.025 49.4653 558.809 49.2733C558.593 49.0733 558.301 48.9733 557.933 48.9733C557.605 48.9733 557.329 49.0693 557.105 49.2613C556.889 49.4533 556.765 49.7093 556.733 50.0293L555.389 49.7893C555.485 49.1973 555.769 48.7213 556.241 48.3613C556.721 48.0013 557.285 47.8213 557.933 47.8213ZM557.657 52.9453C558.113 52.9453 558.473 52.7933 558.737 52.4893C559.001 52.1853 559.133 51.8053 559.133 51.3493V51.2173L557.981 51.3493C557.589 51.3973 557.289 51.4973 557.081 51.6493C556.873 51.8013 556.769 51.9893 556.769 52.2133C556.769 52.4293 556.849 52.6053 557.009 52.7413C557.169 52.8773 557.385 52.9453 557.657 52.9453ZM563.514 46.7293C563.33 46.9053 563.102 46.9933 562.83 46.9933C562.558 46.9933 562.334 46.9053 562.158 46.7293C561.982 46.5453 561.894 46.3213 561.894 46.0573C561.894 45.7933 561.982 45.5733 562.158 45.3973C562.334 45.2213 562.558 45.1333 562.83 45.1333C563.102 45.1333 563.33 45.2253 563.514 45.4093C563.698 45.5853 563.79 45.8013 563.79 46.0573C563.79 46.3213 563.698 46.5453 563.514 46.7293ZM562.074 53.9653V47.9173H563.586V53.9653H562.074ZM565.05 53.9653V47.9173H566.562V48.8293C566.762 48.5253 567.026 48.2813 567.354 48.0973C567.69 47.9133 568.066 47.8213 568.482 47.8213C569.146 47.8213 569.678 48.0213 570.078 48.4213C570.486 48.8213 570.69 49.3493 570.69 50.0053V53.9653H569.178V50.3653C569.178 50.0053 569.074 49.7173 568.866 49.5013C568.658 49.2773 568.378 49.1653 568.026 49.1653C567.562 49.1653 567.202 49.3533 566.946 49.7293C566.69 50.1053 566.562 50.6333 566.562 51.3133V53.9653H565.05ZM575.095 53.9653V45.5653H576.931L579.499 51.6493L582.067 45.5653H583.903V53.9653H582.367V48.6013L580.111 53.9653H578.887L576.631 48.6013V53.9653H575.095ZM591.129 50.7373C591.129 50.9773 591.121 51.1773 591.105 51.3373H586.617C586.681 51.7933 586.853 52.1493 587.133 52.4053C587.413 52.6613 587.769 52.7893 588.201 52.7893C588.553 52.7893 588.849 52.7093 589.089 52.5493C589.329 52.3893 589.489 52.1613 589.569 51.8653L590.985 52.2493C590.817 52.8173 590.485 53.2613 589.989 53.5813C589.493 53.9013 588.889 54.0613 588.177 54.0613C587.225 54.0613 586.473 53.7533 585.921 53.1373C585.377 52.5133 585.105 51.7813 585.105 50.9413C585.105 50.0933 585.365 49.3613 585.885 48.7453C586.413 48.1293 587.149 47.8213 588.093 47.8213C589.053 47.8213 589.797 48.1173 590.325 48.7093C590.861 49.2933 591.129 49.9693 591.129 50.7373ZM586.653 50.2333H589.509C589.469 49.8573 589.329 49.5533 589.089 49.3213C588.849 49.0893 588.517 48.9733 588.093 48.9733C587.717 48.9733 587.401 49.0813 587.145 49.2973C586.897 49.5133 586.733 49.8253 586.653 50.2333ZM594.326 54.0613C593.646 54.0613 593.078 53.8893 592.622 53.5453C592.166 53.1933 591.854 52.7693 591.686 52.2733L592.922 51.7693C593.018 52.0973 593.186 52.3653 593.426 52.5733C593.666 52.7813 593.966 52.8853 594.326 52.8853C594.606 52.8853 594.83 52.8213 594.998 52.6933C595.174 52.5573 595.262 52.3933 595.262 52.2013C595.262 51.9933 595.146 51.8293 594.914 51.7093C594.69 51.5893 594.418 51.4933 594.098 51.4213C593.778 51.3413 593.454 51.2453 593.126 51.1333C592.806 51.0213 592.53 50.8293 592.298 50.5573C592.074 50.2853 591.962 49.9373 591.962 49.5133C591.962 49.0253 592.158 48.6213 592.55 48.3013C592.942 47.9813 593.462 47.8213 594.11 47.8213C594.702 47.8213 595.222 47.9573 595.67 48.2293C596.126 48.5013 596.418 48.8573 596.546 49.2973L595.322 49.8133C595.242 49.5413 595.09 49.3293 594.866 49.1773C594.642 49.0173 594.398 48.9373 594.134 48.9373C593.894 48.9373 593.698 48.9893 593.546 49.0933C593.402 49.1893 593.33 49.3213 593.33 49.4893C593.33 49.6813 593.442 49.8293 593.666 49.9333C593.898 50.0373 594.174 50.1253 594.494 50.1973C594.822 50.2613 595.15 50.3493 595.478 50.4613C595.806 50.5733 596.082 50.7733 596.306 51.0613C596.538 51.3493 596.654 51.7213 596.654 52.1773C596.654 52.7053 596.438 53.1533 596.006 53.5213C595.574 53.8813 595.014 54.0613 594.326 54.0613ZM599.858 54.0613C599.178 54.0613 598.61 53.8893 598.154 53.5453C597.698 53.1933 597.386 52.7693 597.218 52.2733L598.454 51.7693C598.55 52.0973 598.718 52.3653 598.958 52.5733C599.198 52.7813 599.498 52.8853 599.858 52.8853C600.138 52.8853 600.362 52.8213 600.53 52.6933C600.706 52.5573 600.794 52.3933 600.794 52.2013C600.794 51.9933 600.678 51.8293 600.446 51.7093C600.222 51.5893 599.95 51.4933 599.63 51.4213C599.31 51.3413 598.986 51.2453 598.658 51.1333C598.338 51.0213 598.062 50.8293 597.83 50.5573C597.606 50.2853 597.494 49.9373 597.494 49.5133C597.494 49.0253 597.69 48.6213 598.082 48.3013C598.474 47.9813 598.994 47.8213 599.642 47.8213C600.234 47.8213 600.754 47.9573 601.202 48.2293C601.658 48.5013 601.95 48.8573 602.078 49.2973L600.854 49.8133C600.774 49.5413 600.622 49.3293 600.398 49.1773C600.174 49.0173 599.93 48.9373 599.666 48.9373C599.426 48.9373 599.23 48.9893 599.078 49.0933C598.934 49.1893 598.862 49.3213 598.862 49.4893C598.862 49.6813 598.974 49.8293 599.198 49.9333C599.43 50.0373 599.706 50.1253 600.026 50.1973C600.354 50.2613 600.682 50.3493 601.01 50.4613C601.338 50.5733 601.614 50.7733 601.838 51.0613C602.07 51.3493 602.186 51.7213 602.186 52.1773C602.186 52.7053 601.97 53.1533 601.538 53.5213C601.106 53.8813 600.546 54.0613 599.858 54.0613ZM605.605 47.8213C606.413 47.8213 607.057 48.0373 607.537 48.4693C608.025 48.8933 608.269 49.4973 608.269 50.2813V53.9653H606.805V53.0893C606.637 53.3853 606.385 53.6213 606.049 53.7973C605.721 53.9733 605.369 54.0613 604.993 54.0613C604.401 54.0613 603.917 53.8933 603.541 53.5573C603.165 53.2133 602.977 52.7813 602.977 52.2613C602.977 51.1093 603.877 50.4373 605.677 50.2453L606.805 50.1373V50.0773C606.805 49.7333 606.697 49.4653 606.481 49.2733C606.265 49.0733 605.973 48.9733 605.605 48.9733C605.277 48.9733 605.001 49.0693 604.777 49.2613C604.561 49.4533 604.437 49.7093 604.405 50.0293L603.061 49.7893C603.157 49.1973 603.441 48.7213 603.913 48.3613C604.393 48.0013 604.957 47.8213 605.605 47.8213ZM605.329 52.9453C605.785 52.9453 606.145 52.7933 606.409 52.4893C606.673 52.1853 606.805 51.8053 606.805 51.3493V51.2173L605.653 51.3493C605.261 51.3973 604.961 51.4973 604.753 51.6493C604.545 51.8013 604.441 51.9893 604.441 52.2133C604.441 52.4293 604.521 52.6053 604.681 52.7413C604.841 52.8773 605.057 52.9453 605.329 52.9453ZM613.91 47.9173H615.41V53.5813C615.41 54.3813 615.134 55.0253 614.582 55.5133C614.03 56.0013 613.306 56.2453 612.41 56.2453C611.698 56.2453 611.086 56.0693 610.574 55.7173C610.062 55.3733 609.754 54.9213 609.65 54.3613L611.054 54.1333C611.086 54.4133 611.23 54.6333 611.486 54.7933C611.742 54.9533 612.05 55.0333 612.41 55.0333C612.866 55.0333 613.23 54.9133 613.502 54.6733C613.782 54.4413 613.922 54.1293 613.922 53.7373V53.0773C613.77 53.2933 613.542 53.4653 613.238 53.5933C612.934 53.7213 612.602 53.7853 612.242 53.7853C611.362 53.7853 610.67 53.5133 610.166 52.9693C609.67 52.4253 609.422 51.7053 609.422 50.8093C609.422 49.9053 609.67 49.1813 610.166 48.6373C610.662 48.0933 611.342 47.8213 612.206 47.8213C612.966 47.8213 613.534 48.0573 613.91 48.5293V47.9173ZM611.342 52.0213C611.622 52.3253 611.994 52.4773 612.458 52.4773C612.922 52.4773 613.294 52.3253 613.574 52.0213C613.862 51.7173 614.006 51.3133 614.006 50.8093C614.006 50.2973 613.866 49.8893 613.586 49.5853C613.306 49.2813 612.93 49.1293 612.458 49.1293C611.994 49.1293 611.622 49.2813 611.342 49.5853C611.062 49.8893 610.922 50.2973 610.922 50.8093C610.922 51.3133 611.062 51.7173 611.342 52.0213ZM618.322 46.7293C618.138 46.9053 617.91 46.9933 617.638 46.9933C617.366 46.9933 617.142 46.9053 616.966 46.7293C616.79 46.5453 616.702 46.3213 616.702 46.0573C616.702 45.7933 616.79 45.5733 616.966 45.3973C617.142 45.2213 617.366 45.1333 617.638 45.1333C617.91 45.1333 618.138 45.2253 618.322 45.4093C618.506 45.5853 618.598 45.8013 618.598 46.0573C618.598 46.3213 618.506 46.5453 618.322 46.7293ZM616.882 53.9653V47.9173H618.394V53.9653H616.882ZM619.859 53.9653V47.9173H621.371V48.8293C621.571 48.5253 621.835 48.2813 622.163 48.0973C622.499 47.9133 622.875 47.8213 623.291 47.8213C623.955 47.8213 624.487 48.0213 624.887 48.4213C625.295 48.8213 625.499 49.3493 625.499 50.0053V53.9653H623.987V50.3653C623.987 50.0053 623.883 49.7173 623.675 49.5013C623.467 49.2773 623.187 49.1653 622.835 49.1653C622.371 49.1653 622.011 49.3533 621.755 49.7293C621.499 50.1053 621.371 50.6333 621.371 51.3133V53.9653H619.859ZM631.125 47.9173H632.625V53.5813C632.625 54.3813 632.349 55.0253 631.797 55.5133C631.245 56.0013 630.521 56.2453 629.625 56.2453C628.913 56.2453 628.301 56.0693 627.789 55.7173C627.277 55.3733 626.969 54.9213 626.865 54.3613L628.269 54.1333C628.301 54.4133 628.445 54.6333 628.701 54.7933C628.957 54.9533 629.265 55.0333 629.625 55.0333C630.081 55.0333 630.445 54.9133 630.717 54.6733C630.997 54.4413 631.137 54.1293 631.137 53.7373V53.0773C630.985 53.2933 630.757 53.4653 630.453 53.5933C630.149 53.7213 629.817 53.7853 629.457 53.7853C628.577 53.7853 627.885 53.5133 627.381 52.9693C626.885 52.4253 626.637 51.7053 626.637 50.8093C626.637 49.9053 626.885 49.1813 627.381 48.6373C627.877 48.0933 628.557 47.8213 629.421 47.8213C630.181 47.8213 630.749 48.0573 631.125 48.5293V47.9173ZM628.557 52.0213C628.837 52.3253 629.209 52.4773 629.673 52.4773C630.137 52.4773 630.509 52.3253 630.789 52.0213C631.077 51.7173 631.221 51.3133 631.221 50.8093C631.221 50.2973 631.081 49.8893 630.801 49.5853C630.521 49.2813 630.145 49.1293 629.673 49.1293C629.209 49.1293 628.837 49.2813 628.557 49.5853C628.277 49.8893 628.137 50.2973 628.137 50.8093C628.137 51.3133 628.277 51.7173 628.557 52.0213Z" fill="#344054"/>
<rect x="486.205" y="37.4653" width="163" height="25" rx="1.5" stroke="#DABEFE" stroke-opacity="0.1"/>
<line x1="367.121" y1="104.946" x2="768.289" y2="104.946" stroke="url(#paint1_linear_1910_50353)" stroke-dasharray="2 2"/>
<rect x="485.705" y="90.7856" width="164" height="26" rx="2" fill="#F9F5FF"/>
<path d="M509.524 107.882C508.348 107.882 507.356 107.506 506.548 106.754C505.748 106.002 505.348 104.946 505.348 103.586C505.348 102.234 505.752 101.182 506.56 100.43C507.368 99.6696 508.356 99.2896 509.524 99.2896C510.524 99.2896 511.36 99.5456 512.032 100.058C512.704 100.562 513.112 101.238 513.256 102.086L511.636 102.422C511.532 101.886 511.288 101.466 510.904 101.162C510.528 100.85 510.068 100.694 509.524 100.694C508.788 100.694 508.184 100.95 507.712 101.462C507.24 101.966 507.004 102.674 507.004 103.586C507.004 104.498 507.236 105.206 507.7 105.71C508.172 106.214 508.78 106.466 509.524 106.466C510.068 106.466 510.52 106.326 510.88 106.046C511.24 105.766 511.476 105.378 511.588 104.882L513.232 105.242C513.024 106.066 512.592 106.714 511.936 107.186C511.288 107.65 510.484 107.882 509.524 107.882ZM518.325 103.202C518.109 103.106 517.853 103.058 517.557 103.058C517.093 103.058 516.705 103.266 516.393 103.682C516.089 104.09 515.937 104.718 515.937 105.566V107.786H514.425V101.738H515.937V102.842C516.089 102.498 516.337 102.214 516.681 101.99C517.033 101.758 517.393 101.642 517.761 101.642C518.009 101.642 518.229 101.674 518.421 101.738L518.325 103.202ZM524.189 107.006C523.597 107.59 522.841 107.882 521.921 107.882C521.001 107.882 520.245 107.59 519.653 107.006C519.061 106.414 518.765 105.666 518.765 104.762C518.765 103.858 519.061 103.114 519.653 102.53C520.245 101.938 521.001 101.642 521.921 101.642C522.841 101.642 523.597 101.938 524.189 102.53C524.781 103.114 525.077 103.858 525.077 104.762C525.077 105.666 524.781 106.414 524.189 107.006ZM520.733 106.082C521.037 106.41 521.433 106.574 521.921 106.574C522.409 106.574 522.801 106.406 523.097 106.07C523.401 105.734 523.553 105.298 523.553 104.762C523.553 104.226 523.401 103.79 523.097 103.454C522.801 103.118 522.409 102.95 521.921 102.95C521.433 102.95 521.037 103.118 520.733 103.454C520.437 103.782 520.289 104.218 520.289 104.762C520.289 105.306 520.437 105.746 520.733 106.082ZM528.268 107.882C527.588 107.882 527.02 107.71 526.564 107.366C526.108 107.014 525.796 106.59 525.628 106.094L526.864 105.59C526.96 105.918 527.128 106.186 527.368 106.394C527.608 106.602 527.908 106.706 528.268 106.706C528.548 106.706 528.772 106.642 528.94 106.514C529.116 106.378 529.204 106.214 529.204 106.022C529.204 105.814 529.088 105.65 528.856 105.53C528.632 105.41 528.36 105.314 528.04 105.242C527.72 105.162 527.396 105.066 527.068 104.954C526.748 104.842 526.472 104.65 526.24 104.378C526.016 104.106 525.904 103.758 525.904 103.334C525.904 102.846 526.1 102.442 526.492 102.122C526.884 101.802 527.404 101.642 528.052 101.642C528.644 101.642 529.164 101.778 529.612 102.05C530.068 102.322 530.36 102.678 530.488 103.118L529.264 103.634C529.184 103.362 529.032 103.15 528.808 102.998C528.584 102.838 528.34 102.758 528.076 102.758C527.836 102.758 527.64 102.81 527.488 102.914C527.344 103.01 527.272 103.142 527.272 103.31C527.272 103.502 527.384 103.65 527.608 103.754C527.84 103.858 528.116 103.946 528.436 104.018C528.764 104.082 529.092 104.17 529.42 104.282C529.748 104.394 530.024 104.594 530.248 104.882C530.48 105.17 530.596 105.542 530.596 105.998C530.596 106.526 530.38 106.974 529.948 107.342C529.516 107.702 528.956 107.882 528.268 107.882ZM533.799 107.882C533.119 107.882 532.551 107.71 532.095 107.366C531.639 107.014 531.327 106.59 531.159 106.094L532.395 105.59C532.491 105.918 532.659 106.186 532.899 106.394C533.139 106.602 533.439 106.706 533.799 106.706C534.079 106.706 534.303 106.642 534.471 106.514C534.647 106.378 534.735 106.214 534.735 106.022C534.735 105.814 534.619 105.65 534.387 105.53C534.163 105.41 533.891 105.314 533.571 105.242C533.251 105.162 532.927 105.066 532.599 104.954C532.279 104.842 532.003 104.65 531.771 104.378C531.547 104.106 531.435 103.758 531.435 103.334C531.435 102.846 531.631 102.442 532.023 102.122C532.415 101.802 532.935 101.642 533.583 101.642C534.175 101.642 534.695 101.778 535.143 102.05C535.599 102.322 535.891 102.678 536.019 103.118L534.795 103.634C534.715 103.362 534.563 103.15 534.339 102.998C534.115 102.838 533.871 102.758 533.607 102.758C533.367 102.758 533.171 102.81 533.019 102.914C532.875 103.01 532.803 103.142 532.803 103.31C532.803 103.502 532.915 103.65 533.139 103.754C533.371 103.858 533.647 103.946 533.967 104.018C534.295 104.082 534.623 104.17 534.951 104.282C535.279 104.394 535.555 104.594 535.779 104.882C536.011 105.17 536.127 105.542 536.127 105.998C536.127 106.526 535.911 106.974 535.479 107.342C535.047 107.702 534.487 107.882 533.799 107.882ZM536.81 104.966V103.67H540.674V104.966H536.81ZM544.478 107.882C543.574 107.882 542.834 107.594 542.258 107.018C541.69 106.434 541.406 105.682 541.406 104.762C541.406 103.842 541.69 103.094 542.258 102.518C542.834 101.934 543.574 101.642 544.478 101.642C545.254 101.642 545.894 101.83 546.398 102.206C546.91 102.582 547.218 103.09 547.322 103.73L545.846 104.018C545.79 103.698 545.642 103.442 545.402 103.25C545.17 103.05 544.878 102.95 544.526 102.95C544.054 102.95 543.678 103.114 543.398 103.442C543.118 103.77 542.978 104.21 542.978 104.762C542.978 105.314 543.118 105.754 543.398 106.082C543.678 106.41 544.054 106.574 544.526 106.574C544.878 106.574 545.166 106.486 545.39 106.31C545.622 106.126 545.774 105.87 545.846 105.542L547.322 105.842C547.21 106.474 546.898 106.974 546.386 107.342C545.882 107.702 545.246 107.882 544.478 107.882ZM548.457 107.786V99.2896H549.969V102.674C550.385 101.986 551.025 101.642 551.889 101.642C552.569 101.642 553.113 101.842 553.521 102.242C553.937 102.642 554.145 103.17 554.145 103.826V107.786H552.633V104.198C552.633 103.822 552.525 103.526 552.309 103.31C552.093 103.094 551.801 102.986 551.433 102.986C550.969 102.986 550.609 103.178 550.353 103.562C550.097 103.938 549.969 104.47 549.969 105.158V107.786H548.457ZM557.933 101.642C558.741 101.642 559.385 101.858 559.865 102.29C560.353 102.714 560.597 103.318 560.597 104.102V107.786H559.133V106.91C558.965 107.206 558.713 107.442 558.377 107.618C558.049 107.794 557.697 107.882 557.321 107.882C556.729 107.882 556.245 107.714 555.869 107.378C555.493 107.034 555.305 106.602 555.305 106.082C555.305 104.93 556.205 104.258 558.005 104.066L559.133 103.958V103.898C559.133 103.554 559.025 103.286 558.809 103.094C558.593 102.894 558.301 102.794 557.933 102.794C557.605 102.794 557.329 102.89 557.105 103.082C556.889 103.274 556.765 103.53 556.733 103.85L555.389 103.61C555.485 103.018 555.769 102.542 556.241 102.182C556.721 101.822 557.285 101.642 557.933 101.642ZM557.657 106.766C558.113 106.766 558.473 106.614 558.737 106.31C559.001 106.006 559.133 105.626 559.133 105.17V105.038L557.981 105.17C557.589 105.218 557.289 105.318 557.081 105.47C556.873 105.622 556.769 105.81 556.769 106.034C556.769 106.25 556.849 106.426 557.009 106.562C557.169 106.698 557.385 106.766 557.657 106.766ZM563.514 100.55C563.33 100.726 563.102 100.814 562.83 100.814C562.558 100.814 562.334 100.726 562.158 100.55C561.982 100.366 561.894 100.142 561.894 99.8776C561.894 99.6136 561.982 99.3936 562.158 99.2176C562.334 99.0416 562.558 98.9536 562.83 98.9536C563.102 98.9536 563.33 99.0456 563.514 99.2296C563.698 99.4056 563.79 99.6216 563.79 99.8776C563.79 100.142 563.698 100.366 563.514 100.55ZM562.074 107.786V101.738H563.586V107.786H562.074ZM565.05 107.786V101.738H566.562V102.65C566.762 102.346 567.026 102.102 567.354 101.918C567.69 101.734 568.066 101.642 568.482 101.642C569.146 101.642 569.678 101.842 570.078 102.242C570.486 102.642 570.69 103.17 570.69 103.826V107.786H569.178V104.186C569.178 103.826 569.074 103.538 568.866 103.322C568.658 103.098 568.378 102.986 568.026 102.986C567.562 102.986 567.202 103.174 566.946 103.55C566.69 103.926 566.562 104.454 566.562 105.134V107.786H565.05ZM575.095 107.786V99.3856H576.931L579.499 105.47L582.067 99.3856H583.903V107.786H582.367V102.422L580.111 107.786H578.887L576.631 102.422V107.786H575.095ZM591.129 104.558C591.129 104.798 591.121 104.998 591.105 105.158H586.617C586.681 105.614 586.853 105.97 587.133 106.226C587.413 106.482 587.769 106.61 588.201 106.61C588.553 106.61 588.849 106.53 589.089 106.37C589.329 106.21 589.489 105.982 589.569 105.686L590.985 106.07C590.817 106.638 590.485 107.082 589.989 107.402C589.493 107.722 588.889 107.882 588.177 107.882C587.225 107.882 586.473 107.574 585.921 106.958C585.377 106.334 585.105 105.602 585.105 104.762C585.105 103.914 585.365 103.182 585.885 102.566C586.413 101.95 587.149 101.642 588.093 101.642C589.053 101.642 589.797 101.938 590.325 102.53C590.861 103.114 591.129 103.79 591.129 104.558ZM586.653 104.054H589.509C589.469 103.678 589.329 103.374 589.089 103.142C588.849 102.91 588.517 102.794 588.093 102.794C587.717 102.794 587.401 102.902 587.145 103.118C586.897 103.334 586.733 103.646 586.653 104.054ZM594.326 107.882C593.646 107.882 593.078 107.71 592.622 107.366C592.166 107.014 591.854 106.59 591.686 106.094L592.922 105.59C593.018 105.918 593.186 106.186 593.426 106.394C593.666 106.602 593.966 106.706 594.326 106.706C594.606 106.706 594.83 106.642 594.998 106.514C595.174 106.378 595.262 106.214 595.262 106.022C595.262 105.814 595.146 105.65 594.914 105.53C594.69 105.41 594.418 105.314 594.098 105.242C593.778 105.162 593.454 105.066 593.126 104.954C592.806 104.842 592.53 104.65 592.298 104.378C592.074 104.106 591.962 103.758 591.962 103.334C591.962 102.846 592.158 102.442 592.55 102.122C592.942 101.802 593.462 101.642 594.11 101.642C594.702 101.642 595.222 101.778 595.67 102.05C596.126 102.322 596.418 102.678 596.546 103.118L595.322 103.634C595.242 103.362 595.09 103.15 594.866 102.998C594.642 102.838 594.398 102.758 594.134 102.758C593.894 102.758 593.698 102.81 593.546 102.914C593.402 103.01 593.33 103.142 593.33 103.31C593.33 103.502 593.442 103.65 593.666 103.754C593.898 103.858 594.174 103.946 594.494 104.018C594.822 104.082 595.15 104.17 595.478 104.282C595.806 104.394 596.082 104.594 596.306 104.882C596.538 105.17 596.654 105.542 596.654 105.998C596.654 106.526 596.438 106.974 596.006 107.342C595.574 107.702 595.014 107.882 594.326 107.882ZM599.858 107.882C599.178 107.882 598.61 107.71 598.154 107.366C597.698 107.014 597.386 106.59 597.218 106.094L598.454 105.59C598.55 105.918 598.718 106.186 598.958 106.394C599.198 106.602 599.498 106.706 599.858 106.706C600.138 106.706 600.362 106.642 600.53 106.514C600.706 106.378 600.794 106.214 600.794 106.022C600.794 105.814 600.678 105.65 600.446 105.53C600.222 105.41 599.95 105.314 599.63 105.242C599.31 105.162 598.986 105.066 598.658 104.954C598.338 104.842 598.062 104.65 597.83 104.378C597.606 104.106 597.494 103.758 597.494 103.334C597.494 102.846 597.69 102.442 598.082 102.122C598.474 101.802 598.994 101.642 599.642 101.642C600.234 101.642 600.754 101.778 601.202 102.05C601.658 102.322 601.95 102.678 602.078 103.118L600.854 103.634C600.774 103.362 600.622 103.15 600.398 102.998C600.174 102.838 599.93 102.758 599.666 102.758C599.426 102.758 599.23 102.81 599.078 102.914C598.934 103.01 598.862 103.142 598.862 103.31C598.862 103.502 598.974 103.65 599.198 103.754C599.43 103.858 599.706 103.946 600.026 104.018C600.354 104.082 600.682 104.17 601.01 104.282C601.338 104.394 601.614 104.594 601.838 104.882C602.07 105.17 602.186 105.542 602.186 105.998C602.186 106.526 601.97 106.974 601.538 107.342C601.106 107.702 600.546 107.882 599.858 107.882ZM605.605 101.642C606.413 101.642 607.057 101.858 607.537 102.29C608.025 102.714 608.269 103.318 608.269 104.102V107.786H606.805V106.91C606.637 107.206 606.385 107.442 606.049 107.618C605.721 107.794 605.369 107.882 604.993 107.882C604.401 107.882 603.917 107.714 603.541 107.378C603.165 107.034 602.977 106.602 602.977 106.082C602.977 104.93 603.877 104.258 605.677 104.066L606.805 103.958V103.898C606.805 103.554 606.697 103.286 606.481 103.094C606.265 102.894 605.973 102.794 605.605 102.794C605.277 102.794 605.001 102.89 604.777 103.082C604.561 103.274 604.437 103.53 604.405 103.85L603.061 103.61C603.157 103.018 603.441 102.542 603.913 102.182C604.393 101.822 604.957 101.642 605.605 101.642ZM605.329 106.766C605.785 106.766 606.145 106.614 606.409 106.31C606.673 106.006 606.805 105.626 606.805 105.17V105.038L605.653 105.17C605.261 105.218 604.961 105.318 604.753 105.47C604.545 105.622 604.441 105.81 604.441 106.034C604.441 106.25 604.521 106.426 604.681 106.562C604.841 106.698 605.057 106.766 605.329 106.766ZM613.91 101.738H615.41V107.402C615.41 108.202 615.134 108.846 614.582 109.334C614.03 109.822 613.306 110.066 612.41 110.066C611.698 110.066 611.086 109.89 610.574 109.538C610.062 109.194 609.754 108.742 609.65 108.182L611.054 107.954C611.086 108.234 611.23 108.454 611.486 108.614C611.742 108.774 612.05 108.854 612.41 108.854C612.866 108.854 613.23 108.734 613.502 108.494C613.782 108.262 613.922 107.95 613.922 107.558V106.898C613.77 107.114 613.542 107.286 613.238 107.414C612.934 107.542 612.602 107.606 612.242 107.606C611.362 107.606 610.67 107.334 610.166 106.79C609.67 106.246 609.422 105.526 609.422 104.63C609.422 103.726 609.67 103.002 610.166 102.458C610.662 101.914 611.342 101.642 612.206 101.642C612.966 101.642 613.534 101.878 613.91 102.35V101.738ZM611.342 105.842C611.622 106.146 611.994 106.298 612.458 106.298C612.922 106.298 613.294 106.146 613.574 105.842C613.862 105.538 614.006 105.134 614.006 104.63C614.006 104.118 613.866 103.71 613.586 103.406C613.306 103.102 612.93 102.95 612.458 102.95C611.994 102.95 611.622 103.102 611.342 103.406C611.062 103.71 610.922 104.118 610.922 104.63C610.922 105.134 611.062 105.538 611.342 105.842ZM618.322 100.55C618.138 100.726 617.91 100.814 617.638 100.814C617.366 100.814 617.142 100.726 616.966 100.55C616.79 100.366 616.702 100.142 616.702 99.8776C616.702 99.6136 616.79 99.3936 616.966 99.2176C617.142 99.0416 617.366 98.9536 617.638 98.9536C617.91 98.9536 618.138 99.0456 618.322 99.2296C618.506 99.4056 618.598 99.6216 618.598 99.8776C618.598 100.142 618.506 100.366 618.322 100.55ZM616.882 107.786V101.738H618.394V107.786H616.882ZM619.859 107.786V101.738H621.371V102.65C621.571 102.346 621.835 102.102 622.163 101.918C622.499 101.734 622.875 101.642 623.291 101.642C623.955 101.642 624.487 101.842 624.887 102.242C625.295 102.642 625.499 103.17 625.499 103.826V107.786H623.987V104.186C623.987 103.826 623.883 103.538 623.675 103.322C623.467 103.098 623.187 102.986 622.835 102.986C622.371 102.986 622.011 103.174 621.755 103.55C621.499 103.926 621.371 104.454 621.371 105.134V107.786H619.859ZM631.125 101.738H632.625V107.402C632.625 108.202 632.349 108.846 631.797 109.334C631.245 109.822 630.521 110.066 629.625 110.066C628.913 110.066 628.301 109.89 627.789 109.538C627.277 109.194 626.969 108.742 626.865 108.182L628.269 107.954C628.301 108.234 628.445 108.454 628.701 108.614C628.957 108.774 629.265 108.854 629.625 108.854C630.081 108.854 630.445 108.734 630.717 108.494C630.997 108.262 631.137 107.95 631.137 107.558V106.898C630.985 107.114 630.757 107.286 630.453 107.414C630.149 107.542 629.817 107.606 629.457 107.606C628.577 107.606 627.885 107.334 627.381 106.79C626.885 106.246 626.637 105.526 626.637 104.63C626.637 103.726 626.885 103.002 627.381 102.458C627.877 101.914 628.557 101.642 629.421 101.642C630.181 101.642 630.749 101.878 631.125 102.35V101.738ZM628.557 105.842C628.837 106.146 629.209 106.298 629.673 106.298C630.137 106.298 630.509 106.146 630.789 105.842C631.077 105.538 631.221 105.134 631.221 104.63C631.221 104.118 631.081 103.71 630.801 103.406C630.521 103.102 630.145 102.95 629.673 102.95C629.209 102.95 628.837 103.102 628.557 103.406C628.277 103.71 628.137 104.118 628.137 104.63C628.137 105.134 628.277 105.538 628.557 105.842Z" fill="#344054"/>
<rect x="486.205" y="91.2856" width="163" height="25" rx="1.5" stroke="#DABEFE" stroke-opacity="0.1"/>
<line x1="367.121" y1="156.946" x2="768.289" y2="156.946" stroke="url(#paint2_linear_1910_50353)" stroke-dasharray="2 2"/>
<rect x="485.705" y="142.786" width="164" height="26" rx="2" fill="#F9F5FF"/>
<path d="M509.524 159.882C508.348 159.882 507.356 159.506 506.548 158.754C505.748 158.002 505.348 156.946 505.348 155.586C505.348 154.234 505.752 153.182 506.56 152.43C507.368 151.67 508.356 151.29 509.524 151.29C510.524 151.29 511.36 151.546 512.032 152.058C512.704 152.562 513.112 153.238 513.256 154.086L511.636 154.422C511.532 153.886 511.288 153.466 510.904 153.162C510.528 152.85 510.068 152.694 509.524 152.694C508.788 152.694 508.184 152.95 507.712 153.462C507.24 153.966 507.004 154.674 507.004 155.586C507.004 156.498 507.236 157.206 507.7 157.71C508.172 158.214 508.78 158.466 509.524 158.466C510.068 158.466 510.52 158.326 510.88 158.046C511.24 157.766 511.476 157.378 511.588 156.882L513.232 157.242C513.024 158.066 512.592 158.714 511.936 159.186C511.288 159.65 510.484 159.882 509.524 159.882ZM518.325 155.202C518.109 155.106 517.853 155.058 517.557 155.058C517.093 155.058 516.705 155.266 516.393 155.682C516.089 156.09 515.937 156.718 515.937 157.566V159.786H514.425V153.738H515.937V154.842C516.089 154.498 516.337 154.214 516.681 153.99C517.033 153.758 517.393 153.642 517.761 153.642C518.009 153.642 518.229 153.674 518.421 153.738L518.325 155.202ZM524.189 159.006C523.597 159.59 522.841 159.882 521.921 159.882C521.001 159.882 520.245 159.59 519.653 159.006C519.061 158.414 518.765 157.666 518.765 156.762C518.765 155.858 519.061 155.114 519.653 154.53C520.245 153.938 521.001 153.642 521.921 153.642C522.841 153.642 523.597 153.938 524.189 154.53C524.781 155.114 525.077 155.858 525.077 156.762C525.077 157.666 524.781 158.414 524.189 159.006ZM520.733 158.082C521.037 158.41 521.433 158.574 521.921 158.574C522.409 158.574 522.801 158.406 523.097 158.07C523.401 157.734 523.553 157.298 523.553 156.762C523.553 156.226 523.401 155.79 523.097 155.454C522.801 155.118 522.409 154.95 521.921 154.95C521.433 154.95 521.037 155.118 520.733 155.454C520.437 155.782 520.289 156.218 520.289 156.762C520.289 157.306 520.437 157.746 520.733 158.082ZM528.268 159.882C527.588 159.882 527.02 159.71 526.564 159.366C526.108 159.014 525.796 158.59 525.628 158.094L526.864 157.59C526.96 157.918 527.128 158.186 527.368 158.394C527.608 158.602 527.908 158.706 528.268 158.706C528.548 158.706 528.772 158.642 528.94 158.514C529.116 158.378 529.204 158.214 529.204 158.022C529.204 157.814 529.088 157.65 528.856 157.53C528.632 157.41 528.36 157.314 528.04 157.242C527.72 157.162 527.396 157.066 527.068 156.954C526.748 156.842 526.472 156.65 526.24 156.378C526.016 156.106 525.904 155.758 525.904 155.334C525.904 154.846 526.1 154.442 526.492 154.122C526.884 153.802 527.404 153.642 528.052 153.642C528.644 153.642 529.164 153.778 529.612 154.05C530.068 154.322 530.36 154.678 530.488 155.118L529.264 155.634C529.184 155.362 529.032 155.15 528.808 154.998C528.584 154.838 528.34 154.758 528.076 154.758C527.836 154.758 527.64 154.81 527.488 154.914C527.344 155.01 527.272 155.142 527.272 155.31C527.272 155.502 527.384 155.65 527.608 155.754C527.84 155.858 528.116 155.946 528.436 156.018C528.764 156.082 529.092 156.17 529.42 156.282C529.748 156.394 530.024 156.594 530.248 156.882C530.48 157.17 530.596 157.542 530.596 157.998C530.596 158.526 530.38 158.974 529.948 159.342C529.516 159.702 528.956 159.882 528.268 159.882ZM533.799 159.882C533.119 159.882 532.551 159.71 532.095 159.366C531.639 159.014 531.327 158.59 531.159 158.094L532.395 157.59C532.491 157.918 532.659 158.186 532.899 158.394C533.139 158.602 533.439 158.706 533.799 158.706C534.079 158.706 534.303 158.642 534.471 158.514C534.647 158.378 534.735 158.214 534.735 158.022C534.735 157.814 534.619 157.65 534.387 157.53C534.163 157.41 533.891 157.314 533.571 157.242C533.251 157.162 532.927 157.066 532.599 156.954C532.279 156.842 532.003 156.65 531.771 156.378C531.547 156.106 531.435 155.758 531.435 155.334C531.435 154.846 531.631 154.442 532.023 154.122C532.415 153.802 532.935 153.642 533.583 153.642C534.175 153.642 534.695 153.778 535.143 154.05C535.599 154.322 535.891 154.678 536.019 155.118L534.795 155.634C534.715 155.362 534.563 155.15 534.339 154.998C534.115 154.838 533.871 154.758 533.607 154.758C533.367 154.758 533.171 154.81 533.019 154.914C532.875 155.01 532.803 155.142 532.803 155.31C532.803 155.502 532.915 155.65 533.139 155.754C533.371 155.858 533.647 155.946 533.967 156.018C534.295 156.082 534.623 156.17 534.951 156.282C535.279 156.394 535.555 156.594 535.779 156.882C536.011 157.17 536.127 157.542 536.127 157.998C536.127 158.526 535.911 158.974 535.479 159.342C535.047 159.702 534.487 159.882 533.799 159.882ZM536.81 156.966V155.67H540.674V156.966H536.81ZM544.478 159.882C543.574 159.882 542.834 159.594 542.258 159.018C541.69 158.434 541.406 157.682 541.406 156.762C541.406 155.842 541.69 155.094 542.258 154.518C542.834 153.934 543.574 153.642 544.478 153.642C545.254 153.642 545.894 153.83 546.398 154.206C546.91 154.582 547.218 155.09 547.322 155.73L545.846 156.018C545.79 155.698 545.642 155.442 545.402 155.25C545.17 155.05 544.878 154.95 544.526 154.95C544.054 154.95 543.678 155.114 543.398 155.442C543.118 155.77 542.978 156.21 542.978 156.762C542.978 157.314 543.118 157.754 543.398 158.082C543.678 158.41 544.054 158.574 544.526 158.574C544.878 158.574 545.166 158.486 545.39 158.31C545.622 158.126 545.774 157.87 545.846 157.542L547.322 157.842C547.21 158.474 546.898 158.974 546.386 159.342C545.882 159.702 545.246 159.882 544.478 159.882ZM548.457 159.786V151.29H549.969V154.674C550.385 153.986 551.025 153.642 551.889 153.642C552.569 153.642 553.113 153.842 553.521 154.242C553.937 154.642 554.145 155.17 554.145 155.826V159.786H552.633V156.198C552.633 155.822 552.525 155.526 552.309 155.31C552.093 155.094 551.801 154.986 551.433 154.986C550.969 154.986 550.609 155.178 550.353 155.562C550.097 155.938 549.969 156.47 549.969 157.158V159.786H548.457ZM557.933 153.642C558.741 153.642 559.385 153.858 559.865 154.29C560.353 154.714 560.597 155.318 560.597 156.102V159.786H559.133V158.91C558.965 159.206 558.713 159.442 558.377 159.618C558.049 159.794 557.697 159.882 557.321 159.882C556.729 159.882 556.245 159.714 555.869 159.378C555.493 159.034 555.305 158.602 555.305 158.082C555.305 156.93 556.205 156.258 558.005 156.066L559.133 155.958V155.898C559.133 155.554 559.025 155.286 558.809 155.094C558.593 154.894 558.301 154.794 557.933 154.794C557.605 154.794 557.329 154.89 557.105 155.082C556.889 155.274 556.765 155.53 556.733 155.85L555.389 155.61C555.485 155.018 555.769 154.542 556.241 154.182C556.721 153.822 557.285 153.642 557.933 153.642ZM557.657 158.766C558.113 158.766 558.473 158.614 558.737 158.31C559.001 158.006 559.133 157.626 559.133 157.17V157.038L557.981 157.17C557.589 157.218 557.289 157.318 557.081 157.47C556.873 157.622 556.769 157.81 556.769 158.034C556.769 158.25 556.849 158.426 557.009 158.562C557.169 158.698 557.385 158.766 557.657 158.766ZM563.514 152.55C563.33 152.726 563.102 152.814 562.83 152.814C562.558 152.814 562.334 152.726 562.158 152.55C561.982 152.366 561.894 152.142 561.894 151.878C561.894 151.614 561.982 151.394 562.158 151.218C562.334 151.042 562.558 150.954 562.83 150.954C563.102 150.954 563.33 151.046 563.514 151.23C563.698 151.406 563.79 151.622 563.79 151.878C563.79 152.142 563.698 152.366 563.514 152.55ZM562.074 159.786V153.738H563.586V159.786H562.074ZM565.05 159.786V153.738H566.562V154.65C566.762 154.346 567.026 154.102 567.354 153.918C567.69 153.734 568.066 153.642 568.482 153.642C569.146 153.642 569.678 153.842 570.078 154.242C570.486 154.642 570.69 155.17 570.69 155.826V159.786H569.178V156.186C569.178 155.826 569.074 155.538 568.866 155.322C568.658 155.098 568.378 154.986 568.026 154.986C567.562 154.986 567.202 155.174 566.946 155.55C566.69 155.926 566.562 156.454 566.562 157.134V159.786H565.05ZM575.095 159.786V151.386H576.931L579.499 157.47L582.067 151.386H583.903V159.786H582.367V154.422L580.111 159.786H578.887L576.631 154.422V159.786H575.095ZM591.129 156.558C591.129 156.798 591.121 156.998 591.105 157.158H586.617C586.681 157.614 586.853 157.97 587.133 158.226C587.413 158.482 587.769 158.61 588.201 158.61C588.553 158.61 588.849 158.53 589.089 158.37C589.329 158.21 589.489 157.982 589.569 157.686L590.985 158.07C590.817 158.638 590.485 159.082 589.989 159.402C589.493 159.722 588.889 159.882 588.177 159.882C587.225 159.882 586.473 159.574 585.921 158.958C585.377 158.334 585.105 157.602 585.105 156.762C585.105 155.914 585.365 155.182 585.885 154.566C586.413 153.95 587.149 153.642 588.093 153.642C589.053 153.642 589.797 153.938 590.325 154.53C590.861 155.114 591.129 155.79 591.129 156.558ZM586.653 156.054H589.509C589.469 155.678 589.329 155.374 589.089 155.142C588.849 154.91 588.517 154.794 588.093 154.794C587.717 154.794 587.401 154.902 587.145 155.118C586.897 155.334 586.733 155.646 586.653 156.054ZM594.326 159.882C593.646 159.882 593.078 159.71 592.622 159.366C592.166 159.014 591.854 158.59 591.686 158.094L592.922 157.59C593.018 157.918 593.186 158.186 593.426 158.394C593.666 158.602 593.966 158.706 594.326 158.706C594.606 158.706 594.83 158.642 594.998 158.514C595.174 158.378 595.262 158.214 595.262 158.022C595.262 157.814 595.146 157.65 594.914 157.53C594.69 157.41 594.418 157.314 594.098 157.242C593.778 157.162 593.454 157.066 593.126 156.954C592.806 156.842 592.53 156.65 592.298 156.378C592.074 156.106 591.962 155.758 591.962 155.334C591.962 154.846 592.158 154.442 592.55 154.122C592.942 153.802 593.462 153.642 594.11 153.642C594.702 153.642 595.222 153.778 595.67 154.05C596.126 154.322 596.418 154.678 596.546 155.118L595.322 155.634C595.242 155.362 595.09 155.15 594.866 154.998C594.642 154.838 594.398 154.758 594.134 154.758C593.894 154.758 593.698 154.81 593.546 154.914C593.402 155.01 593.33 155.142 593.33 155.31C593.33 155.502 593.442 155.65 593.666 155.754C593.898 155.858 594.174 155.946 594.494 156.018C594.822 156.082 595.15 156.17 595.478 156.282C595.806 156.394 596.082 156.594 596.306 156.882C596.538 157.17 596.654 157.542 596.654 157.998C596.654 158.526 596.438 158.974 596.006 159.342C595.574 159.702 595.014 159.882 594.326 159.882ZM599.858 159.882C599.178 159.882 598.61 159.71 598.154 159.366C597.698 159.014 597.386 158.59 597.218 158.094L598.454 157.59C598.55 157.918 598.718 158.186 598.958 158.394C599.198 158.602 599.498 158.706 599.858 158.706C600.138 158.706 600.362 158.642 600.53 158.514C600.706 158.378 600.794 158.214 600.794 158.022C600.794 157.814 600.678 157.65 600.446 157.53C600.222 157.41 599.95 157.314 599.63 157.242C599.31 157.162 598.986 157.066 598.658 156.954C598.338 156.842 598.062 156.65 597.83 156.378C597.606 156.106 597.494 155.758 597.494 155.334C597.494 154.846 597.69 154.442 598.082 154.122C598.474 153.802 598.994 153.642 599.642 153.642C600.234 153.642 600.754 153.778 601.202 154.05C601.658 154.322 601.95 154.678 602.078 155.118L600.854 155.634C600.774 155.362 600.622 155.15 600.398 154.998C600.174 154.838 599.93 154.758 599.666 154.758C599.426 154.758 599.23 154.81 599.078 154.914C598.934 155.01 598.862 155.142 598.862 155.31C598.862 155.502 598.974 155.65 599.198 155.754C599.43 155.858 599.706 155.946 600.026 156.018C600.354 156.082 600.682 156.17 601.01 156.282C601.338 156.394 601.614 156.594 601.838 156.882C602.07 157.17 602.186 157.542 602.186 157.998C602.186 158.526 601.97 158.974 601.538 159.342C601.106 159.702 600.546 159.882 599.858 159.882ZM605.605 153.642C606.413 153.642 607.057 153.858 607.537 154.29C608.025 154.714 608.269 155.318 608.269 156.102V159.786H606.805V158.91C606.637 159.206 606.385 159.442 606.049 159.618C605.721 159.794 605.369 159.882 604.993 159.882C604.401 159.882 603.917 159.714 603.541 159.378C603.165 159.034 602.977 158.602 602.977 158.082C602.977 156.93 603.877 156.258 605.677 156.066L606.805 155.958V155.898C606.805 155.554 606.697 155.286 606.481 155.094C606.265 154.894 605.973 154.794 605.605 154.794C605.277 154.794 605.001 154.89 604.777 155.082C604.561 155.274 604.437 155.53 604.405 155.85L603.061 155.61C603.157 155.018 603.441 154.542 603.913 154.182C604.393 153.822 604.957 153.642 605.605 153.642ZM605.329 158.766C605.785 158.766 606.145 158.614 606.409 158.31C606.673 158.006 606.805 157.626 606.805 157.17V157.038L605.653 157.17C605.261 157.218 604.961 157.318 604.753 157.47C604.545 157.622 604.441 157.81 604.441 158.034C604.441 158.25 604.521 158.426 604.681 158.562C604.841 158.698 605.057 158.766 605.329 158.766ZM613.91 153.738H615.41V159.402C615.41 160.202 615.134 160.846 614.582 161.334C614.03 161.822 613.306 162.066 612.41 162.066C611.698 162.066 611.086 161.89 610.574 161.538C610.062 161.194 609.754 160.742 609.65 160.182L611.054 159.954C611.086 160.234 611.23 160.454 611.486 160.614C611.742 160.774 612.05 160.854 612.41 160.854C612.866 160.854 613.23 160.734 613.502 160.494C613.782 160.262 613.922 159.95 613.922 159.558V158.898C613.77 159.114 613.542 159.286 613.238 159.414C612.934 159.542 612.602 159.606 612.242 159.606C611.362 159.606 610.67 159.334 610.166 158.79C609.67 158.246 609.422 157.526 609.422 156.63C609.422 155.726 609.67 155.002 610.166 154.458C610.662 153.914 611.342 153.642 612.206 153.642C612.966 153.642 613.534 153.878 613.91 154.35V153.738ZM611.342 157.842C611.622 158.146 611.994 158.298 612.458 158.298C612.922 158.298 613.294 158.146 613.574 157.842C613.862 157.538 614.006 157.134 614.006 156.63C614.006 156.118 613.866 155.71 613.586 155.406C613.306 155.102 612.93 154.95 612.458 154.95C611.994 154.95 611.622 155.102 611.342 155.406C611.062 155.71 610.922 156.118 610.922 156.63C610.922 157.134 611.062 157.538 611.342 157.842ZM618.322 152.55C618.138 152.726 617.91 152.814 617.638 152.814C617.366 152.814 617.142 152.726 616.966 152.55C616.79 152.366 616.702 152.142 616.702 151.878C616.702 151.614 616.79 151.394 616.966 151.218C617.142 151.042 617.366 150.954 617.638 150.954C617.91 150.954 618.138 151.046 618.322 151.23C618.506 151.406 618.598 151.622 618.598 151.878C618.598 152.142 618.506 152.366 618.322 152.55ZM616.882 159.786V153.738H618.394V159.786H616.882ZM619.859 159.786V153.738H621.371V154.65C621.571 154.346 621.835 154.102 622.163 153.918C622.499 153.734 622.875 153.642 623.291 153.642C623.955 153.642 624.487 153.842 624.887 154.242C625.295 154.642 625.499 155.17 625.499 155.826V159.786H623.987V156.186C623.987 155.826 623.883 155.538 623.675 155.322C623.467 155.098 623.187 154.986 622.835 154.986C622.371 154.986 622.011 155.174 621.755 155.55C621.499 155.926 621.371 156.454 621.371 157.134V159.786H619.859ZM631.125 153.738H632.625V159.402C632.625 160.202 632.349 160.846 631.797 161.334C631.245 161.822 630.521 162.066 629.625 162.066C628.913 162.066 628.301 161.89 627.789 161.538C627.277 161.194 626.969 160.742 626.865 160.182L628.269 159.954C628.301 160.234 628.445 160.454 628.701 160.614C628.957 160.774 629.265 160.854 629.625 160.854C630.081 160.854 630.445 160.734 630.717 160.494C630.997 160.262 631.137 159.95 631.137 159.558V158.898C630.985 159.114 630.757 159.286 630.453 159.414C630.149 159.542 629.817 159.606 629.457 159.606C628.577 159.606 627.885 159.334 627.381 158.79C626.885 158.246 626.637 157.526 626.637 156.63C626.637 155.726 626.885 155.002 627.381 154.458C627.877 153.914 628.557 153.642 629.421 153.642C630.181 153.642 630.749 153.878 631.125 154.35V153.738ZM628.557 157.842C628.837 158.146 629.209 158.298 629.673 158.298C630.137 158.298 630.509 158.146 630.789 157.842C631.077 157.538 631.221 157.134 631.221 156.63C631.221 156.118 631.081 155.71 630.801 155.406C630.521 155.102 630.145 154.95 629.673 154.95C629.209 154.95 628.837 155.102 628.557 155.406C628.277 155.71 628.137 156.118 628.137 156.63C628.137 157.134 628.277 157.538 628.557 157.842Z" fill="#344054"/>
<rect x="486.205" y="143.286" width="163" height="25" rx="1.5" stroke="#DABEFE" stroke-opacity="0.1"/>
<circle cx="356.401" cy="51.1449" r="16.1602" fill="#91C3CE"/>
<circle cx="356.401" cy="51.1448" r="8" fill="#FCFCFD"/>
<circle cx="356.401" cy="103.465" r="16.1602" fill="#E0C7F9"/>
<circle cx="356.401" cy="103.465" r="8" fill="#FCFCFD"/>
<circle cx="356.401" cy="155.786" r="16.1602" fill="#9291CE"/>
<circle cx="356.401" cy="155.786" r="8" fill="#FCFCFD"/>
<circle cx="777.639" cy="51.1449" r="16.1602" fill="#FAC670"/>
<circle cx="777.639" cy="51.1448" r="8" fill="#FCFCFD"/>
<circle cx="777.639" cy="103.465" r="16.1602" fill="#70B8FA"/>
<circle cx="777.639" cy="103.465" r="8" fill="#FCFCFD"/>
<circle cx="777.639" cy="155.786" r="16.1602" fill="#FA9970"/>
<circle cx="777.639" cy="155.786" r="8" fill="#FCFCFD"/>
<rect width="92" height="205" transform="matrix(-1 0 0 1 1153.5 2.00684)" fill="white"/>
<rect width="55.6803" height="55.6803" rx="2" transform="matrix(-1 0 0 1 1135.34 11.5488)" fill="#FAC670"/>
<rect width="55.6803" height="55.6803" rx="2" transform="matrix(-1 0 0 1 1135.34 76.6665)" fill="#70B8FA"/>
<rect width="55.6803" height="55.6803" rx="2" transform="matrix(-1 0 0 1 1135.34 141.784)" fill="#FA9970"/>
<rect width="23" height="148" transform="translate(1038.5 30.5)" fill="white"/>
<rect width="6.8836" height="30.9439" transform="matrix(-1 0 0 1 910.799 88.5142)" fill="white"/>
<path d="M903.915 78.1216C903.915 73.0465 899.801 68.9324 894.726 68.9324H861.467V139.04H894.726C899.801 139.04 903.915 134.926 903.915 129.85V78.1216Z" fill="white"/>
<rect width="9.17801" height="96.6997" transform="matrix(-1 0 0 1 861.467 55.6362)" fill="white"/>
<path d="M1045.87 92.7221H1018.79C1004.43 92.7221 992.792 81.0815 992.792 66.7221V54.9699C992.792 40.6105 981.152 28.9699 966.792 28.9699H963.737C949.378 28.9699 937.737 40.6105 937.737 54.9699V77.4646C937.737 91.824 926.096 103.465 911.737 103.465H910.799" stroke="white" stroke-width="16" stroke-linejoin="round"/>
<path d="M1045.87 92.7221H1018.79C1004.43 92.7221 992.792 81.0815 992.792 66.7221V54.9699C992.792 40.6105 981.152 28.9699 966.792 28.9699H963.737C949.378 28.9699 937.737 40.6105 937.737 54.9699V77.4646C937.737 91.824 926.096 103.465 911.737 103.465H910.799" stroke="#D0D5DD" stroke-width="1.5" stroke-linejoin="round" stroke-dasharray="4 4"/>
<rect width="92" height="205" transform="matrix(-1 0 0 1 92.5 2.00684)" fill="white"/>
<rect width="55.6803" height="55.6803" rx="2" transform="matrix(-1 0 0 1 74.3398 11.5488)" fill="#91C3CE"/>
<rect width="55.6803" height="55.6803" rx="2" transform="matrix(-1 0 0 1 74.3398 76.6665)" fill="#E0C7F9"/>
<rect width="55.6803" height="55.6803" rx="2" transform="matrix(-1 0 0 1 74.3398 141.784)" fill="#9291CE"/>
<rect width="23" height="148" transform="translate(92.5 30.5)" fill="white"/>
<path d="M111.738 105.403H116.145C136.331 105.403 152.694 121.766 152.694 141.951V141.951C152.694 162.137 169.058 178.5 189.243 178.5H198.37C221.566 178.5 240.37 159.696 240.37 136.5V134.273C240.37 111.077 259.174 92.2734 282.37 92.2734H304.689" stroke="white" stroke-width="20" stroke-linejoin="round"/>
<path d="M111.738 105.403H116.145C136.331 105.403 152.694 121.766 152.694 141.951V141.951C152.694 162.137 169.058 178.5 189.243 178.5H198.37C221.566 178.5 240.37 159.696 240.37 136.5V132.062C240.37 110.087 258.184 92.2734 280.158 92.2734V92.2734" stroke="#D0D5DD" stroke-width="1.5" stroke-linejoin="round" stroke-dasharray="4 4"/>
<defs>
<linearGradient id="paint0_linear_1910_50353" x1="370.343" y1="50.446" x2="768.289" y2="50.446" gradientUnits="userSpaceOnUse">
<stop stop-color="#91C3CE"/>
<stop offset="1" stop-color="#FAC670"/>
</linearGradient>
<linearGradient id="paint1_linear_1910_50353" x1="370.343" y1="105.446" x2="768.289" y2="105.446" gradientUnits="userSpaceOnUse">
<stop stop-color="#E0C7F9"/>
<stop offset="1" stop-color="#70B8FA"/>
</linearGradient>
<linearGradient id="paint2_linear_1910_50353" x1="370.343" y1="157.446" x2="768.289" y2="157.446" gradientUnits="userSpaceOnUse">
<stop stop-color="#9291CE"/>
<stop offset="1" stop-color="#FA9970"/>
</linearGradient>
</defs>
</svg>
