<svg width="1210" height="207" viewBox="0 0 1210 207" fill="none" xmlns="http://www.w3.org/2000/svg">
<rect width="573" height="205" transform="translate(318.811 0.453613)" fill="white"/>
<rect x="343.21" y="15.9204" width="524.201" height="174.066" fill="white" stroke="#160033" stroke-width="2"/>
<circle cx="395.923" cy="50.6331" r="16.1602" fill="#101828"/>
<circle cx="395.923" cy="50.6331" r="8" fill="#FCFCFD"/>
<circle cx="395.923" cy="102.954" r="16.1602" fill="#101828"/>
<circle cx="395.923" cy="102.954" r="8" fill="#FCFCFD"/>
<circle cx="395.923" cy="155.274" r="16.1602" fill="#101828"/>
<circle cx="395.923" cy="155.274" r="8" fill="#FCFCFD"/>
<circle cx="817.16" cy="50.6331" r="16.1602" fill="#101828"/>
<circle cx="817.16" cy="102.954" r="16.1602" fill="#101828"/>
<circle cx="817.16" cy="155.274" r="16.1602" fill="#101828"/>
<rect width="132" height="205" transform="matrix(-1 0 0 1 132 1)" fill="white"/>
<rect width="71" height="54" rx="8" transform="matrix(-1 0 0 1 101.5 12)" fill="#91C3CE"/>
<g clip-path="url(#clip0_1498_48617)">
<path d="M66.0004 58.0707C76.5329 58.0707 85.0712 49.5324 85.0712 39C85.0712 28.4675 76.5329 19.9292 66.0004 19.9292C55.468 19.9292 46.9297 28.4675 46.9297 39C46.9297 49.5324 55.468 58.0707 66.0004 58.0707Z" fill="#91C3CE"/>
<path fill-rule="evenodd" clip-rule="evenodd" d="M55.1123 30.5174L66.0454 41.148L76.8418 30.7386L76.4302 30.2963C73.7547 27.4171 69.911 25.7563 65.9087 25.7563H65.8854C61.9283 25.7563 58.246 27.3072 55.5472 30.0751L55.1123 30.5174ZM66.0468 39.3986L56.8973 30.5174C59.3212 28.2369 62.5 26.996 65.9087 26.996H65.9319C69.3625 26.996 72.6563 28.3481 75.0814 30.6949L66.0468 39.3986Z" fill="white"/>
<path d="M76.065 33.3531L77.0717 32.3784L77.3222 32.777C78.5791 34.7874 79.2437 37.0925 79.244 39.4425C79.222 46.5079 73.2965 52.2438 66.0004 52.2438H65.9771C58.6811 52.2438 52.7337 46.4629 52.7569 39.3988C52.7589 37.0461 53.4315 34.7396 54.7006 32.7333L54.929 32.3572L56.141 33.5306C55.9125 33.8617 55.706 34.2166 55.5692 34.6152C54.6091 37.162 55.9809 39.9749 58.6345 40.9046C60.213 41.4357 61.8832 41.192 63.1867 40.351L66.0004 43.0978L69.2257 39.9749C69.5239 40.1749 69.8659 40.3298 70.2325 40.4622C72.8177 41.3483 75.6533 40.0411 76.5684 37.5606C77.1168 36.0998 76.8652 34.5715 76.065 33.3531Z" fill="white"/>
<path d="M57.0811 36.5645C57.0805 35.9895 57.273 35.4298 57.6296 34.97L61.4267 38.6239C60.9698 38.9775 60.3981 39.1775 59.7798 39.1775C58.293 39.1775 57.0811 38.0041 57.0811 36.5645Z" fill="white"/>
<path d="M70.873 38.4013C71.3081 38.6886 71.8114 38.8436 72.3832 38.8436C73.87 38.8436 75.0819 37.6702 75.0819 36.2306C75.0819 35.6996 74.9219 35.1897 74.6251 34.7686L70.873 38.4013Z" fill="white"/>
</g>
<rect width="71" height="55" rx="8" transform="matrix(-1 0 0 1 101.5 76)" fill="#E0C7F9"/>
<rect width="71" height="54" rx="8" transform="matrix(-1 0 0 1 101.5 141)" fill="#9291CE"/>
<g clip-path="url(#clip1_1498_48617)">
<path d="M65.9993 190.536C78.4458 190.536 88.5357 180.447 88.5357 168C88.5357 155.554 78.4458 145.464 65.9993 145.464C53.5528 145.464 43.4629 155.554 43.4629 168C43.4629 180.447 53.5528 190.536 65.9993 190.536Z" fill="#9291CE"/>
<path d="M65.9962 155.981L65.832 156.529V172.425L65.9962 172.586L73.5065 168.225L65.9962 155.981Z" fill="#C0CBF6"/>
<path d="M65.9979 155.981L58.4873 168.225L65.9979 172.586V164.871V155.981Z" fill="white"/>
<path d="M65.9968 173.981L65.9043 174.092V179.754L65.9968 180.02L73.5118 169.621L65.9968 173.981Z" fill="#C0CBF6"/>
<path d="M65.9979 180.02V173.981L58.4873 169.621L65.9979 180.02Z" fill="white"/>
<path d="M65.9961 172.595L73.5064 168.233L65.9961 164.879V172.595Z" fill="#8197EE"/>
<path d="M58.4873 168.233L65.9979 172.595V164.879L58.4873 168.233Z" fill="#C0CBF6"/>
</g>
<rect width="132" height="205" transform="matrix(-1 0 0 1 1210 1.34375)" fill="white"/>
<rect width="71" height="54" rx="8" transform="matrix(-1 0 0 1 1179.5 12.3438)" fill="#FAC670"/>
<g clip-path="url(#clip2_1498_48617)">
<path d="M1138.13 31.9206L1144 28.5015L1149.87 31.9206L1147.71 33.1836L1144 31.0277L1140.29 33.1836L1138.13 31.9206ZM1149.87 36.2325L1147.71 34.9694L1144 37.1254L1140.29 34.9694L1138.13 36.2325V38.7587L1141.84 40.9145V45.2266L1144 46.4897L1146.16 45.2266V40.9145L1149.87 38.7587V36.2325ZM1149.87 43.0706V40.5444L1147.71 41.8075V44.3337L1149.87 43.0706ZM1151.41 43.9635L1147.69 46.1194V48.6456L1153.57 45.2266V38.3885L1151.41 39.6514V43.9635ZM1149.25 34.0765L1151.41 35.3396V37.8658L1153.57 36.6027V34.0765L1151.41 32.8134L1149.25 34.0765ZM1141.84 47.0342V49.5604L1144 50.8235L1146.16 49.5604V47.0342L1144 48.2973L1141.84 47.0342ZM1138.13 43.0706L1140.29 44.3337V41.8075L1138.13 40.5444V43.0706ZM1141.84 34.0765L1144 35.3396L1146.16 34.0765L1144 32.8134L1141.84 34.0765ZM1136.59 35.3396L1138.75 34.0765L1136.59 32.8134L1134.43 34.0765V36.6027L1136.59 37.8658V35.3396ZM1136.59 39.6514L1134.43 38.3885V45.2266L1140.31 48.6456V46.1194L1136.59 43.9635V39.6514Z" fill="white"/>
</g>
<rect width="71" height="55" rx="8" transform="matrix(-1 0 0 1 1179.5 76.3438)" fill="#70B8FA"/>
<g clip-path="url(#clip3_1498_48617)">
<path d="M1142.8 91.0132C1143.54 90.5952 1144.46 90.5952 1145.19 91.0132L1154.75 96.4155C1155.49 96.8333 1155.95 97.6053 1155.95 98.4408V109.247C1155.95 110.082 1155.49 110.854 1154.75 111.272L1145.19 116.674C1144.46 117.092 1143.54 117.092 1142.8 116.674L1133.25 111.272C1132.51 110.854 1132.05 110.082 1132.05 109.247V98.4408C1132.05 97.6053 1132.51 96.8333 1133.25 96.4155L1142.8 91.0132Z" fill="#96BEDC"/>
<path d="M1143.64 92.4146C1143.89 92.2752 1144.19 92.2752 1144.44 92.4146L1153.9 97.7623C1154.14 97.9016 1154.3 98.1589 1154.3 98.4373V109.133C1154.3 109.412 1154.14 109.669 1153.9 109.808L1144.44 115.156C1144.19 115.296 1143.89 115.296 1143.64 115.156L1134.18 109.808C1133.94 109.669 1133.78 109.412 1133.78 109.133V98.4373C1133.78 98.1589 1133.94 97.9016 1134.18 97.7623L1143.64 92.4146Z" fill="#2D374B"/>
<path d="M1134.67 112.079L1132.97 111.116C1132.4 110.795 1132.05 110.194 1132.05 109.543L1138.46 99.9473C1139.16 98.9008 1140.35 98.27 1141.63 98.27H1143.47L1134.67 112.079Z" fill="white"/>
<path d="M1138.75 114.381L1135.68 112.647L1144.62 98.27H1148.49L1138.75 114.381Z" fill="white"/>
<path fill-rule="evenodd" clip-rule="evenodd" d="M1151.2 111.333L1147.8 113.255L1144.1 107.586L1146.37 103.863L1151.2 111.333ZM1154.3 107.487V109.133C1154.3 109.412 1154.14 109.669 1153.9 109.808L1152.17 110.785L1147.03 102.704L1149 99.4685L1154.3 107.487Z" fill="#28A0F0"/>
</g>
<rect width="71" height="54" rx="8" transform="matrix(-1 0 0 1 1179.5 141.344)" fill="#FA9970"/>
<g clip-path="url(#clip4_1498_48617)">
<path d="M1144 184.344C1152.84 184.344 1160 177.18 1160 168.344C1160 159.507 1152.84 152.344 1144 152.344C1135.16 152.344 1128 159.507 1128 168.344C1128 177.18 1135.16 184.344 1144 184.344Z" fill="#FA9970"/>
<path fill-rule="evenodd" clip-rule="evenodd" d="M1139.98 175.01H1136.85C1136.11 175.01 1135.74 175.01 1135.52 174.864C1135.28 174.706 1135.13 174.441 1135.11 174.15C1135.1 173.881 1135.28 173.554 1135.65 172.898L1135.65 172.898L1142.49 160.677C1142.87 160.012 1143.05 159.679 1143.29 159.555C1143.55 159.422 1143.85 159.421 1144.11 159.555C1144.34 159.678 1144.53 160.011 1144.9 160.675L1146.48 163.484L1146.48 163.484C1146.75 163.967 1146.89 164.209 1146.95 164.464C1147.01 164.742 1147.01 165.031 1146.95 165.308C1146.89 165.563 1146.76 165.805 1146.48 166.289L1142.39 173.586C1142.11 174.077 1141.98 174.322 1141.79 174.506C1141.58 174.705 1141.33 174.852 1141.06 174.935C1140.81 175.01 1140.53 175.01 1139.98 175.01ZM1151.14 175.01H1147.51C1146.76 175.01 1146.39 175.01 1146.17 174.863C1145.93 174.703 1145.77 174.436 1145.76 174.144C1145.75 173.874 1145.94 173.545 1146.31 172.887L1148.12 169.723C1148.49 169.073 1148.68 168.748 1148.91 168.627C1149.17 168.495 1149.47 168.495 1149.72 168.626C1149.96 168.748 1150.15 169.072 1150.52 169.721L1150.52 169.722L1152.33 172.885C1152.71 173.544 1152.9 173.873 1152.89 174.143C1152.87 174.435 1152.72 174.703 1152.48 174.863C1152.26 175.01 1151.89 175.01 1151.14 175.01Z" fill="white"/>
</g>
<defs>
<clipPath id="clip0_1498_48617">
<rect width="38.1415" height="38.1415" fill="white" transform="translate(46.9297 19.9292)"/>
</clipPath>
<clipPath id="clip1_1498_48617">
<rect width="45.0728" height="45.0728" fill="white" transform="translate(43.4629 145.464)"/>
</clipPath>
<clipPath id="clip2_1498_48617">
<rect width="38.2663" height="38.2663" fill="white" transform="translate(1124.87 20.2104)"/>
</clipPath>
<clipPath id="clip3_1498_48617">
<rect width="35.8472" height="35.8472" fill="white" transform="translate(1126.08 85.9202)"/>
</clipPath>
<clipPath id="clip4_1498_48617">
<rect width="32" height="32" fill="white" transform="translate(1128 152.344)"/>
</clipPath>
</defs>
</svg>
