<svg width="500" height="500" viewBox="0 0 500 500" fill="none" xmlns="http://www.w3.org/2000/svg">
<path d="M448.17 166.67C448.17 195.29 471.38 218.5 500 218.5V198.17C482.6 198.17 468.5 184.07 468.5 166.67C468.5 149.27 482.6 135.17 500 135.17V114.84C471.38 114.84 448.17 138.04 448.17 166.67Z" fill="white" fill-opacity="0.07"/>
<path d="M463.35 296.68C453.97 306.06 448.17 319.02 448.17 333.33C448.17 361.95 471.37 385.16 500 385.16V364.83C482.6 364.83 468.5 350.73 468.5 333.33C468.5 324.63 472.03 316.75 477.73 311.05L463.35 296.68Z" fill="white" fill-opacity="0.07"/>
<path d="M51.83 333.33C51.83 304.7 28.63 281.5 0 281.5V301.83C17.4 301.83 31.5 315.93 31.5 333.33C31.5 350.73 17.39 364.83 0 364.83V385.16C28.63 385.16 51.83 361.96 51.83 333.33Z" fill="white" fill-opacity="0.07"/>
<path d="M333.33 135.16C342.03 135.16 349.91 138.69 355.61 144.39L369.98 130.02C360.6 120.64 347.64 114.84 333.33 114.84C304.71 114.84 281.5 138.05 281.5 166.67C281.5 195.3 304.71 218.5 333.33 218.5C347.64 218.5 360.6 212.7 369.98 203.32L355.61 188.95C349.91 194.65 342.03 198.18 333.33 198.18C315.93 198.18 301.83 184.08 301.83 166.68C301.83 149.27 315.93 135.16 333.33 135.16Z" fill="white" fill-opacity="0.07"/>
<path d="M463.35 36.65L477.72 22.28C472.02 16.58 468.49 8.7 468.49 0H448.16C448.17 14.32 453.97 27.27 463.35 36.65Z" fill="white" fill-opacity="0.07"/>
<path d="M166.67 51.83C195.3 51.83 218.5 28.63 218.5 0H198.17C198.17 17.4 184.07 31.5 166.67 31.5C149.27 31.5 135.17 17.4 135.17 0H114.84C114.84 28.63 138.04 51.83 166.67 51.83Z" fill="white" fill-opacity="0.07"/>
<path d="M448.17 500H468.5C468.5 482.6 482.6 468.5 500 468.5V448.17C471.38 448.17 448.17 471.37 448.17 500Z" fill="white" fill-opacity="0.07"/>
<path d="M166.67 448.17C138.05 448.17 114.84 471.37 114.84 500H135.17C135.17 482.6 149.27 468.5 166.67 468.5C184.07 468.5 198.17 482.6 198.17 500H218.5C218.5 471.37 195.29 448.17 166.67 448.17Z" fill="white" fill-opacity="0.07"/>
<path d="M333.33 51.83C361.96 51.83 385.16 28.62 385.16 0H364.83C364.83 17.4 350.72 31.5 333.33 31.5C315.93 31.5 301.83 17.4 301.83 0H281.5C281.5 28.63 304.71 51.83 333.33 51.83Z" fill="white" fill-opacity="0.07"/>
<path d="M333.33 448.17C319.02 448.17 306.06 453.97 296.68 463.35L311.05 477.72C316.75 472.02 324.63 468.49 333.33 468.49C350.73 468.49 364.83 482.59 364.83 499.99H385.16C385.16 471.37 361.96 448.17 333.33 448.17Z" fill="white" fill-opacity="0.07"/>
<path d="M31.5 0C31.5 17.4 17.39 31.5 0 31.5V51.83C28.63 51.83 51.83 28.62 51.83 0H31.5Z" fill="white" fill-opacity="0.07"/>
<path d="M36.65 463.35C27.27 453.97 14.31 448.17 0 448.17V468.5C8.7 468.5 16.57 472.03 22.28 477.73L36.65 463.35Z" fill="white" fill-opacity="0.07"/>
<path d="M166.67 114.84C138.05 114.84 114.84 138.04 114.84 166.67C114.84 195.29 138.05 218.5 166.67 218.5C195.3 218.5 218.5 195.29 218.5 166.67C218.5 138.04 195.29 114.84 166.67 114.84ZM166.67 198.17C149.27 198.17 135.17 184.07 135.17 166.67C135.17 149.27 149.27 135.17 166.67 135.17C184.07 135.17 198.17 149.27 198.17 166.67C198.17 184.07 184.06 198.17 166.67 198.17Z" fill="white" fill-opacity="0.07"/>
<path d="M333.33 385.16C361.96 385.16 385.16 361.95 385.16 333.33C385.16 304.7 361.96 281.5 333.33 281.5C304.71 281.5 281.5 304.7 281.5 333.33C281.5 361.96 304.71 385.16 333.33 385.16ZM333.33 301.83C350.73 301.83 364.83 315.93 364.83 333.33C364.83 350.73 350.72 364.83 333.33 364.83C315.93 364.83 301.83 350.73 301.83 333.33C301.83 315.93 315.93 301.83 333.33 301.83Z" fill="white" fill-opacity="0.07"/>
<path d="M0 114.84V135.17C17.4 135.17 31.5 149.27 31.5 166.67C31.5 184.07 17.4 198.17 0 198.17V218.5C28.62 218.5 51.83 195.29 51.83 166.67C51.83 138.04 28.63 114.84 0 114.84Z" fill="white" fill-opacity="0.07"/>
<path d="M203.32 369.98C212.7 360.6 218.5 347.64 218.5 333.33C218.5 304.71 195.29 281.5 166.67 281.5C138.04 281.5 114.84 304.7 114.84 333.33C114.84 347.64 120.64 360.6 130.02 369.98L144.39 355.61C138.69 349.91 135.16 342.03 135.16 333.33C135.16 315.93 149.26 301.83 166.66 301.83C184.06 301.83 198.16 315.93 198.16 333.33C198.16 342.03 194.63 349.91 188.93 355.61L203.32 369.98Z" fill="white" fill-opacity="0.07"/>
</svg>
