<svg width="86" height="30" viewBox="0 0 86 30" fill="none" xmlns="http://www.w3.org/2000/svg">
<g clip-path="url(#clip0_765_2730)">
<path d="M48.375 18.1875L55.25 29.5H49.1875L42.8125 19.1875H35.875V29.4375H30.5V14.0625H43.9375C45.125 14.0625 46.1875 13.75 47.0625 12.875C47.875 12.0625 48.3125 11.125 48.3125 9.875C48.3125 8.66667 47.8958 7.64583 47.0625 6.8125C46.1875 6.0625 45.25 5.625 43.9375 5.625H30.5V0.6875H43.875C46.6875 0.6875 49.0625 1.5 51 3.25C52.9375 5.0625 53.875 7.3125 53.875 9.9375C53.875 11.8125 53.375 13.5625 52.25 15.0625C51.3125 16.5 50.0625 17.5 48.375 18.1875V18.1875ZM18.625 14.0625H24V29.5H18.625V24.25H0.25V19.5625L13.75 0.6875H20L6.6875 19.3125H18.625V14.0625ZM85.75 7.125L81.25 10.4375L81 10C80.125 8.5 79.0625 7.375 77.5625 6.5625C76.125 5.6875 74.5 5.25 72.8125 5.25C70.0625 5.25 67.75 6.1875 65.9375 8.0625C64.125 9.9375 63.1875 12.25 63.1875 15.0625C63.1875 17.8125 64.125 20.1875 65.9375 22.0625C67.75 23.9375 70.0625 24.8125 72.8125 24.8125H73.25V30H72.8125C68.5208 30 64.9167 28.5625 62 25.6875C59.0625 22.875 57.625 19.25 57.625 15.0625C57.625 10.8542 59.0833 7.3125 62 4.4375C64.8125 1.5625 68.5 0.125 72.8125 0.125C75.6875 0.125 78.375 0.8125 80.75 2.25C82.75 3.4375 84.375 4.9375 85.5625 6.8125L85.75 7.125Z" fill="white"/>
</g>
<defs>
<clipPath id="clip0_765_2730">
<rect width="85.625" height="30" fill="white" transform="translate(0.1875)"/>
</clipPath>
</defs>
</svg>
