<svg width="140" height="33" viewBox="0 0 140 33" fill="none" xmlns="http://www.w3.org/2000/svg">
<g clip-path="url(#clip0_765_2762)">
<path d="M16.3161 20.7429H8.36073L6.35716 25.1036H1.05359L12.25 2.12143H16.7286L22.4447 25.1036H17.4357L16.3161 20.7429ZM15.4322 16.6768L13.7232 8.60357L10.1286 16.6768H15.4322ZM24.9197 9.72321H29.5161L29.1036 12.0214C29.4572 11.1964 30.1054 10.4893 30.8714 9.95893C31.6375 9.54643 32.4625 9.36964 33.2875 9.36964C33.9161 9.36964 34.5447 9.44821 35.1732 9.60536L34.2304 14.2018C33.6411 13.8482 32.9339 13.6714 32.2268 13.6714C31.4018 13.6714 30.5179 14.025 29.9286 14.6143C29.1036 15.4393 28.75 16.9125 28.5143 18.5625L27.7482 25.1036H23.2107L24.9197 9.72321ZM46.0161 14.6732C45.1911 13.8482 44.0714 13.3768 42.8339 13.3768C41.8322 13.3768 40.8304 13.7893 40.1232 14.5554C39.4161 15.4393 39.0625 16.5 39.0625 17.6196C39.0036 18.6214 39.3572 19.5643 40.0643 20.3304C40.7125 20.9786 41.5964 21.3911 42.5393 21.3321C43.6589 21.3321 44.6607 20.8607 45.4268 20.0946L44.9554 24.6321C43.7768 25.2804 42.4804 25.575 41.1839 25.5161C39.2982 25.5161 37.7072 25.1036 36.2339 23.3946C35.1143 22.0393 34.3482 20.2125 34.3482 17.8554C34.3482 15.3804 35.1143 13.2 36.5875 11.6089C37.7661 10.2536 39.6518 9.13393 42.4214 9.13393C43.8947 9.13393 45.3089 9.4875 46.6054 10.1357L46.0161 14.6732ZM54.2661 -0.0589294L52.9107 11.3732C53.4214 10.8232 54.0107 10.3518 54.6786 9.95893C55.6804 9.36964 56.5054 9.31071 57.5661 9.31071C58.6857 9.31071 60.1 9.4875 61.1607 10.6071C62.2214 11.7268 62.3982 13.3179 62.3982 14.2607C62.3589 15.2429 62.2804 16.225 62.1625 17.2071L61.2786 25.0446H56.7411L57.5072 18.4446C57.5857 17.6196 57.6447 16.775 57.6839 15.9107C57.6839 15.2625 57.5072 14.6143 57.0947 14.0839C56.6822 13.6714 56.0929 13.3768 55.5036 13.4357C54.6786 13.3768 53.9125 13.6714 53.3232 14.2607C52.4982 15.1446 52.3214 16.6768 52.2625 17.5018L51.3786 25.0446H46.8411L49.6697 -0.0589294H54.2661ZM68.2322 18.3268C68.2322 19.1518 68.4089 19.9768 68.8214 20.6839C69.2929 21.3911 70.1179 21.8036 71.0018 21.7446C71.65 21.7446 72.2982 21.6268 72.8286 21.2732C73.2411 20.9196 73.5947 20.4482 73.7714 19.9179L78.4268 20.3304C77.8964 21.8036 77.0125 23.1 75.8339 24.1607C74.1839 25.4571 72.2982 25.575 70.9429 25.575C69.2339 25.575 67.1125 25.3393 65.4625 23.5125C64.0482 22.0393 63.6357 20.2125 63.6357 18.15C63.6357 14.7321 64.9322 12.5518 66.1107 11.3143C67.8197 9.54643 69.9411 9.19286 71.7089 9.19286C74.125 9.19286 75.9518 10.0179 77.0125 11.1375C78.9572 13.2 79.0161 16.5 78.8393 18.3268H68.2322ZM74.4197 15.3214C74.3607 14.5554 74.0072 13.8482 73.4768 13.3179C72.9464 12.9054 72.2982 12.6696 71.5911 12.6696C70.7661 12.6696 70 13.0232 69.4697 13.6125C69.0572 14.0839 68.7625 14.6732 68.6447 15.3214H74.4197ZM85.7339 13.7304L84.4375 25.0446H79.8411L81.1964 13.7304H79.5464L79.9589 9.72321H81.6089L82.1982 4.77321H86.7357L86.2054 9.72321H88.975L88.5625 13.7304H85.7339ZM94.2786 23.1L88.7982 9.72321H93.9839L97.1661 18.15L101.939 9.72321H107.302L93.5714 33H88.4447L94.2786 23.1ZM109.954 32.9411H105.416L108.009 9.66428H112.605L112.37 11.4911C112.841 10.8429 113.43 10.3125 114.138 9.9C115.021 9.36964 116.023 9.13393 117.084 9.19286C119.264 9.19286 120.561 10.0768 121.327 10.8429C122.505 12.0804 123.213 14.2607 123.213 16.6179C123.213 19.5643 122.27 21.9804 120.855 23.5125C119.618 24.8679 117.85 25.6339 116.023 25.575C114.963 25.6339 113.902 25.3982 112.959 24.9268C112.252 24.5143 111.604 23.8661 111.132 23.1589L109.954 32.9411ZM112.605 14.6143C111.839 15.4393 111.427 16.5589 111.427 17.7375C111.427 18.6214 111.721 19.5054 112.311 20.2125C112.9 20.9196 113.784 21.3321 114.727 21.3321C115.67 21.2732 116.554 20.9196 117.261 20.2125C118.027 19.3286 118.498 18.15 118.498 16.9125C118.498 15.9696 118.145 15.0857 117.555 14.3196C116.907 13.7893 116.082 13.4357 115.257 13.4357C114.255 13.4357 113.254 13.8482 112.605 14.6143ZM128.752 18.3268C128.693 19.1518 128.87 19.9768 129.282 20.625C129.754 21.3911 130.638 21.8036 131.463 21.7446C132.111 21.7446 132.759 21.6268 133.289 21.2732C133.761 20.9196 134.055 20.4482 134.291 19.9179L138.888 20.3304C138.357 21.8036 137.473 23.1 136.295 24.1018C134.704 25.4571 132.759 25.575 131.463 25.575C129.695 25.575 127.632 25.3393 125.923 23.5125C124.568 22.0393 124.155 20.2125 124.155 18.15C124.155 14.7321 125.393 12.4929 126.571 11.3143C128.28 9.54643 130.461 9.19286 132.229 9.19286C134.645 9.19286 136.471 10.0179 137.532 11.1375C139.418 13.2 139.477 16.5 139.3 18.3268H128.752ZM134.939 15.3214C134.88 14.5554 134.586 13.8482 134.055 13.3179C133.525 12.9054 132.818 12.6696 132.17 12.6696C131.345 12.6696 130.52 13.0232 129.989 13.6125C129.577 14.0839 129.282 14.6732 129.164 15.3214H134.939Z" fill="white"/>
</g>
<defs>
<clipPath id="clip0_765_2762">
<rect width="139.071" height="33" fill="white" transform="translate(0.464355)"/>
</clipPath>
</defs>
</svg>
