<svg width="158" height="29" viewBox="0 0 158 29" fill="none" xmlns="http://www.w3.org/2000/svg">
<g clip-path="url(#clip0_760_2656)">
<path d="M32.1041 8.31707C26.4099 8.31707 21.9607 12.6397 21.9607 18.4263C21.9607 24.213 26.2975 28.4986 32.1041 28.4986C37.9107 28.4986 42.3229 24.139 42.3229 18.3893C42.3229 12.6766 37.9861 8.31707 32.1041 8.31707ZM32.1425 24.3283C28.8999 24.3283 26.5237 21.8098 26.5237 18.4277C26.5237 15.0072 28.8615 12.4903 32.1041 12.4903C35.3851 12.4903 37.7599 15.0456 37.7599 18.4277C37.7599 21.8098 35.3851 24.3283 32.1425 24.3283ZM43.5665 12.715H46.3949V28.1244H50.9195V8.69271H43.5665V12.715ZM10.5737 12.4888C12.9499 12.4888 14.8351 13.9543 15.5508 16.1341H20.3401C19.4722 11.4743 15.6262 8.31707 10.6121 8.31707C4.91795 8.31707 0.46875 12.6397 0.46875 18.4277C0.46875 24.2158 4.80556 28.5 10.6121 28.5C15.5138 28.5 19.4352 25.3427 20.3031 20.6445H15.5508C14.8721 22.8243 12.9869 24.3283 10.6107 24.3283C7.32967 24.3283 5.03034 21.8098 5.03034 18.4277C5.03179 15.0072 7.2941 12.4888 10.5737 12.4888ZM129.537 16.5482L126.219 16.0601C124.636 15.8353 123.504 15.3089 123.504 14.0682C123.504 12.715 124.976 12.0392 126.973 12.0392C129.16 12.0392 130.556 12.9783 130.857 14.5192H135.231C134.741 10.6107 131.724 8.31848 127.087 8.31848C122.298 8.31848 119.131 10.7615 119.131 14.219C119.131 17.5257 121.205 19.4437 125.389 20.0441L128.707 20.5321C130.33 20.7569 131.234 21.3972 131.234 22.5995C131.234 24.1404 129.651 24.7793 127.464 24.7793C124.786 24.7793 123.278 23.6894 123.052 22.0361H118.603C119.018 25.8322 121.996 28.5 127.426 28.5C132.366 28.5 135.645 26.2448 135.645 22.3732C135.645 18.9158 133.271 17.1116 129.537 16.5482ZM48.6572 0.687814C46.9982 0.687814 45.7535 1.89011 45.7535 3.54345C45.7535 5.19678 46.9969 6.39907 48.6572 6.39907C50.3162 6.39907 51.5613 5.19678 51.5613 3.54345C51.5613 1.89011 50.3162 0.687814 48.6572 0.687814ZM115.058 15.3459C115.058 11.1371 112.495 8.31848 107.065 8.31848C101.937 8.31848 99.0712 10.9123 98.5051 14.8962H102.993C103.219 13.3553 104.425 12.0776 106.99 12.0776C109.29 12.0776 110.421 13.0921 110.421 14.3328C110.421 15.9492 108.347 16.3618 105.783 16.625C102.314 17.0006 98.0155 18.2029 98.0155 22.7133C98.0155 26.2092 100.618 28.463 104.766 28.463C108.008 28.463 110.044 27.1099 111.063 24.9671C111.214 26.8837 112.647 28.1244 114.646 28.1244H117.285V24.1034H115.06V15.3459H115.058ZM110.609 20.2319C110.609 22.8257 108.347 24.7423 105.593 24.7423C103.896 24.7423 102.464 24.028 102.464 22.5255C102.464 20.6089 104.764 20.0825 106.876 19.8577C108.912 19.6699 110.043 19.2188 110.609 18.3538V20.2319ZM86.5902 8.31707C84.0632 8.31707 81.9518 9.36996 80.4438 11.1357V0.5H75.9191V28.1244H80.3681V25.569C81.8761 27.4101 84.0264 28.5 86.5902 28.5C92.0196 28.5 96.1303 24.2158 96.1303 18.4277C96.1303 12.6397 91.9443 8.31707 86.5902 8.31707ZM85.9116 24.3283C82.6689 24.3283 80.2928 21.8098 80.2928 18.4277C80.2928 15.0456 82.7061 12.4903 85.9484 12.4903C89.2296 12.4903 91.5287 15.0087 91.5287 18.4277C91.5287 21.8098 89.1539 24.3283 85.9116 24.3283ZM65.0967 8.31707C62.1558 8.31707 60.2321 9.51937 59.1012 11.2111V8.69271H54.6133V28.123H59.1379V17.5627C59.1379 14.5932 61.0231 12.4888 63.8135 12.4888C66.4158 12.4888 68.0363 14.33 68.0363 16.9992V28.1244H72.5609V16.662C72.5626 11.7746 70.0369 8.31707 65.0967 8.31707ZM157.214 17.7889C157.214 12.227 153.142 8.31848 147.674 8.31848C141.867 8.31848 137.606 12.6781 137.606 18.4277C137.606 24.4791 142.169 28.5 147.75 28.5C152.463 28.5 156.158 25.7184 157.1 21.7728H152.386C151.708 23.5016 150.049 24.4791 147.824 24.4791C144.919 24.4791 142.732 22.6749 142.243 19.5176H157.213V17.7889H157.214ZM142.508 16.285C143.225 13.5787 145.261 12.264 147.599 12.264C150.162 12.264 152.123 13.7295 152.576 16.285H142.508Z" fill="white"/>
</g>
<defs>
<clipPath id="clip0_760_2656">
<rect width="157.062" height="28" fill="white" transform="translate(0.46875 0.5)"/>
</clipPath>
</defs>
</svg>
