<svg width="85" height="35" viewBox="0 0 85 35" fill="none" xmlns="http://www.w3.org/2000/svg">
<g clip-path="url(#clip0_763_2717)">
<path d="M1.03223 1.10715H13.8429V4.50715H5.64651V15.4357H12.3251V18.7143H5.64651V30.8571H13.9644V34.1357H1.03223V1.10715ZM19.0644 31.7679C17.7287 29.8655 17.0608 27.0524 17.0608 23.3286V12.2786C17.0608 9.72857 17.3239 7.62381 17.8501 5.96429C18.3763 4.30476 19.287 3.05 20.5822 2.2C21.8775 1.30953 23.6584 0.864288 25.9251 0.864288C28.9608 0.864288 31.1667 1.63334 32.5429 3.17143C33.8787 4.70953 34.5465 7.1381 34.5465 10.4571V11.7321H30.2358V10.7C30.2358 9.12143 30.1346 7.90715 29.9322 7.05715C29.7298 6.16667 29.3251 5.51905 28.7179 5.11429C28.1108 4.66905 27.2001 4.44643 25.9858 4.44643C24.731 4.44643 23.7798 4.72976 23.1322 5.29643C22.5251 5.90357 22.1203 6.69286 21.9179 7.66429C21.756 8.63572 21.6751 9.93096 21.6751 11.55V23.8143C21.6751 26.3643 21.9787 28.1857 22.5858 29.2786C23.1929 30.3714 24.3667 30.9179 26.1072 30.9179C27.8477 30.9179 29.0417 30.331 29.6894 29.1571C30.2965 27.9429 30.6203 26.0202 30.6608 23.3893V21.0821H26.4108V17.8036H34.7894V34.1964H31.8751L31.4501 30.3714C30.3977 33.2048 28.4346 34.6214 25.5608 34.6214C22.5656 34.6214 20.4001 33.6702 19.0644 31.7679V31.7679ZM39.7679 1.10715H44.3215V34.1964H39.7679V1.10715ZM49.6644 1.10715H56.3429C59.7025 1.10715 62.1513 1.79524 63.6894 3.17143C65.2679 4.54762 66.0572 6.79405 66.0572 9.91072C66.0572 14.1202 64.7013 16.6905 61.9894 17.6214L66.6644 34.1964H62.2322L57.9215 18.6536H54.2787V34.1964H49.6644V1.10715ZM56.0394 15.3143C58.0227 15.3143 59.4596 14.9298 60.3501 14.1607C61.2001 13.3512 61.6251 11.9143 61.6251 9.85C61.6251 8.51429 61.4632 7.44167 61.1394 6.63215C60.856 5.8631 60.3298 5.29643 59.5608 4.93215C58.7917 4.56786 57.7191 4.38572 56.3429 4.38572H54.2787V15.3143H56.0394ZM70.9144 1.10715H75.5287V30.8571H83.9679V34.1357H70.9144V1.10715Z" fill="white"/>
</g>
<defs>
<clipPath id="clip0_763_2717">
<rect width="83.7857" height="34" fill="white" transform="translate(0.607178 0.5)"/>
</clipPath>
</defs>
</svg>
