<svg width="145" height="41" viewBox="0 0 145 41" fill="none" xmlns="http://www.w3.org/2000/svg">
<path d="M5.26797 13.2921C4.83761 12.3507 4.0026 10.551 3.21174 8.84662C4.14418 10.8411 5.13895 12.9722 5.47635 13.7083L5.61003 14H5.59157L5.26797 13.2921ZM40.725 1V1.05882H40.2838H28.7544H27.6662V1H28.0485H40.725ZM14.4309 1H14.4803L14.4897 1.00933V2.14706V4.91177V5.17374L14.4309 5.14786V4.5V1ZM2.86731 5.75001C2.61701 5.21505 2.42109 4.79632 2.31323 4.56547V3.34542L12.0679 13H6.2511C5.59472 11.5792 3.82935 7.80614 2.86731 5.75001ZM2.31323 26V16.3454L12.0679 26H2.31323ZM2.31323 39.0588V29.4042L12.0679 39.0588H2.31323ZM13.4897 28V37.6546L3.73508 28H13.4897ZM13.4897 15V24.6546L3.73508 15H5.34264H13.4897ZM13.4897 5.82531V11.5958L3.73508 1.94118H4.93808C6.0646 2.46268 11.6478 5.00491 13.4897 5.82531ZM15.4897 4.91177V3.34542L25.2443 13H15.4897V4.91177ZM26.6662 39H15.4897V27.9412H26.6662V39ZM26.6662 26H15.4897V14.9412H26.6662V26ZM26.6662 11.6545L16.8527 1.94118H26.6662V11.6545ZM28.6073 13.0588V3.40424L38.362 13.0588H28.6073ZM28.6073 39.1176V34.229L33.5397 39.1176H28.6073ZM39.7838 39.1176H36.3134L28.6073 31.4683V28.0588H32.0789L39.7838 35.6505V39.1176ZM39.7838 32.955L34.8593 28.1176H39.7838V32.955ZM39.7838 26.1176H28.6073V15.0588H39.7838V26.1176ZM39.7838 11.7177L29.9748 2.05882H39.7838V11.7177Z" fill="black" stroke="white"/>
<mask id="path-2-inside-1_763_2722" fill="white">
<path d="M53.5779 33V32.5294C53.8997 32.4118 54.3823 32.2941 55.0257 32.1765C55.7094 32.0588 56.1719 31.9608 56.4132 31.8824C56.6545 31.7647 56.8556 31.6275 57.0165 31.4706C57.1371 30.8824 57.1975 29.8824 57.1975 28.4706V13.8235L57.2578 11.4118C57.2578 10.902 57.1572 10.549 56.9562 10.3529C56.7551 10.1569 56.2323 9.9804 55.3877 9.82353C54.5029 9.66667 54.0002 9.54902 53.8796 9.47059C53.7187 9.35295 53.6383 9.2353 53.6383 9.11765C53.6383 9.07844 53.6584 9 53.6986 8.88236C53.8595 8.80393 54.0203 8.76471 54.1812 8.76471C54.3823 8.76471 54.7844 8.76471 55.3877 8.76471H55.9306C56.1317 8.76471 56.6545 8.76471 57.4991 8.76471H60.1534L65.7637 8.64706L71.6756 8.41177H72.2185H73.063C73.2641 8.41177 73.4652 8.47059 73.6663 8.58824C73.7467 8.78432 73.787 8.94118 73.787 9.05883V9.76471L73.9679 13.1177C73.9679 13.2745 73.9478 13.451 73.9076 13.6471C73.7065 13.7647 73.5255 13.8235 73.3647 13.8235C73.244 13.8235 73.1435 13.7843 73.063 13.7059C72.9826 13.549 72.9223 13.2745 72.8821 12.8824C72.8419 12.3726 72.6408 11.6863 72.2788 10.8235C72.118 10.4314 71.8364 10.1569 71.4343 10C70.6701 9.68628 69.3631 9.52942 67.5131 9.52942C66.6686 9.52942 65.8642 9.56863 65.1001 9.64706C64.336 9.68628 63.8735 9.70589 63.7126 9.70589L62.2045 9.64706C61.6012 9.64706 61.0985 9.7451 60.6963 9.94118C60.4148 10.0588 60.2741 10.3333 60.2741 10.7647V11C60.3143 11.6667 60.3344 12.3726 60.3344 13.1177L60.2741 18.2353C60.2741 18.7451 60.3143 19.2353 60.3947 19.7059H60.9376L62.0235 19.6471H65.7637C67.2517 19.6471 68.2772 19.549 68.8403 19.3529C69.2424 19.2353 69.5441 19.0392 69.7451 18.7647C69.7854 18.6471 69.9462 18.1373 70.2277 17.2353L70.4691 15.7059C70.6299 15.6275 70.7506 15.5882 70.831 15.5882C70.8712 15.5882 70.9718 15.6275 71.1326 15.7059C71.1728 15.9804 71.193 16.4118 71.193 17L71.4343 23.8824C71.2332 24 71.0723 24.0588 70.9517 24.0588L70.7104 24C70.5093 22.7451 70.1875 21.7647 69.7451 21.0588C69.5843 20.8235 69.4033 20.6863 69.2022 20.6471C68.8805 20.5686 67.3522 20.5294 64.6175 20.5294C63.7327 20.5294 63.1295 20.5294 62.8077 20.5294C62.0436 20.5686 61.5811 20.5882 61.4202 20.5882H61.2393C60.8371 20.5882 60.5556 20.6275 60.3947 20.7059C60.3545 20.8627 60.3344 20.9804 60.3344 21.0588V22.3529C60.3344 22.5098 60.3344 23.1373 60.3344 24.2353L60.2741 30.4706C60.2741 30.6275 60.3344 30.8431 60.455 31.1177C60.7366 31.3137 61.2393 31.451 61.9632 31.5294C62.6871 31.6079 63.3507 31.7647 63.9539 32C64.3159 32.1961 64.4968 32.3922 64.4968 32.5882C64.4968 32.6667 64.4767 32.7451 64.4365 32.8235C64.3963 32.902 64.3159 32.9608 64.1952 33C63.1094 32.7647 61.6414 32.6471 59.7915 32.6471C58.786 32.6471 57.7203 32.7451 56.5942 32.9412C55.8301 33.0588 54.9654 33.1177 54.0002 33.1177L53.5779 33ZM74.6918 25.1177C74.6918 24.2941 74.8728 23.3922 75.2348 22.4118C75.6369 21.4314 76.2 20.5686 76.9239 19.8235C77.688 19.0392 78.4923 18.451 79.3369 18.0588C80.5032 17.549 81.951 17.2941 83.6803 17.2941C86.0933 17.2941 88.1042 18.098 89.7129 19.7059C91.3617 21.3137 92.1862 23.2353 92.1862 25.4706C92.1862 27.4706 91.3215 29.2549 89.5922 30.8235C87.9031 32.3922 85.7515 33.1765 83.1374 33.1765C81.5287 33.1765 80.0206 32.7843 78.613 32C77.5271 31.3726 76.6021 30.451 75.838 29.2353C75.0739 28.0588 74.6918 26.6863 74.6918 25.1177ZM83.3184 32.4706C84.2836 32.4706 85.2287 32.2157 86.1537 31.7059C87.0786 31.1961 87.8227 30.3726 88.3857 29.2353C88.9085 28.098 89.1699 26.7843 89.1699 25.2941C89.1699 24.3137 88.9688 23.1765 88.5667 21.8824C88.1243 20.5882 87.4607 19.6275 86.5759 19C85.7314 18.3333 84.7058 18 83.4993 18C82.6548 18 81.7901 18.1961 80.9054 18.5882C80.0206 18.9804 79.2565 19.7255 78.613 20.8235C78.0097 21.9216 77.7081 23.4902 77.7081 25.5294C77.7081 27.8039 78.251 29.5294 79.3369 30.7059C80.3825 31.8824 81.7097 32.4706 83.3184 32.4706ZM94.5992 9.41177V9C94.9612 8.88236 95.3633 8.76471 95.8057 8.64706C96.4894 8.45099 97.4546 8.13726 98.7014 7.70589H99.6666C99.6666 8.33334 99.6666 8.68628 99.6666 8.76471C99.6666 19.0392 99.6263 25.1765 99.5459 27.1765C99.5057 28.3529 99.4856 28.9608 99.4856 29C99.4856 30.4118 99.5459 31.1961 99.6666 31.3529C99.8274 31.5882 100.31 31.7451 101.114 31.8235C101.919 31.9412 102.381 32.0392 102.502 32.1177C102.622 32.1569 102.683 32.2353 102.683 32.3529C102.683 32.5098 102.643 32.6078 102.562 32.6471C102.522 32.7255 102.421 32.7647 102.261 32.7647C102.18 32.7647 101.496 32.7451 100.209 32.7059L97.6758 32.5882L94.4182 32.7647C94.1769 32.7647 94.0161 32.7255 93.9356 32.6471C93.8552 32.5686 93.815 32.4706 93.815 32.3529C93.815 32.2353 93.8552 32.1373 93.9356 32.0588C94.0161 32.0196 94.4786 31.9216 95.3231 31.7647C96.1677 31.6471 96.6503 31.549 96.7709 31.4706C96.8916 31.3529 96.972 31.1373 97.0122 30.8235C97.0927 30.3529 97.1329 29.0784 97.1329 27L97.0726 22.7059L97.1329 18.2353V13.7647L97.1932 11.5294C97.1932 11.098 97.1128 10.7843 96.9519 10.5882C96.8313 10.3922 96.5296 10.1961 96.047 10C95.3633 9.72549 94.8807 9.52942 94.5992 9.41177ZM103.889 19.3529V18.8235C104.734 18.5882 105.196 18.451 105.277 18.4118C105.719 18.1765 106.202 17.8627 106.725 17.4706C107.247 17.0392 107.67 16.5686 107.991 16.0588C108.152 16.0588 108.273 16.0588 108.353 16.0588H108.595C108.675 16.6471 108.715 17.0784 108.715 17.3529C108.715 17.4314 108.695 17.7255 108.655 18.2353V19.1765V24.5882L108.595 30.3529C108.595 30.8235 108.675 31.1373 108.836 31.2941C108.997 31.4902 109.5 31.7059 110.344 31.9412C110.867 32.0588 111.249 32.1765 111.49 32.2941C111.531 32.3726 111.551 32.451 111.551 32.5294C111.551 32.6079 111.531 32.6863 111.49 32.7647C110.968 32.7647 110.324 32.7451 109.56 32.7059C108.474 32.6275 107.75 32.5882 107.388 32.5882C107.227 32.5882 106.182 32.6078 104.251 32.6471C103.889 32.6471 103.527 32.6863 103.165 32.7647C103.085 32.7647 102.984 32.7451 102.864 32.7059C102.783 32.6275 102.743 32.549 102.743 32.4706C102.743 32.3137 102.864 32.1765 103.105 32.0588C103.145 32.0196 103.809 31.8824 105.096 31.6471C105.498 31.5686 105.78 31.4314 105.94 31.2353C106.141 31 106.242 30.5882 106.242 30C106.282 29.0196 106.302 26.3726 106.302 22.0588C106.302 21.1961 106.262 20.6667 106.182 20.4706C106.101 20.3137 105.92 20.1373 105.639 19.9412C105.357 19.7451 104.774 19.549 103.889 19.3529ZM105.518 9.58824C105.518 9.19608 105.679 8.84314 106.001 8.52942C106.322 8.21569 106.725 8.05883 107.207 8.05883C107.69 8.05883 108.112 8.2353 108.474 8.58824C108.836 8.94118 109.017 9.31373 109.017 9.70589C109.017 10.0588 108.836 10.4118 108.474 10.7647C108.112 11.1177 107.69 11.2941 107.207 11.2941C106.725 11.2941 106.322 11.1373 106.001 10.8235C105.679 10.5098 105.518 10.098 105.518 9.58824ZM112.516 17.9412H113.964L114.627 18L115.11 17.9412C116.437 17.9412 117.261 17.9608 117.583 18V18.3529C117.583 20.1177 117.563 21.8235 117.523 23.4706C117.483 24.451 117.463 25 117.463 25.1177C117.463 27.3529 117.543 28.7451 117.704 29.2941C117.865 29.8431 118.207 30.2745 118.729 30.5882C119.292 30.9412 119.956 31.1177 120.72 31.1177C121.685 31.1177 122.59 30.9216 123.435 30.5294C124.32 30.1373 125.064 29.6667 125.667 29.1177C125.747 28.6471 125.787 28.1177 125.787 27.5294C125.787 25.6863 125.808 24.4314 125.848 23.7647C125.848 23.3726 125.848 23.0392 125.848 22.7647C125.848 20.7255 125.747 19.5686 125.546 19.2941C125.345 19.0588 124.561 18.8627 123.193 18.7059C122.711 18.6667 122.369 18.6275 122.168 18.5882C122.088 18.4314 122.047 18.3137 122.047 18.2353L122.108 18C122.429 17.9608 122.751 17.9412 123.073 17.9412L126.149 18C127.275 17.9608 127.859 17.9412 127.899 17.9412C128.06 17.9412 128.2 17.9412 128.321 17.9412L128.381 19.3529C128.261 21.2353 128.2 23.5882 128.2 26.4118L128.14 27.9412L128.261 30.4706C128.381 30.6667 128.482 30.7843 128.562 30.8235C128.723 30.902 129.045 30.9412 129.528 30.9412H129.709C129.869 30.9412 130.352 30.9804 131.156 31.0588C131.156 31.2157 131.156 31.3333 131.156 31.4118V31.5882C129.427 31.9804 128.019 32.3529 126.934 32.7059C126.491 32.8235 126.129 32.9216 125.848 33C125.767 32.5686 125.727 32.2941 125.727 32.1765V30.6471C125.727 30.6079 125.727 30.451 125.727 30.1765C125.566 30.2941 125.365 30.4314 125.124 30.5882C124.118 31.3333 123.033 31.9804 121.866 32.5294C121.102 32.8824 120.378 33.0588 119.695 33.0588C118.327 33.0588 117.201 32.5686 116.316 31.5882C115.472 30.6078 115.05 28.9412 115.05 26.5882C115.05 26.4706 115.05 26.2549 115.05 25.9412C115.09 25.3137 115.11 24.8824 115.11 24.6471C115.11 24.5686 115.11 24.2941 115.11 23.8235C115.11 23.6275 115.11 23.451 115.11 23.2941C115.11 23.1765 115.11 22.9216 115.11 22.5294C115.11 22.1373 115.11 21.8627 115.11 21.7059C115.11 21.5098 115.11 21.3137 115.11 21.1177L115.05 20.1177L115.11 19.6471C115.11 19.4118 115.009 19.2157 114.808 19.0588C113.964 18.8627 113.421 18.7451 113.179 18.7059C112.938 18.6667 112.717 18.6078 112.516 18.5294V17.9412ZM134.173 27.9412C134.655 29.1177 135.017 29.8824 135.259 30.2353C135.741 30.9412 136.344 31.4902 137.068 31.8824C137.752 32.3137 138.496 32.5294 139.3 32.5294C140.024 32.5294 140.748 32.2157 141.472 31.5882C141.995 31.1177 142.256 30.5686 142.256 29.9412C142.256 29.1569 141.955 28.4118 141.351 27.7059C140.748 27.0392 139.582 26.3922 137.853 25.7647C136.163 25.1373 135.017 24.4706 134.414 23.7647C133.851 23.0588 133.569 22.2549 133.569 21.3529C133.569 20.5294 133.811 19.7843 134.293 19.1177C134.776 18.4902 135.44 18 136.284 17.6471C137.129 17.3333 137.893 17.1765 138.576 17.1765C139.501 17.1765 140.326 17.2353 141.05 17.3529C141.814 17.5098 142.457 17.7255 142.98 18C143.101 18.6275 143.181 19.5686 143.221 20.8235L143.282 21.4118C143.121 21.4118 142.98 21.4118 142.86 21.4118H142.558C142.156 20.3922 141.573 19.5686 140.808 18.9412C140.004 18.3529 139.2 18.0588 138.395 18.0588C137.631 18.0588 137.008 18.2941 136.525 18.7647C136.043 19.1961 135.801 19.7843 135.801 20.5294C135.801 21.0784 136.003 21.5882 136.405 22.0588C136.807 22.4902 137.712 22.9804 139.119 23.5294C140.567 24.0784 141.613 24.6078 142.256 25.1177C142.9 25.5882 143.382 26.1765 143.704 26.8824C144.026 27.549 144.187 28.1961 144.187 28.8235C144.187 29.6863 143.885 30.4902 143.282 31.2353C142.719 32.0196 141.975 32.549 141.05 32.8235C140.165 33.1373 139.381 33.2941 138.697 33.2941C137.048 33.2941 135.52 33 134.112 32.4118C133.992 32.3333 133.931 32.1569 133.931 31.8824C133.931 31.7647 133.911 31.5686 133.871 31.2941C133.67 29.6078 133.569 28.6079 133.569 28.2941C133.569 28.1373 133.61 28.0392 133.69 28C133.73 27.9608 133.891 27.9412 134.173 27.9412Z"/>
</mask>
<path d="M53.5779 33V32.5294C53.8997 32.4118 54.3823 32.2941 55.0257 32.1765C55.7094 32.0588 56.1719 31.9608 56.4132 31.8824C56.6545 31.7647 56.8556 31.6275 57.0165 31.4706C57.1371 30.8824 57.1975 29.8824 57.1975 28.4706V13.8235L57.2578 11.4118C57.2578 10.902 57.1572 10.549 56.9562 10.3529C56.7551 10.1569 56.2323 9.9804 55.3877 9.82353C54.5029 9.66667 54.0002 9.54902 53.8796 9.47059C53.7187 9.35295 53.6383 9.2353 53.6383 9.11765C53.6383 9.07844 53.6584 9 53.6986 8.88236C53.8595 8.80393 54.0203 8.76471 54.1812 8.76471C54.3823 8.76471 54.7844 8.76471 55.3877 8.76471H55.9306C56.1317 8.76471 56.6545 8.76471 57.4991 8.76471H60.1534L65.7637 8.64706L71.6756 8.41177H72.2185H73.063C73.2641 8.41177 73.4652 8.47059 73.6663 8.58824C73.7467 8.78432 73.787 8.94118 73.787 9.05883V9.76471L73.9679 13.1177C73.9679 13.2745 73.9478 13.451 73.9076 13.6471C73.7065 13.7647 73.5255 13.8235 73.3647 13.8235C73.244 13.8235 73.1435 13.7843 73.063 13.7059C72.9826 13.549 72.9223 13.2745 72.8821 12.8824C72.8419 12.3726 72.6408 11.6863 72.2788 10.8235C72.118 10.4314 71.8364 10.1569 71.4343 10C70.6701 9.68628 69.3631 9.52942 67.5131 9.52942C66.6686 9.52942 65.8642 9.56863 65.1001 9.64706C64.336 9.68628 63.8735 9.70589 63.7126 9.70589L62.2045 9.64706C61.6012 9.64706 61.0985 9.7451 60.6963 9.94118C60.4148 10.0588 60.2741 10.3333 60.2741 10.7647V11C60.3143 11.6667 60.3344 12.3726 60.3344 13.1177L60.2741 18.2353C60.2741 18.7451 60.3143 19.2353 60.3947 19.7059H60.9376L62.0235 19.6471H65.7637C67.2517 19.6471 68.2772 19.549 68.8403 19.3529C69.2424 19.2353 69.5441 19.0392 69.7451 18.7647C69.7854 18.6471 69.9462 18.1373 70.2277 17.2353L70.4691 15.7059C70.6299 15.6275 70.7506 15.5882 70.831 15.5882C70.8712 15.5882 70.9718 15.6275 71.1326 15.7059C71.1728 15.9804 71.193 16.4118 71.193 17L71.4343 23.8824C71.2332 24 71.0723 24.0588 70.9517 24.0588L70.7104 24C70.5093 22.7451 70.1875 21.7647 69.7451 21.0588C69.5843 20.8235 69.4033 20.6863 69.2022 20.6471C68.8805 20.5686 67.3522 20.5294 64.6175 20.5294C63.7327 20.5294 63.1295 20.5294 62.8077 20.5294C62.0436 20.5686 61.5811 20.5882 61.4202 20.5882H61.2393C60.8371 20.5882 60.5556 20.6275 60.3947 20.7059C60.3545 20.8627 60.3344 20.9804 60.3344 21.0588V22.3529C60.3344 22.5098 60.3344 23.1373 60.3344 24.2353L60.2741 30.4706C60.2741 30.6275 60.3344 30.8431 60.455 31.1177C60.7366 31.3137 61.2393 31.451 61.9632 31.5294C62.6871 31.6079 63.3507 31.7647 63.9539 32C64.3159 32.1961 64.4968 32.3922 64.4968 32.5882C64.4968 32.6667 64.4767 32.7451 64.4365 32.8235C64.3963 32.902 64.3159 32.9608 64.1952 33C63.1094 32.7647 61.6414 32.6471 59.7915 32.6471C58.786 32.6471 57.7203 32.7451 56.5942 32.9412C55.8301 33.0588 54.9654 33.1177 54.0002 33.1177L53.5779 33ZM74.6918 25.1177C74.6918 24.2941 74.8728 23.3922 75.2348 22.4118C75.6369 21.4314 76.2 20.5686 76.9239 19.8235C77.688 19.0392 78.4923 18.451 79.3369 18.0588C80.5032 17.549 81.951 17.2941 83.6803 17.2941C86.0933 17.2941 88.1042 18.098 89.7129 19.7059C91.3617 21.3137 92.1862 23.2353 92.1862 25.4706C92.1862 27.4706 91.3215 29.2549 89.5922 30.8235C87.9031 32.3922 85.7515 33.1765 83.1374 33.1765C81.5287 33.1765 80.0206 32.7843 78.613 32C77.5271 31.3726 76.6021 30.451 75.838 29.2353C75.0739 28.0588 74.6918 26.6863 74.6918 25.1177ZM83.3184 32.4706C84.2836 32.4706 85.2287 32.2157 86.1537 31.7059C87.0786 31.1961 87.8227 30.3726 88.3857 29.2353C88.9085 28.098 89.1699 26.7843 89.1699 25.2941C89.1699 24.3137 88.9688 23.1765 88.5667 21.8824C88.1243 20.5882 87.4607 19.6275 86.5759 19C85.7314 18.3333 84.7058 18 83.4993 18C82.6548 18 81.7901 18.1961 80.9054 18.5882C80.0206 18.9804 79.2565 19.7255 78.613 20.8235C78.0097 21.9216 77.7081 23.4902 77.7081 25.5294C77.7081 27.8039 78.251 29.5294 79.3369 30.7059C80.3825 31.8824 81.7097 32.4706 83.3184 32.4706ZM94.5992 9.41177V9C94.9612 8.88236 95.3633 8.76471 95.8057 8.64706C96.4894 8.45099 97.4546 8.13726 98.7014 7.70589H99.6666C99.6666 8.33334 99.6666 8.68628 99.6666 8.76471C99.6666 19.0392 99.6263 25.1765 99.5459 27.1765C99.5057 28.3529 99.4856 28.9608 99.4856 29C99.4856 30.4118 99.5459 31.1961 99.6666 31.3529C99.8274 31.5882 100.31 31.7451 101.114 31.8235C101.919 31.9412 102.381 32.0392 102.502 32.1177C102.622 32.1569 102.683 32.2353 102.683 32.3529C102.683 32.5098 102.643 32.6078 102.562 32.6471C102.522 32.7255 102.421 32.7647 102.261 32.7647C102.18 32.7647 101.496 32.7451 100.209 32.7059L97.6758 32.5882L94.4182 32.7647C94.1769 32.7647 94.0161 32.7255 93.9356 32.6471C93.8552 32.5686 93.815 32.4706 93.815 32.3529C93.815 32.2353 93.8552 32.1373 93.9356 32.0588C94.0161 32.0196 94.4786 31.9216 95.3231 31.7647C96.1677 31.6471 96.6503 31.549 96.7709 31.4706C96.8916 31.3529 96.972 31.1373 97.0122 30.8235C97.0927 30.3529 97.1329 29.0784 97.1329 27L97.0726 22.7059L97.1329 18.2353V13.7647L97.1932 11.5294C97.1932 11.098 97.1128 10.7843 96.9519 10.5882C96.8313 10.3922 96.5296 10.1961 96.047 10C95.3633 9.72549 94.8807 9.52942 94.5992 9.41177ZM103.889 19.3529V18.8235C104.734 18.5882 105.196 18.451 105.277 18.4118C105.719 18.1765 106.202 17.8627 106.725 17.4706C107.247 17.0392 107.67 16.5686 107.991 16.0588C108.152 16.0588 108.273 16.0588 108.353 16.0588H108.595C108.675 16.6471 108.715 17.0784 108.715 17.3529C108.715 17.4314 108.695 17.7255 108.655 18.2353V19.1765V24.5882L108.595 30.3529C108.595 30.8235 108.675 31.1373 108.836 31.2941C108.997 31.4902 109.5 31.7059 110.344 31.9412C110.867 32.0588 111.249 32.1765 111.49 32.2941C111.531 32.3726 111.551 32.451 111.551 32.5294C111.551 32.6079 111.531 32.6863 111.49 32.7647C110.968 32.7647 110.324 32.7451 109.56 32.7059C108.474 32.6275 107.75 32.5882 107.388 32.5882C107.227 32.5882 106.182 32.6078 104.251 32.6471C103.889 32.6471 103.527 32.6863 103.165 32.7647C103.085 32.7647 102.984 32.7451 102.864 32.7059C102.783 32.6275 102.743 32.549 102.743 32.4706C102.743 32.3137 102.864 32.1765 103.105 32.0588C103.145 32.0196 103.809 31.8824 105.096 31.6471C105.498 31.5686 105.78 31.4314 105.94 31.2353C106.141 31 106.242 30.5882 106.242 30C106.282 29.0196 106.302 26.3726 106.302 22.0588C106.302 21.1961 106.262 20.6667 106.182 20.4706C106.101 20.3137 105.92 20.1373 105.639 19.9412C105.357 19.7451 104.774 19.549 103.889 19.3529ZM105.518 9.58824C105.518 9.19608 105.679 8.84314 106.001 8.52942C106.322 8.21569 106.725 8.05883 107.207 8.05883C107.69 8.05883 108.112 8.2353 108.474 8.58824C108.836 8.94118 109.017 9.31373 109.017 9.70589C109.017 10.0588 108.836 10.4118 108.474 10.7647C108.112 11.1177 107.69 11.2941 107.207 11.2941C106.725 11.2941 106.322 11.1373 106.001 10.8235C105.679 10.5098 105.518 10.098 105.518 9.58824ZM112.516 17.9412H113.964L114.627 18L115.11 17.9412C116.437 17.9412 117.261 17.9608 117.583 18V18.3529C117.583 20.1177 117.563 21.8235 117.523 23.4706C117.483 24.451 117.463 25 117.463 25.1177C117.463 27.3529 117.543 28.7451 117.704 29.2941C117.865 29.8431 118.207 30.2745 118.729 30.5882C119.292 30.9412 119.956 31.1177 120.72 31.1177C121.685 31.1177 122.59 30.9216 123.435 30.5294C124.32 30.1373 125.064 29.6667 125.667 29.1177C125.747 28.6471 125.787 28.1177 125.787 27.5294C125.787 25.6863 125.808 24.4314 125.848 23.7647C125.848 23.3726 125.848 23.0392 125.848 22.7647C125.848 20.7255 125.747 19.5686 125.546 19.2941C125.345 19.0588 124.561 18.8627 123.193 18.7059C122.711 18.6667 122.369 18.6275 122.168 18.5882C122.088 18.4314 122.047 18.3137 122.047 18.2353L122.108 18C122.429 17.9608 122.751 17.9412 123.073 17.9412L126.149 18C127.275 17.9608 127.859 17.9412 127.899 17.9412C128.06 17.9412 128.2 17.9412 128.321 17.9412L128.381 19.3529C128.261 21.2353 128.2 23.5882 128.2 26.4118L128.14 27.9412L128.261 30.4706C128.381 30.6667 128.482 30.7843 128.562 30.8235C128.723 30.902 129.045 30.9412 129.528 30.9412H129.709C129.869 30.9412 130.352 30.9804 131.156 31.0588C131.156 31.2157 131.156 31.3333 131.156 31.4118V31.5882C129.427 31.9804 128.019 32.3529 126.934 32.7059C126.491 32.8235 126.129 32.9216 125.848 33C125.767 32.5686 125.727 32.2941 125.727 32.1765V30.6471C125.727 30.6079 125.727 30.451 125.727 30.1765C125.566 30.2941 125.365 30.4314 125.124 30.5882C124.118 31.3333 123.033 31.9804 121.866 32.5294C121.102 32.8824 120.378 33.0588 119.695 33.0588C118.327 33.0588 117.201 32.5686 116.316 31.5882C115.472 30.6078 115.05 28.9412 115.05 26.5882C115.05 26.4706 115.05 26.2549 115.05 25.9412C115.09 25.3137 115.11 24.8824 115.11 24.6471C115.11 24.5686 115.11 24.2941 115.11 23.8235C115.11 23.6275 115.11 23.451 115.11 23.2941C115.11 23.1765 115.11 22.9216 115.11 22.5294C115.11 22.1373 115.11 21.8627 115.11 21.7059C115.11 21.5098 115.11 21.3137 115.11 21.1177L115.05 20.1177L115.11 19.6471C115.11 19.4118 115.009 19.2157 114.808 19.0588C113.964 18.8627 113.421 18.7451 113.179 18.7059C112.938 18.6667 112.717 18.6078 112.516 18.5294V17.9412ZM134.173 27.9412C134.655 29.1177 135.017 29.8824 135.259 30.2353C135.741 30.9412 136.344 31.4902 137.068 31.8824C137.752 32.3137 138.496 32.5294 139.3 32.5294C140.024 32.5294 140.748 32.2157 141.472 31.5882C141.995 31.1177 142.256 30.5686 142.256 29.9412C142.256 29.1569 141.955 28.4118 141.351 27.7059C140.748 27.0392 139.582 26.3922 137.853 25.7647C136.163 25.1373 135.017 24.4706 134.414 23.7647C133.851 23.0588 133.569 22.2549 133.569 21.3529C133.569 20.5294 133.811 19.7843 134.293 19.1177C134.776 18.4902 135.44 18 136.284 17.6471C137.129 17.3333 137.893 17.1765 138.576 17.1765C139.501 17.1765 140.326 17.2353 141.05 17.3529C141.814 17.5098 142.457 17.7255 142.98 18C143.101 18.6275 143.181 19.5686 143.221 20.8235L143.282 21.4118C143.121 21.4118 142.98 21.4118 142.86 21.4118H142.558C142.156 20.3922 141.573 19.5686 140.808 18.9412C140.004 18.3529 139.2 18.0588 138.395 18.0588C137.631 18.0588 137.008 18.2941 136.525 18.7647C136.043 19.1961 135.801 19.7843 135.801 20.5294C135.801 21.0784 136.003 21.5882 136.405 22.0588C136.807 22.4902 137.712 22.9804 139.119 23.5294C140.567 24.0784 141.613 24.6078 142.256 25.1177C142.9 25.5882 143.382 26.1765 143.704 26.8824C144.026 27.549 144.187 28.1961 144.187 28.8235C144.187 29.6863 143.885 30.4902 143.282 31.2353C142.719 32.0196 141.975 32.549 141.05 32.8235C140.165 33.1373 139.381 33.2941 138.697 33.2941C137.048 33.2941 135.52 33 134.112 32.4118C133.992 32.3333 133.931 32.1569 133.931 31.8824C133.931 31.7647 133.911 31.5686 133.871 31.2941C133.67 29.6078 133.569 28.6079 133.569 28.2941C133.569 28.1373 133.61 28.0392 133.69 28C133.73 27.9608 133.891 27.9412 134.173 27.9412Z" fill="white" stroke="white" stroke-width="2" mask="url(#path-2-inside-1_763_2722)"/>
</svg>
