<svg width="173" height="27" viewBox="0 0 173 27" fill="none" xmlns="http://www.w3.org/2000/svg">
<path fill-rule="evenodd" clip-rule="evenodd" d="M0.635376 5.6391V11.7638H5.49061V5.6391H0.635376ZM5.52247 5.6367H16.3972V1.02777H5.52247V5.6367ZM172.224 8.66238H166.102L160.121 15.1008V0.5H155.442V25.9723H160.121V21.3985L162.056 19.3579L166.63 25.9723H172.365L165.293 15.9452L172.224 8.66238ZM5.52577 25.9723V16.2619H15.201V11.7937H5.52253V16.2847H0.635376V25.9723H5.52577ZM28.6881 8.59205C28.3362 8.55683 27.9844 8.52167 27.5974 8.52167C26.1197 8.52167 23.7273 8.94384 22.6718 11.2307V8.66238H18.1333V25.9723H22.8125V18.0562C22.8125 14.3268 24.8883 13.1658 27.2808 13.1658C27.7029 13.1658 28.1603 13.201 28.6881 13.3065V8.59205ZM36.2693 26.4648C32.5752 26.4648 30.3235 23.9669 30.3235 21.2578C30.3235 18.1617 32.6104 16.4377 35.4953 16.0156L39.7525 15.3823C40.7376 15.2416 41.0542 14.749 41.0542 14.1509C41.0542 12.9195 40.1043 11.8992 38.1341 11.8992C36.0935 11.8992 34.9676 13.201 34.8269 14.7138L30.6753 13.8342C30.9568 11.1252 33.4547 8.13467 38.0989 8.13467C43.5874 8.13467 45.628 11.2307 45.628 14.7138V23.228C45.628 24.1428 45.7335 25.3741 45.839 25.9723H41.5467C41.4412 25.5149 41.3709 24.565 41.3709 23.8965C40.4913 25.2686 38.8377 26.4648 36.2693 26.4648ZM35.0028 20.9764C35.0028 21.9966 35.7416 22.9818 37.2545 22.9818C39.2247 22.9818 41.0542 22.0318 41.0542 18.9709V18.1969L37.149 18.795C35.9527 18.9709 35.0028 19.6394 35.0028 20.9764ZM53.1202 25.9723V15.8397C53.1202 13.9398 54.3166 12.427 56.3572 12.427C58.468 12.427 59.4178 13.8342 59.4178 15.699V25.9723H64.0619V15.8397C64.0619 13.975 65.2584 12.427 67.2636 12.427C69.4098 12.427 70.3243 13.8342 70.3243 15.699V25.9723H74.8633V14.749C74.8633 10.1049 71.8021 8.16983 68.6004 8.16983C66.3138 8.16983 64.4843 8.94384 63.1121 11.0548C62.2325 9.19015 60.3329 8.16983 57.9754 8.16983C56.0758 8.16983 53.8587 9.08461 52.9092 10.7733V8.66238H48.4409V25.9723H53.1202ZM102.82 19.7801L106.584 8.66238H111.51L115.239 19.8153L118.44 8.66238H123.085L117.666 25.9723H112.987L108.942 14.1509L104.966 25.9723H100.216L94.6925 8.66238H99.618L102.82 19.7801ZM132.032 22.2429C129.745 22.2429 127.634 20.5541 127.634 17.3174C127.634 14.0453 129.745 12.3917 132.032 12.3917C134.319 12.3917 136.43 14.0453 136.43 17.3174C136.43 20.5893 134.319 22.2429 132.032 22.2429ZM132.032 8.13467C126.86 8.13467 122.955 11.9696 122.955 17.3174C122.955 22.6299 126.86 26.5 132.032 26.5C137.204 26.5 141.109 22.6299 141.109 17.3174C141.109 11.9696 137.204 8.13467 132.032 8.13467ZM152.363 8.52167C152.75 8.52167 153.102 8.55683 153.454 8.59205V13.3065C152.926 13.201 152.469 13.1658 152.046 13.1658C149.654 13.1658 147.578 14.3268 147.578 18.0562V25.9723H142.899V8.66238H147.438V11.2307C148.493 8.94384 150.885 8.52167 152.363 8.52167Z" fill="white"/>
<path d="M81.7123 15.3468C81.8179 13.7636 83.1548 11.9341 85.5824 11.9341C88.2567 11.9341 89.3823 13.6229 89.4525 15.3468H81.7123ZM89.9103 19.8502C89.3475 21.3982 88.1511 22.4889 85.9694 22.4889C83.6474 22.4889 81.7123 20.8353 81.6067 18.5484H93.9916C93.9916 18.478 94.0618 17.7744 94.0618 17.1059C94.0618 11.5471 90.8601 8.13437 85.5122 8.13437C81.0793 8.13437 76.998 11.723 76.998 17.2467C76.998 23.087 81.1849 26.4997 85.9346 26.4997C90.1917 26.4997 92.9356 24.0017 93.8152 21.0112L89.9103 19.8502Z" fill="white"/>
</svg>
