<svg width="190" height="53" viewBox="0 0 190 53" fill="none" xmlns="http://www.w3.org/2000/svg">
<path d="M62.3027 23.124C61.6895 23.124 61.1014 22.8804 60.6678 22.4468C60.2342 22.0132 59.9906 21.4251 59.9906 20.8119C59.9906 20.1987 60.2342 19.6106 60.6678 19.177C61.1014 18.7434 61.6895 18.4998 62.3027 18.4998C62.6119 18.4871 62.9204 18.5373 63.2096 18.6472C63.4989 18.7571 63.7628 18.9245 63.9855 19.1393C64.2083 19.354 64.3851 19.6117 64.5055 19.8968C64.6258 20.1818 64.6872 20.4883 64.6858 20.7977C64.6851 21.1078 64.6226 21.4147 64.5018 21.7003C64.3811 21.986 64.2047 22.2447 63.9828 22.4613C63.7609 22.6779 63.498 22.8481 63.2095 22.9619C62.921 23.0757 62.6128 23.1308 62.3027 23.124V23.124Z" fill="white"/>
<path d="M170.152 37.4138C167.332 37.4138 165.168 34.7782 165.168 31.4079C165.144 30.489 165.305 29.5745 165.641 28.719C165.978 27.8636 166.483 27.0845 167.127 26.4281C167.77 25.7717 168.539 25.2515 169.388 24.8983C170.237 24.5452 171.148 24.3663 172.067 24.3723C172.913 24.3836 173.748 24.57 174.518 24.9198L174.612 24.9624V22.2105C174.612 20.9311 174.459 20.846 173.804 20.6899L173.605 20.6417L172.754 20.392L178.57 18.5026V34.0435C178.57 35.4364 178.754 35.7854 179.602 36.0293L180.119 36.1598L179.963 36.5258L174.618 37.4081V34.7896L174.499 34.94C173.267 36.4946 171.647 37.4138 170.152 37.4138ZM172.252 25.1156C170.34 25.1156 169.415 26.795 169.415 30.2533C169.415 33.2832 170.535 35.1641 172.337 35.1641C172.924 35.1581 173.486 34.9275 173.908 34.5196C174.331 34.1117 174.58 33.5575 174.606 32.9711V27.4788C174.609 25.6943 173.021 25.1156 172.252 25.1156Z" fill="white"/>
<path d="M58.8927 36.9967L58.9551 36.6421L59.8601 36.5003C60.0309 36.488 60.1906 36.411 60.3066 36.285C60.4226 36.159 60.4861 35.9935 60.4842 35.8222V28.2107C60.4842 26.7723 59.8261 26.4092 59.253 26.2532L58.9126 26.1681L64.4333 24.3723V35.8052C64.4283 35.9697 64.483 36.1304 64.5873 36.2577C64.6916 36.3849 64.8384 36.4701 65.0007 36.4974L65.9482 36.645L66.0106 36.9996L58.8927 36.9967Z" fill="white"/>
<path d="M120.472 43.7515L120.534 43.3969L121.439 43.2551C121.61 43.2428 121.77 43.1658 121.886 43.0398C122.002 42.9138 122.065 42.7483 122.063 42.577V28.3242C122.063 27.3568 121.629 26.5227 121.031 26.3383L120.463 26.1936L126.015 24.3638V26.9936L126.134 26.8433C127.357 25.2915 128.866 24.3638 130.361 24.3638C133.178 24.3723 135.113 27.2716 135.113 30.6391C135.113 35.13 131.68 37.4081 128.304 37.4081C127.541 37.4303 126.782 37.2851 126.08 36.9825L125.987 36.94V42.5685C125.985 42.7402 126.049 42.9061 126.165 43.0322C126.282 43.1583 126.442 43.235 126.614 43.2465L127.516 43.3884L127.578 43.743L120.472 43.7515ZM128.259 26.5511C127.671 26.5748 127.113 26.8166 126.693 27.2293C126.274 27.642 126.023 28.1962 125.99 28.7837V34.4804C125.993 35.0494 126.217 35.595 126.614 36.0024C127.011 36.4097 127.551 36.6472 128.12 36.6648C129.417 36.6648 131.076 35.6236 131.076 31.2093C131.068 28.1795 130.061 26.5511 128.259 26.5511Z" fill="white"/>
<path d="M91.3276 35.8251V28.9369C91.3251 28.6488 91.2652 28.364 91.1514 28.0992C91.0376 27.8345 90.8723 27.595 90.6649 27.3948C90.4576 27.1947 90.2125 27.0378 89.944 26.9333C89.6754 26.8289 89.3887 26.779 89.1006 26.7865C88.5561 26.8002 88.0377 27.0223 87.6523 27.4072C87.2669 27.7921 87.044 28.3102 87.0296 28.8547V35.8109C87.0282 35.9723 87.0847 36.1288 87.1888 36.2522C87.2929 36.3755 87.4377 36.4575 87.597 36.4832L88.5446 36.6308L88.607 36.9854H81.7359L81.7983 36.6308L82.499 36.4832C82.6569 36.4577 82.8006 36.377 82.9045 36.2554C83.0084 36.1338 83.0658 35.9793 83.0664 35.8194V22.0431C83.067 21.7258 82.9721 21.4157 82.794 21.1531C82.6159 20.8905 82.3628 20.6875 82.0678 20.5708L81.4493 20.3268L87.0693 18.4969V26.917L87.1913 26.7326C87.2084 26.7099 88.7942 24.3723 91.6028 24.3723C92.5727 24.3955 93.498 24.7847 94.1929 25.4617C94.8426 26.1397 95.2341 27.3341 95.2341 28.6504L95.2625 35.8279C95.2611 35.9893 95.3175 36.1458 95.4216 36.2692C95.5257 36.3925 95.6705 36.4745 95.8299 36.5003L96.7774 36.6478L96.8398 37.0024H89.9829L90.0453 36.6478L90.746 36.5003C90.9039 36.4747 91.0476 36.394 91.1515 36.2724C91.2554 36.1509 91.3128 35.9963 91.3134 35.8364" fill="white"/>
<path d="M43.8568 19.6743C43.8587 19.503 43.7951 19.3375 43.6792 19.2115C43.5632 19.0855 43.4035 19.0085 43.2327 18.9963L42.3277 18.8544L42.2653 18.4998H50.0726L50.0045 18.8544L49.0995 18.9963C48.9287 19.0085 48.769 19.0855 48.653 19.2115C48.537 19.3375 48.4735 19.503 48.4754 19.6743V35.6407C48.4754 36.3925 49.4598 36.279 49.4598 36.279C52.2741 36.279 54.0188 35.2236 55.9054 31.1129L56.2146 30.4377H57.0969L56.3082 36.9967H42.2653L42.3277 36.6421L43.2327 36.5003C43.4035 36.488 43.5632 36.411 43.6792 36.285C43.7951 36.159 43.8587 35.9935 43.8568 35.8222V19.6743V19.6743Z" fill="white"/>
<path d="M103.339 37.4138C102.388 37.4026 101.48 37.0163 100.812 36.3389C100.144 35.6615 99.7709 34.7479 99.7732 33.7967V26.5142H96.9873L98.7178 24.812H99.3051C99.3667 24.812 99.4277 24.7998 99.4845 24.7761C99.5413 24.7523 99.5928 24.7176 99.6361 24.6737C99.6794 24.6299 99.7135 24.578 99.7366 24.5209C99.7596 24.4638 99.7711 24.4027 99.7704 24.3411V22.829L103.458 21.6063V24.8177H106.999L105.379 26.5199H103.47V33.3541C103.47 35.1045 104.721 35.74 105.563 35.74C105.923 35.7365 106.278 35.6501 106.599 35.4875L106.647 35.4676L106.996 35.8733C105.989 36.7726 104.973 37.4138 103.339 37.4138Z" fill="white"/>
<path d="M141.542 29.5894L149.131 29.7058C149.159 29.4703 149.165 28.7185 149.153 28.4547C149.068 26.5369 147.735 24.3723 144.248 24.3723C140.308 24.3723 137.334 27.2575 137.334 31.181C137.334 34.7527 139.919 37.4223 143.349 37.4223C146.101 37.4223 148.033 36.1967 149.105 33.7087L148.821 33.4647C148.478 34.002 148.002 34.4418 147.44 34.7419C146.878 35.0421 146.247 35.1923 145.61 35.1783C143.153 35.1783 141.547 33.1924 141.519 30.1029C141.516 29.9315 141.524 29.76 141.542 29.5894V29.5894ZM141.542 28.6419C141.735 26.2503 142.56 25.1638 143.859 25.1638C144.037 25.1601 144.213 25.1929 144.377 25.2603C144.541 25.3277 144.689 25.4281 144.813 25.5553C145.352 26.1028 145.613 26.9738 145.587 28.6192V28.6845L141.539 28.7128L141.542 28.6419Z" fill="white"/>
<path d="M155.312 29.5894L162.901 29.7058C162.93 29.4703 162.935 28.7185 162.924 28.4547C162.839 26.5369 161.505 24.3723 158.019 24.3723C154.078 24.3723 151.105 27.2575 151.105 31.181C151.105 34.7527 153.69 37.4223 157.119 37.4223C159.871 37.4223 161.803 36.1967 162.876 33.7087L162.592 33.4647C162.249 34.0076 161.772 34.4525 161.206 34.7558C160.64 35.0591 160.005 35.2105 159.363 35.1953C156.907 35.1953 155.301 33.2094 155.273 30.12C155.275 29.9425 155.288 29.7653 155.312 29.5894V29.5894ZM155.312 28.6419C155.505 26.2503 156.331 25.1638 157.63 25.1638C157.807 25.1601 157.983 25.1929 158.147 25.2603C158.311 25.3277 158.46 25.4281 158.583 25.5553C159.122 26.1028 159.383 26.9738 159.358 28.6192V28.6845L155.309 28.7128L155.312 28.6419Z" fill="white"/>
<path d="M114.999 29.2036C113.322 28.5596 112.06 28.0688 112.06 26.8291C112.06 25.6943 112.852 25.0333 113.992 25.0333C114.554 25.0337 115.104 25.1888 115.584 25.4815L117.706 28.5625L118.432 28.5341L118.29 24.3723L116.923 24.8177C115.981 24.5279 115.002 24.3779 114.018 24.3723C111.002 24.3723 108.99 25.9638 108.99 28.449C108.99 30.7384 110.721 31.6065 112.846 32.4207C114.409 33.0364 115.864 33.4761 115.864 35.0534C115.864 35.9527 115.013 36.8322 113.629 36.8322C112.176 36.8322 111.422 36.1059 110.474 34.7102L109.697 33.0931L108.951 33.2747L108.687 36.5513C110.249 37.109 111.894 37.4005 113.552 37.4138C117.294 37.4138 118.999 35.4279 118.999 33.252C118.994 30.7952 116.925 29.9866 114.999 29.2036Z" fill="white"/>
<path d="M76.2576 34.6279H71.8178C71.5527 34.6083 71.3043 34.4909 71.1208 34.2985C70.9373 34.1061 70.8319 33.8525 70.8248 33.5867C70.8195 33.4454 70.8426 33.3044 70.8927 33.1722C70.9428 33.0399 71.0188 32.9191 71.1164 32.8167C71.214 32.7144 71.3311 32.6326 71.4609 32.5763C71.5906 32.52 71.7303 32.4902 71.8717 32.4888C71.9321 32.4843 71.9928 32.4843 72.0533 32.4888C72.4754 32.5655 72.9037 32.6026 73.3327 32.5995C76.703 32.5995 78.9868 30.8434 78.9868 28.3667C78.9868 27.6291 78.8648 27.0929 78.4477 26.6248L79.9939 25.2063L79.6194 24.1141L76.9754 25.2035C75.9106 24.6523 74.7275 24.3689 73.5285 24.378C70.2433 24.378 68.0134 26.4887 68.0134 28.7157C68.0134 30.6363 69.1 31.6973 70.6887 32.2533V32.2817C69.0461 32.7555 67.5425 33.8704 67.5425 35.374C67.5425 36.7102 68.8787 37.9074 70.5241 38.1031C68.8532 38.7443 67.2106 39.4961 67.2106 40.9713C67.2106 42.838 68.9922 43.7572 72.6008 43.7572C77.1966 43.7572 80.4563 41.2039 80.4563 38.2138C80.462 35.9783 78.7371 34.6279 76.2576 34.6279ZM72.2093 25.9468C72.332 25.7105 72.5173 25.5125 72.745 25.3744C72.9726 25.2363 73.2338 25.1635 73.5001 25.1638C74.5469 25.1638 75.2023 26.0574 75.2023 28.5993C75.2023 31.1413 74.7115 32.0037 73.5001 32.0037C72.476 32.0037 71.8859 30.9909 71.8859 28.5681C71.883 27.3823 71.9483 26.4972 72.2093 25.9468V25.9468ZM72.9696 42.7983C71.2163 42.7983 70.1865 41.7657 70.1865 40.2621C70.1865 39.1273 71.4234 38.1372 72.5469 38.1372H74.9186C76.9044 38.2762 77.8435 38.7046 77.8435 40.1231C77.8435 41.7032 75.2278 42.7983 72.9838 42.7983H72.9696Z" fill="white"/>
<path d="M28.3897 27.7483H19.1412V18.4998L9.88989 9.24847V18.4998V27.7483V36.9996H19.1412H28.3897H37.641L28.3897 27.7483Z" fill="white"/>
</svg>
