<svg width="160" height="30" viewBox="0 0 160 30" fill="none" xmlns="http://www.w3.org/2000/svg">
<path d="M14.9974 29.6751V8.55983H14.9L11.083 29.6751H8.28923L4.40726 8.55983H4.32605V29.6751H0.476562V0.324852H6.37261L9.62112 18.5977L13.0483 0.324852H18.7332V29.6751H14.9974Z" fill="white"/>
<path d="M32.5555 29.6751L31.5322 22.3173H26.6594L25.7011 29.6751H21.1532L26.026 0.324852H31.987L37.0709 29.6751H32.5555ZM27.2117 18.3053H31.0124L29.1608 4.85653H28.9496L27.2117 18.3053Z" fill="white"/>
<path d="M48.9123 29.6751L45.7613 17.2009H43.7959V29.6751H39.3455V0.324852H45.1928C50.3904 0.324852 53.0867 2.4039 53.0867 8.13752C53.0867 11.8083 51.771 14.0498 49.692 15.1543L53.6876 29.6751H48.9123ZM45.1765 13.4326C47.3855 13.4326 48.425 12.2469 48.425 8.65728C48.425 4.61288 46.8008 4.19058 44.738 4.19058H43.7634V13.4326H45.1765Z" fill="white"/>
<path d="M66.3081 29.6751L62.5073 15.7715L60.5095 20.092V29.7401H56.1727V0.324852H60.5095V12.6204L65.6584 0.324852H70.1576L65.4147 10.8663L70.6936 29.6751H66.3081Z" fill="white"/>
<path d="M92.0198 19.3286C91.8573 25.6632 90.2168 30 85.0679 30C79.0257 30 77.7426 24.4775 77.7426 14.9107C77.7426 6.78939 78.6846 0 84.9867 0C90.2493 0 91.6949 4.07689 91.8573 9.89172H87.683C87.5206 6.20466 86.7897 4.1581 85.1492 4.1581C83.0701 4.1581 82.4042 6.95181 82.4042 14.9107C82.4042 23.5842 83.0701 25.9556 85.1492 25.9556C86.9846 25.9556 87.683 23.503 87.8454 19.3286H92.0198Z" fill="white"/>
<path d="M104.071 0.324852H108.538V22.3985C108.538 27.5799 106.329 29.9188 101.7 29.9188C97.0708 29.9188 94.9268 27.5799 94.9268 22.3985V0.324852H99.3772V22.8045C99.3772 25.2572 100.238 26.0531 101.749 26.0531C103.259 26.0531 104.12 25.1922 104.12 22.8045L104.071 0.324852Z" fill="white"/>
<path d="M112.16 29.6751V0.324852H117.926C123.351 0.324852 126.048 2.32268 126.048 8.00757C126.155 9.26909 125.885 10.5341 125.272 11.6419C124.659 12.7496 123.73 13.6499 122.604 14.2285V14.3097C125.349 15.3655 126.421 17.8181 126.421 21.2128C126.421 27.8397 123.173 29.6751 117.829 29.6751H112.16ZM117.926 12.5393C120.493 12.5393 121.565 11.1586 121.565 8.29994C121.565 5.44125 120.249 4.41797 118.316 4.41797H116.53V12.5393H117.926ZM118.365 25.5333C120.736 25.5333 121.841 24.4288 121.841 20.9529C121.841 17.477 120.818 16.2913 118.089 16.2913H116.465V25.5333H118.365Z" fill="white"/>
<path d="M138.96 29.6751L137.937 22.3173H133.064L132.09 29.6751H127.542L132.414 0.324852H138.392L143.459 29.6751H138.96ZM133.616 18.3053H137.417L135.565 4.85653H135.403L133.616 18.3053Z" fill="white"/>
<path d="M155.836 29.6751L149.664 10.0541V29.6751H145.75V0.324852H150.622L155.641 16.8435V0.324852H159.523V29.6751H155.836Z" fill="white"/>
</svg>
