<svg width="154" height="20" viewBox="0 0 154 20" fill="none" xmlns="http://www.w3.org/2000/svg">
<path d="M147.94 2.72056V0.349998H153.405V19.6444H150.697V2.72056H147.94ZM130.47 2.72056V0.349998H135.936V19.6444H133.227V2.72056H130.47ZM102.389 19.6444V2.18026H103.529L114.844 15.2343V2.18026H117.013V19.6444H115.907L104.558 6.59044V19.6444H102.389ZM78.2935 19.6444V2.18026H92.0091V4.19244H80.4564V9.31369H87.4464V11.3258H80.4564V17.6434H92.7192V19.65H78.2935V19.6444ZM61.0168 19.6444H59.6572L51.2529 2.18026H53.6085L60.3397 16.177L67.0711 2.18026H69.4707L61.0168 19.6444ZM27.6356 19.6444L36.1832 2.18026H37.983L46.6241 19.6444H44.2684L41.9017 14.9477H32.2644L29.9584 19.6444H27.6356ZM33.2606 12.9025H40.9386L37.0859 5.16819L33.2606 12.9025ZM0.595093 19.6444V2.18026H2.59851L9.64899 12.8748L16.7325 2.18026H18.7084V19.6444H16.5729V6.00608L9.64899 16.3368L2.73061 6.00608V19.6444H0.595093Z" fill="white"/>
</svg>
