<svg width="160" height="41" viewBox="0 0 160 41" fill="none" xmlns="http://www.w3.org/2000/svg">
<g clip-path="url(#clip0_757_2653)">
<path fill-rule="evenodd" clip-rule="evenodd" d="M20.5 40.5C31.5457 40.5 40.5 31.5457 40.5 20.5C40.5 9.45431 31.5457 0.5 20.5 0.5C9.45431 0.5 0.5 9.45431 0.5 20.5C0.5 31.5457 9.45431 40.5 20.5 40.5ZM23.0764 13.3927L29.8095 9.4706L29.8094 17.6246C29.8094 19.718 28.6968 21.6538 26.8878 22.7075L20.743 26.2868V32.3492L14.0099 28.4271C12.2009 27.3734 11.0883 25.4377 11.0883 23.3442L11.0882 15.1902L17.8214 19.1123C18.8497 19.7113 19.653 20.5953 20.1548 21.6312V18.4756C20.1548 16.3821 21.2674 14.4464 23.0764 13.3927Z" fill="white"/>
</g>
<path d="M67.296 30H64.332L55.414 16.506V30H52.45V11.904H55.414L64.332 25.372V11.904H67.296V30ZM70.2003 22.772C70.2003 21.3333 70.4949 20.0593 71.0843 18.95C71.6909 17.8407 72.5056 16.9827 73.5283 16.376C74.5683 15.752 75.7123 15.44 76.9603 15.44C78.0869 15.44 79.0663 15.6653 79.8983 16.116C80.7476 16.5493 81.4236 17.0953 81.9263 17.754V15.674H84.9163V30H81.9263V27.868C81.4236 28.544 80.7389 29.1073 79.8723 29.558C79.0056 30.0087 78.0176 30.234 76.9083 30.234C75.6776 30.234 74.5509 29.922 73.5283 29.298C72.5056 28.6567 71.6909 27.7727 71.0843 26.646C70.4949 25.502 70.2003 24.2107 70.2003 22.772ZM81.9263 22.824C81.9263 21.836 81.7183 20.978 81.3023 20.25C80.9036 19.522 80.3749 18.9673 79.7163 18.586C79.0576 18.2047 78.3469 18.014 77.5843 18.014C76.8216 18.014 76.1109 18.2047 75.4523 18.586C74.7936 18.95 74.2563 19.496 73.8403 20.224C73.4416 20.9347 73.2423 21.784 73.2423 22.772C73.2423 23.76 73.4416 24.6267 73.8403 25.372C74.2563 26.1173 74.7936 26.6893 75.4523 27.088C76.1283 27.4693 76.8389 27.66 77.5843 27.66C78.3469 27.66 79.0576 27.4693 79.7163 27.088C80.3749 26.7067 80.9036 26.152 81.3023 25.424C81.7183 24.6787 81.9263 23.812 81.9263 22.824ZM94.0094 30.234C92.8827 30.234 91.8687 30.0347 90.9674 29.636C90.0834 29.22 89.3814 28.6653 88.8614 27.972C88.3414 27.2613 88.064 26.4727 88.0294 25.606H91.0974C91.1494 26.2127 91.4354 26.724 91.9554 27.14C92.4927 27.5387 93.16 27.738 93.9574 27.738C94.7894 27.738 95.4307 27.582 95.8814 27.27C96.3494 26.9407 96.5834 26.5247 96.5834 26.022C96.5834 25.4847 96.3234 25.086 95.8034 24.826C95.3007 24.566 94.4947 24.28 93.3854 23.968C92.3107 23.6733 91.4354 23.3873 90.7594 23.11C90.0834 22.8327 89.494 22.408 88.9914 21.836C88.506 21.264 88.2634 20.51 88.2634 19.574C88.2634 18.8113 88.4887 18.118 88.9394 17.494C89.39 16.8527 90.0314 16.35 90.8634 15.986C91.7127 15.622 92.6834 15.44 93.7754 15.44C95.4047 15.44 96.7134 15.856 97.7014 16.688C98.7067 17.5027 99.244 18.6207 99.3134 20.042H96.3494C96.2974 19.4007 96.0374 18.8893 95.5694 18.508C95.1014 18.1267 94.4687 17.936 93.6714 17.936C92.8914 17.936 92.2934 18.0833 91.8774 18.378C91.4614 18.6727 91.2534 19.0627 91.2534 19.548C91.2534 19.9293 91.392 20.25 91.6694 20.51C91.9467 20.77 92.2847 20.978 92.6834 21.134C93.082 21.2727 93.6714 21.4547 94.4514 21.68C95.4914 21.9573 96.3407 22.2433 96.9994 22.538C97.6754 22.8153 98.256 23.2313 98.7414 23.786C99.2267 24.3407 99.478 25.0773 99.4954 25.996C99.4954 26.8107 99.27 27.5387 98.8194 28.18C98.3687 28.8213 97.7274 29.324 96.8954 29.688C96.0807 30.052 95.1187 30.234 94.0094 30.234ZM101.71 22.824C101.71 21.3507 102.005 20.0593 102.594 18.95C103.201 17.8233 104.033 16.9567 105.09 16.35C106.147 15.7433 107.361 15.44 108.73 15.44C110.463 15.44 111.893 15.856 113.02 16.688C114.164 17.5027 114.935 18.6727 115.334 20.198H112.136C111.876 19.4873 111.46 18.9327 110.888 18.534C110.316 18.1353 109.597 17.936 108.73 17.936C107.517 17.936 106.546 18.3693 105.818 19.236C105.107 20.0853 104.752 21.2813 104.752 22.824C104.752 24.3667 105.107 25.5713 105.818 26.438C106.546 27.3047 107.517 27.738 108.73 27.738C110.446 27.738 111.581 26.984 112.136 25.476H115.334C114.918 26.932 114.138 28.0933 112.994 28.96C111.85 29.8093 110.429 30.234 108.73 30.234C107.361 30.234 106.147 29.9307 105.09 29.324C104.033 28.7 103.201 27.8333 102.594 26.724C102.005 25.5973 101.71 24.2973 101.71 22.824ZM131.418 22.486C131.418 23.0233 131.383 23.5087 131.314 23.942H120.368C120.455 25.086 120.879 26.0047 121.642 26.698C122.405 27.3913 123.341 27.738 124.45 27.738C126.045 27.738 127.171 27.0707 127.83 25.736H131.028C130.595 27.0533 129.806 28.1367 128.662 28.986C127.535 29.818 126.131 30.234 124.45 30.234C123.081 30.234 121.85 29.9307 120.758 29.324C119.683 28.7 118.834 27.8333 118.21 26.724C117.603 25.5973 117.3 24.2973 117.3 22.824C117.3 21.3507 117.595 20.0593 118.184 18.95C118.791 17.8233 119.631 16.9567 120.706 16.35C121.798 15.7433 123.046 15.44 124.45 15.44C125.802 15.44 127.007 15.7347 128.064 16.324C129.121 16.9133 129.945 17.7453 130.534 18.82C131.123 19.8773 131.418 21.0993 131.418 22.486ZM128.324 21.55C128.307 20.458 127.917 19.5827 127.154 18.924C126.391 18.2653 125.447 17.936 124.32 17.936C123.297 17.936 122.422 18.2653 121.694 18.924C120.966 19.5653 120.533 20.4407 120.394 21.55H128.324ZM141.563 15.44C142.689 15.44 143.695 15.674 144.579 16.142C145.48 16.61 146.182 17.3033 146.685 18.222C147.187 19.1407 147.439 20.25 147.439 21.55V30H144.501V21.992C144.501 20.7093 144.18 19.73 143.539 19.054C142.897 18.3607 142.022 18.014 140.913 18.014C139.803 18.014 138.919 18.3607 138.261 19.054C137.619 19.73 137.299 20.7093 137.299 21.992V30H134.335V15.674H137.299V17.312C137.784 16.7227 138.399 16.2633 139.145 15.934C139.907 15.6047 140.713 15.44 141.563 15.44ZM154.678 18.092V26.022C154.678 26.5593 154.799 26.9493 155.042 27.192C155.302 27.4173 155.735 27.53 156.342 27.53H158.162V30H155.822C154.487 30 153.464 29.688 152.754 29.064C152.043 28.44 151.688 27.426 151.688 26.022V18.092H149.998V15.674H151.688V12.112H154.678V15.674H158.162V18.092H154.678Z" fill="white"/>
<defs>
<clipPath id="clip0_757_2653">
<rect width="40" height="40" fill="white" transform="translate(0.5 0.5)"/>
</clipPath>
</defs>
</svg>
