<svg width="39" height="40" viewBox="0 0 39 40" fill="none" xmlns="http://www.w3.org/2000/svg">
<rect width="38.9563" height="38.9563" rx="6.49271" transform="matrix(1 0 0 -1 -0.000976562 39.703)" fill="white"/>
<rect x="0.405794" y="-0.405794" width="38.1447" height="38.1447" rx="6.08692" transform="matrix(1 0 0 -1 -0.000976562 38.8914)" stroke="black" stroke-opacity="0.02" stroke-width="0.811589"/>
<path d="M25.3579 16.6367L29.1978 24.81C29.2162 24.8523 29.2215 24.8992 29.2132 24.9445C29.2048 24.9899 29.1831 25.0318 29.1508 25.0647L19.0495 34.8249C19.0334 34.8402 19.0131 34.8504 18.9911 34.854C18.9692 34.8577 18.9467 34.8548 18.9264 34.8457C18.9061 34.8366 18.889 34.8216 18.8773 34.8027C18.8655 34.7838 18.8597 34.7619 18.8604 34.7397V25.7732L25.2256 19.6286C25.2477 19.6083 25.265 19.5833 25.2764 19.5556C25.2878 19.5278 25.2931 19.4979 25.2918 19.4679L25.3104 16.6367C25.3104 16.6176 25.3507 16.6176 25.3579 16.6367Z" fill="#6000FF"/>
<path fill-rule="evenodd" clip-rule="evenodd" d="M18.8604 25.7711V34.7381C18.8598 34.7603 18.8656 34.7821 18.8774 34.8009C18.8892 34.8197 18.9064 34.8347 18.9266 34.8438C18.9469 34.8529 18.9693 34.8556 18.9912 34.8519C19.0131 34.8482 19.0334 34.8381 19.0495 34.8229L29.1503 25.0633C29.1827 25.0306 29.2046 24.9888 29.2131 24.9435C29.2216 24.8982 29.2161 24.8513 29.1977 24.809L25.2539 19.5962L18.8604 25.7711Z" fill="url(#paint0_linear_1746_49454)"/>
<path fill-rule="evenodd" clip-rule="evenodd" d="M25.3313 16.6118C25.3283 16.6117 25.3255 16.6123 25.3227 16.6134C25.3199 16.6144 25.3173 16.6161 25.3152 16.6181C25.313 16.6202 25.3115 16.6227 25.3104 16.6255C25.3092 16.6282 25.3085 16.6311 25.3086 16.634L25.2927 19.4653C25.2937 19.5118 25.2808 19.5579 25.2559 19.5972L29.2152 24.9407C29.223 24.8925 29.2163 24.8431 29.196 24.7987L25.3563 16.6255C25.3539 16.6216 25.3504 16.6181 25.3464 16.6159C25.3425 16.6136 25.3381 16.6124 25.3336 16.6123L25.3313 16.6118Z" fill="url(#paint1_linear_1746_49454)"/>
<path fill-rule="evenodd" clip-rule="evenodd" d="M29.2132 24.9376C29.2211 24.8896 29.2146 24.8403 29.1943 24.7961L28.9957 24.3712L25.4209 19.8202L29.2132 24.9376Z" fill="url(#paint2_linear_1746_49454)"/>
<path d="M16.2782 9.77434L14.4696 14.8901C14.4492 14.9488 14.4525 15.0131 14.4789 15.0694L16.163 18.3822L11.5283 21.0062C11.5006 21.0206 11.4685 21.0238 11.4385 21.015C11.4086 21.0063 11.3831 20.9862 11.3676 20.9592L10.3651 18.8731C10.347 18.8389 10.3392 18.8001 10.3426 18.7615C10.346 18.7229 10.3604 18.6861 10.3842 18.6556L16.2291 9.7454C16.2335 9.74024 16.2396 9.7368 16.2463 9.73568C16.253 9.73457 16.2599 9.73585 16.2658 9.7393C16.2716 9.74275 16.2761 9.74816 16.2783 9.75456C16.2806 9.76097 16.2806 9.76797 16.2782 9.77434V9.77434Z" fill="#6000FF"/>
<path fill-rule="evenodd" clip-rule="evenodd" d="M16.2504 9.73828C16.2471 9.73818 16.2437 9.7388 16.2406 9.74005C16.2375 9.74129 16.2347 9.74321 16.2324 9.7456L10.637 18.2748L10.6309 18.2862L14.4734 14.8898L14.4852 14.8555V14.8524L16.2788 9.77436C16.2801 9.77004 16.2805 9.76545 16.2797 9.76099C16.2789 9.75654 16.2769 9.75244 16.2741 9.74888C16.2713 9.74532 16.2678 9.7424 16.2637 9.74055C16.2595 9.73871 16.2549 9.73799 16.2504 9.73828V9.73828Z" fill="url(#paint3_linear_1746_49454)"/>
<path fill-rule="evenodd" clip-rule="evenodd" d="M10.3867 18.6572C10.3631 18.6877 10.3488 18.7243 10.3455 18.7627C10.3422 18.8011 10.3501 18.8397 10.3682 18.8737L11.3701 20.9604C11.3858 20.9874 11.4114 21.0072 11.4414 21.0159C11.4714 21.0245 11.5036 21.0213 11.5313 21.0068L16.1655 18.3832L14.4819 15.0703C14.4686 15.0424 14.4609 15.0124 14.4593 14.9815C14.4577 14.9507 14.4622 14.9198 14.4726 14.8907L10.3867 18.6572Z" fill="url(#paint4_linear_1746_49454)"/>
<path fill-rule="evenodd" clip-rule="evenodd" d="M18.8609 5.64007V13.5978C18.8597 13.6458 18.8432 13.6923 18.8138 13.7303L9.78169 25.9723C9.74916 26.0158 9.73405 26.0697 9.73931 26.1237C9.74456 26.1777 9.7699 26.2279 9.81021 26.2643L16.1465 32.3809C16.1592 32.3941 16.1751 32.4037 16.1926 32.4091C16.2102 32.4145 16.2288 32.4154 16.2468 32.4117C16.2647 32.4079 16.2814 32.3997 16.2953 32.3877C16.3092 32.3757 16.3199 32.3602 16.3262 32.343L23.2113 16.2312C23.2304 16.1762 23.2304 16.1162 23.2113 16.0612L18.9461 5.62291C18.9435 5.61482 18.9384 5.60799 18.9315 5.60298C18.9246 5.59797 18.9164 5.59518 18.9079 5.59516C18.8958 5.59502 18.884 5.59962 18.8752 5.60803C18.8664 5.61643 18.8613 5.62792 18.8609 5.64007Z" fill="url(#paint5_linear_1746_49454)"/>
<path fill-rule="evenodd" clip-rule="evenodd" d="M18.9049 5.59406C18.8925 5.59405 18.8806 5.59897 18.8718 5.60768C18.863 5.61639 18.8581 5.6281 18.858 5.64048L18.861 13.5982C18.8604 13.6206 18.8564 13.6427 18.8491 13.6638L23.1551 15.9314L18.9431 5.62282C18.9405 5.61462 18.9356 5.60757 18.9287 5.60238C18.9219 5.5972 18.9135 5.59431 18.9049 5.59406V5.59406ZM18.8486 13.6628L19.6708 14.1352L18.8486 13.6628Z" fill="url(#paint6_linear_1746_49454)"/>
<path fill-rule="evenodd" clip-rule="evenodd" d="M23.2259 16.1488C23.226 16.1207 23.2215 16.0927 23.2125 16.0661L23.1577 15.9319L18.8486 13.6643L19.6753 14.1361L23.2259 16.1488Z" fill="url(#paint7_linear_1746_49454)"/>
<path d="M10.6283 18.2893L10.3906 18.6511L14.4729 14.8897L10.6283 18.2893Z" fill="#B46CF3"/>
<defs>
<linearGradient id="paint0_linear_1746_49454" x1="24.5979" y1="28.4454" x2="19.0901" y2="27.1719" gradientUnits="userSpaceOnUse">
<stop stop-color="#6000FF"/>
<stop offset="0.651" stop-color="#4900C3"/>
<stop offset="1" stop-color="#320086"/>
</linearGradient>
<linearGradient id="paint1_linear_1746_49454" x1="25.4936" y1="15.8872" x2="29.5231" y2="19.2173" gradientUnits="userSpaceOnUse">
<stop stop-color="#6A0AFF"/>
<stop offset="0.047" stop-color="#892AFF"/>
<stop offset="0.102" stop-color="#6A0AFF"/>
<stop offset="0.902" stop-color="#A94AFF"/>
<stop offset="1" stop-color="#A94AFF"/>
</linearGradient>
<linearGradient id="paint2_linear_1746_49454" x1="25.5575" y1="19.8355" x2="30.2367" y2="23.3754" gradientUnits="userSpaceOnUse">
<stop stop-color="#9335FE"/>
<stop offset="0.031" stop-color="#A954FE"/>
<stop offset="1" stop-color="#BF73FF"/>
</linearGradient>
<linearGradient id="paint3_linear_1746_49454" x1="16.6812" y1="10.2682" x2="8.97227" y2="15.4204" gradientUnits="userSpaceOnUse">
<stop stop-color="#6A0AFF"/>
<stop offset="0.51" stop-color="#8C2DFF"/>
<stop offset="0.969" stop-color="#AF50FF"/>
<stop offset="1" stop-color="#AF50FF"/>
</linearGradient>
<linearGradient id="paint4_linear_1746_49454" x1="12.9524" y1="16.7113" x2="13.5315" y2="19.7842" gradientUnits="userSpaceOnUse">
<stop stop-color="#6000FF"/>
<stop offset="1" stop-color="#3E00A5"/>
</linearGradient>
<linearGradient id="paint5_linear_1746_49454" x1="2.60346" y1="34.2644" x2="24.7369" y2="32.8293" gradientUnits="userSpaceOnUse">
<stop stop-color="#9838FF"/>
<stop offset="0.322" stop-color="#AF50FF"/>
<stop offset="1" stop-color="#6000FF"/>
</linearGradient>
<linearGradient id="paint6_linear_1746_49454" x1="18.3706" y1="8.42648" x2="25.4157" y2="11.2629" gradientUnits="userSpaceOnUse">
<stop stop-color="#6F0FFF"/>
<stop offset="0.702" stop-color="#A94AFF"/>
<stop offset="1" stop-color="#A94AFF"/>
</linearGradient>
<linearGradient id="paint7_linear_1746_49454" x1="18.9143" y1="13.6817" x2="21.0183" y2="17.2779" gradientUnits="userSpaceOnUse">
<stop stop-color="#AE60FF"/>
<stop offset="0.031" stop-color="#B669FF"/>
<stop offset="1" stop-color="#BF73FF"/>
</linearGradient>
</defs>
</svg>
