<svg width="39" height="40" viewBox="0 0 39 40" fill="none" xmlns="http://www.w3.org/2000/svg">
<rect width="38.9563" height="38.9563" rx="6.49271" transform="matrix(1 0 0 -1 -0.000976562 39.0529)" fill="white"/>
<rect x="0.405794" y="-0.405794" width="38.1447" height="38.1447" rx="6.08692" transform="matrix(1 0 0 -1 -0.000976562 38.2413)" stroke="black" stroke-opacity="0.02" stroke-width="0.811589"/>
<g clip-path="url(#clip0_1746_49392)">
<g clip-path="url(#clip1_1746_49392)">
<path d="M18.211 11.6518C17.7544 11.7736 17.3284 12.0171 17.0342 12.3417C16.811 12.575 10.5719 23.3083 9.99362 24.4445C9.74 24.9315 9.76029 25.8141 10.0342 26.3416C10.2878 26.8488 10.8356 27.3155 11.353 27.4778C11.7994 27.6097 23.7399 27.6401 23.7399 27.5083C23.7298 27.4677 23.3341 26.7474 22.8472 25.9155L21.9544 24.3938L17.9168 24.3634C14.1327 24.3431 13.8791 24.3329 13.9501 24.1605C14.0617 23.8663 18.6168 16.0243 18.6776 16.0243C18.7081 16.0243 20.2298 18.6214 22.0761 21.8069L25.4138 27.5793L27.3109 27.5894H29.208L28.8732 27.0112C28.6906 26.6865 26.7428 23.3184 24.5515 19.5243C22.3602 15.7301 20.4327 12.4837 20.2602 12.3011C19.7327 11.7432 18.8907 11.4794 18.211 11.6518Z" fill="#107DEF"/>
</g>
</g>
<defs>
<clipPath id="clip0_1746_49392">
<rect width="19.4781" height="19.4781" fill="white" transform="translate(9.73828 9.83569)"/>
</clipPath>
<clipPath id="clip1_1746_49392">
<rect width="19.4781" height="19.4781" fill="white" transform="translate(9.73926 9.83582)"/>
</clipPath>
</defs>
</svg>
