<svg width="40" height="40" viewBox="0 0 40 40" fill="none" xmlns="http://www.w3.org/2000/svg">
<rect width="38.9563" height="38.9563" rx="6.49271" transform="matrix(1 0 0 -1 0.000976562 39.3591)" fill="white"/>
<rect x="0.405794" y="-0.405794" width="38.1447" height="38.1447" rx="6.08692" transform="matrix(1 0 0 -1 0.000976562 38.5475)" stroke="black" stroke-opacity="0.02" stroke-width="0.811589"/>
<g clip-path="url(#clip0_1746_49355)">
<path d="M20.2797 24.7954C22.9955 24.7954 25.1971 22.5941 25.1971 19.8787C25.1971 17.1632 22.9955 14.9619 20.2797 14.9619C17.5639 14.9619 15.3623 17.1632 15.3623 19.8787C15.3623 22.5941 17.5639 24.7954 20.2797 24.7954Z" fill="#A46FFF"/>
<path d="M20.2797 24.7954C22.9955 24.7954 25.1971 22.5941 25.1971 19.8787C25.1971 17.1632 22.9955 14.9619 20.2797 14.9619C17.5639 14.9619 15.3623 17.1632 15.3623 19.8787C15.3623 22.5941 17.5639 24.7954 20.2797 24.7954Z" fill="url(#paint0_linear_1746_49355)"/>
<path d="M15.9755 24.1657C15.9378 24.1241 15.9014 24.0813 15.8651 24.0384C15.8105 23.9748 15.756 23.9111 15.704 23.8449C15.6676 23.7994 15.6339 23.754 15.5988 23.7072C15.591 23.6968 15.5845 23.6878 15.578 23.6773C15.5365 23.6215 15.4949 23.5643 15.4546 23.5072C15.4222 23.4592 15.3897 23.4112 15.3572 23.3631C15.3118 23.2929 15.2676 23.2228 15.226 23.1514C15.1975 23.102 15.1676 23.054 15.1403 23.0046C15.0974 22.928 15.0572 22.8501 15.0182 22.7722C14.9922 22.7189 14.9637 22.6683 14.939 22.6137C14.9299 22.5956 14.9221 22.5774 14.9143 22.5592C14.8663 22.454 14.8208 22.3488 14.7779 22.241C14.774 22.2293 14.7688 22.2177 14.7649 22.206C14.7234 22.0969 14.6831 21.9878 14.6468 21.8761C14.6442 21.8696 14.6416 21.8631 14.6403 21.8553C14.6299 21.8255 14.6234 21.7943 14.6143 21.7631C14.5896 21.6813 14.5649 21.5982 14.5428 21.5151C14.4 20.967 14.3311 20.4021 14.3389 19.8359C14.5299 19.758 14.687 19.6009 14.7584 19.3892C14.8883 19.0035 14.6805 18.5853 14.2948 18.4554C13.909 18.3256 13.4908 18.5334 13.3609 18.9191C13.2375 19.2853 13.4193 19.6814 13.7687 19.8307C13.7609 20.4255 13.8298 21.0177 13.974 21.593C13.974 21.5956 13.974 21.5969 13.9752 21.5995C13.9778 21.6099 13.9817 21.6202 13.9843 21.6319C14.0168 21.7605 14.0532 21.8891 14.0934 22.0164C14.0947 22.019 14.0947 22.0215 14.096 22.0242C14.1233 22.1099 14.1545 22.193 14.1857 22.2774C14.1999 22.3164 14.2129 22.3566 14.2285 22.3969C14.2337 22.4111 14.2402 22.4267 14.2454 22.441C14.2922 22.5592 14.3415 22.6748 14.3948 22.7904C14.4039 22.8112 14.413 22.8306 14.4234 22.8514C14.4337 22.8722 14.4428 22.8942 14.4519 22.915C14.4961 23.0072 14.5428 23.0968 14.5909 23.1864C14.6013 23.2059 14.6117 23.2241 14.6221 23.2436C14.6844 23.3553 14.7481 23.4657 14.8156 23.5748C14.8221 23.5865 14.8299 23.5968 14.8364 23.6085C14.9065 23.7189 14.978 23.8267 15.0546 23.9319C15.0585 23.9371 15.0624 23.9436 15.0663 23.9488C15.113 24.0124 15.1624 24.0747 15.2104 24.1371C15.2429 24.1773 15.2728 24.2202 15.3053 24.2605C15.317 24.2747 15.3286 24.289 15.3403 24.3046C15.4209 24.402 15.504 24.4981 15.591 24.5903C15.5988 24.5981 15.6053 24.6072 15.6131 24.6163C15.6157 24.6189 15.6183 24.6202 15.6209 24.6228C15.8027 24.8176 15.9962 24.9994 16.2002 25.1721C16.3495 25.0539 16.5002 24.9318 16.6548 24.8059C16.4106 24.6085 16.1846 24.3955 15.9755 24.1657Z" fill="url(#paint1_linear_1746_49355)"/>
<path d="M27.2057 19.9048C27.2161 19.0736 27.0745 18.2464 26.79 17.4633C26.7109 17.2451 26.6225 17.0308 26.5212 16.8204C26.3121 16.3867 26.0588 15.9789 25.7666 15.6023C25.4756 15.2257 25.1457 14.8815 24.7846 14.5737C24.634 14.6932 24.482 14.8166 24.3262 14.9425C24.4937 15.0802 24.6548 15.2257 24.8068 15.3802C24.8119 15.3854 24.8185 15.3893 24.8236 15.3945C25.0288 15.6036 25.2197 15.8282 25.3951 16.0633C25.6289 16.3776 25.8341 16.7126 26.0069 17.0685C26.1497 17.3632 26.2653 17.6684 26.3602 17.9788C26.5485 18.6009 26.6433 19.2477 26.6342 19.8983C26.4433 19.9762 26.2861 20.1333 26.2147 20.345C26.0848 20.7307 26.2926 21.1489 26.6784 21.2787C27.0642 21.4086 27.4823 21.2008 27.6122 20.8151C27.7356 20.4502 27.5538 20.0554 27.2057 19.9048Z" fill="url(#paint2_linear_1746_49355)"/>
<path opacity="0.9" fill-rule="evenodd" clip-rule="evenodd" d="M29.8088 10.553C29.3684 10.1127 28.7918 10.1153 28.4411 10.1673C28.0618 10.2231 27.6592 10.3738 27.267 10.5582C26.4734 10.9335 25.4966 11.5646 24.4238 12.3672C23.438 13.1049 22.3417 14.0087 21.1884 15.0386C21.9248 15.1762 22.6028 15.4762 23.1834 15.9022C23.5743 15.5632 23.9562 15.2425 24.3264 14.9412C24.4809 14.8152 24.6342 14.6918 24.7849 14.5723C25.0654 14.3503 25.3382 14.1386 25.6018 13.9412C26.5448 13.236 27.341 12.7217 27.9449 12.4153C27.7007 12.8958 27.3202 13.5074 26.8059 14.2282C26.4993 14.6581 26.1513 15.1178 25.7668 15.6022C26.0578 15.9788 26.3123 16.3866 26.5214 16.8203C26.6227 17.0307 26.711 17.245 26.7903 17.4632C27.402 16.7203 27.9462 16.0165 28.4073 15.371C29.0736 14.4373 29.5957 13.5841 29.8997 12.8802C30.0504 12.5334 30.1724 12.1659 30.2075 11.8127C30.2426 11.4737 30.2114 10.9556 29.8088 10.553ZM26.0071 17.0692C25.8356 16.7134 25.6291 16.3783 25.3953 16.0641C24.2549 17.4601 22.8353 19.0289 21.2287 20.6341C19.6207 22.2418 18.0491 23.6639 16.6515 24.8054C16.5224 24.9115 16.3943 25.0139 16.2678 25.115L16.1969 25.1716C15.7125 25.556 15.2527 25.904 14.8228 26.2105C14.1019 26.7248 13.4902 27.104 13.0096 27.3495C13.32 26.7391 13.8408 25.9339 14.5565 24.9794C14.7591 24.708 14.9773 24.4275 15.2072 24.1378C15.1926 24.1188 15.1777 24.1 15.1628 24.0811C15.1288 24.038 15.0947 23.9947 15.0631 23.9496C15.0618 23.9478 15.0605 23.946 15.0592 23.944C15.0585 23.943 15.0579 23.9421 15.0572 23.9411H15.0572C15.0553 23.9382 15.0533 23.9352 15.0514 23.9327C14.976 23.8275 14.9033 23.7197 14.8332 23.6093C14.8299 23.6035 14.8263 23.598 14.8228 23.5924H14.8227C14.8192 23.5869 14.8156 23.5814 14.8124 23.5756C14.7448 23.4677 14.6812 23.3574 14.6188 23.2444C14.6137 23.2347 14.6085 23.2252 14.6033 23.2158C14.5981 23.2064 14.5929 23.197 14.5877 23.1872C14.5396 23.0976 14.4929 23.008 14.4487 22.9158C14.4407 22.8999 14.4335 22.8831 14.4265 22.8668L14.4265 22.8668L14.4201 22.8522C14.4156 22.8418 14.4107 22.8317 14.4058 22.8217C14.401 22.8116 14.3961 22.8015 14.3915 22.7911C14.3383 22.6756 14.2889 22.56 14.2422 22.4418C14.2396 22.4347 14.2367 22.4272 14.2338 22.4198L14.2337 22.4197C14.2308 22.4123 14.2279 22.4048 14.2253 22.3977C14.2171 22.3771 14.21 22.3563 14.2028 22.3352C14.1963 22.3163 14.1898 22.2972 14.1824 22.2782C13.746 22.8067 13.3447 23.3158 12.9836 23.7976C12.1731 24.8781 11.5367 25.8599 11.1574 26.6586C10.9704 27.052 10.8184 27.4572 10.7613 27.8378C10.7093 28.1884 10.7041 28.7689 11.147 29.2104C11.5497 29.613 12.0679 29.6429 12.4069 29.6091C12.7602 29.5741 13.1278 29.452 13.4746 29.3014C14.1785 28.9975 15.0319 28.4741 15.9657 27.8092C17.8464 26.4676 20.209 24.4327 22.6197 22.0223C24.0121 20.6302 25.2784 19.2549 26.3591 17.977C26.2656 17.6679 26.1487 17.364 26.0071 17.0692ZM14.7655 22.2083C14.7226 22.0992 14.6836 21.9888 14.6473 21.8784C14.6447 21.8706 14.6421 21.8641 14.6395 21.8589C14.6349 21.8433 14.6307 21.8281 14.6265 21.8128C14.6223 21.7975 14.618 21.7823 14.6135 21.7667C14.8811 21.4498 15.1603 21.1278 15.4512 20.7992C15.5902 21.5343 15.8941 22.2122 16.3228 22.7914C16.063 23.0939 15.8149 23.39 15.5785 23.6796C15.537 23.6238 15.4954 23.568 15.4551 23.5095C15.4214 23.4615 15.3889 23.4134 15.3577 23.3654C15.3123 23.2966 15.2694 23.2251 15.2266 23.1538L15.2265 23.1537C15.2217 23.1456 15.2169 23.1375 15.212 23.1293C15.188 23.0891 15.1635 23.048 15.1408 23.007C15.098 22.9303 15.0577 22.8524 15.0187 22.7744C15.0079 22.7523 14.9966 22.7303 14.9853 22.7084C14.9696 22.6777 14.9539 22.6471 14.9395 22.616C14.9356 22.6069 14.9314 22.5979 14.9272 22.5888C14.9229 22.5796 14.9187 22.5706 14.9148 22.5615C14.8668 22.4563 14.8213 22.3511 14.7784 22.2433C14.7765 22.2375 14.7742 22.2317 14.772 22.2258C14.7697 22.22 14.7674 22.2141 14.7655 22.2083Z" fill="url(#paint3_linear_1746_49355)"/>
<path d="M21.4339 12.7423C21.0676 12.6189 20.6728 12.7994 20.5221 13.1488C19.6844 13.1384 18.8505 13.2812 18.0634 13.5708C17.8517 13.6487 17.6426 13.7345 17.4387 13.8332C16.9997 14.0448 16.588 14.302 16.2074 14.5981C15.8307 14.8903 15.4865 15.2214 15.1787 15.5851C15.2995 15.737 15.4229 15.8902 15.5502 16.0461C15.7879 15.7539 16.0502 15.4838 16.336 15.2383C16.3412 15.2331 16.3464 15.2279 16.3516 15.2227C16.4542 15.1357 16.5607 15.0513 16.6685 14.9708C16.9867 14.7331 17.327 14.524 17.6881 14.35C17.9764 14.2111 18.2751 14.0968 18.5791 14.0033C19.2077 13.8111 19.861 13.715 20.5182 13.7241C20.5962 13.915 20.7533 14.0721 20.965 14.1435C21.3508 14.2734 21.769 14.0656 21.8989 13.6799C22.0275 13.2916 21.8197 12.8734 21.4339 12.7423Z" fill="url(#paint4_linear_1746_49355)"/>
<path opacity="0.9" fill-rule="evenodd" clip-rule="evenodd" d="M16.2043 14.5997C16.5849 14.3036 16.9979 14.0478 17.4356 13.8348C17.6396 13.7361 17.8487 13.6504 18.0604 13.5725C17.3162 12.9595 16.6109 12.4141 15.9641 11.953C15.0315 11.2868 14.1782 10.7648 13.4742 10.4609C13.1274 10.3102 12.7598 10.1882 12.4065 10.1531C12.0675 10.1193 11.548 10.1505 11.1467 10.5518C10.7064 10.992 10.7089 11.5699 10.7609 11.9193C10.8168 12.2985 10.9674 12.7024 11.1519 13.0933C11.5272 13.8868 12.1585 14.8634 12.9611 15.936C13.6521 16.8594 14.4886 17.8801 15.4393 18.9542C15.5796 18.2191 15.8835 17.5412 16.3121 16.962C16.0446 16.6503 15.79 16.3451 15.5458 16.0477C15.4383 15.9161 15.3335 15.7853 15.2308 15.6571L15.1744 15.5867C14.9484 15.3023 14.7354 15.0257 14.5353 14.7595C13.8301 13.8166 13.3157 13.0205 13.0092 12.4167C13.4898 12.6608 14.1015 13.0413 14.8224 13.5556C15.2549 13.8621 15.7186 14.2127 16.2043 14.5997ZM30.2085 27.9495C30.1735 27.5962 30.0514 27.2287 29.9007 26.882C29.5967 26.1781 29.0733 25.3248 28.4083 24.3911C27.0666 22.5107 25.0313 20.1484 22.6207 17.7381C21.2283 16.3459 19.8541 15.081 18.5774 14.0005C18.2735 14.094 17.9747 14.2083 17.6864 14.3472C17.3253 14.5213 16.985 14.7303 16.6668 14.968C18.0605 16.1082 19.6269 17.525 21.2296 19.1276C22.8428 20.7406 24.2676 22.3159 25.4106 23.7158C25.5366 23.8704 25.6587 24.021 25.7768 24.1716C26.1574 24.6508 26.5029 25.1067 26.8068 25.5326C27.3212 26.2534 27.7004 26.8651 27.9459 27.3456C27.3354 27.0352 26.5302 26.5144 25.5756 25.7989C25.308 25.5976 25.03 25.3833 24.7443 25.1561C24.3702 25.4444 23.965 25.6963 23.535 25.9028C23.3207 26.0066 23.1026 26.0962 22.8804 26.1755C23.4078 26.6105 23.9143 27.0105 24.3962 27.3716C25.4768 28.1819 26.4588 28.8183 27.2575 29.1975C27.6511 29.3845 28.0563 29.5364 28.4369 29.5936C28.7876 29.6455 29.3682 29.6507 29.8097 29.2079C30.2111 28.8079 30.2423 28.2884 30.2085 27.9495ZM23.1728 23.8482C23.5521 24.1782 23.9223 24.4898 24.282 24.7833C23.9703 25.0145 23.6378 25.2184 23.2858 25.3872C22.9871 25.5313 22.678 25.6495 22.3637 25.7443C21.9766 25.4171 21.5804 25.0729 21.1778 24.7119C21.9129 24.5742 22.5909 24.2742 23.1728 23.8482Z" fill="url(#paint5_linear_1746_49355)"/>
<path d="M25.4106 23.7174C25.0794 24.1187 24.7001 24.4758 24.2819 24.7849C23.9701 25.0148 23.6377 25.2199 23.2857 25.39C22.987 25.5342 22.6779 25.6524 22.3635 25.7472C21.7453 25.9342 21.1023 26.0264 20.4555 26.0173C20.3775 25.8264 20.2204 25.6693 20.0087 25.5979C19.623 25.468 19.2047 25.6758 19.0748 26.0615C18.9449 26.4472 19.1527 26.8654 19.5385 26.9952C19.9048 27.1186 20.2996 26.9381 20.4503 26.5888C21.2777 26.5991 22.0999 26.4602 22.8791 26.1784C23.1013 26.0979 23.3208 26.0083 23.5337 25.9056C23.9637 25.6978 24.3689 25.4472 24.7429 25.1589C25.1209 24.868 25.4664 24.5381 25.7768 24.1745C25.6574 24.0225 25.5365 23.8719 25.4106 23.7174Z" fill="url(#paint6_linear_1746_49355)"/>
</g>
<defs>
<linearGradient id="paint0_linear_1746_49355" x1="25.3071" y1="32.7623" x2="35.2019" y2="12.6875" gradientUnits="userSpaceOnUse">
<stop stop-color="#040444"/>
<stop offset="0.3603" stop-color="#7303C0"/>
<stop offset="0.6687" stop-color="#EC38BC"/>
<stop offset="1" stop-color="#FDEFF9"/>
</linearGradient>
<linearGradient id="paint1_linear_1746_49355" x1="17.22" y1="25.5379" x2="18.8791" y2="21.2044" gradientUnits="userSpaceOnUse">
<stop stop-color="#01F9FF" stop-opacity="0.3"/>
<stop offset="0.276042" stop-color="#01F9FF"/>
<stop offset="1" stop-color="#01F9FF"/>
</linearGradient>
<linearGradient id="paint2_linear_1746_49355" x1="24.323" y1="13.915" x2="22.3712" y2="18.5669" gradientUnits="userSpaceOnUse">
<stop stop-color="#01F9FF" stop-opacity="0.3"/>
<stop offset="0.276042" stop-color="#01F9FF"/>
<stop offset="1" stop-color="#01F9FF"/>
</linearGradient>
<linearGradient id="paint3_linear_1746_49355" x1="22.9247" y1="21.2475" x2="17.7938" y2="16.3922" gradientUnits="userSpaceOnUse">
<stop stop-color="#2580FF"/>
<stop offset="0.529834" stop-color="#7406FF"/>
<stop offset="1" stop-color="#FF06FE"/>
</linearGradient>
<linearGradient id="paint4_linear_1746_49355" x1="15.1043" y1="15.362" x2="21.8818" y2="13.1596" gradientUnits="userSpaceOnUse">
<stop stop-color="#01F9FF" stop-opacity="0.3"/>
<stop offset="0.276042" stop-color="#01F9FF"/>
<stop offset="1" stop-color="#01F9FF"/>
</linearGradient>
<linearGradient id="paint5_linear_1746_49355" x1="23.1548" y1="18.4439" x2="16.5204" y2="24.2102" gradientUnits="userSpaceOnUse">
<stop stop-color="#2580FF"/>
<stop offset="0.529834" stop-color="#7406FF"/>
<stop offset="1" stop-color="#FF06FE"/>
</linearGradient>
<linearGradient id="paint6_linear_1746_49355" x1="26.0387" y1="23.7104" x2="19.89" y2="26.3593" gradientUnits="userSpaceOnUse">
<stop stop-color="#01F9FF" stop-opacity="0.3"/>
<stop offset="0.276042" stop-color="#01F9FF"/>
<stop offset="1" stop-color="#01F9FF"/>
</linearGradient>
<clipPath id="clip0_1746_49355">
<rect width="19.48" height="19.48" fill="white" transform="translate(10.7383 10.1411)"/>
</clipPath>
</defs>
</svg>
