<svg width="27" height="9" viewBox="0 0 27 9" fill="none" xmlns="http://www.w3.org/2000/svg">
<path d="M2.66339 7.26662C4.13481 7.26662 5.32734 6.02797 5.32734 4.50026C5.32734 2.97254 4.13454 1.73389 2.66339 1.73389C1.19583 1.73389 0.00606604 2.96623 0 4.48882V4.512C0.00606604 6.03428 1.19583 7.26662 2.66339 7.26662Z" fill="#ED1E7F"/>
<path d="M24.3358 7.26565C25.8071 7.26565 26.9998 6.02712 26.9998 4.49928C26.9998 2.97144 25.8071 1.73291 24.3358 1.73291C22.8646 1.73291 21.6719 2.97144 21.6719 4.49928C21.6719 6.02712 22.8646 7.26565 24.3358 7.26565Z" fill="#4CB85D"/>
<path d="M10.5232 9C11.3169 9 12.0533 8.7458 12.6638 8.31369V8.93528H14.3342V5.06391C14.3342 5.05562 14.335 5.04759 14.335 5.0393V3.95835C14.335 2.732 15.2955 1.73462 16.4764 1.73462C17.6598 1.73462 18.6178 2.732 18.6178 3.95835V8.93528H20.2904V3.95835C20.2904 1.77295 18.5834 0 16.4764 0C15.6824 0 14.9452 0.254382 14.3345 0.686862V0.0637959H12.6641V5.05476C12.656 6.27622 11.6995 7.26303 10.5235 7.26303C9.34031 7.26303 8.38207 6.26825 8.38207 5.0393V0.0646613H6.70947V5.0393C6.70918 7.2273 8.41624 9 10.5232 9Z" fill="#1D2939"/>
</svg>
