<svg width="22" height="22" viewBox="0 0 22 22" fill="none" xmlns="http://www.w3.org/2000/svg">
<path d="M11 21.9277C17.0751 21.9277 22 17.019 22 10.9638C22 4.90867 17.0751 0 11 0C4.92486 0 0 4.90867 0 10.9638C0 17.019 4.92486 21.9277 11 21.9277Z" fill="url(#paint0_radial_109_15550)"/>
<path d="M5.40504 5.38668C7.78139 3.01817 11.2692 2.48334 14.1437 3.744L12.649 5.23384C10.6176 4.66084 8.35629 5.15747 6.78486 6.7619C4.67686 8.86301 4.48519 12.1101 6.17161 14.4404L8.43293 12.1865L9.81275 13.5618L6.13327 17.1909C5.86501 16.9999 5.63505 16.7707 5.40504 16.5415C2.30053 13.4472 2.30053 8.44279 5.40504 5.38668Z" fill="white"/>
<path d="M7.81934 18.183C10.7322 19.4437 14.22 18.8706 16.558 16.5403C19.6626 13.446 19.6626 8.47983 16.558 5.38551C16.3281 5.1563 16.0981 4.92709 15.8298 4.73608L12.1887 8.36521L13.5685 9.74047L15.8298 7.48657C17.5162 9.81685 17.2862 13.1022 15.2165 15.1651C13.6068 16.7695 11.3454 17.2662 9.35243 16.6931L7.81934 18.183Z" fill="white"/>
<path d="M12.3812 10.9641L11.0014 9.58887L9.62158 10.9641L11.0014 12.3394L12.3812 10.9641Z" fill="white"/>
<path d="M8.39446 6.9917L9.77424 8.36696L8.39446 9.74223L7.01465 8.36696L8.39446 6.9917Z" fill="white"/>
<path d="M14.9862 13.5623L13.6064 12.187L12.2266 13.5623L13.6064 14.9375L14.9862 13.5623Z" fill="white"/>
<defs>
<radialGradient id="paint0_radial_109_15550" cx="0" cy="0" r="1" gradientUnits="userSpaceOnUse" gradientTransform="translate(10.9931 10.958) rotate(90) scale(10.9585 10.9946)">
<stop stop-color="#304FFE"/>
<stop offset="1" stop-color="#3D5AFE"/>
</radialGradient>
</defs>
</svg>
