<svg width="37" height="37" viewBox="0 0 37 37" fill="none" xmlns="http://www.w3.org/2000/svg">
<rect width="36.5512" height="36.5512" rx="6.09186" transform="matrix(1 0 0 -1 0.41748 36.6428)" fill="white"/>
<rect x="0.380741" y="-0.380741" width="35.7897" height="35.7897" rx="5.71112" transform="matrix(1 0 0 -1 0.41748 35.8813)" stroke="black" stroke-opacity="0.02" stroke-width="0.761483"/>
<g clip-path="url(#clip0_109_15275)">
<path d="M27.8504 9.18579L20.0703 14.9425L21.5171 11.5499L27.8504 9.18579Z" fill="#E17726" stroke="#E17726" stroke-width="0.244348" stroke-linecap="round" stroke-linejoin="round"/>
<path d="M9.9043 9.18579L17.6151 14.9962L16.2376 11.5499L9.9043 9.18579Z" fill="#E27625" stroke="#E27625" stroke-width="0.244348" stroke-linecap="round" stroke-linejoin="round"/>
<path d="M25.0486 22.5339L22.9785 25.6963L27.4111 26.9167L28.6808 22.603L25.0486 22.5339Z" fill="#E27625" stroke="#E27625" stroke-width="0.244348" stroke-linecap="round" stroke-linejoin="round"/>
<path d="M9.08105 22.603L10.3431 26.9167L14.768 25.6963L12.7056 22.5339L9.08105 22.603Z" fill="#E27625" stroke="#E27625" stroke-width="0.244348" stroke-linecap="round" stroke-linejoin="round"/>
<path d="M14.5291 17.1913L13.2979 19.0488L17.6843 19.2483L17.538 14.5278L14.5291 17.1913Z" fill="#E27625" stroke="#E27625" stroke-width="0.244348" stroke-linecap="round" stroke-linejoin="round"/>
<path d="M23.2254 17.1915L20.1703 14.4744L20.0703 19.2486L24.4567 19.049L23.2254 17.1915Z" fill="#E27625" stroke="#E27625" stroke-width="0.244348" stroke-linecap="round" stroke-linejoin="round"/>
<path d="M14.7676 25.6961L17.4225 24.4143L15.137 22.6335L14.7676 25.6961Z" fill="#E27625" stroke="#E27625" stroke-width="0.244348" stroke-linecap="round" stroke-linejoin="round"/>
<path d="M20.3315 24.4143L22.9787 25.6961L22.6171 22.6335L20.3315 24.4143Z" fill="#E27625" stroke="#E27625" stroke-width="0.244348" stroke-linecap="round" stroke-linejoin="round"/>
<path d="M22.9788 25.6959L20.3315 24.4141L20.547 26.1334L20.5239 26.8626L22.9788 25.6959Z" fill="#D5BFB2" stroke="#D5BFB2" stroke-width="0.244348" stroke-linecap="round" stroke-linejoin="round"/>
<path d="M14.7676 25.6959L17.2301 26.8626L17.2147 26.1334L17.4225 24.4141L14.7676 25.6959Z" fill="#D5BFB2" stroke="#D5BFB2" stroke-width="0.244348" stroke-linecap="round" stroke-linejoin="round"/>
<path d="M17.2766 21.4975L15.0757 20.8528L16.6302 20.1389L17.2766 21.4975Z" fill="#233447" stroke="#233447" stroke-width="0.244348" stroke-linecap="round" stroke-linejoin="round"/>
<path d="M20.4775 21.4975L21.124 20.1389L22.6861 20.8528L20.4775 21.4975Z" fill="#233447" stroke="#233447" stroke-width="0.244348" stroke-linecap="round" stroke-linejoin="round"/>
<path d="M14.768 25.6963L15.1527 22.5339L12.7056 22.6031L14.768 25.6963Z" fill="#CC6228" stroke="#CC6228" stroke-width="0.244348" stroke-linecap="round" stroke-linejoin="round"/>
<path d="M22.6016 22.5339L22.9787 25.6963L25.0487 22.6031L22.6016 22.5339Z" fill="#CC6228" stroke="#CC6228" stroke-width="0.244348" stroke-linecap="round" stroke-linejoin="round"/>
<path d="M24.4567 19.0488L20.0703 19.2484L20.4782 21.4973L21.1246 20.1388L22.6868 20.8526L24.4567 19.0488Z" fill="#CC6228" stroke="#CC6228" stroke-width="0.244348" stroke-linecap="round" stroke-linejoin="round"/>
<path d="M15.0755 20.8526L16.63 20.1388L17.2764 21.4973L17.6842 19.2484L13.2979 19.0488L15.0755 20.8526Z" fill="#CC6228" stroke="#CC6228" stroke-width="0.244348" stroke-linecap="round" stroke-linejoin="round"/>
<path d="M13.2979 19.0488L15.1371 22.6334L15.0755 20.8526L13.2979 19.0488Z" fill="#E27525" stroke="#E27525" stroke-width="0.244348" stroke-linecap="round" stroke-linejoin="round"/>
<path d="M22.6864 20.8526L22.6172 22.6334L24.4564 19.0488L22.6864 20.8526Z" fill="#E27525" stroke="#E27525" stroke-width="0.244348" stroke-linecap="round" stroke-linejoin="round"/>
<path d="M17.6843 19.2483L17.2764 21.4973L17.792 24.153L17.9074 20.6529L17.6843 19.2483Z" fill="#E27525" stroke="#E27525" stroke-width="0.244348" stroke-linecap="round" stroke-linejoin="round"/>
<path d="M20.069 19.2483L19.8535 20.6453L19.9613 24.153L20.4769 21.4973L20.069 19.2483Z" fill="#E27525" stroke="#E27525" stroke-width="0.244348" stroke-linecap="round" stroke-linejoin="round"/>
<path d="M20.478 21.4973L19.9624 24.153L20.3318 24.414L22.6174 22.6333L22.6866 20.8525L20.478 21.4973Z" fill="#F5841F" stroke="#F5841F" stroke-width="0.244348" stroke-linecap="round" stroke-linejoin="round"/>
<path d="M15.0757 20.8525L15.1373 22.6333L17.4228 24.414L17.7922 24.153L17.2766 21.4973L15.0757 20.8525Z" fill="#F5841F" stroke="#F5841F" stroke-width="0.244348" stroke-linecap="round" stroke-linejoin="round"/>
<path d="M20.5238 26.8625L20.5469 26.1333L20.3468 25.9644H17.4071L17.2147 26.1333L17.2301 26.8625L14.7676 25.6958L15.6295 26.4019L17.3763 27.607H20.3699L22.1244 26.4019L22.9786 25.6958L20.5238 26.8625Z" fill="#C0AC9D" stroke="#C0AC9D" stroke-width="0.244348" stroke-linecap="round" stroke-linejoin="round"/>
<path d="M20.3315 24.4141L19.9621 24.1531H17.792L17.4226 24.4141L17.2148 26.1334L17.4072 25.9645H20.3469L20.547 26.1334L20.3315 24.4141Z" fill="#161616" stroke="#161616" stroke-width="0.244348" stroke-linecap="round" stroke-linejoin="round"/>
<path d="M28.1808 15.3186L28.835 12.1409L27.8499 9.18579L20.3315 14.7506L23.225 17.1914L27.3112 18.3812L28.2116 17.3296L27.8191 17.0456L28.4425 16.4777L27.9654 16.1092L28.5887 15.6333L28.1808 15.3186Z" fill="#763E1A" stroke="#763E1A" stroke-width="0.244348" stroke-linecap="round" stroke-linejoin="round"/>
<path d="M8.91943 12.1409L9.58124 15.3186L9.15799 15.6333L9.78901 16.1092L9.3119 16.4777L9.93523 17.0456L9.54276 17.3296L10.4431 18.3812L14.5294 17.1914L17.4228 14.7506L9.90445 9.18579L8.91943 12.1409Z" fill="#763E1A" stroke="#763E1A" stroke-width="0.244348" stroke-linecap="round" stroke-linejoin="round"/>
<path d="M27.3114 18.3814L23.2251 17.1917L24.4564 19.0492L22.6172 22.6337L25.0489 22.603H28.6812L27.3114 18.3814Z" fill="#F5841F" stroke="#F5841F" stroke-width="0.244348" stroke-linecap="round" stroke-linejoin="round"/>
<path d="M14.5294 17.1917L10.4431 18.3814L9.08105 22.603H12.7056L15.1373 22.6337L13.2981 19.0492L14.5294 17.1917Z" fill="#F5841F" stroke="#F5841F" stroke-width="0.244348" stroke-linecap="round" stroke-linejoin="round"/>
<path d="M20.0696 19.2484L20.3312 14.7506L21.5163 11.5498H16.2373L17.4224 14.7506L17.684 19.2484L17.7841 20.6607L17.7918 24.1532H19.9619L19.9696 20.6607L20.0696 19.2484Z" fill="#F5841F" stroke="#F5841F" stroke-width="0.244348" stroke-linecap="round" stroke-linejoin="round"/>
</g>
<defs>
<clipPath id="clip0_109_15275">
<rect width="20.7325" height="19.5478" fill="white" transform="translate(8.32666 8.59351)"/>
</clipPath>
</defs>
</svg>
