<svg width="28" height="14" viewBox="0 0 28 14" fill="none" xmlns="http://www.w3.org/2000/svg">
<path fill-rule="evenodd" clip-rule="evenodd" d="M1.04491 8.97736C0.869879 8.50547 0.780752 8.00605 0.781747 7.50274C0.781747 6.88813 0.869607 6.32675 1.06223 5.80001C2.60655 1.60465 8.13334 0.270264 14.8539 0.270264C21.5735 0.270264 25.8196 2.13097 26.9081 5.08023C27.0831 5.55212 27.1723 6.05154 27.1713 6.55485C27.1713 7.16946 27.0834 7.73084 26.8904 8.25758C25.3465 12.4529 19.8197 13.7873 13.0992 13.7873C6.3795 13.7873 2.13303 11.9262 1.04491 8.97736ZM9.69456 8.18746C10.0452 9.13534 11.5371 9.92525 13.6251 9.92525C15.9238 9.92525 17.6958 9.24052 18.2399 7.78364C18.4156 7.34433 18.4329 7.08117 18.4329 6.78295C18.4329 6.51979 18.4329 6.29127 18.2576 5.87055C17.907 4.92225 16.4155 4.13234 14.3271 4.13234C12.0284 4.13234 10.2564 4.81707 9.7123 6.27395C9.537 6.71326 9.51926 6.97642 9.51926 7.27464C9.51926 7.5378 9.51926 7.76632 9.69498 8.18704L9.69456 8.18746ZM12.1107 7.52935C12.2598 7.93275 12.8943 8.26898 13.7835 8.26898C14.7622 8.26898 15.5166 7.97752 15.7481 7.35743C15.8229 7.1703 15.8305 7.05879 15.8305 6.93122C15.8305 6.81886 15.8305 6.72213 15.7557 6.5426C15.6066 6.1392 14.9717 5.80297 14.0825 5.80297C13.1038 5.80297 12.3494 6.09443 12.1183 6.71494C12.0603 6.84922 12.0322 6.99451 12.036 7.14073C12.036 7.25309 12.0364 7.34982 12.1107 7.52935Z" fill="#1D2939"/>
</svg>
