<svg width="39" height="40" viewBox="0 0 39 40" fill="none" xmlns="http://www.w3.org/2000/svg">
<rect width="38.9563" height="38.9563" rx="6.49271" transform="matrix(1 0 0 -1 0 39.0967)" fill="white"/>
<rect x="0.405794" y="-0.405794" width="38.1447" height="38.1447" rx="6.08692" transform="matrix(1 0 0 -1 0 38.2851)" stroke="black" stroke-opacity="0.02" stroke-width="0.811589"/>
<path d="M19.4778 9.87891C18.7152 9.87792 17.955 9.96571 17.2127 10.1405C15.0836 10.6505 13.1883 11.8626 11.8325 13.5816C10.4766 15.3005 9.73926 17.426 9.73926 19.6153C9.73926 21.8047 10.4766 23.9302 11.8325 25.6491C13.1883 27.3681 15.0836 28.5802 17.2127 29.0902C17.9542 29.2703 18.7147 29.3602 19.4778 29.3582C22.0609 29.3582 24.5382 28.332 26.3647 26.5055C28.1913 24.679 29.2174 22.2016 29.2174 19.6185C29.2174 17.0354 28.1913 14.5581 26.3647 12.7316C24.5382 10.9051 22.0609 9.87891 19.4778 9.87891ZM17.2127 28.9626V26.0914C15.4952 26.0914 13.848 25.4091 12.6335 24.1946C11.419 22.9801 10.7367 21.3329 10.7367 19.6153C10.7367 17.8978 11.419 16.2506 12.6335 15.0361C13.848 13.8216 15.4952 13.1393 17.2127 13.1393V10.2681C19.2318 10.8617 21.0043 12.0931 22.2652 13.778C23.5261 15.463 24.2075 17.5109 24.2075 19.6153C24.2075 21.7198 23.5261 23.7677 22.2652 25.4527C21.0043 27.1376 19.2318 28.369 17.2127 28.9626Z" fill="#34B6C4"/>
</svg>
