<svg width="39" height="40" viewBox="0 0 39 40" fill="none" xmlns="http://www.w3.org/2000/svg">
<rect width="38.9563" height="38.9563" rx="6.49271" transform="matrix(1 0 0 -1 -0.000976562 39.8779)" fill="white"/>
<rect x="0.405794" y="-0.405794" width="38.1447" height="38.1447" rx="6.08692" transform="matrix(1 0 0 -1 -0.000976562 39.0663)" stroke="black" stroke-opacity="0.02" stroke-width="0.811589"/>
<g clip-path="url(#clip0_1746_49435)">
<path fill-rule="evenodd" clip-rule="evenodd" d="M19.8833 33.1857C28.71 33.1857 32.6689 29.2267 32.6689 20.4C32.6689 11.5734 28.71 7.61438 19.8833 7.61438C11.0567 7.61438 7.09766 11.5734 7.09766 20.4C7.09766 29.2267 11.0567 33.1857 19.8833 33.1857ZM21.0363 13.0361H17.4794L16.8554 14.923H18.831V18.8975H21.0363V13.0361ZM23.9389 23.7077C23.9389 25.948 22.1228 27.7642 19.8825 27.7642C17.6421 27.7642 15.826 25.948 15.826 23.7077C15.826 21.4674 17.6421 19.6513 19.8825 19.6513C22.1228 19.6513 23.9389 21.4674 23.9389 23.7077ZM22.0973 23.7077C22.0973 24.931 21.1057 25.9226 19.8824 25.9226C18.6592 25.9226 17.6675 24.931 17.6675 23.7077C17.6675 22.4845 18.6592 21.4928 19.8824 21.4928C21.1057 21.4928 22.0973 22.4845 22.0973 23.7077Z" fill="#344054"/>
<path fill-rule="evenodd" clip-rule="evenodd" d="M19.8833 33.1857C28.71 33.1857 32.6689 29.2267 32.6689 20.4C32.6689 11.5734 28.71 7.61438 19.8833 7.61438C11.0567 7.61438 7.09766 11.5734 7.09766 20.4C7.09766 29.2267 11.0567 33.1857 19.8833 33.1857ZM21.0363 13.0361H17.4794L16.8554 14.923H18.831V18.8975H21.0363V13.0361ZM23.9389 23.7077C23.9389 25.948 22.1228 27.7642 19.8825 27.7642C17.6421 27.7642 15.826 25.948 15.826 23.7077C15.826 21.4674 17.6421 19.6513 19.8825 19.6513C22.1228 19.6513 23.9389 21.4674 23.9389 23.7077ZM22.0973 23.7077C22.0973 24.931 21.1057 25.9226 19.8824 25.9226C18.6592 25.9226 17.6675 24.931 17.6675 23.7077C17.6675 22.4845 18.6592 21.4928 19.8824 21.4928C21.1057 21.4928 22.0973 22.4845 22.0973 23.7077Z" fill="#16D629"/>
</g>
<defs>
<clipPath id="clip0_1746_49435">
<rect width="25.9708" height="25.9708" fill="white" transform="translate(6.89844 7.41443)"/>
</clipPath>
</defs>
</svg>
