<svg width="39" height="40" viewBox="0 0 39 40" fill="none" xmlns="http://www.w3.org/2000/svg">
<rect width="38.9563" height="38.9563" rx="6.49271" transform="matrix(1 0 0 -1 -0.000976562 39.3154)" fill="white"/>
<rect x="0.405794" y="-0.405794" width="38.1447" height="38.1447" rx="6.08692" transform="matrix(1 0 0 -1 -0.000976562 38.5038)" stroke="black" stroke-opacity="0.02" stroke-width="0.811589"/>
<path fill-rule="evenodd" clip-rule="evenodd" d="M14.8429 10.9852C16.0515 9.80133 17.9849 9.80132 19.1934 10.9852L22.0545 13.7879C23.2989 15.0068 23.2989 17.0102 22.0545 18.2291L17.0683 23.1136L20.6443 26.6166C21.3257 27.284 21.3369 28.3774 20.6695 29.0587C20.0021 29.7401 18.9087 29.7513 18.2274 29.0839L9.56408 20.5974C8.31978 19.3785 8.31978 17.3752 9.56408 16.1563L14.8429 10.9852ZM14.6005 20.6961L19.3857 16.0085L17.0181 13.6893L12.2329 18.3769L14.6005 20.6961Z" fill="#3CEAAA"/>
<path fill-rule="evenodd" clip-rule="evenodd" d="M22.0951 13.3536C23.3036 12.1697 25.2371 12.1697 26.4456 13.3536L29.3067 16.1563C30.551 17.3752 30.551 19.3786 29.3067 20.5975L20.6434 29.084C19.9621 29.7514 18.8687 29.7401 18.2013 29.0588C17.5339 28.3775 17.5451 27.2841 18.2265 26.6167L21.8025 23.1136L19.2339 20.5975C17.9897 19.3786 17.9897 17.3752 19.2339 16.1563L22.0951 13.3536ZM24.2703 20.6962L26.6379 18.3769L24.2703 16.0576L21.9028 18.3769L24.2703 20.6962Z" fill="#03BCE4"/>
<path opacity="0.95" d="M21.9039 18.3826L19.3889 15.9938L16.9766 18.3629L19.4319 20.8056L21.9039 18.3826Z" fill="#00A4E1"/>
</svg>
