<svg width="39" height="40" viewBox="0 0 39 40" fill="none" xmlns="http://www.w3.org/2000/svg">
<rect width="38.9563" height="38.9563" rx="6.49271" transform="matrix(1 0 0 -1 0 39.2717)" fill="white"/>
<rect x="0.405794" y="-0.405794" width="38.1447" height="38.1447" rx="6.08692" transform="matrix(1 0 0 -1 0 38.4601)" stroke="black" stroke-opacity="0.02" stroke-width="0.811589"/>
<path d="M9.73828 8.81238C9.73828 8.82472 10.9218 10.0179 12.3672 11.4609L14.9931 14.0878L17.3354 14.097L19.6777 14.1063L19.8934 14.1772C20.4944 14.3776 20.9937 14.8709 21.1755 15.4475C21.2649 15.728 21.2834 16.1165 21.2218 16.3878C21.0585 17.0846 20.4944 17.6612 19.801 17.8369C19.6407 17.877 18.9904 17.8832 14.6756 17.8832C10.3454 17.8832 9.7352 17.8894 9.74753 17.9294C9.75986 17.9541 12.4535 20.8585 15.7389 24.3856L21.7118 30.7987H25.4657C27.5275 30.8018 29.2164 30.7925 29.2164 30.7772C29.2164 30.7648 27.5491 28.9642 25.5088 26.7783L21.8012 22.801L22.0508 22.6991C23.2128 22.2305 24.2545 21.4412 25.0619 20.4269C25.6352 19.7023 26.1314 18.6941 26.3656 17.7629C26.831 15.9161 26.5505 13.9706 25.5858 12.3427C24.4362 10.4033 22.47 9.11146 20.2479 8.83397C19.915 8.79389 19.1784 8.78772 14.802 8.78772C12.0159 8.78772 9.73828 8.79697 9.73828 8.81238Z" fill="#BA2F2A"/>
<path d="M11.1796 26.9943C10.7728 27.0961 10.3598 27.3705 10.1163 27.6972C9.82047 28.0981 9.72492 28.4219 9.74342 28.9675C9.75574 29.282 9.77115 29.3683 9.84512 29.5534C10.0732 30.1176 10.4646 30.4968 11.0379 30.7034C11.232 30.7713 11.3122 30.7836 11.6327 30.7866C11.9316 30.7866 12.0426 30.7743 12.2183 30.7188C13.0257 30.463 13.562 29.7445 13.5682 28.9059C13.5712 28.5359 13.5281 28.3386 13.374 28.0117C13.1644 27.574 12.7638 27.2162 12.2953 27.0498C12.0087 26.9481 11.4662 26.9203 11.1796 26.9943Z" fill="#BA2F2A"/>
</svg>
