<svg width="26" height="20" viewBox="0 0 26 20" fill="none" xmlns="http://www.w3.org/2000/svg">
<path d="M24.6517 0.00436297C24.6517 0.00436297 12.8823 3.01532 11.143 3.51775C4.84109 5.3353 5.08891 10.5138 5.0908 10.5533C5.04265 11.6915 6.29443 11.1766 6.29443 11.1766L17.3136 8.29712C17.3136 8.29712 21.1631 7.29043 22.8902 5.52746C24.6175 3.76446 25.111 1.61429 25.0688 0.645453C25.0369 -0.0964825 24.6517 0.00436297 24.6517 0.00436297ZM0.490988 19.9952C0.490988 19.9952 12.2603 16.9842 13.9996 16.4817C20.3266 14.6575 20.0538 9.4478 20.0538 9.4478C20.102 8.30964 18.8502 8.82468 18.8502 8.82468L7.83107 11.7024C7.83107 11.7024 3.97947 12.709 2.25228 14.472C0.525089 16.235 0.0316052 18.3852 0.0737333 19.354C0.10583 20.0959 0.490988 19.9952 0.490988 19.9952Z" fill="black"/>
</svg>
