<svg width="39" height="40" viewBox="0 0 39 40" fill="none" xmlns="http://www.w3.org/2000/svg">
<rect width="38.9563" height="38.9563" rx="6.49271" transform="matrix(1 0 0 -1 0 39.5281)" fill="white"/>
<rect x="0.405794" y="-0.405794" width="38.1447" height="38.1447" rx="6.08692" transform="matrix(1 0 0 -1 0 38.7165)" stroke="black" stroke-opacity="0.02" stroke-width="0.811589"/>
<rect x="7.21777" y="10.8449" width="24" height="18.525" rx="5" fill="#FFCEAC"/>
<path d="M19.5492 27.77C17.6711 27.8408 16.7592 26.4561 15.2748 22.6619C14.7955 21.1695 15.9996 19.6408 17.7727 17.155C17.8642 17.0267 17.946 16.8891 18.0169 16.7482C19.6319 13.5368 20.6527 12.6211 22.5047 12.4423L25.6139 12.541C25.9024 12.5501 26.1892 12.5989 26.4608 12.6966C28.2727 13.3484 29.106 14.0844 29.3829 16.5461C29.7285 22.5319 30.1402 26.2396 26.6919 27.6149C26.4077 27.7283 26.101 27.77 25.7951 27.77H19.5492Z" fill="#FE3B9A"/>
<path d="M11.7128 22.5547H10.6823C10.1371 22.5547 9.54956 22.665 9.23245 23.1085C8.05765 24.7514 10.3798 27.6459 13.8562 27.6459C14.1456 27.6202 14.3724 27.5715 14.5551 27.4866C15.3272 27.1279 15.013 26.0048 14.5546 25.2875L13.3981 23.4777C13.0306 22.9026 12.3953 22.5547 11.7128 22.5547Z" fill="#FE3B9A"/>
<path d="M11.8274 12.7928C9.3302 13.719 8.90801 15.3052 8.91518 18.2833C8.91656 18.8555 9.08382 19.427 9.45195 19.865C11.6778 22.5136 13.3352 20.0571 15.9268 17.0188C16.1642 16.7405 16.3614 16.4244 16.4595 16.072C16.7913 14.8808 16.5994 14.0636 15.9112 12.9299C15.7256 12.624 15.379 12.457 15.022 12.4809L12.5477 12.6466C12.3024 12.6631 12.0579 12.7073 11.8274 12.7928Z" fill="#FE3B9A"/>
</svg>
