<svg width="20" height="20" viewBox="0 0 20 20" fill="none" xmlns="http://www.w3.org/2000/svg">
<g clip-path="url(#clip0_109_15420)">
<path d="M2.27399 15.0782L0.0615234 12.8678L2.77745 10.1546C3.67515 9.25773 4.83256 8.7756 6.01015 8.70624C5.69079 8.44931 5.28575 8.29457 4.84476 8.29457H1.00374V5.16864H4.84476C6.11431 5.16864 7.27394 5.64539 8.15572 6.42818C8.11178 6.02091 7.93483 5.62523 7.62306 5.31364L4.90714 2.60035L7.11951 0.390137L9.83543 3.10343C10.7331 4.00026 11.2157 5.15664 11.2852 6.33299C11.5424 6.01395 11.6972 5.60929 11.6972 5.16864V1.33144H14.8262V5.16874C14.8262 6.43706 14.3489 7.59566 13.5653 8.47644C13.973 8.43258 14.369 8.25586 14.6809 7.94425L17.3968 5.23096L19.6093 7.44127L16.8934 10.1546C15.9957 11.0514 14.8382 11.5334 13.6607 11.6028C13.98 11.8598 14.3852 12.0145 14.8262 12.0145H18.6671V15.1404H14.8262C13.5566 15.1404 12.3969 14.6636 11.5151 13.8808C11.5591 14.2882 11.736 14.6837 12.0478 14.9953L14.7638 17.7086L12.5513 19.9189L9.83519 17.2056C8.93764 16.3088 8.45504 15.1524 8.38568 13.976C8.12844 14.2951 7.97362 14.6998 7.97362 15.1404V18.9777H4.84467V15.1404C4.84467 13.8721 5.32188 12.7135 6.10533 11.8328C5.69766 11.8767 5.30169 12.0533 4.98981 12.3649L2.27399 15.0782Z" fill="#1D2939"/>
</g>
<defs>
<clipPath id="clip0_109_15420">
<rect width="19.5478" height="19.5478" fill="white" transform="translate(0.0615234 0.390137)"/>
</clipPath>
</defs>
</svg>
