<svg width="17" height="23" viewBox="0 0 17 23" fill="none" xmlns="http://www.w3.org/2000/svg">
<path d="M13.5989 1.88767C12.1126 0.667061 10.2488 -8.68409e-05 8.3256 1.56215e-05C6.3999 -0.00372318 4.5331 0.66377 3.04633 1.88767C1.98554 2.75646 1.15607 3.87413 0.631795 5.14112C0.10752 6.40812 -0.0952844 7.78511 0.0414431 9.14946C0.178171 10.5138 0.650186 11.8232 1.41545 12.9609C2.18072 14.0987 3.21548 15.0295 4.42757 15.6705C4.45753 15.7664 4.48749 15.8623 4.52345 15.9702C4.65485 16.3339 4.8342 16.6786 5.05677 16.9949C5.22589 17.2333 5.47629 17.4016 5.76087 17.4683C5.9165 17.5062 6.07808 17.513 6.23635 17.4884C6.39462 17.4637 6.54646 17.408 6.68315 17.3245C6.81984 17.2409 6.93869 17.1312 7.03287 17.0017C7.12706 16.8721 7.19473 16.7252 7.23199 16.5694C7.3163 16.192 7.35155 15.8053 7.33686 15.4188C7.32723 15.0476 7.28715 14.6779 7.21701 14.3132C7.1758 14.0677 7.07467 13.8362 6.92258 13.6392C6.77049 13.4421 6.57215 13.2857 6.34512 13.1836H6.29718C5.19219 12.7009 4.28522 11.8552 3.72646 10.7866C3.40036 10.1269 3.21744 9.40566 3.18971 8.67026C3.16199 7.93486 3.29008 7.20191 3.56559 6.51951C3.8411 5.83711 4.2578 5.22069 4.78833 4.71069C5.31887 4.20069 5.95125 3.80866 6.64397 3.5603C7.3367 3.31195 8.07411 3.2129 8.80782 3.26965C9.54153 3.3264 10.2549 3.53766 10.9012 3.88958C11.5475 4.2415 12.1121 4.72611 12.5579 5.31163C13.0037 5.89714 13.3207 6.5703 13.488 7.28695C13.748 8.47497 13.5903 9.71629 13.0416 10.8016C12.4839 11.8939 11.5769 12.7683 10.4649 13.2855H10.4439L10.3091 13.3514C10.2641 13.3754 10.2222 13.4023 10.1802 13.4293L10.0844 13.5042C10.0433 13.5378 10.0043 13.5739 9.9675 13.6121C9.8636 13.7157 9.77665 13.835 9.70983 13.9656L9.66788 14.0436L9.64691 14.0945L9.59298 14.2024C9.5694 14.261 9.54938 14.3211 9.53305 14.3821C9.49116 14.5519 9.45915 14.724 9.43718 14.8975C9.41021 15.1971 9.39823 15.4488 9.38924 15.7005L9.36827 17.1327C9.36827 17.5971 9.35328 18.0586 9.34729 18.517C9.33368 18.9962 9.21827 19.4671 9.00872 19.8983C8.86351 20.1818 8.79503 20.4983 8.81009 20.8165C8.82514 21.1346 8.92322 21.4433 9.09456 21.7118C9.2659 21.9803 9.50454 22.1993 9.78675 22.347C10.069 22.4946 10.3849 22.5659 10.7032 22.5536C11.0214 22.5413 11.331 22.4459 11.6009 22.2769C11.8709 22.1079 12.0919 21.8711 12.242 21.5902C12.3921 21.3093 12.4661 20.9939 12.4566 20.6756C12.447 20.3572 12.3543 20.0469 12.1877 19.7754C11.9466 19.3827 11.8038 18.9377 11.7712 18.478C11.7472 18.0406 11.7293 17.6061 11.7442 17.1777C11.7499 16.761 11.787 16.3453 11.8551 15.9342C11.8701 15.8443 11.888 15.7604 11.906 15.6795C13.4922 14.9388 14.7972 13.7062 15.6273 12.1649C16.5357 10.4829 16.83 8.53716 16.4599 6.66175C16.0898 4.78634 15.0782 3.09834 13.5989 1.88767Z" fill="#0D1F3F"/>
<path d="M10.4599 10.4634L8.34459 8.34799L6.2263 6.22963L6.05551 6.05884C5.47012 6.66989 5.14737 7.48596 5.15644 8.33214C5.1655 9.17831 5.50566 9.98727 6.10401 10.5856C6.70237 11.184 7.5113 11.5242 8.35745 11.5333C9.2036 11.5423 10.0196 11.2196 10.6307 10.6341L10.4599 10.4634Z" fill="#0D1F3F"/>
</svg>
