<svg width="22" height="20" viewBox="0 0 22 20" fill="none" xmlns="http://www.w3.org/2000/svg">
<path fill-rule="evenodd" clip-rule="evenodd" d="M6.3638 1.11974C7.57223 -0.0639991 9.50545 -0.0640036 10.7139 1.11974L13.5747 3.92222C14.8189 5.141 14.8189 7.14413 13.5747 8.36292L8.58896 13.247L12.1646 16.7497C12.8459 17.417 12.8572 18.5103 12.1898 19.1915C11.5224 19.8728 10.4292 19.8841 9.74793 19.2167L1.08548 10.731C-0.158701 9.51225 -0.158701 7.50917 1.08548 6.29039L6.3638 1.11974ZM6.12137 10.8297L10.9062 6.14259L8.53882 3.82356L3.75402 8.51071L6.12137 10.8297Z" fill="#344054"/>
<path fill-rule="evenodd" clip-rule="evenodd" d="M13.6152 3.4879C14.8236 2.30416 16.7568 2.30416 17.9653 3.4879L20.8261 6.29038C22.0703 7.50917 22.0703 9.5123 20.8261 10.7311L12.1636 19.2168C11.4824 19.8841 10.3891 19.8728 9.72178 19.1916C9.05439 18.5103 9.06566 17.4171 9.74692 16.7497L13.3227 13.247L10.7543 10.7311C9.51015 9.5123 9.51015 7.50917 10.7543 6.29038L13.6152 3.4879ZM15.7902 10.8298L18.1576 8.51071L15.7902 6.19168L13.4229 8.51071L15.7902 10.8298Z" fill="#344054"/>
<path opacity="0.95" d="M13.4239 8.51654L10.9091 6.12793L8.49707 8.49683L10.9522 10.9393L13.4239 8.51654Z" fill="#344054"/>
</svg>
